<?xml version="1.0" encoding="UTF-8" standalone="no"?>
<!-- Created with Inkscape (http://www.inkscape.org/) -->

<svg
   width="90"
   height="98"
   viewBox="0 0 23.812499 25.929163"
   version="1.1"
   id="svg2787"
   inkscape:version="1.2.2 (732a01da63, 2022-12-09)"
   sodipodi:docname="experimenten.svg"
   xmlns:inkscape="http://www.inkscape.org/namespaces/inkscape"
   xmlns:sodipodi="http://sodipodi.sourceforge.net/DTD/sodipodi-0.dtd"
   xmlns:xlink="http://www.w3.org/1999/xlink"
   xmlns="http://www.w3.org/2000/svg"
   xmlns:svg="http://www.w3.org/2000/svg">
  <sodipodi:namedview
     id="namedview2789"
     pagecolor="#ffffff"
     bordercolor="#000000"
     borderopacity="0.25"
     inkscape:showpageshadow="2"
     inkscape:pageopacity="0.0"
     inkscape:pagecheckerboard="0"
     inkscape:deskcolor="#d1d1d1"
     inkscape:document-units="mm"
     showgrid="false"
     inkscape:zoom="4.0000001"
     inkscape:cx="47.124999"
     inkscape:cy="56.499998"
     inkscape:window-width="1366"
     inkscape:window-height="705"
     inkscape:window-x="-8"
     inkscape:window-y="-8"
     inkscape:window-maximized="1"
     inkscape:current-layer="layer1"
     inkscape:lockguides="false" />
  <defs
     id="defs2784">
    <linearGradient
       inkscape:collect="always"
       xlink:href="#linearGradient29522"
       id="linearGradient31309"
       gradientUnits="userSpaceOnUse"
       gradientTransform="matrix(0.79324094,-0.60890789,0.79324094,0.60890789,4.892518,-8.867114)"
       x1="14.228266"
       y1="-29.189594"
       x2="3.6590269"
       y2="-18.620356" />
    <linearGradient
       inkscape:collect="always"
       id="linearGradient29522">
      <stop
         style="stop-color:#d4a125;stop-opacity:1;"
         offset="0"
         id="stop29518" />
      <stop
         style="stop-color:#edd495;stop-opacity:1;"
         offset="1"
         id="stop29520" />
    </linearGradient>
    <linearGradient
       inkscape:collect="always"
       xlink:href="#linearGradient29522"
       id="linearGradient31385"
       gradientUnits="userSpaceOnUse"
       gradientTransform="matrix(-0.79324094,-0.60890789,-0.79324094,0.60890789,5.1079993,-8.8671145)"
       x1="14.228266"
       y1="-29.189594"
       x2="3.6590269"
       y2="-18.620356" />
    <linearGradient
       inkscape:collect="always"
       xlink:href="#linearGradient29522"
       id="linearGradient29605"
       gradientUnits="userSpaceOnUse"
       gradientTransform="matrix(0.80013746,-0.61907549,0.80013746,0.61907549,17.509457,-0.36880917)"
       x1="14.228266"
       y1="-29.189594"
       x2="3.6590269"
       y2="-18.620356" />
    <linearGradient
       inkscape:collect="always"
       xlink:href="#linearGradient15170"
       id="linearGradient15172"
       x1="-15.648705"
       y1="17.281696"
       x2="2.0717561"
       y2="20.393126"
       gradientUnits="userSpaceOnUse" />
    <linearGradient
       inkscape:collect="always"
       id="linearGradient15170">
      <stop
         style="stop-color:#dccd9a;stop-opacity:1;"
         offset="0"
         id="stop15166" />
      <stop
         style="stop-color:#aa4400;stop-opacity:0.93767703;"
         offset="1"
         id="stop15168" />
    </linearGradient>
    <linearGradient
       inkscape:collect="always"
       xlink:href="#linearGradient17471"
       id="linearGradient17473"
       x1="-17.019377"
       y1="7.6721411"
       x2="3.4424262"
       y2="7.6721411"
       gradientUnits="userSpaceOnUse" />
    <linearGradient
       inkscape:collect="always"
       id="linearGradient17471">
      <stop
         style="stop-color:#fae8c9;stop-opacity:1;"
         offset="0"
         id="stop17467" />
      <stop
         style="stop-color:#dc8427;stop-opacity:1;"
         offset="1"
         id="stop17469" />
    </linearGradient>
    <linearGradient
       inkscape:collect="always"
       xlink:href="#linearGradient21349"
       id="linearGradient21351"
       x1="-15.673205"
       y1="6.8083696"
       x2="2.0962551"
       y2="6.8083696"
       gradientUnits="userSpaceOnUse" />
    <linearGradient
       inkscape:collect="always"
       id="linearGradient21349">
      <stop
         style="stop-color:#c38e66;stop-opacity:1;"
         offset="0"
         id="stop21345" />
      <stop
         style="stop-color:#8b5b37;stop-opacity:1;"
         offset="1"
         id="stop21347" />
    </linearGradient>
    <linearGradient
       inkscape:collect="always"
       xlink:href="#linearGradient16633"
       id="linearGradient16635"
       x1="-17.009029"
       y1="10.925782"
       x2="3.4320812"
       y2="10.925782"
       gradientUnits="userSpaceOnUse" />
    <linearGradient
       inkscape:collect="always"
       id="linearGradient16633">
      <stop
         style="stop-color:#d7b088;stop-opacity:1;"
         offset="0"
         id="stop16629" />
      <stop
         style="stop-color:#8c2d07;stop-opacity:1;"
         offset="1"
         id="stop16631" />
    </linearGradient>
    <radialGradient
       inkscape:collect="always"
       xlink:href="#linearGradient10799"
       id="radialGradient23030-7-7-2"
       cx="15.860661"
       cy="-2.6314101"
       fx="15.860661"
       fy="-2.6314101"
       r="1.8648378"
       gradientTransform="matrix(1.4097645,0.41133515,-1.0148915,1.3285268,-14.357295,7.9912225)"
       gradientUnits="userSpaceOnUse" />
    <linearGradient
       inkscape:collect="always"
       id="linearGradient10799">
      <stop
         style="stop-color:#ffe2e2;stop-opacity:1;"
         offset="0"
         id="stop10793" />
      <stop
         style="stop-color:#ffa174;stop-opacity:1;"
         offset="0.38810959"
         id="stop10795" />
      <stop
         style="stop-color:#ff2121;stop-opacity:1;"
         offset="0.79518074"
         id="stop10797" />
    </linearGradient>
    <radialGradient
       inkscape:collect="always"
       xlink:href="#linearGradient10799"
       id="radialGradient23030-7-7-2-0"
       cx="15.860661"
       cy="-2.6314101"
       fx="15.860661"
       fy="-2.6314101"
       r="1.8648378"
       gradientTransform="matrix(-1.4097645,0.41133515,1.0148915,1.3285268,39.894823,3.9279211)"
       gradientUnits="userSpaceOnUse" />
    <radialGradient
       inkscape:collect="always"
       xlink:href="#linearGradient10799"
       id="radialGradient23030-7-7-2-0-2"
       cx="15.860661"
       cy="-2.6314101"
       fx="15.860661"
       fy="-2.6314101"
       r="1.8648378"
       gradientTransform="matrix(1.2224993,0.36625614,-0.88007903,1.182931,-13.537772,3.53111)"
       gradientUnits="userSpaceOnUse" />
    <linearGradient
       inkscape:collect="always"
       xlink:href="#linearGradient42482"
       id="linearGradient42484"
       x1="8.2408409"
       y1="25.481987"
       x2="21.083717"
       y2="19.027426"
       gradientUnits="userSpaceOnUse"
       gradientTransform="matrix(0.77248102,-0.07770778,0,0.84372423,0.24934612,0.94109477)" />
    <linearGradient
       inkscape:collect="always"
       id="linearGradient42482">
      <stop
         style="stop-color:#c8b7b7;stop-opacity:1;"
         offset="0"
         id="stop42478" />
      <stop
         style="stop-color:#c5b3b3;stop-opacity:1;"
         offset="0.49390733"
         id="stop42488" />
      <stop
         style="stop-color:#ae9696;stop-opacity:1;"
         offset="0.55555558"
         id="stop42618" />
      <stop
         style="stop-color:#a18686;stop-opacity:1;"
         offset="0.63725489"
         id="stop42486" />
      <stop
         style="stop-color:#916f6f;stop-opacity:1;"
         offset="0.80882353"
         id="stop42492" />
      <stop
         style="stop-color:#916e6e;stop-opacity:1;"
         offset="1"
         id="stop42480" />
    </linearGradient>
  </defs>
  <g
     inkscape:label="Layer 1"
     inkscape:groupmode="layer"
     id="layer1">
    <g
       id="g117847"
       transform="translate(-85.682011,-18.429019)">
      <path
         id="rect29651"
         style="fill:#b89644;fill-opacity:1;fill-rule:evenodd;stroke-width:0.253198"
         d="m -35.605293,27.319225 c -0.492538,-1e-6 -0.984675,0.144973 -1.362085,0.434689 l -11.14712,8.556916 h 0.0022 V 52.7082 h 25.014637 V 36.31083 h 0.0022 L -34.24267,27.753914 c -0.377408,-0.289716 -0.870084,-0.43469 -1.362623,-0.434689 z" />
      <rect
         style="mix-blend-mode:multiply;fill:#ddd3d3;fill-opacity:1;fill-rule:evenodd;stroke-width:0.259054"
         id="rect31549-1"
         width="22.808271"
         height="19.408148"
         x="-46.973419"
         y="31.062712" />
      <rect
         style="fill:#ffffff;fill-rule:evenodd;stroke-width:0.264583"
         id="rect31549"
         width="22.101128"
         height="20.893148"
         x="-46.655563"
         y="31.252985" />
      <text
         xml:space="preserve"
         style="font-style:normal;font-weight:normal;font-size:15.5252px;line-height:1.25;font-family:sans-serif;fill:#000000;fill-opacity:1;stroke:none;stroke-width:0.24258"
         x="-31.271276"
         y="52.282772"
         id="text33454"
         transform="matrix(0.99810239,0.29980889,-0.22385307,0.93466048,0,0)"><tspan
           sodipodi:role="line"
           id="tspan33452"
           style="font-style:normal;font-variant:normal;font-weight:bold;font-stretch:normal;font-size:15.5252px;font-family:Amiri;-inkscape-font-specification:'Amiri Bold';fill:#ff2e2e;fill-opacity:1;stroke-width:0.24258"
           x="-31.271276"
           y="52.282772">@</tspan></text>
      <path
         id="path31562"
         style="mix-blend-mode:normal;fill:#c5a761;fill-opacity:1;stroke:#000000;stroke-width:0;stroke-linecap:butt;stroke-linejoin:miter;stroke-dasharray:none;stroke-opacity:1"
         d="m -24.548379,36.496118 -11.088147,7.974712 -11.019009,-7.924561 v 2.948302 l 9.953777,8.797419 h 1.995262 l -0.0031,-0.05016 h 0.207925 l 9.953265,-8.797952 z" />
      <g
         id="g31560"
         transform="matrix(1,0,0,0.99165096,-40.605258,66.988617)">
        <g
           id="g31553">
          <path
             id="rect29033-76-4"
             style="fill:url(#linearGradient31309);fill-opacity:1;fill-rule:evenodd;stroke-width:0.294987"
             d="m -7.50924,-30.936074 v 16.535425 c 0.452893,10e-7 0.905606,-0.13307 1.252636,-0.399458 l 10.250021,-7.868254 -10.250021,-7.868254 c -0.34703,-0.266388 -0.799743,-0.399459 -1.252636,-0.399459 z" />
          <path
             id="rect29033-76-4-0"
             style="fill:url(#linearGradient31385);fill-opacity:1;fill-rule:evenodd;stroke-width:0.294987"
             d="m 17.509757,-30.936074 v 16.535425 c -0.452893,10e-7 -0.905606,-0.13307 -1.252636,-0.399458 L 6.0071003,-22.668361 16.257121,-30.536615 c 0.34703,-0.266388 0.799743,-0.399459 1.252636,-0.399459 z" />
        </g>
        <path
           id="rect29033-76-0"
           style="fill:#b89644;fill-opacity:1;fill-rule:evenodd;stroke-width:0.319035"
           d="m 5.0002539,-23.668412 c -0.4725829,-1e-6 -0.9449721,0.149165 -1.3070895,0.447776 l -10.6955936,8.819987 H 17.002935 L 6.3073434,-23.220636 C 5.945226,-23.519247 5.4728368,-23.668413 5.0002539,-23.668412 Z" />
        <path
           id="rect29033-76"
           style="fill:url(#linearGradient29605);fill-opacity:1;fill-rule:evenodd;stroke-width:0.29873"
           d="m 5.0002391,-22.806416 c -0.4568329,-1e-6 -0.9134785,0.135291 -1.2635274,0.406128 l -10.3391353,7.999639 H 16.6029 L 6.2637665,-22.400288 c -0.3500489,-0.270837 -0.8066946,-0.406129 -1.2635274,-0.406128 z" />
      </g>
    </g>
    <g
       id="g21506"
       transform="matrix(0.75020578,0,0,0.7393226,-10.919314,-2.6058439)"
       style="stroke-width:0.99575">
      <path
         id="path14647-2-1-5"
         style="fill:url(#linearGradient15172);fill-opacity:1;fill-rule:evenodd;stroke:#44b2c8;stroke-width:0;stroke-dasharray:none;stroke-opacity:1"
         d="m -15.51758,10.997886 3.276602,10.091771 a 5.2561326,2.4758983 0 0 0 5.2565196,2.475848 5.2561326,2.4758983 0 0 0 5.2560479,-2.475848 l 3.664192,-10.091771 z" />
      <path
         id="path14647-5"
         style="fill:url(#linearGradient17473);fill-opacity:1;fill-rule:evenodd;stroke:#44b2c8;stroke-width:0;stroke-dasharray:none;stroke-opacity:1"
         d="m -6.7884745,4.3005124 a 10.230728,3.3714428 0 0 0 -10.2309005,3.3713704 10.230728,3.3714428 0 0 0 10.2309005,3.3718872 10.230728,3.3714428 0 0 0 10.2309,-3.3718872 10.230728,3.3714428 0 0 0 -10.2309,-3.3713704 z m 0.035657,0.8159709 A 8.8845978,2.4142406 0 0 1 2.1313944,7.5308062 8.8845978,2.4142406 0 0 1 -6.7528178,9.9451291 8.8845978,2.4142406 0 0 1 -15.637547,7.5308062 8.8845978,2.4142406 0 0 1 -6.7528175,5.1164833 Z" />
      <path
         id="path14647-9-6"
         style="fill:url(#linearGradient21351);fill-opacity:1;fill-rule:evenodd;stroke:#44b2c8;stroke-width:0;stroke-dasharray:none;stroke-opacity:1"
         d="m -6.7884745,5.1164833 a 8.8845978,2.4142406 0 0 0 -8.8847295,2.414323 8.8845978,2.4142406 0 0 0 0.751892,0.96945 9.5639706,3.3764713 0 0 1 8.3447109,-1.72961 9.5639706,3.3764713 0 0 1 8.1214681,1.593701 8.8845978,2.4142406 0 0 0 0.5513875,-0.833541 8.8845978,2.4142406 0 0 0 -8.884729,-2.414323 z" />
      <path
         id="path14647-9-3"
         style="fill:#362c25;fill-opacity:1;fill-rule:evenodd;stroke:#44b2c8;stroke-width:0;stroke-dasharray:none;stroke-opacity:1"
         d="M -6.6244389,6.7711635 A 9.6203053,3.3764709 0 0 0 -15.018303,8.5002563 8.9369308,2.4142403 0 0 0 -6.8375609,9.9451291 8.9369308,2.4142403 0 0 0 1.544867,8.3643473 9.6203053,3.3764709 0 0 0 -6.6244389,6.7711635 Z" />
      <path
         id="path14647-2-2"
         style="fill:url(#linearGradient16635);fill-opacity:1;fill-rule:evenodd;stroke:#44b2c8;stroke-width:0;stroke-dasharray:none;stroke-opacity:1"
         d="m -16.864087,8.2475586 0.511597,1.9001424 a 9.5639706,3.3764713 0 0 0 9.5637571,3.376021 9.5639706,3.3764713 0 0 0 9.5642741,-3.376021 L 3.2871379,8.2475586 A 10.230728,3.3714428 0 0 1 -6.7887329,11.04377 10.230728,3.3714428 0 0 1 -16.864087,8.2475586 Z" />
    </g>
    <path
       style="fill:#96be19;fill-opacity:1;stroke:#000000;stroke-width:0;stroke-linecap:butt;stroke-linejoin:miter;stroke-dasharray:none;stroke-opacity:1"
       d="m -16.257526,3.1726329 c 0,0 -1.534813,-3.35609978 -4.885501,-4.748149 -3.350686,-1.3920495 -6.638222,-0.7248258 -6.638222,-0.7248258 0,0 4.211734,4.9677758 11.523723,5.4729748 z"
       id="path21674" />
    <path
       style="fill:#96be19;fill-opacity:1;stroke:#000000;stroke-width:0;stroke-linecap:butt;stroke-linejoin:miter;stroke-dasharray:none;stroke-opacity:1"
       d="m -16.192197,3.2787969 c 1.528661,-1.591598 3.152167,-4.9352733 8.0048898,-3.77237368 3.35464,0.8039012 4.218557,1.97407868 4.218557,1.97407868 0,0 -3.261223,-0.55109968 -5.234363,0.339032 -1.9731428,0.890136 -6.9890838,1.459263 -6.9890838,1.459263 z"
       id="path21676"
       inkscape:transform-center-x="-5.7029181"
       inkscape:transform-center-y="-1.781061"
       sodipodi:nodetypes="cscsc" />
    <path
       style="fill:#96be19;fill-opacity:1;stroke:#000000;stroke-width:0;stroke-linecap:butt;stroke-linejoin:miter;stroke-dasharray:none;stroke-opacity:1"
       d="m -15.455231,3.4995509 c -0.214932,-2.90292948 -0.214932,-7.8883949 2.722477,-10.2233599 2.9374098,-2.3349648 6.3763278,-2.2718576 6.3763278,-2.2718576 0,0 -7.5942778,11.0437525 -9.0988048,12.4952175 z"
       id="path21680" />
    <path
       style="fill:#96be19;fill-opacity:1;stroke:#000000;stroke-width:0;stroke-linecap:butt;stroke-linejoin:miter;stroke-dasharray:none;stroke-opacity:1"
       d="m -16.011369,3.3668959 c 0.305416,-3.59710848 0.534477,-6.9417874 -3.206866,-9.5922881 -3.741344,-2.6505008 -6.871857,-2.2087504 -6.871857,-2.2087504 0,0 9.849661,10.2233605 10.078723,11.8010385 z"
       id="path21682" />
    <path
       style="fill:#96be19;fill-opacity:1;stroke:#000000;stroke-width:0;stroke-linecap:butt;stroke-linejoin:miter;stroke-dasharray:none;stroke-opacity:1"
       d="m -15.11729,3.1143129 c 2.584418,-1.647879 6.2330078,0.109859 7.2971798,1.757738 1.064172,1.647879 1.596258,2.307031 1.596258,2.307031 0,0 -6.6130688,-0.988727 -8.8934378,-4.064769 z"
       id="path21684" />
    <path
       style="fill:#96be19;fill-opacity:1;stroke:#000000;stroke-width:0;stroke-linecap:butt;stroke-linejoin:miter;stroke-dasharray:none;stroke-opacity:1"
       d="m -16.202097,3.3622899 c -2.400782,-1.073498 -7.113982,-0.769665 -9.002929,2.41537 -0.608487,1.025996 -0.933818,3.112395 -0.933818,3.112395 0,0 3.784745,-1.412691 5.285233,-2.217814 1.500488,-0.805123 4.651514,-3.309951 4.651514,-3.309951 z"
       id="path21686"
       sodipodi:nodetypes="cscsc" />
    <path
       style="fill:#96be19;fill-opacity:1;stroke:#000000;stroke-width:0;stroke-linecap:butt;stroke-linejoin:miter;stroke-dasharray:none;stroke-opacity:1"
       d="m -15.676926,2.6689859 c 2.025658,0.49183 1.72556,4.508445 0.375121,6.06591 -1.350438,1.5574621 -2.400781,1.4754911 -2.400781,1.4754911 0,0 -1.275414,-5.4101371 2.02566,-7.5414011 z"
       id="path21688" />
    <path
       style="fill:#96be19;fill-opacity:1;stroke:#000000;stroke-width:0;stroke-linecap:butt;stroke-linejoin:miter;stroke-dasharray:none;stroke-opacity:1"
       d="m -15.138395,0.38379342 c 0,0 0.900294,-2.64693082 1.677943,-4.40871232 1.097598,-2.4866426 5.3037258,-4.3116404 6.6066678,-4.6899817 -1.448783,1.8260611 -2.61742,3.0561687 -3.9228548,4.7562527 -1.102108,1.4352902 -4.361756,4.34244132 -4.361756,4.34244132 z"
       id="path24398-1"
       sodipodi:nodetypes="cscsc"
       inkscape:transform-center-x="-4.7823458"
       inkscape:transform-center-y="-5.2755759" />
    <path
       style="fill:#96be19;fill-opacity:1;stroke:#000000;stroke-width:0;stroke-linecap:butt;stroke-linejoin:miter;stroke-dasharray:none;stroke-opacity:1"
       d="m -16.612084,0.77482402 c 0,0 0.382408,-1.5702648 -0.33557,-3.33204602 -1.013375,-2.4866426 -7.150619,-5.2749734 -8.353582,-5.6533147 1.337614,1.8260612 3.238506,3.0901492 4.443771,4.7902332 1.017539,1.4352902 4.245381,4.19512752 4.245381,4.19512752 z"
       id="path24398-1-6"
       sodipodi:nodetypes="cscsc"
       inkscape:transform-center-x="4.4153809"
       inkscape:transform-center-y="-5.2755759" />
    <path
       style="fill:#96be19;fill-opacity:1;stroke:#000000;stroke-width:0;stroke-linecap:butt;stroke-linejoin:miter;stroke-dasharray:none;stroke-opacity:1"
       d="m -15.606821,1.4717069 c 0,0 2.553232,-0.87946008 4.324226,-1.37403828 2.4996478,-0.6980649 5.6984668,0.5199697 6.5345158,0.99177528 -2.524083,-0.096121 -4.219584,0.07258 -5.7810978,0.869094 -1.561513,0.79652 -5.077644,-0.486831 -5.077644,-0.486831 z"
       id="path24398"
       sodipodi:nodetypes="cscsc"
       inkscape:transform-center-x="-5.8170254"
       inkscape:transform-center-y="-0.365238" />
    <path
       style="fill:#96be19;fill-opacity:1;stroke:#000000;stroke-width:0;stroke-linecap:butt;stroke-linejoin:miter;stroke-dasharray:none;stroke-opacity:1"
       d="m -15.454849,2.8177039 c 0,0 1.683831,-0.262332 3.433582,0.177713 2.4696618,0.621094 4.8769688,3.179472 5.4437068,3.906994 -1.995009,-0.496253 -2.900035,-0.967477 -4.6733198,-1.670815 -2.511176,-0.996007 -4.203969,-2.413892 -4.203969,-2.413892 z"
       id="path24398-3"
       sodipodi:nodetypes="cscsc"
       inkscape:transform-center-x="-5.0331143"
       inkscape:transform-center-y="2.3533756" />
    <path
       style="fill:#96be19;fill-opacity:1;stroke:#000000;stroke-width:0;stroke-linecap:butt;stroke-linejoin:miter;stroke-dasharray:none;stroke-opacity:1"
       d="m -15.01963,2.9988699 c 0,0 0.431289,1.823013 0.433512,3.144913 0.0031,1.865779 -2.166025,3.123093 -2.890073,3.701302 0.40318,-2.095561 0.426156,-2.8964 0.742776,-4.302097 0.448369,-1.990628 1.300682,-2.785555 1.300682,-2.785555 z"
       id="path24398-3-2"
       sodipodi:nodetypes="cscscc"
       inkscape:transform-center-x="1.1031318"
       inkscape:transform-center-y="4.2478885" />
    <path
       style="fill:#96be19;fill-opacity:1;stroke:#000000;stroke-width:0;stroke-linecap:butt;stroke-linejoin:miter;stroke-dasharray:none;stroke-opacity:1"
       d="m -18.420552,3.4900149 c 0,0 -2.363824,0.198469 -3.801009,0.887043 -2.445407,1.171627 -2.872516,2.17159 -3.422506,3.913657 1.788512,-0.663681 2.914609,-1.242276 3.674673,-1.618433 2.15627,-1.06714 3.712823,-2.724892 3.712823,-2.724892 z"
       id="path24398-3-2-7"
       sodipodi:nodetypes="cscscc"
       inkscape:transform-center-x="4.1754878"
       inkscape:transform-center-y="2.7449872" />
    <path
       style="fill:#96be19;fill-opacity:1;stroke:#000000;stroke-width:0;stroke-linecap:butt;stroke-linejoin:miter;stroke-dasharray:none;stroke-opacity:1"
       d="m -18.540714,1.8917349 c 0,0 -0.173088,-1.11020358 -2.386448,-2.39635178 -1.762526,-1.02417552 -4.493139,-1.06920532 -5.480328,-1.02685422 1.277911,1.02824772 1.907759,1.38735342 3.322697,2.15179642 2.003713,1.08253858 4.468121,1.68359258 4.468121,1.68359258 z"
       id="path24398-3-2-7-6"
       sodipodi:nodetypes="cscscc"
       inkscape:transform-center-x="4.530155"
       inkscape:transform-center-y="-1.8919757" />
    <g
       id="g14196"
       transform="translate(-27.781249,-8.9958331)">
      <g
         id="g14185">
        <path
           id="path23014-4-0-5"
           style="fill:url(#radialGradient23030-7-7-2);fill-opacity:1;stroke:#000000;stroke-width:0;stroke-linecap:butt;stroke-linejoin:miter;stroke-dasharray:none;stroke-opacity:1"
           inkscape:transform-center-x="1.9427805"
           inkscape:transform-center-y="-0.6999913"
           d="m 12.061677,8.2117402 c -0.04132,0.00102 -0.08547,0.00512 -0.132292,0.012402 C 11.231811,8.3325611 10.7012,8.7301984 10.548591,9.560495 10.34936,8.8638697 9.8400548,8.5690546 9.1895009,8.5414358 8.1892158,8.4989698 8.4866699,9.785983 8.9781443,10.372332 c 0.055151,0.0658 0.1183728,0.12534 0.1865519,0.179317 -1.0454224,-0.266726 -1.7159694,0.04539 -2.1052974,0.643888 -0.51439,0.79075 0.947241,1.021449 1.7807694,0.839742 0.059942,-0.01307 0.1186593,-0.02962 0.1762167,-0.04909 -0.4539928,0.51177 -0.465155,1.019975 -0.1994711,1.486731 0.4420143,0.776533 1.5312682,-0.193571 1.8557002,-0.903304 0.0048,-0.0106 0.0094,-0.02137 0.01395,-0.03204 0.289731,0.528637 0.783693,0.729629 1.370459,0.708484 0.848573,-0.03058 0.677151,-0.927499 0.272335,-1.532723 0.574825,0.11454 1.059172,-0.05952 1.452624,-0.410311 0.729126,-0.650066 -0.584371,-1.227126 -1.42937,-1.249536 -0.07071,-0.0019 -0.141637,0.0015 -0.211873,0.0088 0.0086,-0.01065 0.01711,-0.02166 0.02532,-0.03256 0.460441,-0.6112808 0.73573,-1.8386977 -0.104382,-1.8179898 z" />
        <ellipse
           style="fill:#fff800;fill-opacity:1;fill-rule:evenodd;stroke-width:0.331077"
           id="path13160"
           cx="7.3556542"
           cy="13.324549"
           rx="1.1240214"
           ry="0.83956856"
           transform="matrix(0.96810783,-0.25053388,0.26238896,0.96496219,0,0)" />
      </g>
      <g
         id="g14181">
        <path
           id="path23014-4-0-5-0"
           style="fill:url(#radialGradient23030-7-7-2-0);fill-opacity:1;stroke:#000000;stroke-width:0;stroke-linecap:butt;stroke-linejoin:miter;stroke-dasharray:none;stroke-opacity:1"
           inkscape:transform-center-x="-1.9427802"
           inkscape:transform-center-y="-0.6999913"
           d="m 13.475851,4.1484388 c 0.04132,0.00102 0.08547,0.00512 0.132292,0.012402 0.697574,0.1084189 1.228185,0.5060562 1.380794,1.3363528 0.199231,-0.6966253 0.708536,-0.9914404 1.35909,-1.0190592 1.000285,-0.042466 0.702831,1.2445472 0.211356,1.8308963 -0.05515,0.0658 -0.118373,0.12534 -0.186552,0.179317 1.045423,-0.266726 1.71597,0.04539 2.105298,0.643888 0.51439,0.79075 -0.947241,1.021449 -1.78077,0.839742 -0.05994,-0.01307 -0.118659,-0.02962 -0.176216,-0.04909 0.453992,0.51177 0.465155,1.019975 0.199471,1.486731 -0.442015,0.7765333 -1.531268,-0.193571 -1.8557,-0.903304 -0.0048,-0.0106 -0.0094,-0.02137 -0.01395,-0.03204 -0.289731,0.528637 -0.783693,0.729629 -1.370459,0.708484 -0.848573,-0.03058 -0.677151,-0.927499 -0.272335,-1.532723 -0.574825,0.11454 -1.059172,-0.05952 -1.452624,-0.410311 -0.729126,-0.650066 0.584371,-1.227126 1.42937,-1.249536 0.07071,-0.0019 0.141637,0.0015 0.211873,0.0088 -0.0086,-0.01065 -0.01711,-0.02166 -0.02532,-0.03256 -0.460441,-0.6112808 -0.73573,-1.8386977 0.104382,-1.8179899 z" />
        <ellipse
           style="fill:#fff800;fill-opacity:1;fill-rule:evenodd;stroke-width:0.301701"
           id="path13160-3"
           cx="-16.129496"
           cy="2.4687428"
           rx="0.96732205"
           ry="0.81013298"
           transform="matrix(-0.9590665,-0.28318094,-0.23182854,0.97275666,0,0)" />
      </g>
      <g
         id="g14177">
        <path
           id="path23014-4-0-5-0-9"
           style="fill:url(#radialGradient23030-7-7-2-0-2);fill-opacity:1;stroke:#000000;stroke-width:0;stroke-linecap:butt;stroke-linejoin:miter;stroke-dasharray:none;stroke-opacity:1"
           inkscape:transform-center-x="1.6847122"
           inkscape:transform-center-y="-0.62327793"
           d="M 9.3718518,3.7274607 C 9.3360205,3.728369 9.2977351,3.7320196 9.2571327,3.7385036 8.6522205,3.8350406 8.1920929,4.1891001 8.0597556,4.9284029 7.8869893,4.3081221 7.4453376,4.0456164 6.8811995,4.0210244 6.0137867,3.9832123 6.2717286,5.1291793 6.6979188,5.6512692 6.7457428,5.7098582 6.8005678,5.762873 6.8596903,5.8109345 5.9531354,5.5734396 5.3716601,5.8513505 5.0340482,6.3842576 4.5879869,7.0883478 5.8554631,7.2937641 6.5782708,7.1319707 6.6302488,7.1203327 6.6811678,7.1055967 6.7310792,7.0882607 6.337393,7.5439447 6.3277128,7.9964545 6.5581048,8.4120582 6.941405,9.1034895 7.8859678,8.239701 8.1673041,7.6077487 c 0.00416,-0.00944 0.00815,-0.019028 0.012097,-0.028529 C 8.4306458,8.0499224 8.8589927,8.2288876 9.367816,8.2100599 10.103669,8.1828309 9.9550181,7.384207 9.6039755,6.8453106 10.102444,6.947298 10.522453,6.7923136 10.863641,6.4799664 11.495914,5.9011424 10.356895,5.3873235 9.6241406,5.3673694 c -0.061317,-0.00169 -0.1228227,0.00134 -0.183729,0.00784 0.00746,-0.00948 0.014837,-0.019286 0.021957,-0.028992 C 9.8616469,4.801924 10.100368,3.709022 9.3718518,3.7274607 Z" />
        <ellipse
           style="fill:#fff800;fill-opacity:1;fill-rule:evenodd;stroke-width:0.259777"
           id="path13160-3-5"
           cx="-3.5474005"
           cy="9.2243948"
           rx="0.84592551"
           ry="0.68682021"
           transform="matrix(-0.88391482,0.46764794,0.538214,0.84280821,0,0)" />
      </g>
    </g>
    <g
       id="g155003"
       transform="translate(0,2.0329909)">
      <g
         id="g32712"
         transform="matrix(0.91495519,0,0,1,-0.13863197,-2.9212183)">
        <path
           style="fill:#493117;fill-opacity:1;stroke:#848382;stroke-width:0;stroke-linecap:round;stroke-linejoin:round;stroke-miterlimit:8;stroke-dasharray:none;stroke-opacity:1;paint-order:fill markers stroke"
           d="m 1.6105357,26.205167 c 0,0 1.2777996,-0.246376 3.534,-0.04425 0.6520857,0.05842 2.4655684,-0.205428 3.1000003,-0.162483 1.5009615,0.101601 1.5952691,0.27776 3.133285,0.341805 1.402814,0.05842 2.663137,0.07221 3.678236,-0.04826 0.480755,-0.05707 1.752509,0.103718 2.055284,-0.01624 0.755159,-0.299213 1.980855,0.125358 2.738557,-0.02292 0.446502,-0.08739 1.31227,0.302305 1.725767,0.1818 0.601788,-0.175376 1.264462,-0.571055 1.776998,-0.822095 0.834139,-0.408561 2.028939,0.410617 2.534709,-0.278551 0.336011,-0.457852 0.467442,-1.293693 -0.667774,-1.540109 -1.135216,-0.24642 -0.122926,-1.003715 -1.124586,-1.373341 -0.413969,-0.15276 -0.7566,-0.685791 -0.906847,-1.207565 -0.213301,-0.740741 -0.86488,-1.546591 -1.374214,-1.546591 -0.868106,0 -1.80299,-1.786528 -2.871428,-1.170484 -0.572486,0.330087 -1.049114,-0.218885 -1.4607,-0.251347 -0.356564,-0.02813 -1.229679,0.427335 -1.508652,0.312951 -0.600996,-0.246417 -1.280173,-0.909119 -2.081501,-0.477887 -0.26306,0.141564 -1.097972,-0.223358 -1.56426,-0.04374 -0.431358,0.166164 -0.512081,0.618641 -0.9251,0.683012 -0.500529,0.07801 -0.935757,-0.153256 -1.083215,-0.130584 -0.4006644,0.0616 -1.475903,0.385481 -1.6762349,0.816711 C 8.4425274,19.83623 8.1738447,20.344013 7.773181,20.220803 7.3725155,20.097594 7.1229235,20.344012 6.7890362,20.960055 6.4551489,21.5761 5.6538198,21.699309 4.986046,21.637704 4.3182731,21.576112 3.5169431,21.884121 3.3833894,22.438561 3.2498331,22.993 3.1162785,23.116211 2.2481721,23.301024 c -0.8681048,0.184812 -1.59610459,0.760525 -1.91647368,1.190747 -0.084378,0.113311 -0.13555137,0.689643 -0.13555137,0.689643 z"
           id="path30448"
           sodipodi:nodetypes="cssssssssscssssssssscssssssscc" />
        <path
           style="fill:#62421f;fill-opacity:1;stroke:#848382;stroke-width:0;stroke-linecap:round;stroke-linejoin:round;stroke-miterlimit:8;stroke-dasharray:none;stroke-opacity:1;paint-order:fill markers stroke"
           d="m 18.310893,19.277685 c -0.479702,0.09241 -0.68529,0.0308 -0.753819,0.400429 -0.06853,0.369626 0,0.462033 0.513968,0.369626 0.513968,-0.09241 0.616762,-0.862462 0.239851,-0.770055 z"
           id="path31333" />
        <path
           style="fill:#62421f;fill-opacity:1;stroke:#848382;stroke-width:0;stroke-linecap:round;stroke-linejoin:round;stroke-miterlimit:8;stroke-dasharray:none;stroke-opacity:1;paint-order:fill markers stroke"
           d="m 4.3550134,22.684962 c -0.342645,0.123207 -0.4454387,0.215614 -0.4454387,0.400428 0,0.184813 0.1370577,0.06159 0.4454387,0.06159 0.308381,0 0.2055874,-0.492836 0,-0.462033 z"
           id="path31335" />
      </g>
      <g
         id="g32721"
         transform="rotate(5.951095,22.629162,23.151867)">
        <rect
           style="fill:#a57e3b;fill-opacity:1;fill-rule:evenodd;stroke:#848382;stroke-width:0;stroke-dasharray:none;stroke-opacity:1"
           id="rect36182"
           width="1.229599"
           height="4.1806817"
           x="1.4672242"
           y="16.019909"
           rx="0.79512739"
           ry="0.79512602"
           transform="matrix(0.89153821,-0.45294549,0.45293224,0.89154494,0,0)" />
        <rect
           style="fill:#dea43f;fill-opacity:1;fill-rule:evenodd;stroke-width:0.264584"
           id="rect32077"
           width="2.0287344"
           height="14.712617"
           x="1.0676584"
           y="2.8303924"
           rx="0.79512739"
           ry="0.79512596"
           transform="matrix(0.89153821,-0.45294549,0.45293226,0.89154493,0,0)" />
        <path
           style="fill:#e5b869;fill-opacity:1;stroke:#fff4b3;stroke-width:1.20816;stroke-linecap:round;stroke-linejoin:round;stroke-miterlimit:8;stroke-dasharray:none;stroke-opacity:1;paint-order:fill markers stroke"
           d="M 4.4867489,3.4139655 8.3346301,11.06742"
           id="path35166" />
        <rect
           style="fill:#dea43f;fill-opacity:1;fill-rule:evenodd;stroke-width:0.264582"
           id="rect32077-0"
           width="2.0287564"
           height="6.1872392"
           x="2.2417521"
           y="-1.2943368"
           rx="0.79512602"
           ry="0.79512739"
           transform="matrix(0.46276432,0.88648135,0.8864775,-0.46277169,0,0)" />
        <path
           id="rect32077-0-9"
           style="fill:#fff4b3;fill-opacity:1;fill-rule:evenodd;stroke-width:0.264582"
           d="m 1.2666454,2.4579582 0.013795,0.026425 C 2.2630366,2.3571087 3.9525458,1.824593 5.3713871,1.1492972 5.7419784,0.95583547 5.6106183,0.54058815 5.4806959,0.29170554 L 5.4669012,0.26528009 C 5.3369788,0.01639748 4.9340379,-0.0282195 4.5634475,0.1652414 L 1.7010643,1.659504 C 1.330473,1.8529649 1.1367221,2.2090756 1.2666454,2.4579582 Z"
           sodipodi:nodetypes="sccsssss" />
        <path
           id="path32079"
           style="fill:url(#linearGradient42484);fill-opacity:1;stroke:#848382;stroke-width:0;stroke-linecap:round;stroke-linejoin:round;stroke-miterlimit:8;stroke-dasharray:none;stroke-opacity:1;paint-order:fill markers stroke"
           d="m 14.145571,13.827215 c -1.756478,0.50246 -3.225343,1.44498 -3.768314,1.969601 -1.569063,0.105687 -2.8238462,0.669129 -3.8804084,1.605892 2.2769388,5.817157 5.8127354,7.10016 7.6558704,6.577035 -0.231063,-0.979872 -0.623141,-1.111759 -0.109232,-0.207433 -0.511764,-1.074249 -1.149017,-1.121858 -0.615161,-0.460167 -0.867273,-1.391075 -0.229876,-0.311758 0.221457,0.420748 -0.900802,-0.808846 0.624625,0.124932 0.622325,0.120232 1.354893,-1.506431 3.053449,-4.679221 -0.12656,-10.025846 z"
           sodipodi:nodetypes="cccccccccc" />
        <path
           id="rect32139"
           style="fill:#756653;fill-opacity:1;fill-rule:evenodd;stroke-width:0.264582"
           d="m 7.8736924,13.999421 c -0.1531321,0.15239 0.2258103,0.6834 0.3610287,0.851883 0.469703,0.585214 0.9719075,0.634728 1.5901866,0.320612 l 0.3254493,-0.165344 c 0.618278,-0.314116 0.992002,-0.80313 0.75681,-1.455533 -0.112354,-0.311666 -0.356246,-0.858638 -0.570099,-0.828093 -1.0788768,0.223903 -1.7492238,0.565786 -2.4633781,1.27647 z"
           sodipodi:nodetypes="csssscc" />
      </g>
      <g
         id="g32707"
         transform="matrix(0.91495519,0,0,1,-0.13863197,-2.9212183)">
        <path
           style="fill:#62421f;fill-opacity:1;stroke:#848382;stroke-width:0;stroke-linecap:round;stroke-linejoin:round;stroke-miterlimit:8;stroke-dasharray:none;stroke-opacity:1;paint-order:fill markers stroke"
           d="m 19.438489,25.580368 c 0.519194,-0.05078 0.976543,0.308185 1.527733,0.213155 0.786395,-0.135583 1.621875,-0.716822 1.888373,-0.644386 0.453292,0.123208 2.292868,0.492837 1.834582,-0.246417 -0.458283,-0.739253 0.385485,-1.478505 -0.884801,-1.786528 -1.270285,-0.308024 -1.934158,-1.047276 -2.893204,-1.848133 -0.959047,-0.800857 -1.45695,-0.462032 -2.189711,-0.400429 -0.732764,0.06159 -0.398006,-0.331722 -1.199298,-0.270118 -0.801291,0.0616 -1.339516,-0.225005 -2.197984,0.04203 -0.824233,0.256381 -0.806185,1.161929 -1.169888,1.100325 -0.363703,-0.06159 -2.277652,-0.371753 -2.35778,0.05935 -0.165068,0.88811 -1.152041,0.435137 -1.9215645,0.18872 -0.7695237,-0.246419 -1.5470754,-0.04223 -1.8740164,0.204191 -0.3269427,0.246416 -2.1297574,0.184814 -2.2354087,0.677649 -0.1056514,0.492834 -0.2484252,1.478506 -1.0233023,1.416902 -0.7748805,-0.06161 -1.9555789,-0.308022 -2.0822876,0.123208 -0.1267079,0.431231 -1.1178833,0.739252 -1.2392386,0.985671 -0.0501,0.101737 0.3683301,0.514983 1.4531188,0.573355 1.0656372,0.05734 1.684738,-0.487245 3.2969927,-0.413236 0.7217579,0.03313 2.2506968,0.360201 2.9330828,0.427312 0.5553508,0.05461 1.2758728,0.240848 1.9197678,0.295701 0.581535,0.04954 2.345414,0.579643 2.868122,0.536172 0.982389,-0.08171 1.43302,-0.474294 2.296998,-0.499995 0.846473,-0.02518 0.797861,-0.512792 1.392841,-0.46187 0.53809,0.04606 1.630728,-0.176787 1.856873,-0.272625 z"
           id="path30780"
           sodipodi:nodetypes="csssssssscsssscssssssssscc" />
        <path
           style="fill:#493117;fill-opacity:1;stroke:#848382;stroke-width:0;stroke-linecap:round;stroke-linejoin:round;stroke-miterlimit:8;stroke-dasharray:none;stroke-opacity:1;paint-order:fill markers stroke"
           d="M 7.2779025,24.527342 C 6.7448713,24.658025 6.9871584,25.44212 7.423275,25.354999 7.8593915,25.267877 7.8593915,24.48378 7.2779025,24.527342 Z"
           id="path31250" />
        <path
           style="fill:#493117;fill-opacity:1;stroke:#848382;stroke-width:0;stroke-linecap:round;stroke-linejoin:round;stroke-miterlimit:8;stroke-dasharray:none;stroke-opacity:1;paint-order:fill markers stroke"
           d="m 12.269014,24.222416 c -0.290745,0 -0.775318,-0.08712 -0.920689,0.174243 -0.145374,0.261366 0.387657,0.304927 0.629944,0.348487 0.242287,0.04356 0.775319,-0.261366 0.290745,-0.52273 z"
           id="path31321" />
        <path
           style="fill:#493117;fill-opacity:1;stroke:#848382;stroke-width:0;stroke-linecap:round;stroke-linejoin:round;stroke-miterlimit:8;stroke-dasharray:none;stroke-opacity:1;paint-order:fill markers stroke"
           d="M 8.9739117,22.959149 C 8.1985933,23.133393 8.1501356,23.743246 8.634709,23.699684 9.1192841,23.656123 9.4584851,22.915588 8.9739117,22.959149 Z"
           id="path31323" />
        <path
           style="fill:#493117;fill-opacity:1;stroke:#848382;stroke-width:0;stroke-linecap:round;stroke-linejoin:round;stroke-miterlimit:8;stroke-dasharray:none;stroke-opacity:1;paint-order:fill markers stroke"
           d="m 20.361398,24.549122 c -0.218059,0.239585 -0.266516,0.544512 0.04846,0.500951 0.314973,-0.04356 0.242286,-0.631633 -0.04846,-0.500951 z"
           id="path31327" />
        <path
           style="fill:#493117;fill-opacity:1;stroke:#848382;stroke-width:0;stroke-linecap:round;stroke-linejoin:round;stroke-miterlimit:8;stroke-dasharray:none;stroke-opacity:1;paint-order:fill markers stroke"
           d="m 23.462669,24.505561 c -0.339201,-0.152463 -0.605716,-0.108902 -0.751087,0.04356 -0.145374,0.152463 0.145371,0.392048 0.411886,0.370268 0.266517,-0.02178 0.605718,-0.348487 0.339201,-0.413829 z"
           id="path31329" />
        <path
           style="fill:#493117;fill-opacity:1;stroke:#848382;stroke-width:0;stroke-linecap:round;stroke-linejoin:round;stroke-miterlimit:8;stroke-dasharray:none;stroke-opacity:1;paint-order:fill markers stroke"
           d="m 21.81512,23.612563 c -0.19383,-0.08712 -0.75109,-0.217805 -0.702633,-0.02178 0.04845,0.196023 0.242287,0.261364 0.387659,0.304925 0.145372,0.04356 0.436117,-0.217805 0.314974,-0.283145 z"
           id="path31331" />
      </g>
    </g>
  </g>
</svg>
