<?xml version="1.0" encoding="UTF-8" standalone="no"?>
<!-- Created with Inkscape (http://www.inkscape.org/) -->

<svg
   width="100"
   height="100"
   viewBox="0 0 26.458332 26.458332"
   version="1.1"
   id="svg2787"
   inkscape:version="1.2.2 (732a01da63, 2022-12-09)"
   sodipodi:docname="gesprekken.svg"
   xml:space="preserve"
   xmlns:inkscape="http://www.inkscape.org/namespaces/inkscape"
   xmlns:sodipodi="http://sodipodi.sourceforge.net/DTD/sodipodi-0.dtd"
   xmlns:xlink="http://www.w3.org/1999/xlink"
   xmlns="http://www.w3.org/2000/svg"
   xmlns:svg="http://www.w3.org/2000/svg"><sodipodi:namedview
     id="namedview2789"
     pagecolor="#ffffff"
     bordercolor="#000000"
     borderopacity="0.25"
     inkscape:showpageshadow="2"
     inkscape:pageopacity="0.0"
     inkscape:pagecheckerboard="0"
     inkscape:deskcolor="#d1d1d1"
     inkscape:document-units="mm"
     showgrid="false"
     inkscape:zoom="1.4142136"
     inkscape:cx="24.041631"
     inkscape:cy="15.556349"
     inkscape:window-width="1366"
     inkscape:window-height="705"
     inkscape:window-x="-8"
     inkscape:window-y="-8"
     inkscape:window-maximized="1"
     inkscape:current-layer="layer1"
     inkscape:lockguides="false" /><defs
     id="defs2784"><linearGradient
       inkscape:collect="always"
       xlink:href="#linearGradient29522"
       id="linearGradient31309"
       gradientUnits="userSpaceOnUse"
       gradientTransform="matrix(0.79324094,-0.60890789,0.79324094,0.60890789,4.892518,-8.867114)"
       x1="14.228266"
       y1="-29.189594"
       x2="3.6590269"
       y2="-18.620356" /><linearGradient
       inkscape:collect="always"
       id="linearGradient29522"><stop
         style="stop-color:#d4a125;stop-opacity:1;"
         offset="0"
         id="stop29518" /><stop
         style="stop-color:#edd495;stop-opacity:1;"
         offset="1"
         id="stop29520" /></linearGradient><linearGradient
       inkscape:collect="always"
       xlink:href="#linearGradient29522"
       id="linearGradient31385"
       gradientUnits="userSpaceOnUse"
       gradientTransform="matrix(-0.79324094,-0.60890789,-0.79324094,0.60890789,5.1079993,-8.8671145)"
       x1="14.228266"
       y1="-29.189594"
       x2="3.6590269"
       y2="-18.620356" /><linearGradient
       inkscape:collect="always"
       xlink:href="#linearGradient29522"
       id="linearGradient29605"
       gradientUnits="userSpaceOnUse"
       gradientTransform="matrix(0.80013746,-0.61907549,0.80013746,0.61907549,17.509457,-0.36880917)"
       x1="14.228266"
       y1="-29.189594"
       x2="3.6590269"
       y2="-18.620356" /></defs><g
     inkscape:label="Layer 1"
     inkscape:groupmode="layer"
     id="layer1"><circle
       style="fill:#a5e5f9;fill-opacity:1;fill-rule:evenodd;stroke-width:0.264583"
       id="path19668-4"
       cx="13.229167"
       cy="13.229167"
       r="12.36927" /><g
       id="g117847"
       transform="translate(-85.682011,-18.429019)"><path
         id="rect29651"
         style="fill:#b89644;fill-opacity:1;fill-rule:evenodd;stroke-width:0.253198"
         d="m -35.605293,27.319225 c -0.492538,-1e-6 -0.984675,0.144973 -1.362085,0.434689 l -11.14712,8.556916 h 0.0022 V 52.7082 h 25.014637 V 36.31083 h 0.0022 L -34.24267,27.753914 c -0.377408,-0.289716 -0.870084,-0.43469 -1.362623,-0.434689 z" /><rect
         style="mix-blend-mode:multiply;fill:#ddd3d3;fill-opacity:1;fill-rule:evenodd;stroke-width:0.259054"
         id="rect31549-1"
         width="22.808271"
         height="19.408148"
         x="-46.973419"
         y="31.062712" /><rect
         style="fill:#ffffff;fill-rule:evenodd;stroke-width:0.264583"
         id="rect31549"
         width="22.101128"
         height="20.893148"
         x="-46.655563"
         y="31.252985" /><text
         xml:space="preserve"
         style="font-style:normal;font-weight:normal;font-size:15.5252px;line-height:1.25;font-family:sans-serif;fill:#000000;fill-opacity:1;stroke:none;stroke-width:0.24258"
         x="-31.271276"
         y="52.282772"
         id="text33454"
         transform="matrix(0.99810239,0.29980889,-0.22385307,0.93466048,0,0)"><tspan
           sodipodi:role="line"
           id="tspan33452"
           style="font-style:normal;font-variant:normal;font-weight:bold;font-stretch:normal;font-size:15.5252px;font-family:Amiri;-inkscape-font-specification:'Amiri Bold';fill:#ff2e2e;fill-opacity:1;stroke-width:0.24258"
           x="-31.271276"
           y="52.282772">@</tspan></text><path
         id="path31562"
         style="mix-blend-mode:normal;fill:#c5a761;fill-opacity:1;stroke:#000000;stroke-width:0;stroke-linecap:butt;stroke-linejoin:miter;stroke-dasharray:none;stroke-opacity:1"
         d="m -24.548379,36.496118 -11.088147,7.974712 -11.019009,-7.924561 v 2.948302 l 9.953777,8.797419 h 1.995262 l -0.0031,-0.05016 h 0.207925 l 9.953265,-8.797952 z" /><g
         id="g31560"
         transform="matrix(1,0,0,0.99165096,-40.605258,66.988617)"><g
           id="g31553"><path
             id="rect29033-76-4"
             style="fill:url(#linearGradient31309);fill-opacity:1;fill-rule:evenodd;stroke-width:0.294987"
             d="m -7.50924,-30.936074 v 16.535425 c 0.452893,10e-7 0.905606,-0.13307 1.252636,-0.399458 l 10.250021,-7.868254 -10.250021,-7.868254 c -0.34703,-0.266388 -0.799743,-0.399459 -1.252636,-0.399459 z" /><path
             id="rect29033-76-4-0"
             style="fill:url(#linearGradient31385);fill-opacity:1;fill-rule:evenodd;stroke-width:0.294987"
             d="m 17.509757,-30.936074 v 16.535425 c -0.452893,10e-7 -0.905606,-0.13307 -1.252636,-0.399458 L 6.0071003,-22.668361 16.257121,-30.536615 c 0.34703,-0.266388 0.799743,-0.399459 1.252636,-0.399459 z" /></g><path
           id="rect29033-76-0"
           style="fill:#b89644;fill-opacity:1;fill-rule:evenodd;stroke-width:0.319035"
           d="m 5.0002539,-23.668412 c -0.4725829,-1e-6 -0.9449721,0.149165 -1.3070895,0.447776 l -10.6955936,8.819987 H 17.002935 L 6.3073434,-23.220636 C 5.945226,-23.519247 5.4728368,-23.668413 5.0002539,-23.668412 Z" /><path
           id="rect29033-76"
           style="fill:url(#linearGradient29605);fill-opacity:1;fill-rule:evenodd;stroke-width:0.29873"
           d="m 5.0002391,-22.806416 c -0.4568329,-1e-6 -0.9134785,0.135291 -1.2635274,0.406128 l -10.3391353,7.999639 H 16.6029 L 6.2637665,-22.400288 c -0.3500489,-0.270837 -0.8066946,-0.406129 -1.2635274,-0.406128 z" /></g></g><text
       xml:space="preserve"
       style="font-weight:bold;font-size:6.35px;line-height:1.3;font-family:Consolas;-inkscape-font-specification:'Consolas Bold';text-align:center;text-anchor:middle;fill:#fe005b;fill-opacity:0.593284;stroke:#7c7777;stroke-width:0;stroke-linejoin:round;stroke-miterlimit:8;paint-order:fill markers stroke;stop-color:#000000"
       x="13.62389"
       y="32.653175"
       id="text97103"><tspan
         sodipodi:role="line"
         id="tspan97101"
         style="stroke-width:0"
         x="13.62389"
         y="32.653175">Mini</tspan></text><path
       id="path4915-7-3-4"
       style="mix-blend-mode:normal;fill:#ffa4c4;fill-opacity:1;fill-rule:evenodd;stroke-width:0.34794"
       d="m 14.123757,5.989861 c -0.228126,3.03e-5 -0.461396,0.00265 -0.699895,0.00821 -7.6320192,0.1790678 -9.4474429,2.4995382 -9.4474429,7.503518 0,5.003977 2.0245849,7.801306 9.7328019,7.957522 0.524747,0.01059 2.092035,-0.02567 2.56427,-0.0447 l 4.872241,4.460857 -1.893907,-5.126982 c 2.804327,-1.01946 4.07688,-3.619542 4.07688,-7.246607 0,-4.8476033 -2.133008,-7.5128175 -9.204948,-7.51185 z"
       sodipodi:nodetypes="ccsccccscc" /><g
       id="g66056"
       transform="translate(3.6161298,4.5629219)"><path
         id="path65442"
         style="fill:#27153a;fill-opacity:1;fill-rule:evenodd;stroke-width:0.354843"
         d="m 11.194923,9.104653 c 0,0.5965122 -0.416374,0.8236915 -0.93,0.8236915 -0.5136241,0 -0.9299991,-0.2598567 -0.9299991,-0.8236915 0,-0.5638348 0.416375,-0.8236915 0.9299991,-0.8236915 0.513626,0 0.93,0.2271793 0.93,0.8236915 z"
         sodipodi:nodetypes="zszsz" /><path
         id="path65442-2"
         style="fill:#27153a;fill-opacity:1;fill-rule:evenodd;stroke-width:0.370309"
         d="m 15.241011,9.104653 c 0,0.6225118 -0.434523,0.8595929 -0.970535,0.8595929 -0.53601,0 -0.970533,-0.2711828 -0.970533,-0.8595929 0,-0.5884101 0.434523,-0.8595929 0.970533,-0.8595929 0.536012,0 0.970535,0.2370811 0.970535,0.8595929 z"
         sodipodi:nodetypes="zszsz" /><path
         id="path65442-3"
         style="fill:#27153a;fill-opacity:1;fill-rule:evenodd;stroke-width:0.354843"
         d="m 7.2299039,9.104653 c 0,0.5965122 -0.4163761,0.8236915 -0.9300007,0.8236915 -0.5136245,0 -0.9299993,-0.2598567 -0.9299993,-0.8236915 0,-0.5638348 0.4163748,-0.8236915 0.9299993,-0.8236915 0.5136246,0 0.9300007,0.2271793 0.9300007,0.8236915 z"
         sodipodi:nodetypes="zszsz" /></g></g></svg>
