<?xml version="1.0" encoding="UTF-8" standalone="no"?>
<!-- Created with Inkscape (http://www.inkscape.org/) -->

<svg
   width="90"
   height="90"
   viewBox="0 0 23.812499 23.812499"
   version="1.1"
   id="svg2787"
   inkscape:version="1.2.2 (732a01da63, 2022-12-09)"
   sodipodi:docname="koffie.svg"
   xmlns:inkscape="http://www.inkscape.org/namespaces/inkscape"
   xmlns:sodipodi="http://sodipodi.sourceforge.net/DTD/sodipodi-0.dtd"
   xmlns:xlink="http://www.w3.org/1999/xlink"
   xmlns="http://www.w3.org/2000/svg"
   xmlns:svg="http://www.w3.org/2000/svg">
  <sodipodi:namedview
     id="namedview2789"
     pagecolor="#ffffff"
     bordercolor="#000000"
     borderopacity="0.25"
     inkscape:showpageshadow="2"
     inkscape:pageopacity="0.0"
     inkscape:pagecheckerboard="0"
     inkscape:deskcolor="#d1d1d1"
     inkscape:document-units="mm"
     showgrid="false"
     inkscape:zoom="0.99999999"
     inkscape:cx="-13.5"
     inkscape:cy="-6.0000001"
     inkscape:window-width="1366"
     inkscape:window-height="705"
     inkscape:window-x="-8"
     inkscape:window-y="-8"
     inkscape:window-maximized="1"
     inkscape:current-layer="layer1"
     showguides="true" />
  <defs
     id="defs2784">
    <linearGradient
       inkscape:collect="always"
       id="linearGradient23646">
      <stop
         style="stop-color:#35c344;stop-opacity:1;"
         offset="0"
         id="stop23642" />
      <stop
         style="stop-color:#5dca56;stop-opacity:1;"
         offset="1"
         id="stop23644" />
    </linearGradient>
    <linearGradient
       inkscape:collect="always"
       id="linearGradient17113">
      <stop
         style="stop-color:#28c949;stop-opacity:1;"
         offset="0"
         id="stop17109" />
      <stop
         style="stop-color:#27c648;stop-opacity:1;"
         offset="0.49673203"
         id="stop17117" />
      <stop
         style="stop-color:#27c645;stop-opacity:1;"
         offset="1"
         id="stop17111" />
    </linearGradient>
    <linearGradient
       inkscape:collect="always"
       id="linearGradient9308">
      <stop
         style="stop-color:#7bd68a;stop-opacity:1;"
         offset="0"
         id="stop9306" />
      <stop
         style="stop-color:#17a82d;stop-opacity:0.9978261;"
         offset="1"
         id="stop9304" />
    </linearGradient>
    <linearGradient
       inkscape:collect="always"
       id="linearGradient116948">
      <stop
         style="stop-color:#63ff95;stop-opacity:1;"
         offset="0"
         id="stop116944" />
      <stop
         style="stop-color:#5cc24d;stop-opacity:0.99300694;"
         offset="1"
         id="stop116946" />
    </linearGradient>
    <linearGradient
       inkscape:collect="always"
       id="linearGradient108022">
      <stop
         style="stop-color:#9ffba3;stop-opacity:1;"
         offset="0.04311644"
         id="stop108016" />
      <stop
         style="stop-color:#37df53;stop-opacity:0.99533808;"
         offset="0.73846924"
         id="stop108018" />
      <stop
         style="stop-color:#1cb640;stop-opacity:0.99607843;"
         offset="0.96729773"
         id="stop108020" />
    </linearGradient>
    <linearGradient
       inkscape:collect="always"
       id="linearGradient98243">
      <stop
         style="stop-color:#00a23b;stop-opacity:0.9978261;"
         offset="0"
         id="stop98241" />
      <stop
         style="stop-color:#c8ffa5;stop-opacity:1;"
         offset="1"
         id="stop98239" />
    </linearGradient>
    <linearGradient
       inkscape:collect="always"
       id="linearGradient98115">
      <stop
         style="stop-color:#72e593;stop-opacity:1;"
         offset="0"
         id="stop98111" />
      <stop
         style="stop-color:#00b939;stop-opacity:1;"
         offset="1"
         id="stop98113" />
    </linearGradient>
    <linearGradient
       inkscape:collect="always"
       xlink:href="#linearGradient29522"
       id="linearGradient31309"
       gradientUnits="userSpaceOnUse"
       gradientTransform="matrix(0.79324094,-0.60890789,0.79324094,0.60890789,4.892518,-8.867114)"
       x1="14.228266"
       y1="-29.189594"
       x2="3.6590269"
       y2="-18.620356" />
    <linearGradient
       inkscape:collect="always"
       id="linearGradient29522">
      <stop
         style="stop-color:#d4a125;stop-opacity:1;"
         offset="0"
         id="stop29518" />
      <stop
         style="stop-color:#edd495;stop-opacity:1;"
         offset="1"
         id="stop29520" />
    </linearGradient>
    <linearGradient
       inkscape:collect="always"
       xlink:href="#linearGradient29522"
       id="linearGradient31385"
       gradientUnits="userSpaceOnUse"
       gradientTransform="matrix(-0.79324094,-0.60890789,-0.79324094,0.60890789,5.1079993,-8.8671145)"
       x1="14.228266"
       y1="-29.189594"
       x2="3.6590269"
       y2="-18.620356" />
    <linearGradient
       inkscape:collect="always"
       xlink:href="#linearGradient29522"
       id="linearGradient29605"
       gradientUnits="userSpaceOnUse"
       gradientTransform="matrix(0.80013746,-0.61907549,0.80013746,0.61907549,17.509457,-0.36880917)"
       x1="14.228266"
       y1="-29.189594"
       x2="3.6590269"
       y2="-18.620356" />
    <linearGradient
       inkscape:collect="always"
       id="linearGradient21068">
      <stop
         style="stop-color:#19723e;stop-opacity:1;"
         offset="0"
         id="stop21062" />
      <stop
         style="stop-color:#2dcf67;stop-opacity:0.82352942;"
         offset="0.51485145"
         id="stop21064" />
      <stop
         style="stop-color:#cf2d2d;stop-opacity:0;"
         offset="1"
         id="stop21066" />
    </linearGradient>
    <linearGradient
       inkscape:collect="always"
       id="linearGradient21076">
      <stop
         style="stop-color:#1e884f;stop-opacity:1;"
         offset="0.0375817"
         id="stop21070" />
      <stop
         style="stop-color:#17b682;stop-opacity:0.74901962;"
         offset="0.45544556"
         id="stop21072" />
      <stop
         style="stop-color:#69dec4;stop-opacity:0.69971675;"
         offset="1"
         id="stop21074" />
    </linearGradient>
    <radialGradient
       inkscape:collect="always"
       xlink:href="#linearGradient10987"
       id="radialGradient10989"
       cx="182.71416"
       cy="129.23962"
       fx="182.71416"
       fy="129.23962"
       r="73.185944"
       gradientTransform="matrix(0.14592422,-0.00321448,0.00112825,0.04982063,-17.484037,14.956526)"
       gradientUnits="userSpaceOnUse" />
    <linearGradient
       inkscape:collect="always"
       id="linearGradient10987">
      <stop
         style="stop-color:#b6fed6;stop-opacity:0.9978261;"
         offset="0"
         id="stop10985" />
      <stop
         style="stop-color:#01ee75;stop-opacity:1;"
         offset="1"
         id="stop10983" />
    </linearGradient>
    <linearGradient
       inkscape:collect="always"
       xlink:href="#linearGradient25653"
       id="linearGradient25655"
       x1="236.92513"
       y1="58.199238"
       x2="274.21661"
       y2="58.199238"
       gradientUnits="userSpaceOnUse"
       gradientTransform="matrix(0.19481747,0,0,0.1787159,-30.968084,8.6671639)" />
    <linearGradient
       inkscape:collect="always"
       id="linearGradient25653">
      <stop
         style="stop-color:#00bc70;stop-opacity:1;"
         offset="0"
         id="stop25649" />
      <stop
         style="stop-color:#00a23b;stop-opacity:0.9978261;"
         offset="1"
         id="stop25651" />
    </linearGradient>
    <linearGradient
       inkscape:collect="always"
       xlink:href="#linearGradient25665"
       id="linearGradient25667"
       x1="175.37141"
       y1="67.03714"
       x2="264.75427"
       y2="67.03714"
       gradientUnits="userSpaceOnUse"
       gradientTransform="matrix(0.19481447,0,0,0.08206342,-30.601224,14.666236)" />
    <linearGradient
       inkscape:collect="always"
       id="linearGradient25665">
      <stop
         style="stop-color:#fffdfd;stop-opacity:1;"
         offset="0"
         id="stop25661" />
      <stop
         style="stop-color:#cdcdcd;stop-opacity:1;"
         offset="1"
         id="stop25663" />
    </linearGradient>
    <linearGradient
       inkscape:collect="always"
       xlink:href="#linearGradient21068"
       id="linearGradient24354"
       gradientUnits="userSpaceOnUse"
       gradientTransform="matrix(0.8520488,0,0,0.8945853,-0.739344,-1.3400345)"
       x1="22.326729"
       y1="17.516705"
       x2="28.830881"
       y2="17.516705" />
    <linearGradient
       inkscape:collect="always"
       xlink:href="#linearGradient21076"
       id="linearGradient24356"
       gradientUnits="userSpaceOnUse"
       gradientTransform="matrix(0.8520488,0,0,0.8945853,-0.739344,-1.3400345)"
       x1="24.562634"
       y1="12.670937"
       x2="26.244383"
       y2="12.670937" />
    <linearGradient
       inkscape:collect="always"
       xlink:href="#linearGradient98115"
       id="linearGradient98117"
       x1="1.1556597"
       y1="19.251024"
       x2="23.55939"
       y2="19.251024"
       gradientUnits="userSpaceOnUse"
       gradientTransform="translate(0,-0.29765667)" />
    <linearGradient
       inkscape:collect="always"
       xlink:href="#linearGradient98243"
       id="linearGradient98211"
       gradientUnits="userSpaceOnUse"
       gradientTransform="matrix(-0.21416613,0,0,0.1787159,61.055345,8.685354)"
       x1="236.92513"
       y1="58.199238"
       x2="274.21661"
       y2="58.199238" />
    <linearGradient
       inkscape:collect="always"
       xlink:href="#linearGradient108022"
       id="linearGradient108013"
       gradientUnits="userSpaceOnUse"
       x1="5.9237723"
       y1="9.7428101"
       x2="19.575447"
       y2="9.7428101"
       gradientTransform="matrix(0.98831573,0,-0.23520117,-1,2.3608591,18.684713)" />
    <linearGradient
       inkscape:collect="always"
       xlink:href="#linearGradient116948"
       id="linearGradient115056"
       gradientUnits="userSpaceOnUse"
       gradientTransform="matrix(0.98222406,0,0,-1.1064618,-0.05332639,18.826267)"
       x1="5.7669271"
       y1="9.3927083"
       x2="19.633073"
       y2="9.3927083" />
    <linearGradient
       inkscape:collect="always"
       xlink:href="#linearGradient9308"
       id="linearGradient9310"
       x1="2.5302653"
       y1="21.625553"
       x2="21.87017"
       y2="21.625553"
       gradientUnits="userSpaceOnUse"
       gradientTransform="matrix(1,0,0,1.3318708,0.03209934,-6.6021607)" />
    <linearGradient
       inkscape:collect="always"
       xlink:href="#linearGradient17113"
       id="linearGradient17115"
       x1="16.578714"
       y1="12.03322"
       x2="18.801029"
       y2="9.4535322"
       gradientUnits="userSpaceOnUse" />
    <linearGradient
       inkscape:collect="always"
       xlink:href="#linearGradient23646"
       id="linearGradient23648"
       x1="18.570013"
       y1="9.8888607"
       x2="18.522779"
       y2="7.5736384"
       gradientUnits="userSpaceOnUse" />
  </defs>
  <g
     inkscape:label="Layer 1"
     inkscape:groupmode="layer"
     id="layer1">
    <path
       id="path2261"
       style="fill:url(#linearGradient9310);fill-opacity:1;fill-rule:evenodd;stroke-width:0.0349801"
       d="m 2.5623646,20.474806 c 2.2041243,2.319336 5.1842909,3.450945 9.6702104,3.450952 4.485919,-7e-6 7.46557,-1.131616 9.669694,-3.450952 -2.8779,1.255379 -6.436662,1.074551 -9.669694,1.125998 -3.2330315,-0.05145 -6.7923107,0.129378 -9.6702104,-1.125998 z" />
    <g
       id="g117847"
       transform="translate(-85.682011,-18.429019)">
      <path
         id="rect29651"
         style="fill:#b89644;fill-opacity:1;fill-rule:evenodd;stroke-width:0.253198"
         d="m -35.605293,27.319225 c -0.492538,-1e-6 -0.984675,0.144973 -1.362085,0.434689 l -11.14712,8.556916 h 0.0022 V 52.7082 h 25.014637 V 36.31083 h 0.0022 L -34.24267,27.753914 c -0.377408,-0.289716 -0.870084,-0.43469 -1.362623,-0.434689 z" />
      <rect
         style="mix-blend-mode:multiply;fill:#ddd3d3;fill-opacity:1;fill-rule:evenodd;stroke-width:0.259054"
         id="rect31549-1"
         width="22.808271"
         height="19.408148"
         x="-46.973419"
         y="31.062712" />
      <rect
         style="fill:#ffffff;fill-rule:evenodd;stroke-width:0.264583"
         id="rect31549"
         width="22.101128"
         height="20.893148"
         x="-46.655563"
         y="31.252985" />
      <text
         xml:space="preserve"
         style="font-style:normal;font-weight:normal;font-size:15.5252px;line-height:1.25;font-family:sans-serif;fill:#000000;fill-opacity:1;stroke:none;stroke-width:0.24258"
         x="-31.271276"
         y="52.282772"
         id="text33454"
         transform="matrix(0.99810239,0.29980889,-0.22385307,0.93466048,0,0)"><tspan
           sodipodi:role="line"
           id="tspan33452"
           style="font-style:normal;font-variant:normal;font-weight:bold;font-stretch:normal;font-size:15.5252px;font-family:Amiri;-inkscape-font-specification:'Amiri Bold';fill:#ff2e2e;fill-opacity:1;stroke-width:0.24258"
           x="-31.271276"
           y="52.282772">@</tspan></text>
      <path
         id="path31562"
         style="mix-blend-mode:normal;fill:#c5a761;fill-opacity:1;stroke:#000000;stroke-width:0;stroke-linecap:butt;stroke-linejoin:miter;stroke-dasharray:none;stroke-opacity:1"
         d="m -24.548379,36.496118 -11.088147,7.974712 -11.019009,-7.924561 v 2.948302 l 9.953777,8.797419 h 1.995262 l -0.0031,-0.05016 h 0.207925 l 9.953265,-8.797952 z" />
      <g
         id="g31560"
         transform="matrix(1,0,0,0.99165096,-40.605258,66.988617)">
        <g
           id="g31553">
          <path
             id="rect29033-76-4"
             style="fill:url(#linearGradient31309);fill-opacity:1;fill-rule:evenodd;stroke-width:0.294987"
             d="m -7.50924,-30.936074 v 16.535425 c 0.452893,10e-7 0.905606,-0.13307 1.252636,-0.399458 l 10.250021,-7.868254 -10.250021,-7.868254 c -0.34703,-0.266388 -0.799743,-0.399459 -1.252636,-0.399459 z" />
          <path
             id="rect29033-76-4-0"
             style="fill:url(#linearGradient31385);fill-opacity:1;fill-rule:evenodd;stroke-width:0.294987"
             d="m 17.509757,-30.936074 v 16.535425 c -0.452893,10e-7 -0.905606,-0.13307 -1.252636,-0.399458 L 6.0071003,-22.668361 16.257121,-30.536615 c 0.34703,-0.266388 0.799743,-0.399459 1.252636,-0.399459 z" />
        </g>
        <path
           id="rect29033-76-0"
           style="fill:#b89644;fill-opacity:1;fill-rule:evenodd;stroke-width:0.319035"
           d="m 5.0002539,-23.668412 c -0.4725829,-1e-6 -0.9449721,0.149165 -1.3070895,0.447776 l -10.6955936,8.819987 H 17.002935 L 6.3073434,-23.220636 C 5.945226,-23.519247 5.4728368,-23.668413 5.0002539,-23.668412 Z" />
        <path
           id="rect29033-76"
           style="fill:url(#linearGradient29605);fill-opacity:1;fill-rule:evenodd;stroke-width:0.29873"
           d="m 5.0002391,-22.806416 c -0.4568329,-1e-6 -0.9134785,0.135291 -1.2635274,0.406128 l -10.3391353,7.999639 H 16.6029 L 6.2637665,-22.400288 c -0.3500489,-0.270837 -0.8066946,-0.406129 -1.2635274,-0.406128 z" />
      </g>
    </g>
    <ellipse
       style="fill:url(#linearGradient98117);fill-opacity:1;fill-rule:evenodd;stroke-width:0.0480715"
       id="path2228-4"
       cx="12.357525"
       cy="18.953367"
       rx="11.201865"
       ry="2.0249596" />
    <path
       style="fill:url(#radialGradient10989);fill-opacity:1;fill-rule:evenodd;stroke-width:0.0467356"
       id="path2228"
       sodipodi:type="arc"
       sodipodi:cx="12.296789"
       sodipodi:cy="19.016363"
       sodipodi:rx="10.682265"
       sodipodi:ry="1.4473468"
       sodipodi:start="0"
       sodipodi:end="0.069409065"
       sodipodi:arc-type="slice"
       d="m 22.979054,19.016363 a 10.682265,1.4473468 0 0 1 -0.02572,0.100378 L 12.296789,19.016363 Z" />
    <path
       style="fill:url(#linearGradient25655);fill-opacity:1;stroke:#e8e8e8;stroke-width:0;stroke-linecap:square;stroke-linejoin:round;stroke-miterlimit:8;stroke-dasharray:none;stroke-opacity:1;paint-order:fill markers stroke;stop-color:#000000"
       d="m 17.391553,17.779531 c 0,0 4.777583,0.435043 4.860413,1.157641 0.05714,0.498442 -1.941476,1.597333 -5.721126,1.347118 -2.875968,-0.190391 -0.233793,-0.893625 -0.233793,-0.893625 z"
       id="path25647"
       sodipodi:nodetypes="csscc" />
    <path
       style="fill:url(#linearGradient98211);fill-opacity:1;stroke:#e8e8e8;stroke-width:0;stroke-linecap:square;stroke-linejoin:round;stroke-miterlimit:8;stroke-dasharray:none;stroke-opacity:1;paint-order:fill markers stroke;stop-color:#000000"
       d="m 7.8927819,17.797721 c 0,0 -5.2520767,0.435043 -5.3431339,1.157641 -0.062812,0.498442 2.1342979,1.597333 6.2893303,1.347118 3.1615997,-0.190391 0.2570129,-0.893625 0.2570129,-0.893625 z"
       id="path25647-2"
       sodipodi:nodetypes="csscc" />
    <ellipse
       style="fill:url(#linearGradient25667);fill-opacity:1;fill-rule:evenodd;stroke-width:0.0512701"
       id="path25659"
       cx="12.270203"
       cy="20.167534"
       rx="8.7065372"
       ry="1.1373988" />
    <path
       id="rect101441-2"
       style="fill:url(#linearGradient108013);stroke:#9d9d9d;stroke-width:0;stroke-miterlimit:8;paint-order:fill markers stroke;stop-color:#000000"
       d="M 13.045715 7.7096069 C 10.81523 7.703976 8.7172498 7.8538728 6.6455892 8.0227661 C 6.2822019 8.0523911 5.9359658 8.3541368 5.9526082 8.740035 L 5.9696615 9.1353597 C 5.9811194 9.4010333 6.195955 9.6131787 6.448702 9.7260213 C 6.4447175 9.827039 6.4430635 9.9431259 6.4445679 10.085173 C 6.4626469 11.791828 6.3562693 14.735403 7.9566203 17.884696 C 8.9319326 19.803986 10.992022 20.956344 12.7863 20.956344 C 14.580577 20.956344 16.641185 19.803986 17.616496 17.884696 C 19.216848 14.735403 19.110471 11.791828 19.128548 10.085173 C 19.130193 9.9297732 19.12828 9.8026684 19.123381 9.696049 C 19.272431 9.58057 19.36717 9.4066996 19.368327 9.1942708 L 19.370394 8.7483032 C 19.372525 8.3621479 18.915194 8.1193347 18.54047 8.0697917 C 16.595451 7.8126367 14.780537 7.7139865 13.045715 7.7096069 z " />
    <g
       id="g29586"
       transform="matrix(0.76702224,0,0,0.76702224,3.4933515,3.4199092)">
      <path
         style="fill:#39ff8c;fill-opacity:1;stroke:#000000;stroke-width:0;stroke-linecap:butt;stroke-linejoin:miter;stroke-dasharray:none;stroke-opacity:1"
         d="m 20.030545,9.6592881 c 0.644735,-0.6768617 2.392582,-2.095102 3.797814,-0.7954019 1.174978,1.0867406 1.19679,3.3519878 -0.353098,4.9624998 -1.549881,1.610514 -3.392518,2.177488 -3.956111,2.821693 -0.563596,0.644206 -0.869414,0.413168 -1.038492,0.208194 -0.01743,-1.26193 0.456541,-1.767982 0.929931,-2.049744 1.014471,-0.439228 2.761614,-1.288406 3.437929,-2.342561 0.676311,-1.054153 0.986289,-2.021983 0.197255,-2.695473 -0.789033,-0.6734854 -2.564357,0.733576 -2.874333,1.465626 -0.337434,0.796892 -0.753702,-0.931491 -0.197259,-1.5156603 z"
         id="path66789-2-1-7"
         sodipodi:nodetypes="ssssccsssss" />
      <path
         style="mix-blend-mode:multiply;fill:url(#linearGradient24354);fill-opacity:1;stroke:#000000;stroke-width:0;stroke-linecap:butt;stroke-linejoin:miter;stroke-dasharray:none;stroke-opacity:1"
         d="m 19.66396,14.644543 c 1.435849,-0.674655 2.857566,-1.318388 3.470851,-2.701327 0.358668,-0.878677 0.634924,-0.960874 0.29618,0.168855 -0.338742,1.129724 -0.737264,1.548139 -1.354972,2.071161 -0.617708,0.523021 -0.757191,0.857755 -0.0797,0.418418 0.677486,-0.439337 1.671512,-1.432186 1.810995,-1.850602 0.139483,-0.418418 0.425679,0.188159 -0.463093,1.181733 -1.063821,1.189264 -2.379998,1.755187 -3.279917,2.287925 -0.34292,0.203003 -1.374329,1.133824 -1.697931,1.206937 -0.180188,0.04071 -0.0031,-0.01906 0.0034,-0.210888 0.581185,-1.891656 0.0054,-1.772311 1.29418,-2.572212 z"
         id="path68033-3-0-8"
         sodipodi:nodetypes="ccsssssssccc" />
      <path
         style="mix-blend-mode:multiply;fill:url(#linearGradient24356);fill-opacity:1;stroke:#000000;stroke-width:0;stroke-linecap:butt;stroke-linejoin:miter;stroke-dasharray:none;stroke-opacity:1"
         d="m 21.227451,8.7162382 c 0.193103,0.2406772 0.474972,0.6224587 0.36038,1.1625309 0,0 -0.904635,0.5012029 -1.320166,1.2609169 -0.18297,0.334525 -0.138377,-1.1902807 0.05159,-1.751966 0.365835,-0.359325 0.642373,-0.5230678 0.908198,-0.6714818 z"
         id="path68035-7-4-7"
         sodipodi:nodetypes="ccscc" />
    </g>
    <path
       id="path1298"
       style="color:#000000;fill:#53fa8c;fill-opacity:0.996078;fill-rule:evenodd;stroke-width:0.273496;-inkscape-stroke:none"
       d="m 22.996529,18.32498 c -0.664191,0.874492 -2.170366,1.48622 -3.634403,1.744079 -1.425788,0.251123 -3.951503,0.421785 -6.920508,0.42323 v -0.001 c -0.01255,0 -0.02518,0.001 -0.03772,0.001 -0.01255,0 -0.02466,-0.001 -0.03721,-0.001 v 0.001 c -2.9631614,-0.0014 -4.8037514,-0.162529 -6.9437632,-0.35295 -1.2468511,-0.122642 -3.704062,-1.148522 -3.751709,-1.781286 -0.1634519,0.03311 -0.5991309,0.334251 -0.5126302,0.816487 0.2347158,1.308524 1.2798604,2.102613 2.8835249,2.362921 2.7883708,0.45261 5.7554222,0.616742 8.2992505,0.616742 2.543828,0 5.536971,0.05668 8.280382,-1.035352 1.767014,-0.703374 2.715419,-1.301867 2.908086,-2.052831 0.128417,-0.500537 -0.369847,-0.707925 -0.5333,-0.74104 z"
       sodipodi:nodetypes="csccsccccsszssc" />
    <path
       style="fill:none;fill-opacity:1;stroke:#ffffff;stroke-width:0.9;stroke-linecap:round;stroke-linejoin:round;stroke-miterlimit:8;stroke-dasharray:none;stroke-opacity:1;paint-order:fill markers stroke;stop-color:#000000"
       d="m 1.6039529,18.945766 c 0.1169304,0.491107 2.3386084,1.824114 10.1261741,1.894272"
       id="path53716"
       sodipodi:nodetypes="cc" />
    <ellipse
       style="fill:#ffffff;fill-opacity:0.433663;fill-rule:evenodd;stroke-width:0.319224"
       id="path105169"
       cx="5.9541087"
       cy="16.010492"
       rx="0.88277662"
       ry="2.2832043"
       transform="matrix(0.92820506,-0.37206904,0.19183801,0.9814266,0,0)" />
    <path
       style="fill:#000000;fill-opacity:0;stroke:url(#linearGradient115056);stroke-width:1.848;stroke-linecap:round;stroke-miterlimit:8;stroke-dasharray:none;stroke-opacity:1;paint-order:fill markers stroke;stop-color:#000000"
       d="M 6.1513115,8.6897513 C 5.9721842,8.1469018 10.829153,8.1774365 11.966129,8.1774365 c 1.136975,0 7.085964,-0.053921 6.724398,0.4757209"
       id="path112163-1"
       sodipodi:nodetypes="csc" />
    <path
       id="path16745-9"
       style="fill:url(#linearGradient17115);fill-opacity:1;stroke:#0e0e0e;stroke-width:0;stroke-linecap:square;stroke-linejoin:round;stroke-miterlimit:8;stroke-dasharray:none;stroke-opacity:1;paint-order:fill markers stroke;stop-color:#000000"
       d="m 18.988647,8.7078726 c -0.07207,-0.00356 -0.16741,0.1084685 -0.275401,0.1950561 -0.323284,0.2592202 -1.013627,0.296069 -1.572142,0.3282399 -0.675919,0.038936 -0.0064,0.068272 -0.609298,0.089722 0.890747,9.4767784 -2.328381,10.8517214 -2.499706,11.4617174 1.42708,-0.406477 2.962458,-1.445245 3.716642,-2.997409 1.600353,-3.293634 1.361744,-6.405143 1.37982,-8.1900182 0.007,-0.6868357 -0.04726,-0.8826867 -0.139915,-0.8873082 z"
       sodipodi:nodetypes="sssccsss" />
    <ellipse
       style="fill:url(#linearGradient23648);fill-opacity:1;fill-rule:evenodd;stroke-width:0.264583"
       id="path20941"
       cx="18.38854"
       cy="8.7312498"
       rx="1.2567708"
       ry="1.223698" />
    <path
       style="fill:none;fill-opacity:1;stroke:#ffffff;stroke-width:1.1;stroke-linecap:round;stroke-linejoin:round;stroke-miterlimit:8;stroke-dasharray:none;stroke-opacity:1;paint-order:fill markers stroke;stop-color:#000000"
       d="m 5.9975461,8.494065 c 0.564916,0.6025331 11.8917829,0.5656428 12.4354189,0"
       id="path11234"
       sodipodi:nodetypes="cc" />
    <path
       style="fill:#53fab0;fill-opacity:0.996078;stroke:#ffffff;stroke-width:0.9;stroke-linecap:round;stroke-linejoin:round;stroke-miterlimit:8;stroke-dasharray:none;stroke-opacity:1;paint-order:fill markers stroke;stop-color:#000000"
       d="m 11.730127,20.840038 c 2.03739,0.07486 5.379673,-0.04914 7.499466,-0.506297"
       id="path58475"
       sodipodi:nodetypes="cc" />
  </g>
</svg>
