<?xml version="1.0" encoding="UTF-8" standalone="no"?>
<!-- Created with Inkscape (http://www.inkscape.org/) -->

<svg
   width="90"
   height="90"
   viewBox="0 0 23.812499 23.812499"
   version="1.1"
   id="svg2787"
   inkscape:version="1.2.2 (732a01da63, 2022-12-09)"
   sodipodi:docname="koffie.svg"
   xmlns:inkscape="http://www.inkscape.org/namespaces/inkscape"
   xmlns:sodipodi="http://sodipodi.sourceforge.net/DTD/sodipodi-0.dtd"
   xmlns:xlink="http://www.w3.org/1999/xlink"
   xmlns="http://www.w3.org/2000/svg"
   xmlns:svg="http://www.w3.org/2000/svg">
  <sodipodi:namedview
     id="namedview2789"
     pagecolor="#ffffff"
     bordercolor="#000000"
     borderopacity="0.25"
     inkscape:showpageshadow="2"
     inkscape:pageopacity="0.0"
     inkscape:pagecheckerboard="0"
     inkscape:deskcolor="#d1d1d1"
     inkscape:document-units="mm"
     showgrid="false"
     inkscape:zoom="2"
     inkscape:cx="82"
     inkscape:cy="18.5"
     inkscape:window-width="1366"
     inkscape:window-height="705"
     inkscape:window-x="-8"
     inkscape:window-y="-8"
     inkscape:window-maximized="1"
     inkscape:current-layer="layer1" />
  <defs
     id="defs2784">
    <linearGradient
       inkscape:collect="always"
       id="linearGradient17642">
      <stop
         style="stop-color:#00bc70;stop-opacity:1;"
         offset="0"
         id="stop17638" />
      <stop
         style="stop-color:#00bc70;stop-opacity:0;"
         offset="1"
         id="stop17640" />
    </linearGradient>
    <linearGradient
       inkscape:collect="always"
       id="linearGradient16821">
      <stop
         style="stop-color:#faf0b3;stop-opacity:1;"
         offset="0"
         id="stop16817" />
      <stop
         style="stop-color:#fffdf3;stop-opacity:0;"
         offset="1"
         id="stop16819" />
    </linearGradient>
    <linearGradient
       inkscape:collect="always"
       xlink:href="#linearGradient29522"
       id="linearGradient31309"
       gradientUnits="userSpaceOnUse"
       gradientTransform="matrix(0.79324094,-0.60890789,0.79324094,0.60890789,4.892518,-8.867114)"
       x1="14.228266"
       y1="-29.189594"
       x2="3.6590269"
       y2="-18.620356" />
    <linearGradient
       inkscape:collect="always"
       id="linearGradient29522">
      <stop
         style="stop-color:#d4a125;stop-opacity:1;"
         offset="0"
         id="stop29518" />
      <stop
         style="stop-color:#edd495;stop-opacity:1;"
         offset="1"
         id="stop29520" />
    </linearGradient>
    <linearGradient
       inkscape:collect="always"
       xlink:href="#linearGradient29522"
       id="linearGradient31385"
       gradientUnits="userSpaceOnUse"
       gradientTransform="matrix(-0.79324094,-0.60890789,-0.79324094,0.60890789,5.1079993,-8.8671145)"
       x1="14.228266"
       y1="-29.189594"
       x2="3.6590269"
       y2="-18.620356" />
    <linearGradient
       inkscape:collect="always"
       xlink:href="#linearGradient29522"
       id="linearGradient29605"
       gradientUnits="userSpaceOnUse"
       gradientTransform="matrix(0.80013746,-0.61907549,0.80013746,0.61907549,17.509457,-0.36880917)"
       x1="14.228266"
       y1="-29.189594"
       x2="3.6590269"
       y2="-18.620356" />
    <linearGradient
       inkscape:collect="always"
       xlink:href="#linearGradient21068"
       id="linearGradient83573-8"
       x1="22.326729"
       y1="17.516705"
       x2="28.830881"
       y2="17.516705"
       gradientUnits="userSpaceOnUse"
       gradientTransform="matrix(0.87252888,0,0,0.82332708,-2.7228708,-7.4166344)" />
    <linearGradient
       inkscape:collect="always"
       id="linearGradient21068">
      <stop
         style="stop-color:#19723e;stop-opacity:1;"
         offset="0"
         id="stop21062" />
      <stop
         style="stop-color:#2dcf67;stop-opacity:0.82352942;"
         offset="0.51485145"
         id="stop21064" />
      <stop
         style="stop-color:#cf2d2d;stop-opacity:0;"
         offset="1"
         id="stop21066" />
    </linearGradient>
    <linearGradient
       inkscape:collect="always"
       xlink:href="#linearGradient21076"
       id="linearGradient84484-3"
       x1="24.562634"
       y1="12.670937"
       x2="26.244383"
       y2="12.670937"
       gradientUnits="userSpaceOnUse"
       gradientTransform="matrix(0.87252888,0,0,0.82332708,-2.7228708,-7.4166344)" />
    <linearGradient
       inkscape:collect="always"
       id="linearGradient21076">
      <stop
         style="stop-color:#1e884f;stop-opacity:1;"
         offset="0.0375817"
         id="stop21070" />
      <stop
         style="stop-color:#17b682;stop-opacity:0.74901962;"
         offset="0.45544556"
         id="stop21072" />
      <stop
         style="stop-color:#69dec4;stop-opacity:0.69971675;"
         offset="1"
         id="stop21074" />
    </linearGradient>
    <radialGradient
       inkscape:collect="always"
       xlink:href="#linearGradient21055"
       id="radialGradient66391-0"
       cx="16.013201"
       cy="18.754278"
       fx="16.013201"
       fy="18.754278"
       r="8.2759552"
       gradientTransform="matrix(0.34680127,1.5382319,-1.2988726,0.16859512,26.955259,-16.477112)"
       gradientUnits="userSpaceOnUse" />
    <linearGradient
       inkscape:collect="always"
       id="linearGradient21055">
      <stop
         style="stop-color:#aaffc4;stop-opacity:1;"
         offset="0"
         id="stop21049" />
      <stop
         style="stop-color:#00fdac;stop-opacity:1;"
         offset="0.35863915"
         id="stop21051" />
      <stop
         style="stop-color:#00d981;stop-opacity:1;"
         offset="0.62254906"
         id="stop21057" />
      <stop
         style="stop-color:#00a715;stop-opacity:1;"
         offset="0.9808796"
         id="stop21053" />
    </linearGradient>
    <linearGradient
       inkscape:collect="always"
       xlink:href="#linearGradient61459"
       id="linearGradient61461-4"
       x1="54.535458"
       y1="-88.887215"
       x2="70.769737"
       y2="-88.887215"
       gradientUnits="userSpaceOnUse"
       gradientTransform="matrix(0.80451256,0,0,0.41621556,-38.694563,39.18533)" />
    <linearGradient
       inkscape:collect="always"
       id="linearGradient61459">
      <stop
         style="stop-color:#f8ecc0;stop-opacity:0.84985834;"
         offset="0"
         id="stop61455" />
      <stop
         style="stop-color:#fcfde9;stop-opacity:1;"
         offset="1"
         id="stop61457" />
    </linearGradient>
    <linearGradient
       inkscape:collect="always"
       xlink:href="#linearGradient16821"
       id="linearGradient16823"
       x1="4.3380865"
       y1="8.3184013"
       x2="19.355263"
       y2="8.3184013"
       gradientUnits="userSpaceOnUse" />
    <radialGradient
       inkscape:collect="always"
       xlink:href="#linearGradient17642"
       id="radialGradient17644"
       cx="17.264063"
       cy="13.908532"
       fx="17.264063"
       fy="13.908532"
       r="2.7032582"
       gradientTransform="matrix(-0.24468954,2.8139269,-2.5667951,-0.22320002,57.188751,-33.50303)"
       gradientUnits="userSpaceOnUse" />
  </defs>
  <g
     inkscape:label="Layer 1"
     inkscape:groupmode="layer"
     id="layer1">
    <g
       id="g117847"
       transform="translate(-85.682011,-18.429019)">
      <path
         id="rect29651"
         style="fill:#b89644;fill-opacity:1;fill-rule:evenodd;stroke-width:0.253198"
         d="m -35.605293,27.319225 c -0.492538,-1e-6 -0.984675,0.144973 -1.362085,0.434689 l -11.14712,8.556916 h 0.0022 V 52.7082 h 25.014637 V 36.31083 h 0.0022 L -34.24267,27.753914 c -0.377408,-0.289716 -0.870084,-0.43469 -1.362623,-0.434689 z" />
      <rect
         style="mix-blend-mode:multiply;fill:#ddd3d3;fill-opacity:1;fill-rule:evenodd;stroke-width:0.259054"
         id="rect31549-1"
         width="22.808271"
         height="19.408148"
         x="-46.973419"
         y="31.062712" />
      <rect
         style="fill:#ffffff;fill-rule:evenodd;stroke-width:0.264583"
         id="rect31549"
         width="22.101128"
         height="20.893148"
         x="-46.655563"
         y="31.252985" />
      <text
         xml:space="preserve"
         style="font-style:normal;font-weight:normal;font-size:15.5252px;line-height:1.25;font-family:sans-serif;fill:#000000;fill-opacity:1;stroke:none;stroke-width:0.24258"
         x="-31.271276"
         y="52.282772"
         id="text33454"
         transform="matrix(0.99810239,0.29980889,-0.22385307,0.93466048,0,0)"><tspan
           sodipodi:role="line"
           id="tspan33452"
           style="font-style:normal;font-variant:normal;font-weight:bold;font-stretch:normal;font-size:15.5252px;font-family:Amiri;-inkscape-font-specification:'Amiri Bold';fill:#ff2e2e;fill-opacity:1;stroke-width:0.24258"
           x="-31.271276"
           y="52.282772">@</tspan></text>
      <path
         id="path31562"
         style="mix-blend-mode:normal;fill:#c5a761;fill-opacity:1;stroke:#000000;stroke-width:0;stroke-linecap:butt;stroke-linejoin:miter;stroke-dasharray:none;stroke-opacity:1"
         d="m -24.548379,36.496118 -11.088147,7.974712 -11.019009,-7.924561 v 2.948302 l 9.953777,8.797419 h 1.995262 l -0.0031,-0.05016 h 0.207925 l 9.953265,-8.797952 z" />
      <g
         id="g31560"
         transform="matrix(1,0,0,0.99165096,-40.605258,66.988617)">
        <g
           id="g31553">
          <path
             id="rect29033-76-4"
             style="fill:url(#linearGradient31309);fill-opacity:1;fill-rule:evenodd;stroke-width:0.294987"
             d="m -7.50924,-30.936074 v 16.535425 c 0.452893,10e-7 0.905606,-0.13307 1.252636,-0.399458 l 10.250021,-7.868254 -10.250021,-7.868254 c -0.34703,-0.266388 -0.799743,-0.399459 -1.252636,-0.399459 z" />
          <path
             id="rect29033-76-4-0"
             style="fill:url(#linearGradient31385);fill-opacity:1;fill-rule:evenodd;stroke-width:0.294987"
             d="m 17.509757,-30.936074 v 16.535425 c -0.452893,10e-7 -0.905606,-0.13307 -1.252636,-0.399458 L 6.0071003,-22.668361 16.257121,-30.536615 c 0.34703,-0.266388 0.799743,-0.399459 1.252636,-0.399459 z" />
        </g>
        <path
           id="rect29033-76-0"
           style="fill:#b89644;fill-opacity:1;fill-rule:evenodd;stroke-width:0.319035"
           d="m 5.0002539,-23.668412 c -0.4725829,-1e-6 -0.9449721,0.149165 -1.3070895,0.447776 l -10.6955936,8.819987 H 17.002935 L 6.3073434,-23.220636 C 5.945226,-23.519247 5.4728368,-23.668413 5.0002539,-23.668412 Z" />
        <path
           id="rect29033-76"
           style="fill:url(#linearGradient29605);fill-opacity:1;fill-rule:evenodd;stroke-width:0.29873"
           d="m 5.0002391,-22.806416 c -0.4568329,-1e-6 -0.9134785,0.135291 -1.2635274,0.406128 l -10.3391353,7.999639 H 16.6029 L 6.2637665,-22.400288 c -0.3500489,-0.270837 -0.8066946,-0.406129 -1.2635274,-0.406128 z" />
      </g>
    </g>
    <g
       id="g18445"
       transform="matrix(1.2453173,0,0,1.2453173,-4.3702708,-4.0198465)">
      <g
         id="g16335"
         transform="translate(-0.26458333,8.3612032)">
        <path
           style="fill:#39ffba;fill-opacity:1;stroke:#000000;stroke-width:0;stroke-linecap:butt;stroke-linejoin:miter;stroke-dasharray:none;stroke-opacity:1"
           d="m 18.546252,2.7065375 c 0.34986,-0.3300997 2.052696,-1.84884967 3.491704,-0.6526764 1.20322,1.0001759 1.269712,3.0453022 -0.317429,4.5275272 -1.587136,1.482229 -3.087706,1.805623 -3.664846,2.398513 -0.577143,0.592892 -0.923428,0.538992 -1.09657,0.350344 -0.01784,-1.16141 0.467516,-1.627152 0.952284,-1.88647 1.038854,-0.404242 2.827994,-1.18578 3.520563,-2.155965 0.692569,-0.970185 1.009997,-1.8609224 0.201996,-2.4807646 C 20.825956,2.1872068 19.007961,3.4821889 18.690533,4.1559273 18.34499,4.8893413 17.918715,3.2986344 18.488534,2.7609958 Z"
           id="path66789-2"
           sodipodi:nodetypes="ssssccsssss" />
        <path
           style="fill:url(#linearGradient83573-8);fill-opacity:1;stroke:#000000;stroke-width:0;stroke-linecap:butt;stroke-linejoin:miter;stroke-dasharray:none;stroke-opacity:1"
           d="m 18.170856,7.2946923 c 1.470362,-0.620917 2.926251,-1.213374 3.554277,-2.486155 0.36729,-0.808684 0.650186,-0.8843339 0.3033,0.155405 -0.346884,1.039737 -0.754986,1.424824 -1.387542,1.906185 -0.632554,0.481359 -0.775389,0.78943 -0.08161,0.385087 0.69377,-0.404341 1.571188,-1.290044 1.714023,-1.675132 0.142835,-0.385089 0.220655,0.149365 -0.677168,1.073573 -1.11147,1.144138 -3.153479,2.067634 -3.699712,2.488491 -0.309818,0.238705 -0.722961,0.64667 -1.054339,0.713958 -0.184521,0.03747 -0.0032,-0.01753 0.0035,-0.19409 0.595154,-1.740975 0.0055,-1.631137 1.325286,-2.367322 z"
           id="path68033-3"
           sodipodi:nodetypes="ccssssssscc" />
        <path
           style="fill:url(#linearGradient84484-3);fill-opacity:1;stroke:#000000;stroke-width:0;stroke-linecap:butt;stroke-linejoin:miter;stroke-dasharray:none;stroke-opacity:1"
           d="m 19.771928,1.838606 c 0.197744,0.2215052 0.486388,0.572876 0.369042,1.0699285 0,0 -0.926379,0.4612805 -1.351899,1.1604787 C 18.601703,4.3768915 18.647369,2.9735443 18.8419,2.4565994 19.216527,2.1258983 19.499713,1.9751977 19.771928,1.838606 Z"
           id="path68035-7"
           sodipodi:nodetypes="ccscc" />
      </g>
      <path
         id="path60967-91"
         style="fill:url(#radialGradient66391-0);fill-opacity:1;fill-rule:evenodd;stroke:#576e14;stroke-width:0;stroke-dasharray:none;stroke-opacity:1"
         d="M 11.644501,6.5098689 C 7.775659,6.497088 4.6191009,7.3693962 4.4723949,8.8697417 c -0.02979,0.4971603 0.0047,1.0165247 0.112387,1.5541403 0.222662,1.111845 0.4911099,4.945424 0.8863128,6.943604 0.1990654,1.006492 0.9695204,2.449085 1.6177101,3.160591 1.1206544,1.230122 2.4344784,1.790178 4.6349812,1.790178 2.021276,0 3.342158,-0.459275 4.30925,-1.522059 0.69472,-0.763461 1.3381,-2.31526 1.678858,-3.461783 0.348076,-1.171145 1.159329,-5.591393 1.315848,-6.778239 C 19.106246,9.9608927 18.915037,9.2485657 18.832167,8.6957841 17.346375,6.6888342 13.269283,6.5152365 11.644501,6.5098689 Z"
         sodipodi:nodetypes="scssssssscs" />
      <path
         id="path60967-9-0"
         style="mix-blend-mode:normal;fill:url(#radialGradient17644);fill-opacity:1;fill-rule:evenodd;stroke:#576e14;stroke-width:0;stroke-dasharray:none;stroke-opacity:1"
         d="m 13.721286,22.101564 c 3.104002,-0.178271 3.792536,-4.556862 4.610985,-7.371512 0.347466,-1.194939 0.630287,-2.634931 0.753732,-3.986934 0.06572,-0.720008 0.05267,-1.4178538 -0.03021,-2.0847251 -0.03572,-0.1660193 -0.09733,-0.3285397 -0.182611,-0.4866142 -0.0089,0.098288 -0.01905,0.1960821 -0.03113,0.2930417 -0.224364,1.0426697 -1.378707,1.146263 -3.187204,1.6705526 0.104488,2.512906 -0.263133,10.784525 -1.933562,11.966191 z"
         sodipodi:nodetypes="cscccccc" />
      <g
         id="g16307"
         transform="matrix(1.0199613,0,0,1,-0.10169239,5.55625)">
        <ellipse
           style="fill:none;fill-rule:evenodd;stroke:#000000;stroke-width:0;stroke-dasharray:none;stroke-opacity:1"
           id="path59980-7-4-6"
           cx="11.710448"
           cy="2.7774701"
           rx="6.4452009"
           ry="1.5064129" />
        <path
           id="path59980-7-4-5-9"
           style="fill:url(#linearGradient61461-4);fill-opacity:1;fill-rule:evenodd;stroke:#000000;stroke-width:0;stroke-dasharray:none;stroke-opacity:1"
           d="M 11.599488,1.2026025 C 8.0397984,1.2025934 5.0943672,1.945477 5.0944724,2.7774698 5.0953335,2.8681617 6.0040345,3.6698121 6.3759877,3.8270758 7.4720645,3.2758174 8.5746774,3.1218182 11.594567,3.1214141 14.563138,3.1218604 15.686061,3.371145 16.452158,4.0480244 16.26431,4.1889522 18.379171,3.4093104 18.337656,2.7774698 18.337761,1.9455155 15.712897,1.2026025 11.599488,1.2026025 Z"
           sodipodi:nodetypes="ccccccc" />
        <path
           id="path59980-7-4-8-5"
           style="fill:#602c0f;fill-opacity:1;fill-rule:evenodd;stroke:#000000;stroke-width:0;stroke-dasharray:none;stroke-opacity:1"
           d="M 11.60437,2.9980834 C 8.7142541,2.9981643 6.5774383,3.4395269 6.0301574,3.9627553 6.4506864,4.4520009 8.7073187,4.7484119 11.505219,4.748689 14.398577,4.74856 16.883752,4.3732613 17.427322,3.8543616 16.784313,3.352591 14.400748,2.9981309 11.60437,2.9980834 Z"
           sodipodi:nodetypes="ccccc" />
      </g>
      <ellipse
         style="fill:url(#linearGradient16823);fill-opacity:1;fill-rule:evenodd;stroke:#ffffff;stroke-width:0.741832;stroke-dasharray:none;stroke-opacity:1"
         id="path59980-7-4-2-7"
         cx="11.846675"
         cy="8.3184013"
         rx="7.1376724"
         ry="1.8072553" />
    </g>
  </g>
</svg>
