<?xml version="1.0" encoding="UTF-8" standalone="no"?>
<!-- Created with Inkscape (http://www.inkscape.org/) -->

<svg
   width="100"
   height="116"
   viewBox="0 0 26.458333 30.691656"
   version="1.1"
   id="svg2787"
   inkscape:version="1.2.2 (732a01da63, 2022-12-09)"
   sodipodi:docname="mij.svg"
   xmlns:inkscape="http://www.inkscape.org/namespaces/inkscape"
   xmlns:sodipodi="http://sodipodi.sourceforge.net/DTD/sodipodi-0.dtd"
   xmlns:xlink="http://www.w3.org/1999/xlink"
   xmlns="http://www.w3.org/2000/svg"
   xmlns:svg="http://www.w3.org/2000/svg">
  <sodipodi:namedview
     id="namedview2789"
     pagecolor="#ffffff"
     bordercolor="#000000"
     borderopacity="0.25"
     inkscape:showpageshadow="2"
     inkscape:pageopacity="0.0"
     inkscape:pagecheckerboard="0"
     inkscape:deskcolor="#d1d1d1"
     inkscape:document-units="mm"
     showgrid="false"
     inkscape:zoom="2.8284271"
     inkscape:cx="-56.922096"
     inkscape:cy="72.831999"
     inkscape:window-width="1366"
     inkscape:window-height="705"
     inkscape:window-x="-8"
     inkscape:window-y="-8"
     inkscape:window-maximized="1"
     inkscape:current-layer="layer1"
     inkscape:lockguides="false"
     showguides="false" />
  <defs
     id="defs2784">
    <linearGradient
       inkscape:collect="always"
       xlink:href="#linearGradient29522"
       id="linearGradient31309"
       gradientUnits="userSpaceOnUse"
       gradientTransform="matrix(0.79324094,-0.60890789,0.79324094,0.60890789,4.892518,-8.867114)"
       x1="14.228266"
       y1="-29.189594"
       x2="3.6590269"
       y2="-18.620356" />
    <linearGradient
       inkscape:collect="always"
       id="linearGradient29522">
      <stop
         style="stop-color:#d4a125;stop-opacity:1;"
         offset="0"
         id="stop29518" />
      <stop
         style="stop-color:#edd495;stop-opacity:1;"
         offset="1"
         id="stop29520" />
    </linearGradient>
    <linearGradient
       inkscape:collect="always"
       xlink:href="#linearGradient29522"
       id="linearGradient31385"
       gradientUnits="userSpaceOnUse"
       gradientTransform="matrix(-0.79324094,-0.60890789,-0.79324094,0.60890789,5.1079993,-8.8671145)"
       x1="14.228266"
       y1="-29.189594"
       x2="3.6590269"
       y2="-18.620356" />
    <linearGradient
       inkscape:collect="always"
       xlink:href="#linearGradient29522"
       id="linearGradient29605"
       gradientUnits="userSpaceOnUse"
       gradientTransform="matrix(0.80013746,-0.61907549,0.80013746,0.61907549,17.509457,-0.36880917)"
       x1="14.228266"
       y1="-29.189594"
       x2="3.6590269"
       y2="-18.620356" />
    <linearGradient
       inkscape:collect="always"
       xlink:href="#linearGradient83550"
       id="linearGradient83552"
       x1="24.659483"
       y1="1.8476212"
       x2="18.970604"
       y2="8.4479589"
       gradientUnits="userSpaceOnUse"
       gradientTransform="matrix(-1.1794955,0.59918615,0.15516832,0.92717141,45.514485,-13.019802)" />
    <linearGradient
       inkscape:collect="always"
       id="linearGradient83550">
      <stop
         style="stop-color:#b8f768;stop-opacity:1;"
         offset="0"
         id="stop83546" />
      <stop
         style="stop-color:#47bb08;stop-opacity:1;"
         offset="1"
         id="stop83548" />
    </linearGradient>
    <linearGradient
       inkscape:collect="always"
       xlink:href="#linearGradient83558"
       id="linearGradient83560"
       x1="20.859287"
       y1="2.247642"
       x2="18.970604"
       y2="8.4479589"
       gradientUnits="userSpaceOnUse"
       gradientTransform="matrix(-1.1794955,0.59918615,0.15516832,0.92717141,45.514485,-13.019802)" />
    <linearGradient
       inkscape:collect="always"
       id="linearGradient83558">
      <stop
         style="stop-color:#94dc14;stop-opacity:1;"
         offset="0"
         id="stop83554" />
      <stop
         style="stop-color:#52992a;stop-opacity:1;"
         offset="1"
         id="stop83556" />
    </linearGradient>
    <linearGradient
       inkscape:collect="always"
       xlink:href="#linearGradient80910"
       id="linearGradient80912"
       x1="5.4500256"
       y1="4.8628373"
       x2="6.8503499"
       y2="8.4630213"
       gradientUnits="userSpaceOnUse"
       gradientTransform="matrix(1.4584819,0,0,1.1432859,-2.7986517,-1.4186409)" />
    <linearGradient
       inkscape:collect="always"
       id="linearGradient80910">
      <stop
         style="stop-color:#f95353;stop-opacity:1;"
         offset="0"
         id="stop80906" />
      <stop
         style="stop-color:#d81634;stop-opacity:1;"
         offset="0.36831683"
         id="stop83544" />
      <stop
         style="stop-color:#940f24;stop-opacity:1;"
         offset="1"
         id="stop80908" />
    </linearGradient>
    <linearGradient
       inkscape:collect="always"
       xlink:href="#linearGradient97309"
       id="linearGradient69578"
       x1="18.775"
       y1="20.436071"
       x2="15.344643"
       y2="14.355"
       gradientUnits="userSpaceOnUse"
       gradientTransform="matrix(1.1398673,0,0,1.103479,-2.9884644,-2.7389093)" />
    <linearGradient
       inkscape:collect="always"
       id="linearGradient97309">
      <stop
         style="stop-color:#18cfca;stop-opacity:1;"
         offset="0"
         id="stop97303" />
      <stop
         style="stop-color:#73dbee;stop-opacity:1;"
         offset="0.70099008"
         id="stop97305" />
      <stop
         style="stop-color:#9feafb;stop-opacity:1;"
         offset="1"
         id="stop97307" />
    </linearGradient>
    <linearGradient
       inkscape:collect="always"
       xlink:href="#linearGradient79520"
       id="linearGradient79522"
       x1="13.155144"
       y1="2.2848656"
       x2="13.655619"
       y2="13.385432"
       gradientUnits="userSpaceOnUse"
       gradientTransform="translate(-0.52916667)" />
    <linearGradient
       inkscape:collect="always"
       id="linearGradient79520">
      <stop
         style="stop-color:#f0183b;stop-opacity:1;"
         offset="0"
         id="stop79516" />
      <stop
         style="stop-color:#df1737;stop-opacity:1;"
         offset="0.49306932"
         id="stop79524" />
      <stop
         style="stop-color:#7e1527;stop-opacity:1;"
         offset="1"
         id="stop79518" />
    </linearGradient>
    <linearGradient
       inkscape:collect="always"
       id="linearGradient26559">
      <stop
         style="stop-color:#ffe9d9;stop-opacity:1;"
         offset="0"
         id="stop26555" />
      <stop
         style="stop-color:#ffd0af;stop-opacity:1;"
         offset="0.60792077"
         id="stop26563" />
      <stop
         style="stop-color:#ffb380;stop-opacity:1;"
         offset="1"
         id="stop26557" />
    </linearGradient>
    <radialGradient
       inkscape:collect="always"
       xlink:href="#linearGradient26559"
       id="radialGradient26561-8-4-0"
       cx="50.0355"
       cy="10.592171"
       fx="50.0355"
       fy="10.592171"
       r="5.7715068"
       gradientTransform="matrix(-0.89423857,1.6694392,0.93159897,0.46542199,52.61659,-83.897657)"
       gradientUnits="userSpaceOnUse" />
    <mask
       maskUnits="userSpaceOnUse"
       id="mask10222">
      <circle
         style="fill:#ffffff;fill-opacity:1;fill-rule:evenodd;stroke-width:0.223867"
         id="circle10224"
         cx="13.229167"
         cy="14.816666"
         r="11" />
    </mask>
  </defs>
  <g
     inkscape:label="Layer 1"
     inkscape:groupmode="layer"
     id="layer1">
    <g
       id="g120516"
       transform="matrix(1,0,0,0.99765624,79.839121,27.441192)"
       style="stroke-width:1.00118">
      <path
         id="rect77221"
         style="fill:#895e2b;fill-rule:evenodd;stroke-width:0.238771"
         d="m 21.719094,14.001429 c 0.934783,0 1.275744,0.346102 1.323532,0.853139 0,0 0.172984,3.596558 0.310535,4.955762 0.111392,1.100711 0.383996,2.413323 0.383996,2.413323 0.0843,0.502259 -1.08328,0.687775 -2.018063,0.687775 -0.934783,0 -1.687335,-0.410001 -1.687335,-0.919285 v -7.071429 c 0,-0.509284 0.752552,-0.919285 1.687335,-0.919285 z"
         sodipodi:nodetypes="ssssssss" />
      <path
         style="fill:url(#linearGradient83552);fill-opacity:1;stroke:url(#linearGradient83560);stroke-width:1.00118;stroke-linecap:round;stroke-linejoin:round;stroke-miterlimit:8;stroke-dasharray:1.00118;stroke-dashoffset:1.30152;stroke-opacity:1;paint-order:fill markers stroke;stop-color:#000000"
         d="m 21.348614,1.7548129 c -2.462917,1.1685044 -2.604466,5.311618 -3.141468,7.7153562 -0.574925,2.5734869 0.495946,5.4078819 1.966743,5.9285329 5.961166,2.110206 4.719718,-3.156569 4.609097,-5.4007653 C 23.711024,5.6968855 23.118999,0.91487365 21.348614,1.7548129 Z"
         id="path72803"
         sodipodi:nodetypes="ssscs" />
      <rect
         style="fill:url(#linearGradient80912);fill-opacity:1;fill-rule:evenodd;stroke-width:0.264892"
         id="rect69677"
         width="3.719687"
         height="6.7175598"
         x="4.4208331"
         y="3.1832151"
         rx="0.64963806"
         ry="0.64963806" />
      <path
         id="rect60261-0"
         style="fill:#ecf0eb;fill-opacity:1;fill-rule:evenodd;stroke:#a0a4a0;stroke-width:0;stroke-linejoin:round;stroke-dasharray:none;stroke-opacity:1"
         d="M 12.375937,2.9556644 3.2772843,11.887378 V 24.188692 H 21.475095 V 11.887899 Z" />
      <rect
         style="fill:#b98539;fill-opacity:1;fill-rule:evenodd;stroke:#ffffff;stroke-width:0;stroke-linejoin:round;stroke-dasharray:none;stroke-opacity:1"
         id="rect61077"
         width="5.7040987"
         height="9.7682972"
         x="5.3170004"
         y="14.441001"
         rx="0.29765624"
         ry="0.29765624" />
      <rect
         style="fill:url(#linearGradient69578);fill-opacity:1;fill-rule:evenodd;stroke:#09f9d9;stroke-width:0;stroke-linecap:round;stroke-linejoin:round;stroke-dasharray:none;stroke-opacity:1"
         id="rect61075"
         width="7.3350458"
         height="6.398602"
         x="12.810097"
         y="13.101532"
         rx="0.29765624"
         ry="0.29765624" />
      <path
         style="fill:#ffffff;fill-opacity:1;stroke:#f1f1f1;stroke-width:0.765898;stroke-linecap:square;stroke-linejoin:round;stroke-miterlimit:8;stroke-dasharray:none;stroke-opacity:1;paint-order:fill markers stroke;stop-color:#000000"
         d="m 16.47747,13.33807 v 5.924749"
         id="path69568" />
      <path
         style="fill:#ffffff;fill-opacity:1;stroke:#f1f1f1;stroke-width:0.765898;stroke-linecap:square;stroke-linejoin:round;stroke-miterlimit:8;stroke-dasharray:none;stroke-opacity:1;paint-order:fill markers stroke;stop-color:#000000"
         d="m 13.00613,16.300839 h 6.953721"
         id="path69570" />
      <circle
         style="fill:#f7f4f0;fill-opacity:1;fill-rule:evenodd;stroke-width:0.264893"
         id="path83662"
         cx="9.7951202"
         cy="19.020952"
         r="0.5657143" />
      <path
         style="fill:#b98539;fill-opacity:1;stroke:#a0a4a0;stroke-width:0.388456;stroke-linecap:square;stroke-linejoin:round;stroke-miterlimit:8;stroke-dasharray:none;stroke-dashoffset:4.91338;stroke-opacity:1;paint-order:fill markers stroke;stop-color:#000000"
         d="M 21.475095,23.994691 V 11.806287"
         id="path105261" />
      <path
         style="fill:#b98539;fill-opacity:1;stroke:#e7e9e7;stroke-width:0.388456;stroke-linecap:square;stroke-linejoin:round;stroke-miterlimit:8;stroke-dasharray:none;stroke-dashoffset:4.91338;stroke-opacity:1;paint-order:fill markers stroke;stop-color:#000000"
         d="M 3.2772842,23.994691 V 11.805771"
         id="path105259" />
      <path
         style="fill:none;fill-opacity:1;stroke:url(#linearGradient79522);stroke-width:2.10848;stroke-linecap:round;stroke-linejoin:round;stroke-miterlimit:8;stroke-dasharray:none;stroke-opacity:1;paint-order:fill markers stroke;stop-color:#000000"
         d="M 2.1784008,12.814605 12.375931,2.9556643 22.573978,12.814605"
         id="path60259"
         sodipodi:nodetypes="ccc" />
    </g>
    <g
       id="g117847"
       transform="translate(-85.682011,-18.429019)">
      <path
         id="rect29651"
         style="fill:#b89644;fill-opacity:1;fill-rule:evenodd;stroke-width:0.253198"
         d="m -35.605293,27.319225 c -0.492538,-1e-6 -0.984675,0.144973 -1.362085,0.434689 l -11.14712,8.556916 h 0.0022 V 52.7082 h 25.014637 V 36.31083 h 0.0022 L -34.24267,27.753914 c -0.377408,-0.289716 -0.870084,-0.43469 -1.362623,-0.434689 z" />
      <rect
         style="mix-blend-mode:multiply;fill:#ddd3d3;fill-opacity:1;fill-rule:evenodd;stroke-width:0.259054"
         id="rect31549-1"
         width="22.808271"
         height="19.408148"
         x="-46.973419"
         y="31.062712" />
      <rect
         style="fill:#ffffff;fill-rule:evenodd;stroke-width:0.264583"
         id="rect31549"
         width="22.101128"
         height="20.893148"
         x="-46.655563"
         y="31.252985" />
      <text
         xml:space="preserve"
         style="font-style:normal;font-weight:normal;font-size:15.5252px;line-height:1.25;font-family:sans-serif;fill:#000000;fill-opacity:1;stroke:none;stroke-width:0.24258"
         x="-31.271276"
         y="52.282772"
         id="text33454"
         transform="matrix(0.99810239,0.29980889,-0.22385307,0.93466048,0,0)"><tspan
           sodipodi:role="line"
           id="tspan33452"
           style="font-style:normal;font-variant:normal;font-weight:bold;font-stretch:normal;font-size:15.5252px;font-family:Amiri;-inkscape-font-specification:'Amiri Bold';fill:#ff2e2e;fill-opacity:1;stroke-width:0.24258"
           x="-31.271276"
           y="52.282772">@</tspan></text>
      <path
         id="path31562"
         style="mix-blend-mode:normal;fill:#c5a761;fill-opacity:1;stroke:#000000;stroke-width:0;stroke-linecap:butt;stroke-linejoin:miter;stroke-dasharray:none;stroke-opacity:1"
         d="m -24.548379,36.496118 -11.088147,7.974712 -11.019009,-7.924561 v 2.948302 l 9.953777,8.797419 h 1.995262 l -0.0031,-0.05016 h 0.207925 l 9.953265,-8.797952 z" />
      <g
         id="g31560"
         transform="matrix(1,0,0,0.99165096,-40.605258,66.988617)">
        <g
           id="g31553">
          <path
             id="rect29033-76-4"
             style="fill:url(#linearGradient31309);fill-opacity:1;fill-rule:evenodd;stroke-width:0.294987"
             d="m -7.50924,-30.936074 v 16.535425 c 0.452893,10e-7 0.905606,-0.13307 1.252636,-0.399458 l 10.250021,-7.868254 -10.250021,-7.868254 c -0.34703,-0.266388 -0.799743,-0.399459 -1.252636,-0.399459 z" />
          <path
             id="rect29033-76-4-0"
             style="fill:url(#linearGradient31385);fill-opacity:1;fill-rule:evenodd;stroke-width:0.294987"
             d="m 17.509757,-30.936074 v 16.535425 c -0.452893,10e-7 -0.905606,-0.13307 -1.252636,-0.399458 L 6.0071003,-22.668361 16.257121,-30.536615 c 0.34703,-0.266388 0.799743,-0.399459 1.252636,-0.399459 z" />
        </g>
        <path
           id="rect29033-76-0"
           style="fill:#b89644;fill-opacity:1;fill-rule:evenodd;stroke-width:0.319035"
           d="m 5.0002539,-23.668412 c -0.4725829,-1e-6 -0.9449721,0.149165 -1.3070895,0.447776 l -10.6955936,8.819987 H 17.002935 L 6.3073434,-23.220636 C 5.945226,-23.519247 5.4728368,-23.668413 5.0002539,-23.668412 Z" />
        <path
           id="rect29033-76"
           style="fill:url(#linearGradient29605);fill-opacity:1;fill-rule:evenodd;stroke-width:0.29873"
           d="m 5.0002391,-22.806416 c -0.4568329,-1e-6 -0.9134785,0.135291 -1.2635274,0.406128 l -10.3391353,7.999639 H 16.6029 L 6.2637665,-22.400288 c -0.3500489,-0.270837 -0.8066946,-0.406129 -1.2635274,-0.406128 z" />
      </g>
    </g>
    <circle
       style="fill:#8ee2e6;fill-opacity:1;fill-rule:evenodd;stroke-width:0.264583"
       id="path19668"
       cx="13.229167"
       cy="17.371708"
       r="12.36927" />
    <g
       id="g23325"
       transform="matrix(1.1038328,0,0,1.0556553,-1.4203945,2.4847275)">
      <path
         id="path13238-1-2-5-8-7"
         style="fill:#ffba8a;fill-opacity:1;stroke:#000000;stroke-width:0;stroke-linecap:butt;stroke-linejoin:miter;stroke-dasharray:none;stroke-opacity:1"
         d="m 16.819271,12.636543 c 0.67043,0.617916 1.134056,0.347824 1.468873,1.214266 0.459523,1.189155 0.868181,0.708717 0.979463,1.256242 0.113429,0.558083 -0.347532,1.377232 -0.523508,1.962057 -0.348624,1.158587 -1.957651,2.88386 -2.386726,3.836481 -0.429074,0.952613 -1.276065,1.676052 -2.214663,2.139488 -0.938599,0.463437 -2.648614,-0.149591 -3.077684,-0.123843 -0.429078,0.02574 -1.063563,-3.045698 -1.304922,-3.921076 -0.2413505,-0.875377 -1.7163042,-1.544841 -0.2681823,-3.372839 1.4481223,-1.82799 0.7657533,-3.594088 0.7389373,-3.928793 -0.02686,-0.334698 0.968689,0.241138 1.1564,0.447112 0.187727,0.205975 0.955913,1.000131 2.076114,1.468085 0.988071,0.412768 1.872902,0.307679 2.087441,-0.05278 0.214537,-0.360445 1.431864,-1.474872 1.431864,-1.474872 z"
         sodipodi:nodetypes="csssssssscssscc" />
      <path
         style="fill:url(#radialGradient26561-8-4-0);fill-opacity:1;stroke:#000000;stroke-width:0;stroke-linecap:butt;stroke-linejoin:miter;stroke-dasharray:none;stroke-opacity:1"
         d="m 17.217667,3.213663 c 0.606803,0.8738663 1.062356,3.5017719 1.175457,4.2790936 0.264497,1.8178315 -0.616161,4.6342784 -1.419542,5.2250644 -0.891242,0.655393 -1.524971,1.058592 -2.131777,1.131409 -0.910204,0.109233 -1.801441,-0.364105 -2.711643,-1.019507 -0.641083,-0.461614 -1.319842,-0.832515 -1.73014,-1.782356 -0.0962,-0.222717 -0.155578,-0.234424 -0.251774,-0.47383 -0.03928,-0.09779 -0.065,-0.07248 -0.3957512,-0.03195 C 9.5479538,10.566637 8.4345799,9.1799751 8.3564686,8.7761961 8.3032056,8.5008951 10.10425,8.5111101 10.153557,8.3623256 10.684504,6.7602414 11.305141,7.0946374 11.456845,6.2935952 11.60854,5.4925606 12.539225,3.0675815 13.726006,2.1752947 15.207788,2.3128563 16.231614,2.3398114 17.217667,3.21367 Z"
         id="path12892-7-4-9-0-8"
         sodipodi:nodetypes="cssssssssssccc" />
      <path
         style="fill:#333333;fill-opacity:1;stroke:#000000;stroke-width:0;stroke-linecap:butt;stroke-linejoin:miter;stroke-dasharray:none;stroke-opacity:0"
         d="M 0.69485507,24.419483 C 0.02922207,24.447593 0.34400414,24.022245 0.63408527,23.36634 1.0237981,22.485147 1.2548063,21.149474 1.4307929,20.584649 1.6963156,19.732466 1.2478783,17.283063 2.0050757,16.146641 c 0.8526256,-1.279644 3.3095912,-1.479726 5.4331819,-1.953369 1.8906771,-0.4217 2.1132572,-0.887702 2.1132572,-0.887702 0,0 0.5357412,1.882136 0.6836172,2.82651 0.593042,1.736614 2.813396,5.98372 4.026847,6.354345 0.767683,0.199625 1.485444,-0.522181 2.160628,-1.842465 1.223741,-2.392954 1.028475,-2.381065 1.902114,-3.858628 0.464658,-0.852184 0.45041,-2.085203 0.45041,-2.085203 1.243482,0.585636 2.45285,0.953385 3.56562,1.552583 1.28147,0.690039 1.609956,1.860896 1.742716,3.991361 0.0527,0.846361 0.12358,1.631505 0.250086,2.330787 0.191932,1.060943 0.849537,1.877152 -0.183919,1.8535 -0.838358,-0.01919 -2.633817,-0.04197 -2.633817,-0.04197 -8.40983,4.519757 -12.8396956,1.079586 -18.462239,0.02477 -0.7864536,0.0059 -1.5724528,-0.01003 -2.35871825,0.0084 z"
         id="path3866-5-8-8-6"
         sodipodi:nodetypes="csssscccsccsssscccc"
         mask="url(#mask10222)" />
      <path
         style="fill:none;stroke:#848382;stroke-width:0.245254;stroke-linecap:round;stroke-linejoin:miter;stroke-dasharray:none;stroke-opacity:1"
         d="m 16.967047,15.397988 c 0,0 -0.304277,2.975264 -2.260929,4.170601 -0.586741,0.358441 -2.115241,-1.164761 -3.865693,-4.245748"
         id="path27717-0-1-5"
         sodipodi:nodetypes="csc" />
      <path
         style="fill:#916f6f;stroke:#000000;stroke-width:0;stroke-linecap:butt;stroke-linejoin:miter;stroke-dasharray:none;stroke-opacity:1"
         d="m 15.109272,0.0380513 c 2.178694,0.4508776 3.890525,2.179233 4.435196,3.3815632 0.544675,1.2023378 2.023075,4.8093435 1.244968,5.6359516 -0.778104,0.826607 -1.011536,1.4277729 -1.011536,1.4277729 0,0 0.622485,1.427772 0.389052,2.404668 -0.233432,0.976903 -0.855913,2.554962 -0.855913,2.554962 l -0.474822,-0.753573 c 0,0 0.0079,0.979008 -0.303284,1.279599 -0.311243,0.300582 -1.625391,1.87565 -1.625391,1.87565 0,0 0.348193,-1.286596 -0.40793,-2.471478 -0.58451,-0.915953 0.16587,-2.560308 0.16587,-2.560308 0,0 1.322779,-1.728355 1.478398,-3.0809799 C 18.299503,8.3792533 17.910448,4.1710746 16.587672,2.9687445 15.420939,1.9082433 13.553063,2.0669892 13.553063,2.0669892 c 0,0 -0.372128,2.6921755 -1.400588,4.0578834 -0.622481,0.8266001 -1.541706,1.4736419 -1.906353,2.5173855 -0.4996528,0.177464 -0.7760104,0.188895 -1.1024863,0.279081 -0.2877081,0.413428 0.00699,1.1154959 0.3080298,1.2608429 0.4668638,0.225435 0.9422975,0.05307 0.9422975,0.05307 0,0 1.136031,3.930243 0.902599,4.83199 -0.233432,0.901756 -2.8011778,1.578068 -2.8011778,1.578068 l 0.6224813,-1.12719 c 0,0 -0.6224813,0.826608 -1.4005855,0.826608 -0.7781042,0 -0.9337289,-0.450878 -0.9337289,-0.450878 0,0 0.6446537,0.602387 0.7002965,-0.526025 0.1167125,-2.3671 0.8170089,-1.803505 1.0504414,-2.7804 C 8.7677206,11.61053 7.9507125,13.11345 7.4060398,13.338885 6.8613597,13.56432 8.0285202,12.888008 7.9507125,11.98626 7.8728992,11.084505 6.3555993,8.9428501 6.6668395,7.8156589 6.9780797,6.6884677 7.2558727,3.7198193 9.2011383,2.0666114 11.146395,0.4133961 13.138334,-0.1618938 15.109272,0.0380513 Z"
         id="path26059-6-5-0"
         sodipodi:nodetypes="csscsccscscsscsccscsccscssssssc" />
      <path
         style="fill:none;fill-opacity:1;stroke:#685050;stroke-width:0.290578;stroke-linecap:round;stroke-linejoin:round;stroke-miterlimit:8;stroke-dasharray:none;stroke-opacity:1;paint-order:fill markers stroke"
         d="m 13.369957,2.1105931 c 1.489262,0 2.808886,0.2217005 3.59477,1.3560553 0.748954,1.0810491 1.365694,3.5029976 1.232492,5.3237727 -0.129674,1.7725599 -0.868386,2.9446089 -1.474221,3.7937179 -1.212535,1.699429 -2.513544,1.92496 -4.27741,0.726467 -0.770309,-0.552467 -1.457356,-1.102628 -2.061142,-2.934552"
         id="path28002-7"
         sodipodi:nodetypes="cssscc" />
      <g
         id="g27721-2-8-2"
         transform="matrix(-0.77806502,0,0,0.75142122,58.218114,-1.4982215)"
         style="stroke-width:1.21039">
        <ellipse
           style="fill:#aa0000;fill-opacity:1;fill-rule:evenodd;stroke-width:0.320244"
           id="path11936-3-7-4-3-3"
           cx="56.012829"
           cy="28.856459"
           rx="0.53422982"
           ry="0.59104741" />
        <ellipse
           style="fill:#ffffff;fill-rule:evenodd;stroke-width:0.320249"
           id="path12898-2-3-7-8-7"
           cx="61.47369"
           cy="-12.193314"
           rx="0.13521306"
           ry="0.17366834"
           transform="matrix(0.78456418,0.62004762,-0.62454848,0.78098604,0,0)" />
      </g>
    </g>
    <text
       xml:space="preserve"
       style="font-weight:bold;font-size:6.35px;line-height:1.3;font-family:Consolas;-inkscape-font-specification:'Consolas Bold';text-align:center;text-anchor:middle;fill:#fe005b;fill-opacity:0.593284;stroke:#7c7777;stroke-width:0;stroke-linejoin:round;stroke-miterlimit:8;paint-order:fill markers stroke;stop-color:#000000"
       x="13.292464"
       y="36.147953"
       id="text97103"><tspan
         sodipodi:role="line"
         id="tspan97101"
         style="stroke-width:0"
         x="13.292464"
         y="36.147953">Mini</tspan></text>
  </g>
</svg>
