<?xml version="1.0" encoding="UTF-8" standalone="no"?>
<!-- Created with Inkscape (http://www.inkscape.org/) -->

<svg
   width="100"
   height="116"
   viewBox="0 0 26.458333 30.691656"
   version="1.1"
   id="svg2787"
   inkscape:version="1.3.2 (091e20e, 2023-11-25, custom)"
   sodipodi:docname="mij.svg"
   xmlns:inkscape="http://www.inkscape.org/namespaces/inkscape"
   xmlns:sodipodi="http://sodipodi.sourceforge.net/DTD/sodipodi-0.dtd"
   xmlns:xlink="http://www.w3.org/1999/xlink"
   xmlns="http://www.w3.org/2000/svg"
   xmlns:svg="http://www.w3.org/2000/svg">
  <sodipodi:namedview
     id="namedview2789"
     pagecolor="#ffffff"
     bordercolor="#000000"
     borderopacity="0.25"
     inkscape:showpageshadow="2"
     inkscape:pageopacity="0.0"
     inkscape:pagecheckerboard="0"
     inkscape:deskcolor="#d1d1d1"
     inkscape:document-units="mm"
     showgrid="false"
     inkscape:zoom="4"
     inkscape:cx="43.125"
     inkscape:cy="66.875001"
     inkscape:window-width="1920"
     inkscape:window-height="991"
     inkscape:window-x="-9"
     inkscape:window-y="-9"
     inkscape:window-maximized="1"
     inkscape:current-layer="layer1"
     inkscape:lockguides="false"
     showguides="false" />
  <defs
     id="defs2784">
    <linearGradient
       inkscape:collect="always"
       id="linearGradient4">
      <stop
         style="stop-color:#6b6667;stop-opacity:1;"
         offset="0"
         id="stop4" />
      <stop
         style="stop-color:#2b2b2b;stop-opacity:1;"
         offset="1"
         id="stop3" />
    </linearGradient>
    <linearGradient
       inkscape:collect="always"
       xlink:href="#linearGradient29522"
       id="linearGradient31309"
       gradientUnits="userSpaceOnUse"
       gradientTransform="matrix(0.79324094,-0.60890789,0.79324094,0.60890789,4.892518,-8.867114)"
       x1="14.228266"
       y1="-29.189594"
       x2="3.6590269"
       y2="-18.620356" />
    <linearGradient
       inkscape:collect="always"
       id="linearGradient29522">
      <stop
         style="stop-color:#d4a125;stop-opacity:1;"
         offset="0"
         id="stop29518" />
      <stop
         style="stop-color:#edd495;stop-opacity:1;"
         offset="1"
         id="stop29520" />
    </linearGradient>
    <linearGradient
       inkscape:collect="always"
       xlink:href="#linearGradient29522"
       id="linearGradient31385"
       gradientUnits="userSpaceOnUse"
       gradientTransform="matrix(-0.79324094,-0.60890789,-0.79324094,0.60890789,5.1079993,-8.8671145)"
       x1="14.228266"
       y1="-29.189594"
       x2="3.6590269"
       y2="-18.620356" />
    <linearGradient
       inkscape:collect="always"
       xlink:href="#linearGradient29522"
       id="linearGradient29605"
       gradientUnits="userSpaceOnUse"
       gradientTransform="matrix(0.80013746,-0.61907549,0.80013746,0.61907549,17.509457,-0.36880917)"
       x1="14.228266"
       y1="-29.189594"
       x2="3.6590269"
       y2="-18.620356" />
    <linearGradient
       inkscape:collect="always"
       id="linearGradient26559">
      <stop
         style="stop-color:#ffe9d9;stop-opacity:1;"
         offset="0"
         id="stop26555" />
      <stop
         style="stop-color:#ffd0af;stop-opacity:1;"
         offset="0.60792077"
         id="stop26563" />
      <stop
         style="stop-color:#ffb380;stop-opacity:1;"
         offset="1"
         id="stop26557" />
    </linearGradient>
    <radialGradient
       inkscape:collect="always"
       xlink:href="#linearGradient26559"
       id="radialGradient26561-8-4-0"
       cx="50.0355"
       cy="10.592171"
       fx="50.0355"
       fy="10.592171"
       r="5.7715068"
       gradientTransform="matrix(-0.89423857,1.6694392,0.93159897,0.46542199,52.61659,-83.897657)"
       gradientUnits="userSpaceOnUse" />
    <mask
       maskUnits="userSpaceOnUse"
       id="mask10222">
      <circle
         style="fill:#ffffff;fill-opacity:1;fill-rule:evenodd;stroke-width:0.223867"
         id="circle10224"
         cx="13.229167"
         cy="14.816666"
         r="11" />
    </mask>
    <radialGradient
       inkscape:collect="always"
       xlink:href="#linearGradient26559"
       id="radialGradient26561-8-4"
       cx="50.0355"
       cy="10.592171"
       fx="50.0355"
       fy="10.592171"
       r="5.7715068"
       gradientTransform="matrix(0.8824699,1.6474685,-0.91933862,0.45929678,-23.978663,-81.735185)"
       gradientUnits="userSpaceOnUse" />
    <radialGradient
       inkscape:collect="always"
       xlink:href="#linearGradient127555"
       id="radialGradient127557"
       cx="10.793171"
       cy="27.690676"
       fx="10.793171"
       fy="27.690676"
       r="12.047679"
       gradientTransform="matrix(-0.25215378,0.6986493,-1.8027565,-0.65064393,61.197511,26.502722)"
       gradientUnits="userSpaceOnUse" />
    <linearGradient
       inkscape:collect="always"
       id="linearGradient127555">
      <stop
         style="stop-color:#ff476b;stop-opacity:1;"
         offset="0"
         id="stop127551" />
      <stop
         style="stop-color:#d10029;stop-opacity:1;"
         offset="1"
         id="stop127553" />
    </linearGradient>
    <radialGradient
       inkscape:collect="always"
       xlink:href="#linearGradient1"
       id="radialGradient2"
       cx="-13.076502"
       cy="15.057696"
       fx="-13.076502"
       fy="15.057696"
       r="5.2109294"
       gradientTransform="matrix(-0.32203981,1.5793826,-1.7018371,-0.34700858,5.1570025,43.512503)"
       gradientUnits="userSpaceOnUse" />
    <linearGradient
       id="linearGradient1"
       inkscape:collect="always">
      <stop
         style="stop-color:#d49262;stop-opacity:1;"
         offset="0"
         id="stop1" />
      <stop
         style="stop-color:#fbd6bb;stop-opacity:0.94339621;"
         offset="1"
         id="stop2" />
    </linearGradient>
    <radialGradient
       inkscape:collect="always"
       xlink:href="#linearGradient26559"
       id="radialGradient26561-8-4-3"
       cx="50.0355"
       cy="10.592171"
       fx="50.0355"
       fy="10.592171"
       r="5.7715068"
       gradientTransform="matrix(-0.81685285,1.5249691,0.85098015,0.42514525,20.693279,-71.351152)"
       gradientUnits="userSpaceOnUse" />
    <radialGradient
       inkscape:collect="always"
       xlink:href="#linearGradient4"
       id="radialGradient127557-7"
       cx="10.793171"
       cy="27.690676"
       fx="10.793171"
       fy="27.690676"
       r="12.047679"
       gradientTransform="matrix(-0.40520217,0.77019934,-1.8331868,-0.96354603,35.075783,37.304643)"
       gradientUnits="userSpaceOnUse" />
  </defs>
  <g
     inkscape:label="Layer 1"
     inkscape:groupmode="layer"
     id="layer1">
    <g
       id="g117847"
       transform="translate(-85.682011,-18.429019)">
      <path
         id="rect29651"
         style="fill:#b89644;fill-opacity:1;fill-rule:evenodd;stroke-width:0.253198"
         d="m -35.605293,27.319225 c -0.492538,-1e-6 -0.984675,0.144973 -1.362085,0.434689 l -11.14712,8.556916 h 0.0022 V 52.7082 h 25.014637 V 36.31083 h 0.0022 L -34.24267,27.753914 c -0.377408,-0.289716 -0.870084,-0.43469 -1.362623,-0.434689 z" />
      <rect
         style="mix-blend-mode:multiply;fill:#ddd3d3;fill-opacity:1;fill-rule:evenodd;stroke-width:0.259054"
         id="rect31549-1"
         width="22.808271"
         height="19.408148"
         x="-46.973419"
         y="31.062712" />
      <rect
         style="fill:#ffffff;fill-rule:evenodd;stroke-width:0.264583"
         id="rect31549"
         width="22.101128"
         height="20.893148"
         x="-46.655563"
         y="31.252985" />
      <text
         xml:space="preserve"
         style="font-style:normal;font-weight:normal;font-size:15.5252px;line-height:1.25;font-family:sans-serif;fill:#000000;fill-opacity:1;stroke:none;stroke-width:0.24258"
         x="-31.271276"
         y="52.282772"
         id="text33454"
         transform="matrix(0.99810239,0.29980889,-0.22385307,0.93466048,0,0)"><tspan
           sodipodi:role="line"
           id="tspan33452"
           style="font-style:normal;font-variant:normal;font-weight:bold;font-stretch:normal;font-size:15.5252px;font-family:Amiri;-inkscape-font-specification:'Amiri Bold';fill:#ff2e2e;fill-opacity:1;stroke-width:0.24258"
           x="-31.271276"
           y="52.282772">@</tspan></text>
      <path
         id="path31562"
         style="mix-blend-mode:normal;fill:#c5a761;fill-opacity:1;stroke:#000000;stroke-width:0;stroke-linecap:butt;stroke-linejoin:miter;stroke-dasharray:none;stroke-opacity:1"
         d="m -24.548379,36.496118 -11.088147,7.974712 -11.019009,-7.924561 v 2.948302 l 9.953777,8.797419 h 1.995262 l -0.0031,-0.05016 h 0.207925 l 9.953265,-8.797952 z" />
      <g
         id="g31560"
         transform="matrix(1,0,0,0.99165096,-40.605258,66.988617)">
        <g
           id="g31553">
          <path
             id="rect29033-76-4"
             style="fill:url(#linearGradient31309);fill-opacity:1;fill-rule:evenodd;stroke-width:0.294987"
             d="m -7.50924,-30.936074 v 16.535425 c 0.452893,10e-7 0.905606,-0.13307 1.252636,-0.399458 l 10.250021,-7.868254 -10.250021,-7.868254 c -0.34703,-0.266388 -0.799743,-0.399459 -1.252636,-0.399459 z" />
          <path
             id="rect29033-76-4-0"
             style="fill:url(#linearGradient31385);fill-opacity:1;fill-rule:evenodd;stroke-width:0.294987"
             d="m 17.509757,-30.936074 v 16.535425 c -0.452893,10e-7 -0.905606,-0.13307 -1.252636,-0.399458 L 6.0071003,-22.668361 16.257121,-30.536615 c 0.34703,-0.266388 0.799743,-0.399459 1.252636,-0.399459 z" />
        </g>
        <path
           id="rect29033-76-0"
           style="fill:#b89644;fill-opacity:1;fill-rule:evenodd;stroke-width:0.319035"
           d="m 5.0002539,-23.668412 c -0.4725829,-1e-6 -0.9449721,0.149165 -1.3070895,0.447776 l -10.6955936,8.819987 H 17.002935 L 6.3073434,-23.220636 C 5.945226,-23.519247 5.4728368,-23.668413 5.0002539,-23.668412 Z" />
        <path
           id="rect29033-76"
           style="fill:url(#linearGradient29605);fill-opacity:1;fill-rule:evenodd;stroke-width:0.29873"
           d="m 5.0002391,-22.806416 c -0.4568329,-1e-6 -0.9134785,0.135291 -1.2635274,0.406128 l -10.3391353,7.999639 H 16.6029 L 6.2637665,-22.400288 c -0.3500489,-0.270837 -0.8066946,-0.406129 -1.2635274,-0.406128 z" />
      </g>
    </g>
    <circle
       style="fill:#a5e5f9;fill-opacity:1;fill-rule:evenodd;stroke-width:0.264583"
       id="path19668"
       cx="44.979168"
       cy="17.371708"
       r="12.36927" />
    <rect
       style="fill:#a5e5f9;fill-opacity:1;fill-rule:evenodd;stroke-width:0.264583"
       id="rect87428"
       width="11.600592"
       height="8.7657995"
       x="-39.195625"
       y="-12.614801" />
    <g
       id="g23325"
       transform="matrix(1.1038328,0,0,1.0556553,30.329607,2.4847275)">
      <path
         id="path13238-1-2-5-8-7"
         style="fill:#ffba8a;fill-opacity:1;stroke:#000000;stroke-width:0;stroke-linecap:butt;stroke-linejoin:miter;stroke-dasharray:none;stroke-opacity:1"
         d="m 16.819271,12.636543 c 0.67043,0.617916 1.134056,0.347824 1.468873,1.214266 0.459523,1.189155 0.868181,0.708717 0.979463,1.256242 0.113429,0.558083 -0.347532,1.377232 -0.523508,1.962057 -0.348624,1.158587 -1.957651,2.88386 -2.386726,3.836481 -0.429074,0.952613 -1.276065,1.676052 -2.214663,2.139488 -0.938599,0.463437 -2.648614,-0.149591 -3.077684,-0.123843 -0.429078,0.02574 -1.063563,-3.045698 -1.304922,-3.921076 -0.2413505,-0.875377 -1.7163042,-1.544841 -0.2681823,-3.372839 1.4481223,-1.82799 0.7657533,-3.594088 0.7389373,-3.928793 -0.02686,-0.334698 0.968689,0.241138 1.1564,0.447112 0.187727,0.205975 0.955913,1.000131 2.076114,1.468085 0.988071,0.412768 1.872902,0.307679 2.087441,-0.05278 0.214537,-0.360445 1.431864,-1.474872 1.431864,-1.474872 z"
         sodipodi:nodetypes="csssssssscssscc" />
      <path
         style="fill:url(#radialGradient26561-8-4-0);fill-opacity:1;stroke:#000000;stroke-width:0;stroke-linecap:butt;stroke-linejoin:miter;stroke-dasharray:none;stroke-opacity:1"
         d="m 17.217667,3.213663 c 0.606803,0.8738663 1.062356,3.5017719 1.175457,4.2790936 0.264497,1.8178315 -0.616161,4.6342784 -1.419542,5.2250644 -0.891242,0.655393 -1.524971,1.058592 -2.131777,1.131409 -0.910204,0.109233 -1.801441,-0.364105 -2.711643,-1.019507 -0.641083,-0.461614 -1.319842,-0.832515 -1.73014,-1.782356 -0.0962,-0.222717 -0.155578,-0.234424 -0.251774,-0.47383 -0.03928,-0.09779 -0.065,-0.07248 -0.3957512,-0.03195 C 9.5479538,10.566637 8.4345799,9.1799751 8.3564686,8.7761961 8.3032056,8.5008951 10.10425,8.5111101 10.153557,8.3623256 10.684504,6.7602414 11.305141,7.0946374 11.456845,6.2935952 11.60854,5.4925606 12.539225,3.0675815 13.726006,2.1752947 15.207788,2.3128563 16.231614,2.3398114 17.217667,3.21367 Z"
         id="path12892-7-4-9-0-8"
         sodipodi:nodetypes="cssssssssssccc" />
      <path
         style="fill:#333333;fill-opacity:1;stroke:#000000;stroke-width:0;stroke-linecap:butt;stroke-linejoin:miter;stroke-dasharray:none;stroke-opacity:0"
         d="M 0.69485507,24.419483 C 0.02922207,24.447593 0.34400414,24.022245 0.63408527,23.36634 1.0237981,22.485147 1.2548063,21.149474 1.4307929,20.584649 1.6963156,19.732466 1.2478783,17.283063 2.0050757,16.146641 c 0.8526256,-1.279644 3.3095912,-1.479726 5.4331819,-1.953369 1.8906771,-0.4217 2.1132572,-0.887702 2.1132572,-0.887702 0,0 0.5357412,1.882136 0.6836172,2.82651 0.593042,1.736614 2.813396,5.98372 4.026847,6.354345 0.767683,0.199625 1.485444,-0.522181 2.160628,-1.842465 1.223741,-2.392954 1.028475,-2.381065 1.902114,-3.858628 0.464658,-0.852184 0.45041,-2.085203 0.45041,-2.085203 1.243482,0.585636 2.45285,0.953385 3.56562,1.552583 1.28147,0.690039 1.609956,1.860896 1.742716,3.991361 0.0527,0.846361 0.12358,1.631505 0.250086,2.330787 0.191932,1.060943 0.849537,1.877152 -0.183919,1.8535 -0.838358,-0.01919 -2.633817,-0.04197 -2.633817,-0.04197 -8.40983,4.519757 -12.8396956,1.079586 -18.462239,0.02477 -0.7864536,0.0059 -1.5724528,-0.01003 -2.35871825,0.0084 z"
         id="path3866-5-8-8-6"
         sodipodi:nodetypes="csssscccsccsssscccc"
         mask="url(#mask10222)" />
      <path
         style="fill:none;stroke:#848382;stroke-width:0.245254;stroke-linecap:round;stroke-linejoin:miter;stroke-dasharray:none;stroke-opacity:1"
         d="m 16.967047,15.397988 c 0,0 -0.304277,2.975264 -2.260929,4.170601 -0.586741,0.358441 -2.115241,-1.164761 -3.865693,-4.245748"
         id="path27717-0-1-5"
         sodipodi:nodetypes="csc" />
      <path
         style="fill:#916f6f;stroke:#000000;stroke-width:0;stroke-linecap:butt;stroke-linejoin:miter;stroke-dasharray:none;stroke-opacity:1"
         d="m 15.109272,0.0380513 c 2.178694,0.4508776 3.890525,2.179233 4.435196,3.3815632 0.544675,1.2023378 2.023075,4.8093435 1.244968,5.6359516 -0.778104,0.826607 -1.011536,1.4277729 -1.011536,1.4277729 0,0 0.622485,1.427772 0.389052,2.404668 -0.233432,0.976903 -0.855913,2.554962 -0.855913,2.554962 l -0.474822,-0.753573 c 0,0 0.0079,0.979008 -0.303284,1.279599 -0.311243,0.300582 -1.625391,1.87565 -1.625391,1.87565 0,0 0.348193,-1.286596 -0.40793,-2.471478 -0.58451,-0.915953 0.16587,-2.560308 0.16587,-2.560308 0,0 1.322779,-1.728355 1.478398,-3.0809799 C 18.299503,8.3792533 17.910448,4.1710746 16.587672,2.9687445 15.420939,1.9082433 13.553063,2.0669892 13.553063,2.0669892 c 0,0 -0.372128,2.6921755 -1.400588,4.0578834 -0.622481,0.8266001 -1.541706,1.4736419 -1.906353,2.5173855 -0.4996528,0.177464 -0.7760104,0.188895 -1.1024863,0.279081 -0.2877081,0.413428 0.00699,1.1154959 0.3080298,1.2608429 0.4668638,0.225435 0.9422975,0.05307 0.9422975,0.05307 0,0 1.136031,3.930243 0.902599,4.83199 -0.233432,0.901756 -2.8011778,1.578068 -2.8011778,1.578068 l 0.6224813,-1.12719 c 0,0 -0.6224813,0.826608 -1.4005855,0.826608 -0.7781042,0 -0.9337289,-0.450878 -0.9337289,-0.450878 0,0 0.6446537,0.602387 0.7002965,-0.526025 0.1167125,-2.3671 0.8170089,-1.803505 1.0504414,-2.7804 C 8.7677206,11.61053 7.9507125,13.11345 7.4060398,13.338885 6.8613597,13.56432 8.0285202,12.888008 7.9507125,11.98626 7.8728992,11.084505 6.3555993,8.9428501 6.6668395,7.8156589 6.9780797,6.6884677 7.2558727,3.7198193 9.2011383,2.0666114 11.146395,0.4133961 13.138334,-0.1618938 15.109272,0.0380513 Z"
         id="path26059-6-5-0"
         sodipodi:nodetypes="csscsccscscsscsccscsccscssssssc" />
      <path
         style="fill:none;fill-opacity:1;stroke:#685050;stroke-width:0.290578;stroke-linecap:round;stroke-linejoin:round;stroke-miterlimit:8;stroke-dasharray:none;stroke-opacity:1;paint-order:fill markers stroke"
         d="m 13.369957,2.1105931 c 1.489262,0 2.808886,0.2217005 3.59477,1.3560553 0.748954,1.0810491 1.365694,3.5029976 1.232492,5.3237727 -0.129674,1.7725599 -0.868386,2.9446089 -1.474221,3.7937179 -1.212535,1.699429 -2.513544,1.92496 -4.27741,0.726467 -0.770309,-0.552467 -1.457356,-1.102628 -2.061142,-2.934552"
         id="path28002-7"
         sodipodi:nodetypes="cssscc" />
      <g
         id="g27721-2-8-2"
         transform="matrix(-0.77806502,0,0,0.75142122,58.218114,-1.4982215)"
         style="stroke-width:1.21039">
        <ellipse
           style="fill:#aa0000;fill-opacity:1;fill-rule:evenodd;stroke-width:0.320244"
           id="path11936-3-7-4-3-3"
           cx="56.012829"
           cy="28.856459"
           rx="0.53422982"
           ry="0.59104741" />
        <ellipse
           style="fill:#ffffff;fill-rule:evenodd;stroke-width:0.320249"
           id="path12898-2-3-7-8-7"
           cx="61.47369"
           cy="-12.193314"
           rx="0.13521306"
           ry="0.17366834"
           transform="matrix(0.78456418,0.62004762,-0.62454848,0.78098604,0,0)" />
      </g>
    </g>
    <g
       id="g2"
       transform="translate(-57.383306,-8.3364615)">
      <path
         id="path13238-1-2-5-8"
         style="fill:#ffba8a;fill-opacity:1;stroke:#000000;stroke-width:0;stroke-linecap:butt;stroke-linejoin:miter;stroke-dasharray:none;stroke-opacity:1"
         d="m 11.347545,13.528572 c -0.661607,0.609783 -1.079044,0.359838 -1.4495422,1.198286 -0.3704992,0.838455 -0.7939879,2.032605 -0.4499533,3.175945 0.344033,1.143339 1.9318865,2.845906 2.3553145,3.78599 0.423427,0.940076 1.53501,2.159514 2.461255,2.616852 0.926247,0.457337 2.223128,-0.101666 2.646551,-0.07626 0.423432,0.0254 1.164457,-3.557093 1.40264,-4.42095 0.238175,-0.863856 1.693717,-1.52451 0.264653,-3.32845 -1.429064,-1.80393 -0.755676,-3.546785 -0.729213,-3.877085 0.02651,-0.330293 -0.95594,0.237965 -1.141181,0.441228 -0.185256,0.203264 -0.943333,0.986968 -2.048791,1.448764 -0.975068,0.407336 -1.848254,0.30363 -2.059969,-0.05208 C 12.387595,14.08511 11.186288,12.98535 11.186288,12.98535 Z"
         sodipodi:nodetypes="cssssssscssscc" />
      <path
         style="fill:url(#radialGradient26561-8-4);fill-opacity:1;stroke:#000000;stroke-width:0;stroke-linecap:butt;stroke-linejoin:miter;stroke-dasharray:none;stroke-opacity:1"
         d="M 10.954392,4.2297026 C 10.355575,5.0920684 9.9060175,7.6853893 9.7944047,8.452481 c -0.2610155,1.793907 0.6080523,4.573288 1.4008603,5.156299 0.879513,0.646768 1.504901,1.044661 2.103722,1.116519 0.898225,0.107795 1.777733,-0.359313 2.675956,-1.006089 0.632646,-0.455539 1.302473,-0.821559 1.707371,-1.7589 0.09493,-0.219785 0.15353,-0.231337 0.248459,-0.467593 0.03877,-0.0965 0.06414,-0.07152 0.390544,-0.03153 0.201852,0.02473 1.300573,-1.343692 1.377656,-1.742157 C 19.751531,9.4473476 17.974193,9.457428 17.925534,9.310602 17.401576,7.7296021 16.789106,8.0595973 16.639399,7.2690973 16.4897,6.4786047 15.571263,4.0855397 14.400101,3.2049958 12.937821,3.3407471 11.927469,3.3673474 10.954392,4.2297056 Z"
         id="path12892-7-4-9-0"
         sodipodi:nodetypes="cssssssssssccc" />
      <g
         id="g27721-2-8"
         transform="matrix(0.76782527,0,0,0.74153211,-28.352855,-0.12770609)"
         style="stroke-width:1.21039">
        <ellipse
           style="fill:#aa0000;fill-opacity:1;fill-rule:evenodd;stroke-width:0.320244"
           id="path11936-3-7-4-3"
           cx="56.012829"
           cy="28.856459"
           rx="0.53422982"
           ry="0.59104741" />
        <ellipse
           style="fill:#ffffff;fill-rule:evenodd;stroke-width:0.320249"
           id="path12898-2-3-7-8"
           cx="61.47369"
           cy="-12.193314"
           rx="0.13521306"
           ry="0.17366834"
           transform="matrix(0.78456418,0.62004762,-0.62454848,0.78098604,0,0)" />
      </g>
      <path
         style="fill:url(#radialGradient127557);fill-opacity:1;stroke:#000000;stroke-width:0;stroke-linecap:butt;stroke-linejoin:miter;stroke-dasharray:none;stroke-opacity:0"
         d="m 0.43410809,24.690322 c -0.65687318,0.02525 -0.34623375,-0.356766 -0.0599709,-0.945846 0.38458438,-0.791414 0.61255203,-1.991003 0.78622271,-2.498282 0.2620288,-0.765361 0.9360311,-3.314513 1.4739126,-3.890585 0.9826088,-1.052374 2.3588481,-1.424231 4.4544914,-1.849618 1.8657947,-0.378735 2.5220308,-0.797259 2.5220308,-0.797259 0,0 0.3174888,1.663259 0.7205773,2.423645 0.524059,0.988593 0.956881,1.280866 1.419328,2.019702 1.535933,2.453901 1.977343,4.067421 2.734925,4.246699 0.757581,0.179286 0.872736,-0.723019 1.539034,-1.908787 1.207635,-2.149152 0.945155,-2.329004 1.807297,-3.656027 0.458544,-0.765361 0.932968,-1.713982 0.932968,-1.713982 l 1.490793,0.597827 c 0,0 0.536925,0.05747 1.539416,0.6378 1.211884,0.70158 1.539423,1.626393 1.670436,3.539799 0.05201,0.760131 0.171299,1.510191 0.296139,2.138227 0.189406,0.952851 0.838357,1.685902 -0.181498,1.66466 -0.827324,-0.01723 -2.599155,-0.03769 -2.599155,-0.03769 l -18.2192664,0.02225 c -0.7761038,0.0052 -1.5517587,-0.009 -2.32767669,0.0075 z"
         id="path3866-5-8-8"
         sodipodi:nodetypes="csssscsszscccsssscccc" />
      <path
         style="fill:none;stroke:#848382;stroke-width:0.242027;stroke-linecap:round;stroke-linejoin:miter;stroke-dasharray:none;stroke-opacity:1"
         d="m 11.249754,16.483457 c 0,0 1.022975,2.936108 3.244228,4.115714 0.666086,0.353723 1.804478,-1.149432 2.78351,-4.189872"
         id="path27717-0-1"
         sodipodi:nodetypes="csc" />
      <path
         style="fill:#916f6f;stroke:#000000;stroke-width:0;stroke-linecap:butt;stroke-linejoin:miter;stroke-dasharray:none;stroke-opacity:1"
         d="M 13.03504,1.0958837 C 10.885018,1.5408276 9.1957168,3.2464368 8.6582134,4.4329437 8.1207069,5.619458 6.661764,9.1789936 7.429629,9.9947227 c 0.7678643,0.8157293 0.9982243,1.4089823 0.9982243,1.4089823 0,0 -0.6142921,1.408983 -0.3839321,2.373021 0.23036,0.964047 0.8446499,2.521339 0.8446499,2.521339 l 0.5375065,-1.260666 c 0,0 -0.076789,1.483134 0.2303578,1.779768 0.3071465,0.296627 1.6039996,1.850967 1.6039996,1.850967 0,0 -0.34361,-1.269665 0.402563,-2.438953 0.576816,-0.903899 -0.163688,-2.526613 -0.163688,-2.526613 0,0 -1.30537,-1.705609 -1.458941,-3.040433 -0.1535751,-1.3348243 0.230359,-5.4876208 1.535727,-6.6741277 1.151379,-1.0465444 2.994672,-0.8898876 2.994672,-0.8898876 0,0 0.367231,2.6567449 1.382156,4.0044794 0.614288,0.8157216 1.521417,1.454248 1.881265,2.4842553 0.493076,0.1751287 0.765797,0.1864087 1.087976,0.275408 0.283922,0.4079866 -0.0069,1.1008146 -0.303975,1.2442496 -0.46072,0.222468 -0.929897,0.05237 -0.929897,0.05237 0,0 -1.121081,3.878518 -0.890721,4.768398 0.23036,0.889888 2.764313,1.5573 2.764313,1.5573 l -0.614288,-1.112356 c 0,0 0.614288,0.815729 1.382152,0.815729 0.767865,0 0.921441,-0.444943 0.921441,-0.444943 0,0 -0.63617,0.594459 -0.69108,-0.519103 -0.115177,-2.335945 -0.806257,-1.779768 -1.036617,-2.743806 -0.23036,-0.964039 0.575896,0.519102 1.113401,0.74157 0.537512,0.222468 -0.614289,-0.444944 -0.537505,-1.334824 C 20.176179,11.99696 21.67351,9.8834896 21.366366,8.7711338 21.059222,7.658777 20.785084,4.7291976 18.86542,3.0977469 16.945763,1.4662887 14.980039,0.89857 13.03504,1.0958837 Z"
         id="path26059-6-5"
         sodipodi:nodetypes="csscsccscscsscsccscsccscssssssc" />
      <path
         style="fill:none;fill-opacity:1;stroke:#685050;stroke-width:0.286753;stroke-linecap:round;stroke-linejoin:round;stroke-miterlimit:8;stroke-dasharray:none;stroke-opacity:1;paint-order:fill markers stroke"
         d="m 14.751465,3.1411497 c -1.469663,0 -2.77192,0.2187829 -3.547461,1.3382089 C 10.464907,5.5461806 9.8562825,7.9362548 9.9877319,9.7330675 10.1157,11.4823 10.844689,12.638923 11.442551,13.476857 c 1.196578,1.677064 2.480465,1.899627 4.221118,0.716907 0.76017,-0.545196 1.438176,-1.088117 2.034015,-2.895931"
         id="path28002"
         sodipodi:nodetypes="cssscc" />
    </g>
    <g
       id="g1"
       transform="matrix(0.98956802,0,0,1.0145875,29.297865,-0.06588338)">
      <path
         id="path13238-1-2-5-8-1"
         style="fill:url(#radialGradient2);fill-opacity:1;stroke:#000000;stroke-width:0;stroke-linecap:butt;stroke-linejoin:miter;stroke-dasharray:none;stroke-opacity:1"
         d="m -12.006207,16.82916 c 0.612412,0.564442 1.035917,0.317724 1.341759,1.109185 0.419757,1.086248 0.7930503,0.647386 0.8947022,1.147529 0.1036131,0.509788 -0.3174572,1.258049 -0.4782042,1.792265 -0.318455,1.058325 -1.78824,2.634296 -2.180184,3.504479 -0.391942,0.870176 -0.03661,1.757192 -0.964677,1.987414 -3.885673,0.96391 -5.932864,-6.58023 -5.855358,-7.288861 -0.02454,-0.305734 1.612465,-3.153167 1.783932,-2.965017 0.171481,0.18815 1.369284,1.178164 2.392545,1.605622 0.902565,0.377048 1.650266,0.208384 1.906797,-0.04821 0.270901,-0.270971 1.307954,-1.34724 1.307954,-1.34724 z"
         sodipodi:nodetypes="cssssscssscc" />
      <path
         style="fill:url(#radialGradient127557-7);fill-opacity:1;stroke:#000000;stroke-width:0;stroke-linecap:butt;stroke-linejoin:miter;stroke-dasharray:none;stroke-opacity:0"
         d="m -27.45588,24.155896 c 0.353257,-1.460078 0.936031,-3.314513 1.473913,-3.890585 0.982608,-1.052374 2.358848,-1.424231 4.454491,-1.849618 1.865795,-0.378735 2.522031,-0.797259 2.522031,-0.797259 0,0 0.317488,1.663259 0.720577,2.423645 0.524059,0.988593 0.956881,1.280866 1.419328,2.019702 1.535933,2.453901 1.977343,4.067421 2.734925,4.246699 0.757581,0.179286 0.872736,-0.723019 1.539034,-1.908787 1.207635,-2.149152 0.945155,-2.329004 1.807297,-3.656027 0.458544,-0.765361 0.9329678,-1.713982 0.9329678,-1.713982 l 1.490793,0.597827 c 0,0 0.536925,0.05747 1.539416,0.6378 1.2118841,0.70158 1.6642468,1.77108 1.8137666,3.683129 0.024047,1.291508 0.468767,2.915617 0.480213,3.665452 0.010432,0.683408 0.9014456,2.552873 -0.1942614,2.571713 -5.0323185,0.08653 -15.762262,0.03393 -22.342247,0.01444 -0.809873,-0.0024 -1.959935,0.435407 -1.33857,-2.132813 z"
         id="path3866-5-8-8-8"
         sodipodi:nodetypes="ssscsszscccsssssss" />
      <path
         style="fill:url(#radialGradient26561-8-4-3);fill-opacity:1;stroke:#000000;stroke-width:0;stroke-linecap:butt;stroke-linejoin:miter;stroke-dasharray:none;stroke-opacity:1"
         d="m -11.642288,8.2217181 c 0.554292,0.7982435 1.033226,2.2738079 1.073735,3.9087889 0.04156,1.67749 -0.04903,3.20191 -1.193928,4.677964 -0.541475,0.698093 -1.524397,1.427479 -2.079593,1.485999 -1.62292,0.171063 -1.964128,-0.430637 -2.795562,-1.029321 -0.585605,-0.421667 -0.857519,-1.019998 -1.232311,-1.887641 -0.08788,-0.203443 -0.142114,-0.214137 -0.229986,-0.432826 -0.03588,-0.08933 -0.05937,-0.06621 -0.361503,-0.02919 -0.186842,0.02288 -1.203867,-1.24378 -1.275219,-1.612617 -0.04865,-0.251477 1.596532,-0.242146 1.641572,-0.378055 0.485,-1.463443 1.051928,-1.157985 1.190504,-1.889706 0.138567,-0.731715 1.004862,-3.0518074 2.088941,-3.8668773 1.353551,0.1256572 2.272628,0.2552462 3.17335,1.0534828 z"
         id="path12892-7-4-9-0-9"
         sodipodi:nodetypes="cssssssssssccc" />
      <path
         style="fill:none;stroke:#848382;stroke-width:0.245254;stroke-linecap:round;stroke-linejoin:miter;stroke-dasharray:none;stroke-opacity:1"
         d="m -11.87122,19.351634 c 0,0 -0.277945,2.717791 -2.065272,3.809685 -0.535966,0.327423 -1.932192,-1.063964 -3.531163,-3.878329"
         id="path27717-0-1-6"
         sodipodi:nodetypes="csc" />
      <path
         style="fill:#916f6f;stroke:#000000;stroke-width:0;stroke-linecap:butt;stroke-linejoin:miter;stroke-dasharray:none;stroke-opacity:1"
         d="m -13.568226,5.3209178 c 1.990154,0.4118595 3.553846,1.9906463 4.0513822,3.0889291 0.4975398,1.0982898 1.8480019,4.3931521 1.1372308,5.1482271 -0.7107684,0.755074 -0.9239996,1.304216 -0.9239996,1.304216 0,0 0.5686163,1.304215 0.3553842,2.196572 -0.2132313,0.892364 -0.7818439,2.333861 -0.7818439,2.333861 l -0.4337317,-0.68836 c 0,0 0.0072,0.894286 -0.277038,1.168864 -0.284309,0.274571 -1.484733,1.713335 -1.484733,1.713335 0,0 0.318061,-1.175256 -0.372629,-2.257601 -0.533927,-0.836688 0.10307,-2.096513 0.10307,-2.096513 0,0 1.256754,-1.142771 1.463501,-2.814357 0.152664,-1.234318 0.473218,-5.1780717 -1.920384,-6.4060463 -1.475595,-0.7570156 -2.037274,-0.7627065 -2.037274,-0.7627065 0,0 -0.457696,1.8131939 -1.579857,3.6316588 -0.496385,0.804394 -1.408289,1.346116 -1.74138,2.299536 -0.456414,0.162106 -0.708856,0.172548 -1.007079,0.25493 -0.262811,0.37765 0.0064,1.018963 0.281372,1.151732 0.426463,0.205926 0.860754,0.04848 0.860754,0.04848 0,0 1.037721,3.590127 0.824489,4.413838 -0.213231,0.82372 -2.558769,1.441505 -2.558769,1.441505 l 0.568613,-1.029645 c 0,0 -0.568613,0.755075 -1.279381,0.755075 -0.710769,0 -0.852926,-0.41186 -0.852926,-0.41186 0,0 0.588867,0.550258 0.639695,-0.480503 0.106612,-2.162256 0.746305,-1.647434 0.959537,-2.53979 0.213232,-0.892356 -0.533075,0.480504 -1.030612,0.68643 -0.497545,0.205926 0.568612,-0.411859 0.497537,-1.235571 -0.07108,-0.823719 -1.457075,-2.780039 -1.172769,-3.809685 0.284307,-1.029646 0.53806,-3.7413934 2.314985,-5.2515358 1.776919,-1.5101492 3.596479,-2.0356546 5.396856,-1.8530124 z"
         id="path26059-6-5-7"
         sodipodi:nodetypes="csscsccscscsscsccscsccscssssssc" />
      <g
         id="g27721-2-8-1"
         transform="matrix(-0.71073274,0,0,0.68639464,25.810058,3.9175912)"
         style="stroke-width:1.32505">
        <ellipse
           style="fill:#aa0000;fill-opacity:1;fill-rule:evenodd;stroke-width:0.350583"
           id="path11936-3-7-4-3-1"
           cx="56.012829"
           cy="28.856459"
           rx="0.53422982"
           ry="0.59104741" />
        <ellipse
           style="fill:#ffffff;fill-rule:evenodd;stroke-width:0.350589"
           id="path12898-2-3-7-8-0"
           cx="61.47369"
           cy="-12.193314"
           rx="0.13521306"
           ry="0.17366834"
           transform="matrix(0.78456418,0.62004762,-0.62454848,0.78098604,0,0)" />
      </g>
    </g>
    <text
       xml:space="preserve"
       style="font-weight:bold;font-size:6.35px;line-height:1.3;font-family:Consolas;-inkscape-font-specification:'Consolas Bold';text-align:center;text-anchor:middle;fill:#fe005b;fill-opacity:0.593284;stroke:#7c7777;stroke-width:0;stroke-linejoin:round;stroke-miterlimit:8;paint-order:fill markers stroke;stop-color:#000000"
       x="13.292464"
       y="36.147953"
       id="text97103"><tspan
         sodipodi:role="line"
         id="tspan97101"
         style="stroke-width:0"
         x="13.292464"
         y="36.147953">Mini</tspan></text>
  </g>
</svg>
