<?xml version="1.0" encoding="UTF-8" standalone="no"?>
<!-- Created with Inkscape (http://www.inkscape.org/) -->

<svg
   width="28.200001mm"
   height="27.252001mm"
   viewBox="0 0 28.2 27.251995"
   version="1.1"
   id="svg2787"
   inkscape:version="1.2.2 (732a01da63, 2022-12-09)"
   sodipodi:docname="mij.svg"
   xmlns:inkscape="http://www.inkscape.org/namespaces/inkscape"
   xmlns:sodipodi="http://sodipodi.sourceforge.net/DTD/sodipodi-0.dtd"
   xmlns:xlink="http://www.w3.org/1999/xlink"
   xmlns="http://www.w3.org/2000/svg"
   xmlns:svg="http://www.w3.org/2000/svg">
  <sodipodi:namedview
     id="namedview2789"
     pagecolor="#ffffff"
     bordercolor="#000000"
     borderopacity="0.25"
     inkscape:showpageshadow="2"
     inkscape:pageopacity="0.0"
     inkscape:pagecheckerboard="0"
     inkscape:deskcolor="#d1d1d1"
     inkscape:document-units="mm"
     showgrid="false"
     inkscape:zoom="2.8284271"
     inkscape:cx="17.500893"
     inkscape:cy="57.629203"
     inkscape:window-width="1366"
     inkscape:window-height="705"
     inkscape:window-x="-8"
     inkscape:window-y="-8"
     inkscape:window-maximized="1"
     inkscape:current-layer="layer1"
     inkscape:lockguides="true" />
  <defs
     id="defs2784">
    <linearGradient
       inkscape:collect="always"
       xlink:href="#linearGradient29522"
       id="linearGradient31309"
       gradientUnits="userSpaceOnUse"
       gradientTransform="matrix(0.79324094,-0.60890789,0.79324094,0.60890789,4.892518,-8.867114)"
       x1="14.228266"
       y1="-29.189594"
       x2="3.6590269"
       y2="-18.620356" />
    <linearGradient
       inkscape:collect="always"
       id="linearGradient29522">
      <stop
         style="stop-color:#d4a125;stop-opacity:1;"
         offset="0"
         id="stop29518" />
      <stop
         style="stop-color:#edd495;stop-opacity:1;"
         offset="1"
         id="stop29520" />
    </linearGradient>
    <linearGradient
       inkscape:collect="always"
       xlink:href="#linearGradient29522"
       id="linearGradient31385"
       gradientUnits="userSpaceOnUse"
       gradientTransform="matrix(-0.79324094,-0.60890789,-0.79324094,0.60890789,5.1079993,-8.8671145)"
       x1="14.228266"
       y1="-29.189594"
       x2="3.6590269"
       y2="-18.620356" />
    <linearGradient
       inkscape:collect="always"
       xlink:href="#linearGradient29522"
       id="linearGradient29605"
       gradientUnits="userSpaceOnUse"
       gradientTransform="matrix(0.80013746,-0.61907549,0.80013746,0.61907549,17.509457,-0.36880917)"
       x1="14.228266"
       y1="-29.189594"
       x2="3.6590269"
       y2="-18.620356" />
    <linearGradient
       inkscape:collect="always"
       xlink:href="#linearGradient83550"
       id="linearGradient83552"
       x1="24.659483"
       y1="1.8476212"
       x2="18.970604"
       y2="8.4479589"
       gradientUnits="userSpaceOnUse"
       gradientTransform="matrix(-1.1794955,0.59918615,0.15516832,0.92717141,45.514485,-13.019802)" />
    <linearGradient
       inkscape:collect="always"
       id="linearGradient83550">
      <stop
         style="stop-color:#b8f768;stop-opacity:1;"
         offset="0"
         id="stop83546" />
      <stop
         style="stop-color:#47bb08;stop-opacity:1;"
         offset="1"
         id="stop83548" />
    </linearGradient>
    <linearGradient
       inkscape:collect="always"
       xlink:href="#linearGradient83558"
       id="linearGradient83560"
       x1="20.859287"
       y1="2.247642"
       x2="18.970604"
       y2="8.4479589"
       gradientUnits="userSpaceOnUse"
       gradientTransform="matrix(-1.1794955,0.59918615,0.15516832,0.92717141,45.514485,-13.019802)" />
    <linearGradient
       inkscape:collect="always"
       id="linearGradient83558">
      <stop
         style="stop-color:#94dc14;stop-opacity:1;"
         offset="0"
         id="stop83554" />
      <stop
         style="stop-color:#52992a;stop-opacity:1;"
         offset="1"
         id="stop83556" />
    </linearGradient>
    <linearGradient
       inkscape:collect="always"
       xlink:href="#linearGradient80910"
       id="linearGradient80912"
       x1="5.4500256"
       y1="4.8628373"
       x2="6.8503499"
       y2="8.4630213"
       gradientUnits="userSpaceOnUse"
       gradientTransform="matrix(1.4584819,0,0,1.1432859,-2.7986517,-1.4186409)" />
    <linearGradient
       inkscape:collect="always"
       id="linearGradient80910">
      <stop
         style="stop-color:#f95353;stop-opacity:1;"
         offset="0"
         id="stop80906" />
      <stop
         style="stop-color:#d81634;stop-opacity:1;"
         offset="0.36831683"
         id="stop83544" />
      <stop
         style="stop-color:#940f24;stop-opacity:1;"
         offset="1"
         id="stop80908" />
    </linearGradient>
    <linearGradient
       inkscape:collect="always"
       xlink:href="#linearGradient97309"
       id="linearGradient69578"
       x1="18.775"
       y1="20.436071"
       x2="15.344643"
       y2="14.355"
       gradientUnits="userSpaceOnUse"
       gradientTransform="matrix(1.1398673,0,0,1.103479,-2.9884644,-2.7389093)" />
    <linearGradient
       inkscape:collect="always"
       id="linearGradient97309">
      <stop
         style="stop-color:#18cfca;stop-opacity:1;"
         offset="0"
         id="stop97303" />
      <stop
         style="stop-color:#73dbee;stop-opacity:1;"
         offset="0.70099008"
         id="stop97305" />
      <stop
         style="stop-color:#9feafb;stop-opacity:1;"
         offset="1"
         id="stop97307" />
    </linearGradient>
    <linearGradient
       inkscape:collect="always"
       xlink:href="#linearGradient79520"
       id="linearGradient79522"
       x1="13.155144"
       y1="2.2848656"
       x2="13.655619"
       y2="13.385432"
       gradientUnits="userSpaceOnUse"
       gradientTransform="translate(-0.52916667)" />
    <linearGradient
       inkscape:collect="always"
       id="linearGradient79520">
      <stop
         style="stop-color:#f0183b;stop-opacity:1;"
         offset="0"
         id="stop79516" />
      <stop
         style="stop-color:#df1737;stop-opacity:1;"
         offset="0.49306932"
         id="stop79524" />
      <stop
         style="stop-color:#7e1527;stop-opacity:1;"
         offset="1"
         id="stop79518" />
    </linearGradient>
    <radialGradient
       inkscape:collect="always"
       xlink:href="#linearGradient26559"
       id="radialGradient26561-8-4"
       cx="50.0355"
       cy="10.592171"
       fx="50.0355"
       fy="10.592171"
       r="5.7715068"
       gradientTransform="matrix(-0.96016524,1.7925166,1.00028,0.49973467,56.223612,-88.922079)"
       gradientUnits="userSpaceOnUse" />
    <linearGradient
       inkscape:collect="always"
       id="linearGradient26559">
      <stop
         style="stop-color:#ffe9d9;stop-opacity:1;"
         offset="0"
         id="stop26555" />
      <stop
         style="stop-color:#ffd0af;stop-opacity:1;"
         offset="0.60792077"
         id="stop26563" />
      <stop
         style="stop-color:#ffb380;stop-opacity:1;"
         offset="1"
         id="stop26557" />
    </linearGradient>
  </defs>
  <g
     inkscape:label="Layer 1"
     inkscape:groupmode="layer"
     id="layer1">
    <path
       style="fill:#dffa7f;fill-opacity:1;stroke:#b7df06;stroke-width:2.49667;stroke-linecap:round;stroke-linejoin:round;stroke-miterlimit:8;stroke-dasharray:none;stroke-opacity:1;paint-order:fill markers stroke;stop-color:#000000"
       d="M 26.136345,26.300456 H 2.8120096"
       id="path44300" />
    <g
       id="g120516"
       transform="matrix(1,0,0,0.99765624,79.839121,27.441192)"
       style="stroke-width:1.00118">
      <path
         id="rect77221"
         style="fill:#895e2b;fill-rule:evenodd;stroke-width:0.238771"
         d="m 21.719094,14.001429 c 0.934783,0 1.275744,0.346102 1.323532,0.853139 0,0 0.172984,3.596558 0.310535,4.955762 0.111392,1.100711 0.383996,2.413323 0.383996,2.413323 0.0843,0.502259 -1.08328,0.687775 -2.018063,0.687775 -0.934783,0 -1.687335,-0.410001 -1.687335,-0.919285 v -7.071429 c 0,-0.509284 0.752552,-0.919285 1.687335,-0.919285 z"
         sodipodi:nodetypes="ssssssss" />
      <path
         style="fill:url(#linearGradient83552);fill-opacity:1;stroke:url(#linearGradient83560);stroke-width:1.00118;stroke-linecap:round;stroke-linejoin:round;stroke-miterlimit:8;stroke-dasharray:1.00118;stroke-dashoffset:1.30152;stroke-opacity:1;paint-order:fill markers stroke;stop-color:#000000"
         d="m 21.348614,1.7548129 c -2.462917,1.1685044 -2.604466,5.311618 -3.141468,7.7153562 -0.574925,2.5734869 0.495946,5.4078819 1.966743,5.9285329 5.961166,2.110206 4.719718,-3.156569 4.609097,-5.4007653 C 23.711024,5.6968855 23.118999,0.91487365 21.348614,1.7548129 Z"
         id="path72803"
         sodipodi:nodetypes="ssscs" />
      <rect
         style="fill:url(#linearGradient80912);fill-opacity:1;fill-rule:evenodd;stroke-width:0.264892"
         id="rect69677"
         width="3.719687"
         height="6.7175598"
         x="4.4208331"
         y="3.1832151"
         rx="0.64963806"
         ry="0.64963806" />
      <path
         id="rect60261-0"
         style="fill:#ecf0eb;fill-opacity:1;fill-rule:evenodd;stroke:#a0a4a0;stroke-width:0;stroke-linejoin:round;stroke-dasharray:none;stroke-opacity:1"
         d="M 12.375937,2.9556644 3.2772843,11.887378 V 24.188692 H 21.475095 V 11.887899 Z" />
      <rect
         style="fill:#b98539;fill-opacity:1;fill-rule:evenodd;stroke:#ffffff;stroke-width:0;stroke-linejoin:round;stroke-dasharray:none;stroke-opacity:1"
         id="rect61077"
         width="5.7040987"
         height="9.7682972"
         x="5.3170004"
         y="14.441001"
         rx="0.29765624"
         ry="0.29765624" />
      <rect
         style="fill:url(#linearGradient69578);fill-opacity:1;fill-rule:evenodd;stroke:#09f9d9;stroke-width:0;stroke-linecap:round;stroke-linejoin:round;stroke-dasharray:none;stroke-opacity:1"
         id="rect61075"
         width="7.3350458"
         height="6.398602"
         x="12.810097"
         y="13.101532"
         rx="0.29765624"
         ry="0.29765624" />
      <path
         style="fill:#ffffff;fill-opacity:1;stroke:#f1f1f1;stroke-width:0.765898;stroke-linecap:square;stroke-linejoin:round;stroke-miterlimit:8;stroke-dasharray:none;stroke-opacity:1;paint-order:fill markers stroke;stop-color:#000000"
         d="m 16.47747,13.33807 v 5.924749"
         id="path69568" />
      <path
         style="fill:#ffffff;fill-opacity:1;stroke:#f1f1f1;stroke-width:0.765898;stroke-linecap:square;stroke-linejoin:round;stroke-miterlimit:8;stroke-dasharray:none;stroke-opacity:1;paint-order:fill markers stroke;stop-color:#000000"
         d="m 13.00613,16.300839 h 6.953721"
         id="path69570" />
      <circle
         style="fill:#f7f4f0;fill-opacity:1;fill-rule:evenodd;stroke-width:0.264893"
         id="path83662"
         cx="9.7951202"
         cy="19.020952"
         r="0.5657143" />
      <path
         style="fill:#b98539;fill-opacity:1;stroke:#a0a4a0;stroke-width:0.388456;stroke-linecap:square;stroke-linejoin:round;stroke-miterlimit:8;stroke-dasharray:none;stroke-dashoffset:4.91338;stroke-opacity:1;paint-order:fill markers stroke;stop-color:#000000"
         d="M 21.475095,23.994691 V 11.806287"
         id="path105261" />
      <path
         style="fill:#b98539;fill-opacity:1;stroke:#e7e9e7;stroke-width:0.388456;stroke-linecap:square;stroke-linejoin:round;stroke-miterlimit:8;stroke-dasharray:none;stroke-dashoffset:4.91338;stroke-opacity:1;paint-order:fill markers stroke;stop-color:#000000"
         d="M 3.2772842,23.994691 V 11.805771"
         id="path105259" />
      <path
         style="fill:none;fill-opacity:1;stroke:url(#linearGradient79522);stroke-width:2.10848;stroke-linecap:round;stroke-linejoin:round;stroke-miterlimit:8;stroke-dasharray:none;stroke-opacity:1;paint-order:fill markers stroke;stop-color:#000000"
         d="M 2.1784008,12.814605 12.375931,2.9556643 22.573978,12.814605"
         id="path60259"
         sodipodi:nodetypes="ccc" />
    </g>
    <g
       id="g117847"
       transform="translate(-85.682011,-18.429019)">
      <path
         id="rect29651"
         style="fill:#b89644;fill-opacity:1;fill-rule:evenodd;stroke-width:0.253198"
         d="m -35.605293,27.319225 c -0.492538,-1e-6 -0.984675,0.144973 -1.362085,0.434689 l -11.14712,8.556916 h 0.0022 V 52.7082 h 25.014637 V 36.31083 h 0.0022 L -34.24267,27.753914 c -0.377408,-0.289716 -0.870084,-0.43469 -1.362623,-0.434689 z" />
      <rect
         style="mix-blend-mode:multiply;fill:#ddd3d3;fill-opacity:1;fill-rule:evenodd;stroke-width:0.259054"
         id="rect31549-1"
         width="22.808271"
         height="19.408148"
         x="-46.973419"
         y="31.062712" />
      <rect
         style="fill:#ffffff;fill-rule:evenodd;stroke-width:0.264583"
         id="rect31549"
         width="22.101128"
         height="20.893148"
         x="-46.655563"
         y="31.252985" />
      <text
         xml:space="preserve"
         style="font-style:normal;font-weight:normal;font-size:15.5252px;line-height:1.25;font-family:sans-serif;fill:#000000;fill-opacity:1;stroke:none;stroke-width:0.24258"
         x="-31.271276"
         y="52.282772"
         id="text33454"
         transform="matrix(0.99810239,0.29980889,-0.22385307,0.93466048,0,0)"><tspan
           sodipodi:role="line"
           id="tspan33452"
           style="font-style:normal;font-variant:normal;font-weight:bold;font-stretch:normal;font-size:15.5252px;font-family:Amiri;-inkscape-font-specification:'Amiri Bold';fill:#ff2e2e;fill-opacity:1;stroke-width:0.24258"
           x="-31.271276"
           y="52.282772">@</tspan></text>
      <path
         id="path31562"
         style="mix-blend-mode:normal;fill:#c5a761;fill-opacity:1;stroke:#000000;stroke-width:0;stroke-linecap:butt;stroke-linejoin:miter;stroke-dasharray:none;stroke-opacity:1"
         d="m -24.548379,36.496118 -11.088147,7.974712 -11.019009,-7.924561 v 2.948302 l 9.953777,8.797419 h 1.995262 l -0.0031,-0.05016 h 0.207925 l 9.953265,-8.797952 z" />
      <g
         id="g31560"
         transform="matrix(1,0,0,0.99165096,-40.605258,66.988617)">
        <g
           id="g31553">
          <path
             id="rect29033-76-4"
             style="fill:url(#linearGradient31309);fill-opacity:1;fill-rule:evenodd;stroke-width:0.294987"
             d="m -7.50924,-30.936074 v 16.535425 c 0.452893,10e-7 0.905606,-0.13307 1.252636,-0.399458 l 10.250021,-7.868254 -10.250021,-7.868254 c -0.34703,-0.266388 -0.799743,-0.399459 -1.252636,-0.399459 z" />
          <path
             id="rect29033-76-4-0"
             style="fill:url(#linearGradient31385);fill-opacity:1;fill-rule:evenodd;stroke-width:0.294987"
             d="m 17.509757,-30.936074 v 16.535425 c -0.452893,10e-7 -0.905606,-0.13307 -1.252636,-0.399458 L 6.0071003,-22.668361 16.257121,-30.536615 c 0.34703,-0.266388 0.799743,-0.399459 1.252636,-0.399459 z" />
        </g>
        <path
           id="rect29033-76-0"
           style="fill:#b89644;fill-opacity:1;fill-rule:evenodd;stroke-width:0.319035"
           d="m 5.0002539,-23.668412 c -0.4725829,-1e-6 -0.9449721,0.149165 -1.3070895,0.447776 l -10.6955936,8.819987 H 17.002935 L 6.3073434,-23.220636 C 5.945226,-23.519247 5.4728368,-23.668413 5.0002539,-23.668412 Z" />
        <path
           id="rect29033-76"
           style="fill:url(#linearGradient29605);fill-opacity:1;fill-rule:evenodd;stroke-width:0.29873"
           d="m 5.0002391,-22.806416 c -0.4568329,-1e-6 -0.9134785,0.135291 -1.2635274,0.406128 l -10.3391353,7.999639 H 16.6029 L 6.2637665,-22.400288 c -0.3500489,-0.270837 -0.8066946,-0.406129 -1.2635274,-0.406128 z" />
      </g>
    </g>
    <g
       id="g47072"
       transform="matrix(0.81067081,0,0,0.81977059,3.7635566,1.7756545)"
       inkscape:transform-center-x="10.724499"
       inkscape:transform-center-y="-10.411086">
      <path
         id="path13238-1-2-5-8"
         style="fill:#ffba8a;fill-opacity:1;stroke:#000000;stroke-width:0;stroke-linecap:butt;stroke-linejoin:miter;stroke-dasharray:none;stroke-opacity:1"
         d="m 17.787178,14.72899 c 0.719857,0.663471 1.217663,0.373467 1.577164,1.303787 0.4934,1.276824 0.932186,0.760966 1.051673,1.348857 0.121791,0.599227 -0.373154,1.478766 -0.562104,2.106707 -0.374325,1.244002 -2.101976,3.096469 -2.562684,4.119321 -0.460707,1.022843 -1.370141,1.799617 -2.377936,2.297219 -1.007797,0.497603 -2.84388,-0.160619 -3.304583,-0.132973 -0.460711,0.02764 -1.141973,-3.270239 -1.401126,-4.210153 C 9.9484383,20.621842 8.3647453,19.903023 9.9196283,17.940258 11.474512,15.977501 10.741836,14.0812 10.713043,13.721819 c -0.02884,-0.359373 1.040104,0.258916 1.241654,0.480075 0.201567,0.22116 1.026387,1.073864 2.229173,1.576318 1.060916,0.443199 2.01098,0.330362 2.241335,-0.05667 0.230354,-0.387019 1.537427,-1.583605 1.537427,-1.583605 z"
         sodipodi:nodetypes="csssssssscssscc" />
      <path
         style="fill:url(#radialGradient26561-8-4);fill-opacity:1;stroke:#000000;stroke-width:0;stroke-linecap:butt;stroke-linejoin:miter;stroke-dasharray:none;stroke-opacity:1"
         d="m 18.214945,4.6114197 c 0.651539,0.938291 1.140677,3.7599358 1.262116,4.5945646 0.283997,1.9518487 -0.661587,4.9759347 -1.524196,5.6102757 -0.956947,0.703712 -1.637397,1.136636 -2.28894,1.214821 -0.977307,0.117286 -1.93425,-0.390948 -2.911555,-1.094669 -0.688346,-0.495646 -1.417146,-0.893891 -1.857693,-1.913758 -0.103293,-0.239136 -0.167047,-0.251706 -0.270335,-0.508762 -0.04218,-0.104999 -0.06979,-0.07782 -0.424928,-0.03431 -0.2196227,0.0269 -1.4150787,-1.461995 -1.4989487,-1.895542 -0.05719,-0.295598 1.8766347,-0.28463 1.9295767,-0.444383 0.57009,-1.720196 1.236483,-1.361147 1.399371,-2.2212451 0.162879,-0.8600899 1.162178,-3.4638477 2.436453,-4.4219173 1.591024,0.1477032 2.69033,0.1766455 3.749079,1.1149283 z"
         id="path12892-7-4-9-0"
         sodipodi:nodetypes="cssssssssssccc" />
      <path
         style="fill:#333333;fill-opacity:1;stroke:#000000;stroke-width:0;stroke-linecap:butt;stroke-linejoin:miter;stroke-dasharray:none;stroke-opacity:0"
         d="m -0.26789153,26.45888 c 0.86455475,-2.128528 1.34313293,-3.346558 1.53209393,-3.898499 0.285098,-0.832745 1.018442,-3.606333 1.60368,-4.233124 1.069121,-1.145028 2.566528,-1.549624 4.8466779,-2.012464 2.030065,-0.41208 2.2690545,-0.867452 2.2690545,-0.867452 0,0 0.5752382,1.839203 0.7340162,2.762036 0.636763,1.697001 3.742122,6.330937 5.045033,6.693108 0.82428,0.195071 0.949573,-0.786675 1.674534,-2.076842 1.31396,-2.33837 1.02837,-2.534057 1.966417,-3.977915 0.498915,-0.832745 1.015109,-1.864886 1.015109,-1.864886 l 1.622048,0.650462 c 0,0 0.584197,0.06253 1.67495,0.693953 1.318582,0.76335 1.674959,1.769586 1.817507,3.851454 0.05659,0.827055 0.212146,1.638633 0.322212,2.326483 0.280848,1.755148 0.79322,3.193647 0.964684,3.986382 0.130477,0.603232 0.229946,0.729563 -0.568007,0.685954 -0.898992,-0.04913 -3.710625,0.0077 -3.710625,0.0077 l -19.8233458,0.0242 c -0.844434,0.0057 -2.89998834,-0.03833 -3.7442203,-0.02033 0.0346497,-0.342027 0.62862419,-2.411252 0.75818157,-2.730222 z"
         id="path3866-5-8-8"
         sodipodi:nodetypes="sssscccscccssssscccs" />
      <path
         style="fill:none;stroke:#848382;stroke-width:0.263335;stroke-linecap:round;stroke-linejoin:miter;stroke-dasharray:none;stroke-opacity:1"
         d="m 17.945848,17.69402 c 0,0 -0.326709,3.194611 -2.427613,4.478073 -0.629998,0.384867 -2.271184,-1.250631 -4.150686,-4.558761"
         id="path27717-0-1"
         sodipodi:nodetypes="csc" />
      <path
         style="fill:#916f6f;stroke:#000000;stroke-width:0;stroke-linecap:butt;stroke-linejoin:miter;stroke-dasharray:none;stroke-opacity:1"
         d="m 15.951111,1.2016898 c 2.339316,0.484118 4.177349,2.3398943 4.762176,3.6308649 0.58483,1.2909787 2.172223,5.1639066 1.336752,6.0514553 -0.835469,0.887548 -1.086111,1.533034 -1.086111,1.533034 0,0 0.668377,1.533033 0.417735,2.581949 -0.250642,1.048924 -0.919015,2.743324 -0.919015,2.743324 l -0.509827,-0.809129 c 0,0 0.0085,1.051184 -0.325643,1.373935 -0.334189,0.322743 -1.745221,2.013931 -1.745221,2.013931 0,0 0.373863,-1.381449 -0.438005,-2.653685 -0.627602,-0.983481 0.178099,-2.749064 0.178099,-2.749064 0,0 1.420299,-1.855776 1.587391,-3.308122 0.167096,-1.452346 -0.250641,-5.9707677 -1.670937,-7.2617382 -1.25275,-1.1386854 -3.258333,-0.9682361 -3.258333,-0.9682361 0,0 -0.399562,2.8906529 -1.503844,4.357046 -0.668373,0.8875402 -1.655367,1.5822844 -2.046897,2.7029773 -0.536489,0.190547 -0.8332207,0.20282 -1.1837657,0.299655 -0.308919,0.443908 0.0075,1.197735 0.330739,1.353798 0.5012827,0.242055 1.0117677,0.05698 1.0117677,0.05698 0,0 1.219783,4.219995 0.969142,5.188223 -0.250642,0.968236 -3.0076917,1.694409 -3.0076917,1.694409 l 0.668373,-1.210291 c 0,0 -0.668373,0.887549 -1.503842,0.887549 -0.835469,0 -1.002567,-0.484119 -1.002567,-0.484119 0,0 0.69218,0.646798 0.751925,-0.564805 0.125317,-2.54161 0.877242,-1.936464 1.127884,-2.98538 0.250641,-1.048915 -0.6266,0.564806 -1.211428,0.806861 -0.584836,0.242055 0.668372,-0.484118 0.584828,-1.452346 C 8.1812453,13.06253 6.5520843,10.762984 6.8862703,9.5526922 7.2204563,8.3424002 7.5187293,5.1548917 9.6074073,3.3798031 11.696076,1.6047064 13.834868,0.98700397 15.951111,1.2016898 Z"
         id="path26059-6-5"
         sodipodi:nodetypes="csscsccscscsscsccscsccscssssssc" />
      <path
         style="fill:none;fill-opacity:1;stroke:#685050;stroke-width:0.312;stroke-linecap:round;stroke-linejoin:round;stroke-miterlimit:8;stroke-dasharray:none;stroke-opacity:1;paint-order:fill markers stroke"
         d="m 14.083567,3.4270272 c 1.599056,0 3.015968,0.2380452 3.85979,1.4560289 0.80417,1.1607482 1.466379,3.7612519 1.323356,5.7162619 -0.139234,1.90324 -0.932406,3.161696 -1.582906,4.073405 -1.301928,1.824717 -2.698852,2.066875 -4.592757,0.780025 -0.827099,-0.593197 -1.564798,-1.183918 -2.213097,-3.150898"
         id="path28002"
         sodipodi:nodetypes="cssscc" />
      <g
         id="g27721-2-8"
         transform="matrix(-0.83542694,0,0,0.80681886,62.238101,-0.44784288)"
         style="stroke-width:1.21039">
        <ellipse
           style="fill:#aa0000;fill-opacity:1;fill-rule:evenodd;stroke-width:0.320244"
           id="path11936-3-7-4-3"
           cx="56.012829"
           cy="28.856459"
           rx="0.53422982"
           ry="0.59104741" />
        <ellipse
           style="fill:#ffffff;fill-rule:evenodd;stroke-width:0.320249"
           id="path12898-2-3-7-8"
           cx="61.47369"
           cy="-12.193314"
           rx="0.13521306"
           ry="0.17366834"
           transform="matrix(0.78456418,0.62004762,-0.62454848,0.78098604,0,0)" />
      </g>
    </g>
  </g>
</svg>
