<?xml version="1.0" encoding="UTF-8" standalone="no"?>
<!-- Created with Inkscape (http://www.inkscape.org/) -->

<svg
   width="90"
   height="90"
   viewBox="0 0 23.812499 23.812499"
   version="1.1"
   id="svg2787"
   inkscape:version="1.2.2 (732a01da63, 2022-12-09)"
   sodipodi:docname="projecten.svg"
   xmlns:inkscape="http://www.inkscape.org/namespaces/inkscape"
   xmlns:sodipodi="http://sodipodi.sourceforge.net/DTD/sodipodi-0.dtd"
   xmlns:xlink="http://www.w3.org/1999/xlink"
   xmlns="http://www.w3.org/2000/svg"
   xmlns:svg="http://www.w3.org/2000/svg">
  <sodipodi:namedview
     id="namedview2789"
     pagecolor="#ffffff"
     bordercolor="#000000"
     borderopacity="0.25"
     inkscape:showpageshadow="2"
     inkscape:pageopacity="0.0"
     inkscape:pagecheckerboard="0"
     inkscape:deskcolor="#d1d1d1"
     inkscape:document-units="mm"
     showgrid="false"
     inkscape:zoom="4"
     inkscape:cx="25.125"
     inkscape:cy="64.25"
     inkscape:window-width="1366"
     inkscape:window-height="705"
     inkscape:window-x="-8"
     inkscape:window-y="-8"
     inkscape:window-maximized="1"
     inkscape:current-layer="layer1"
     inkscape:lockguides="false" />
  <defs
     id="defs2784">
    <linearGradient
       inkscape:collect="always"
       xlink:href="#linearGradient29522"
       id="linearGradient31309"
       gradientUnits="userSpaceOnUse"
       gradientTransform="matrix(0.79324094,-0.60890789,0.79324094,0.60890789,4.892518,-8.867114)"
       x1="14.228266"
       y1="-29.189594"
       x2="3.6590269"
       y2="-18.620356" />
    <linearGradient
       inkscape:collect="always"
       id="linearGradient29522">
      <stop
         style="stop-color:#d4a125;stop-opacity:1;"
         offset="0"
         id="stop29518" />
      <stop
         style="stop-color:#edd495;stop-opacity:1;"
         offset="1"
         id="stop29520" />
    </linearGradient>
    <linearGradient
       inkscape:collect="always"
       xlink:href="#linearGradient29522"
       id="linearGradient31385"
       gradientUnits="userSpaceOnUse"
       gradientTransform="matrix(-0.79324094,-0.60890789,-0.79324094,0.60890789,5.1079993,-8.8671145)"
       x1="14.228266"
       y1="-29.189594"
       x2="3.6590269"
       y2="-18.620356" />
    <linearGradient
       inkscape:collect="always"
       xlink:href="#linearGradient29522"
       id="linearGradient29605"
       gradientUnits="userSpaceOnUse"
       gradientTransform="matrix(0.80013746,-0.61907549,0.80013746,0.61907549,17.509457,-0.36880917)"
       x1="14.228266"
       y1="-29.189594"
       x2="3.6590269"
       y2="-18.620356" />
    <linearGradient
       inkscape:collect="always"
       xlink:href="#linearGradient15170"
       id="linearGradient15172"
       x1="-15.648705"
       y1="17.281696"
       x2="2.0717561"
       y2="20.393126"
       gradientUnits="userSpaceOnUse"
       gradientTransform="matrix(0.75020578,0,0,0.7393226,16.861935,6.3899892)" />
    <linearGradient
       inkscape:collect="always"
       id="linearGradient15170">
      <stop
         style="stop-color:#dccd9a;stop-opacity:1;"
         offset="0"
         id="stop15166" />
      <stop
         style="stop-color:#aa4400;stop-opacity:0.93767703;"
         offset="1"
         id="stop15168" />
    </linearGradient>
    <linearGradient
       inkscape:collect="always"
       xlink:href="#linearGradient17471"
       id="linearGradient17473"
       x1="-17.019377"
       y1="7.6721411"
       x2="3.4424262"
       y2="7.6721411"
       gradientUnits="userSpaceOnUse"
       gradientTransform="matrix(0.75020578,0,0,0.49083688,16.861935,8.5169384)" />
    <linearGradient
       inkscape:collect="always"
       id="linearGradient17471">
      <stop
         style="stop-color:#fae8c9;stop-opacity:1;"
         offset="0"
         id="stop17467" />
      <stop
         style="stop-color:#dc8427;stop-opacity:1;"
         offset="1"
         id="stop17469" />
    </linearGradient>
    <linearGradient
       inkscape:collect="always"
       xlink:href="#linearGradient21349"
       id="linearGradient21351"
       x1="-15.673205"
       y1="6.8083696"
       x2="2.0962551"
       y2="6.8083696"
       gradientUnits="userSpaceOnUse"
       gradientTransform="matrix(0.75020578,0,0,0.48360662,16.861935,8.5636408)" />
    <linearGradient
       inkscape:collect="always"
       id="linearGradient21349">
      <stop
         style="stop-color:#c38e66;stop-opacity:1;"
         offset="0"
         id="stop21345" />
      <stop
         style="stop-color:#8b5b37;stop-opacity:1;"
         offset="1"
         id="stop21347" />
    </linearGradient>
    <linearGradient
       inkscape:collect="always"
       xlink:href="#linearGradient16633"
       id="linearGradient16635"
       x1="-17.009029"
       y1="10.925782"
       x2="3.4320812"
       y2="10.925782"
       gradientUnits="userSpaceOnUse"
       gradientTransform="matrix(0.75020578,0,0,0.49083688,16.861935,8.5169384)" />
    <linearGradient
       inkscape:collect="always"
       id="linearGradient16633">
      <stop
         style="stop-color:#d7b088;stop-opacity:1;"
         offset="0"
         id="stop16629" />
      <stop
         style="stop-color:#8c2d07;stop-opacity:1;"
         offset="1"
         id="stop16631" />
    </linearGradient>
    <radialGradient
       inkscape:collect="always"
       xlink:href="#linearGradient10799"
       id="radialGradient23030-7-7-2"
       cx="15.860661"
       cy="-2.6314101"
       fx="15.860661"
       fy="-2.6314101"
       r="1.8648378"
       gradientTransform="matrix(1.4097645,0.41133515,-1.0148915,1.3285268,-14.357295,7.9912225)"
       gradientUnits="userSpaceOnUse" />
    <linearGradient
       inkscape:collect="always"
       id="linearGradient10799">
      <stop
         style="stop-color:#ffe2e2;stop-opacity:1;"
         offset="0"
         id="stop10793" />
      <stop
         style="stop-color:#ffa174;stop-opacity:1;"
         offset="0.38810959"
         id="stop10795" />
      <stop
         style="stop-color:#ff2121;stop-opacity:1;"
         offset="0.79518074"
         id="stop10797" />
    </linearGradient>
    <radialGradient
       inkscape:collect="always"
       xlink:href="#linearGradient10799"
       id="radialGradient23030-7-7-2-0"
       cx="15.860661"
       cy="-2.6314101"
       fx="15.860661"
       fy="-2.6314101"
       r="1.8648378"
       gradientTransform="matrix(-1.4097645,0.41133515,1.0148915,1.3285268,39.894823,3.9279211)"
       gradientUnits="userSpaceOnUse" />
    <radialGradient
       inkscape:collect="always"
       xlink:href="#linearGradient10799"
       id="radialGradient23030-7-7-2-0-2"
       cx="15.860661"
       cy="-2.6314101"
       fx="15.860661"
       fy="-2.6314101"
       r="1.8648378"
       gradientTransform="matrix(1.2224993,0.36625614,-0.88007903,1.182931,-13.537772,3.53111)"
       gradientUnits="userSpaceOnUse" />
  </defs>
  <g
     inkscape:label="Layer 1"
     inkscape:groupmode="layer"
     id="layer1">
    <g
       id="g117847"
       transform="translate(-85.682011,-18.429019)">
      <path
         id="rect29651"
         style="fill:#b89644;fill-opacity:1;fill-rule:evenodd;stroke-width:0.253198"
         d="m -35.605293,27.319225 c -0.492538,-1e-6 -0.984675,0.144973 -1.362085,0.434689 l -11.14712,8.556916 h 0.0022 V 52.7082 h 25.014637 V 36.31083 h 0.0022 L -34.24267,27.753914 c -0.377408,-0.289716 -0.870084,-0.43469 -1.362623,-0.434689 z" />
      <rect
         style="mix-blend-mode:multiply;fill:#ddd3d3;fill-opacity:1;fill-rule:evenodd;stroke-width:0.259054"
         id="rect31549-1"
         width="22.808271"
         height="19.408148"
         x="-46.973419"
         y="31.062712" />
      <rect
         style="fill:#ffffff;fill-rule:evenodd;stroke-width:0.264583"
         id="rect31549"
         width="22.101128"
         height="20.893148"
         x="-46.655563"
         y="31.252985" />
      <text
         xml:space="preserve"
         style="font-style:normal;font-weight:normal;font-size:15.5252px;line-height:1.25;font-family:sans-serif;fill:#000000;fill-opacity:1;stroke:none;stroke-width:0.24258"
         x="-31.271276"
         y="52.282772"
         id="text33454"
         transform="matrix(0.99810239,0.29980889,-0.22385307,0.93466048,0,0)"><tspan
           sodipodi:role="line"
           id="tspan33452"
           style="font-style:normal;font-variant:normal;font-weight:bold;font-stretch:normal;font-size:15.5252px;font-family:Amiri;-inkscape-font-specification:'Amiri Bold';fill:#ff2e2e;fill-opacity:1;stroke-width:0.24258"
           x="-31.271276"
           y="52.282772">@</tspan></text>
      <path
         id="path31562"
         style="mix-blend-mode:normal;fill:#c5a761;fill-opacity:1;stroke:#000000;stroke-width:0;stroke-linecap:butt;stroke-linejoin:miter;stroke-dasharray:none;stroke-opacity:1"
         d="m -24.548379,36.496118 -11.088147,7.974712 -11.019009,-7.924561 v 2.948302 l 9.953777,8.797419 h 1.995262 l -0.0031,-0.05016 h 0.207925 l 9.953265,-8.797952 z" />
      <g
         id="g31560"
         transform="matrix(1,0,0,0.99165096,-40.605258,66.988617)">
        <g
           id="g31553">
          <path
             id="rect29033-76-4"
             style="fill:url(#linearGradient31309);fill-opacity:1;fill-rule:evenodd;stroke-width:0.294987"
             d="m -7.50924,-30.936074 v 16.535425 c 0.452893,10e-7 0.905606,-0.13307 1.252636,-0.399458 l 10.250021,-7.868254 -10.250021,-7.868254 c -0.34703,-0.266388 -0.799743,-0.399459 -1.252636,-0.399459 z" />
          <path
             id="rect29033-76-4-0"
             style="fill:url(#linearGradient31385);fill-opacity:1;fill-rule:evenodd;stroke-width:0.294987"
             d="m 17.509757,-30.936074 v 16.535425 c -0.452893,10e-7 -0.905606,-0.13307 -1.252636,-0.399458 L 6.0071003,-22.668361 16.257121,-30.536615 c 0.34703,-0.266388 0.799743,-0.399459 1.252636,-0.399459 z" />
        </g>
        <path
           id="rect29033-76-0"
           style="fill:#b89644;fill-opacity:1;fill-rule:evenodd;stroke-width:0.319035"
           d="m 5.0002539,-23.668412 c -0.4725829,-1e-6 -0.9449721,0.149165 -1.3070895,0.447776 l -10.6955936,8.819987 H 17.002935 L 6.3073434,-23.220636 C 5.945226,-23.519247 5.4728368,-23.668413 5.0002539,-23.668412 Z" />
        <path
           id="rect29033-76"
           style="fill:url(#linearGradient29605);fill-opacity:1;fill-rule:evenodd;stroke-width:0.29873"
           d="m 5.0002391,-22.806416 c -0.4568329,-1e-6 -0.9134785,0.135291 -1.2635274,0.406128 l -10.3391353,7.999639 H 16.6029 L 6.2637665,-22.400288 c -0.3500489,-0.270837 -0.8066946,-0.406129 -1.2635274,-0.406128 z" />
      </g>
    </g>
    <g
       id="g154742"
       transform="translate(-0.18414516,0.59531248)">
      <path
         id="path14647-2-1-5"
         style="fill:url(#linearGradient15172);fill-opacity:1;fill-rule:evenodd;stroke:#44b2c8;stroke-width:0;stroke-dasharray:none;stroke-opacity:1"
         d="m 5.2205568,14.520975 2.4581258,7.461074 c 4.42e-5,1.010988 1.8648492,1.235213 4.0426894,1.235138 2.177703,-1.6e-5 3.843855,-0.224213 3.843899,-1.235138 l 2.748898,-7.461074 z"
         sodipodi:nodetypes="cccccc" />
      <path
         id="path14647-5"
         style="fill:url(#linearGradient17473);fill-opacity:1;fill-rule:evenodd;stroke:#44b2c8;stroke-width:0;stroke-dasharray:none;stroke-opacity:1"
         d="m 11.769182,10.627789 a 7.6751514,1.6548285 0 0 0 -7.6752806,1.654793 7.6751514,1.6548285 0 0 0 7.6752806,1.655047 7.6751514,1.6548285 0 0 0 7.675281,-1.655047 7.6751514,1.6548285 0 0 0 -7.675281,-1.654793 z m 0.02675,0.400508 a 6.6652767,1.1849983 0 0 1 6.664987,1.185039 6.6652767,1.1849983 0 0 1 -6.664987,1.185039 6.6652767,1.1849983 0 0 1 -6.6653752,-1.185039 6.6652767,1.1849983 0 0 1 6.6653752,-1.185039 z" />
      <path
         id="path14647-9-6"
         style="fill:url(#linearGradient21351);fill-opacity:1;fill-rule:evenodd;stroke:#44b2c8;stroke-width:0;stroke-dasharray:none;stroke-opacity:1"
         d="m 11.769182,11.038006 a 6.6652767,1.1675427 0 0 0 -6.6653753,1.167582 6.6652767,1.1675427 0 0 0 0.5640737,0.468833 7.1749461,1.6328838 0 0 1 6.2602506,-0.836451 7.1749461,1.6328838 0 0 1 6.092772,0.770724 6.6652767,1.1675427 0 0 0 0.413654,-0.403106 6.6652767,1.1675427 0 0 0 -6.665375,-1.167582 z" />
      <path
         id="path14647-9-3"
         style="fill:#362c25;fill-opacity:1;fill-rule:evenodd;stroke:#44b2c8;stroke-width:0;stroke-dasharray:none;stroke-opacity:1"
         d="m 11.892243,11.396063 a 7.2172086,2.4963012 0 0 0 -6.2971257,1.278358 6.7045371,1.7849024 0 0 0 6.1372397,1.068227 6.7045371,1.7849024 0 0 0 6.288546,-1.168708 7.2172086,2.4963012 0 0 0 -6.12866,-1.177877 z" />
      <path
         id="path14647-2-2"
         style="fill:url(#linearGradient16635);fill-opacity:1;fill-rule:evenodd;stroke:#44b2c8;stroke-width:0;stroke-dasharray:none;stroke-opacity:1"
         d="m 4.2103994,12.565145 0.383803,1.868103 c 5.274e-4,0.915199 3.2126079,1.610284 7.1747856,1.610304 3.962329,2.9e-5 7.174647,-0.741842 7.175174,-1.657076 l 0.383803,-1.821331 c -0.63679,0.792904 -3.826735,1.372103 -7.558977,1.372484 -3.7320957,-4.22e-4 -6.9218241,-0.579611 -7.5585886,-1.372484 z"
         sodipodi:nodetypes="ccccccc" />
      <path
         style="fill:#96be19;fill-opacity:1;stroke:#000000;stroke-width:0;stroke-linecap:butt;stroke-linejoin:miter;stroke-dasharray:none;stroke-opacity:1"
         d="m 13.394498,12.758152 c 0,0 -2.738254,-3.374289 -6.4496981,-3.9182259 C 3.233357,8.2959885 0.36829107,10.099477 0.36829107,10.099477 c 0,0 5.89416783,4.383122 13.02620693,2.658675 z"
         id="path21674" />
      <path
         style="fill:#96be19;fill-opacity:1;stroke:#000000;stroke-width:0;stroke-linecap:butt;stroke-linejoin:miter;stroke-dasharray:none;stroke-opacity:1"
         d="m 11.589052,12.27463 c 1.528661,-1.591598 3.152167,-4.9352733 8.00489,-3.7723737 3.35464,0.8039012 4.218557,1.9740787 4.218557,1.9740787 0,0 -3.261223,-0.5510997 -5.234363,0.339032 -1.973143,0.890136 -6.989084,1.459263 -6.989084,1.459263 z"
         id="path21676"
         inkscape:transform-center-x="-5.7029181"
         inkscape:transform-center-y="-1.781061"
         sodipodi:nodetypes="cscsc" />
      <path
         style="fill:#96be19;fill-opacity:1;stroke:#000000;stroke-width:0;stroke-linecap:butt;stroke-linejoin:miter;stroke-dasharray:none;stroke-opacity:1"
         d="M 12.326018,12.495384 C 12.111086,9.5924545 12.111086,4.6069891 15.048495,2.2720241 c 2.93741,-2.33496482 6.376328,-2.27185765717 6.376328,-2.27185765717 0,0 -7.594278,11.04375255717 -9.098805,12.49521755717 z"
         id="path21680" />
      <path
         style="fill:#96be19;fill-opacity:1;stroke:#000000;stroke-width:0;stroke-linecap:butt;stroke-linejoin:miter;stroke-dasharray:none;stroke-opacity:1"
         d="M 11.76988,12.362729 C 12.075296,8.7656205 12.304357,5.4209416 8.563014,2.7704409 4.8216698,0.11994012 1.6911572,0.56169045 1.6911572,0.56169045 c 0,0 1.7137233,6.51919385 10.0787228,11.80103855 z"
         id="path21682"
         sodipodi:nodetypes="cscc" />
      <path
         style="fill:#96be19;fill-opacity:1;stroke:#000000;stroke-width:0;stroke-linecap:butt;stroke-linejoin:miter;stroke-dasharray:none;stroke-opacity:1"
         d="m 11.892462,11.877606 c 3.007624,-1.9884931 7.838892,-0.441883 9.410673,1.219392 1.57178,1.661276 2.334058,2.316243 2.334058,2.316243 0,0 -10.180718,0.944755 -11.744731,-3.535635 z"
         id="path21684"
         sodipodi:nodetypes="cscc"
         inkscape:transform-center-x="-3.7612707"
         inkscape:transform-center-y="1.3449755" />
      <path
         style="fill:#96be19;fill-opacity:1;stroke:#000000;stroke-width:0;stroke-linecap:butt;stroke-linejoin:miter;stroke-dasharray:none;stroke-opacity:1"
         d="M 11.579152,12.358123 C 9.1783707,11.284625 4.4651705,11.588458 2.5762231,14.773493 1.9677362,15.799489 1.642405,17.885888 1.642405,17.885888 c 0,0 4.8430789,-1.346545 6.343567,-2.151668 1.5004878,-0.805123 3.59318,-3.376097 3.59318,-3.376097 z"
         id="path21686"
         sodipodi:nodetypes="cscsc" />
      <path
         style="fill:#96be19;fill-opacity:1;stroke:#000000;stroke-width:0;stroke-linecap:butt;stroke-linejoin:miter;stroke-dasharray:none;stroke-opacity:1"
         d="m 12.104323,11.664819 c 2.025658,0.49183 1.72556,4.508445 0.375121,6.06591 -1.350438,1.557462 -3.3929685,3.856741 -3.3929685,3.856741 0,0 -1.6722886,-7.26222 3.0178475,-9.922651 z"
         id="path21688"
         sodipodi:nodetypes="cscc" />
      <path
         style="fill:#96be19;fill-opacity:1;stroke:#000000;stroke-width:0;stroke-linecap:butt;stroke-linejoin:miter;stroke-dasharray:none;stroke-opacity:1"
         d="m 12.642854,9.3796265 c 0,0 0.900294,-2.6469308 1.677943,-4.4087123 C 15.418395,2.4842716 19.624523,0.65927377 20.927465,0.28093245 19.478682,2.1069936 18.310045,3.3371012 17.00461,5.0371852 15.902502,6.4724754 12.642854,9.3796265 12.642854,9.3796265 Z"
         id="path24398-1"
         sodipodi:nodetypes="cscsc"
         inkscape:transform-center-x="-4.7823458"
         inkscape:transform-center-y="-5.2755759" />
      <path
         style="fill:#96be19;fill-opacity:1;stroke:#000000;stroke-width:0;stroke-linecap:butt;stroke-linejoin:miter;stroke-dasharray:none;stroke-opacity:1"
         d="m 12.174428,10.46754 c 0,0 2.553232,-0.8794601 4.324226,-1.3740383 2.499648,-0.6980649 5.698467,0.5199697 6.534516,0.9917753 -2.524083,-0.096121 -4.219584,0.07258 -5.781098,0.869094 -1.561513,0.79652 -5.077644,-0.486831 -5.077644,-0.486831 z"
         id="path24398"
         sodipodi:nodetypes="cscsc"
         inkscape:transform-center-x="-5.8170254"
         inkscape:transform-center-y="-0.365238" />
      <g
         id="g14196">
        <g
           id="g14185">
          <path
             id="path23014-4-0-5"
             style="fill:url(#radialGradient23030-7-7-2);fill-opacity:1;stroke:#000000;stroke-width:0;stroke-linecap:butt;stroke-linejoin:miter;stroke-dasharray:none;stroke-opacity:1"
             inkscape:transform-center-x="1.9427805"
             inkscape:transform-center-y="-0.6999913"
             d="m 12.061677,8.2117402 c -0.04132,0.00102 -0.08547,0.00512 -0.132292,0.012402 C 11.231811,8.3325611 10.7012,8.7301984 10.548591,9.560495 10.34936,8.8638697 9.8400548,8.5690546 9.1895009,8.5414358 8.1892158,8.4989698 8.4866699,9.785983 8.9781443,10.372332 c 0.055151,0.0658 0.1183728,0.12534 0.1865519,0.179317 -1.0454224,-0.266726 -1.7159694,0.04539 -2.1052974,0.643888 -0.51439,0.79075 0.947241,1.021449 1.7807694,0.839742 0.059942,-0.01307 0.1186593,-0.02962 0.1762167,-0.04909 -0.4539928,0.51177 -0.465155,1.019975 -0.1994711,1.486731 0.4420143,0.776533 1.5312682,-0.193571 1.8557002,-0.903304 0.0048,-0.0106 0.0094,-0.02137 0.01395,-0.03204 0.289731,0.528637 0.783693,0.729629 1.370459,0.708484 0.848573,-0.03058 0.677151,-0.927499 0.272335,-1.532723 0.574825,0.11454 1.059172,-0.05952 1.452624,-0.410311 0.729126,-0.650066 -0.584371,-1.227126 -1.42937,-1.249536 -0.07071,-0.0019 -0.141637,0.0015 -0.211873,0.0088 0.0086,-0.01065 0.01711,-0.02166 0.02532,-0.03256 0.460441,-0.6112808 0.73573,-1.8386977 -0.104382,-1.8179898 z" />
          <ellipse
             style="fill:#fff800;fill-opacity:1;fill-rule:evenodd;stroke-width:0.331077"
             id="path13160"
             cx="7.3556542"
             cy="13.324549"
             rx="1.1240214"
             ry="0.83956856"
             transform="matrix(0.96810783,-0.25053388,0.26238896,0.96496219,0,0)" />
        </g>
        <g
           id="g14181">
          <path
             id="path23014-4-0-5-0"
             style="fill:url(#radialGradient23030-7-7-2-0);fill-opacity:1;stroke:#000000;stroke-width:0;stroke-linecap:butt;stroke-linejoin:miter;stroke-dasharray:none;stroke-opacity:1"
             inkscape:transform-center-x="-1.9427802"
             inkscape:transform-center-y="-0.6999913"
             d="m 13.475851,4.1484388 c 0.04132,0.00102 0.08547,0.00512 0.132292,0.012402 0.697574,0.1084189 1.228185,0.5060562 1.380794,1.3363528 0.199231,-0.6966253 0.708536,-0.9914404 1.35909,-1.0190592 1.000285,-0.042466 0.702831,1.2445472 0.211356,1.8308963 -0.05515,0.0658 -0.118373,0.12534 -0.186552,0.179317 1.045423,-0.266726 1.71597,0.04539 2.105298,0.643888 0.51439,0.79075 -0.947241,1.021449 -1.78077,0.839742 -0.05994,-0.01307 -0.118659,-0.02962 -0.176216,-0.04909 0.453992,0.51177 0.465155,1.019975 0.199471,1.486731 -0.442015,0.7765333 -1.531268,-0.193571 -1.8557,-0.903304 -0.0048,-0.0106 -0.0094,-0.02137 -0.01395,-0.03204 -0.289731,0.528637 -0.783693,0.729629 -1.370459,0.708484 -0.848573,-0.03058 -0.677151,-0.927499 -0.272335,-1.532723 -0.574825,0.11454 -1.059172,-0.05952 -1.452624,-0.410311 -0.729126,-0.650066 0.584371,-1.227126 1.42937,-1.249536 0.07071,-0.0019 0.141637,0.0015 0.211873,0.0088 -0.0086,-0.01065 -0.01711,-0.02166 -0.02532,-0.03256 -0.460441,-0.6112808 -0.73573,-1.8386977 0.104382,-1.8179899 z" />
          <ellipse
             style="fill:#fff800;fill-opacity:1;fill-rule:evenodd;stroke-width:0.301701"
             id="path13160-3"
             cx="-16.129496"
             cy="2.4687428"
             rx="0.96732205"
             ry="0.81013298"
             transform="matrix(-0.9590665,-0.28318094,-0.23182854,0.97275666,0,0)" />
        </g>
        <g
           id="g14177">
          <path
             id="path23014-4-0-5-0-9"
             style="fill:url(#radialGradient23030-7-7-2-0-2);fill-opacity:1;stroke:#000000;stroke-width:0;stroke-linecap:butt;stroke-linejoin:miter;stroke-dasharray:none;stroke-opacity:1"
             inkscape:transform-center-x="1.6847122"
             inkscape:transform-center-y="-0.62327793"
             d="M 9.3718518,3.7274607 C 9.3360205,3.728369 9.2977351,3.7320196 9.2571327,3.7385036 8.6522205,3.8350406 8.1920929,4.1891001 8.0597556,4.9284029 7.8869893,4.3081221 7.4453376,4.0456164 6.8811995,4.0210244 6.0137867,3.9832123 6.2717286,5.1291793 6.6979188,5.6512692 6.7457428,5.7098582 6.8005678,5.762873 6.8596903,5.8109345 5.9531354,5.5734396 5.3716601,5.8513505 5.0340482,6.3842576 4.5879869,7.0883478 5.8554631,7.2937641 6.5782708,7.1319707 6.6302488,7.1203327 6.6811678,7.1055967 6.7310792,7.0882607 6.337393,7.5439447 6.3277128,7.9964545 6.5581048,8.4120582 6.941405,9.1034895 7.8859678,8.239701 8.1673041,7.6077487 c 0.00416,-0.00944 0.00815,-0.019028 0.012097,-0.028529 C 8.4306458,8.0499224 8.8589927,8.2288876 9.367816,8.2100599 10.103669,8.1828309 9.9550181,7.384207 9.6039755,6.8453106 10.102444,6.947298 10.522453,6.7923136 10.863641,6.4799664 11.495914,5.9011424 10.356895,5.3873235 9.6241406,5.3673694 c -0.061317,-0.00169 -0.1228227,0.00134 -0.183729,0.00784 0.00746,-0.00948 0.014837,-0.019286 0.021957,-0.028992 C 9.8616469,4.801924 10.100368,3.709022 9.3718518,3.7274607 Z" />
          <ellipse
             style="fill:#fff800;fill-opacity:1;fill-rule:evenodd;stroke-width:0.259777"
             id="path13160-3-5"
             cx="-3.5474005"
             cy="9.2243948"
             rx="0.84592551"
             ry="0.68682021"
             transform="matrix(-0.88391482,0.46764794,0.538214,0.84280821,0,0)" />
        </g>
      </g>
    </g>
  </g>
</svg>
