<?xml version="1.0" encoding="UTF-8" standalone="no"?>
<!-- Created with Inkscape (http://www.inkscape.org/) -->

<svg
   width="90"
   height="90"
   viewBox="0 0 23.812499 23.812499"
   version="1.1"
   id="svg2787"
   inkscape:version="1.2.2 (732a01da63, 2022-12-09)"
   sodipodi:docname="random.svg"
   xmlns:inkscape="http://www.inkscape.org/namespaces/inkscape"
   xmlns:sodipodi="http://sodipodi.sourceforge.net/DTD/sodipodi-0.dtd"
   xmlns:xlink="http://www.w3.org/1999/xlink"
   xmlns="http://www.w3.org/2000/svg"
   xmlns:svg="http://www.w3.org/2000/svg">
  <sodipodi:namedview
     id="namedview2789"
     pagecolor="#ffffff"
     bordercolor="#000000"
     borderopacity="0.25"
     inkscape:showpageshadow="2"
     inkscape:pageopacity="0.0"
     inkscape:pagecheckerboard="0"
     inkscape:deskcolor="#d1d1d1"
     inkscape:document-units="mm"
     showgrid="false"
     inkscape:zoom="2"
     inkscape:cx="22.75"
     inkscape:cy="28.5"
     inkscape:window-width="1366"
     inkscape:window-height="705"
     inkscape:window-x="-8"
     inkscape:window-y="-8"
     inkscape:window-maximized="1"
     inkscape:current-layer="layer1" />
  <defs
     id="defs2784">
    <linearGradient
       inkscape:collect="always"
       xlink:href="#linearGradient29522"
       id="linearGradient31309"
       gradientUnits="userSpaceOnUse"
       gradientTransform="matrix(0.79324094,-0.60890789,0.79324094,0.60890789,4.892518,-8.867114)"
       x1="14.228266"
       y1="-29.189594"
       x2="3.6590269"
       y2="-18.620356" />
    <linearGradient
       inkscape:collect="always"
       id="linearGradient29522">
      <stop
         style="stop-color:#d4a125;stop-opacity:1;"
         offset="0"
         id="stop29518" />
      <stop
         style="stop-color:#edd495;stop-opacity:1;"
         offset="1"
         id="stop29520" />
    </linearGradient>
    <linearGradient
       inkscape:collect="always"
       xlink:href="#linearGradient29522"
       id="linearGradient31385"
       gradientUnits="userSpaceOnUse"
       gradientTransform="matrix(-0.79324094,-0.60890789,-0.79324094,0.60890789,5.1079993,-8.8671145)"
       x1="14.228266"
       y1="-29.189594"
       x2="3.6590269"
       y2="-18.620356" />
    <linearGradient
       inkscape:collect="always"
       xlink:href="#linearGradient29522"
       id="linearGradient29605"
       gradientUnits="userSpaceOnUse"
       gradientTransform="matrix(0.80013746,-0.61907549,0.80013746,0.61907549,17.509457,-0.36880917)"
       x1="14.228266"
       y1="-29.189594"
       x2="3.6590269"
       y2="-18.620356" />
    <linearGradient
       inkscape:collect="always"
       xlink:href="#linearGradient29618-3"
       id="linearGradient37955"
       x1="11.717678"
       y1="12.933457"
       x2="13.229167"
       y2="24.658241"
       gradientUnits="userSpaceOnUse"
       gradientTransform="rotate(-10.167614,13.384237,14.804821)" />
    <linearGradient
       inkscape:collect="always"
       id="linearGradient29618-3">
      <stop
         style="stop-color:#ffff97;stop-opacity:1;"
         offset="0"
         id="stop29614-1" />
      <stop
         style="stop-color:#ffc22f;stop-opacity:1;"
         offset="1"
         id="stop29616-9" />
    </linearGradient>
    <linearGradient
       inkscape:collect="always"
       xlink:href="#linearGradient28356"
       id="linearGradient28358-3"
       x1="18.775"
       y1="42.216431"
       x2="39.63242"
       y2="44.024754"
       gradientUnits="userSpaceOnUse"
       gradientTransform="matrix(0.46785807,-0.05435486,0.05435486,0.46785807,-1.3936661,-9.09545)" />
    <linearGradient
       inkscape:collect="always"
       id="linearGradient28356">
      <stop
         style="stop-color:#ffee2f;stop-opacity:1;"
         offset="0"
         id="stop28352" />
      <stop
         style="stop-color:#ffbc21;stop-opacity:1;"
         offset="1"
         id="stop28354" />
    </linearGradient>
    <linearGradient
       inkscape:collect="always"
       xlink:href="#linearGradient27581"
       id="linearGradient27583-0"
       x1="8.5070105"
       y1="57.978172"
       x2="26.81259"
       y2="67.312462"
       gradientUnits="userSpaceOnUse"
       gradientTransform="matrix(0.46785807,-0.05435486,0.05435486,0.46785807,-1.3936661,-9.09545)" />
    <linearGradient
       inkscape:collect="always"
       id="linearGradient27581">
      <stop
         style="stop-color:#fedb13;stop-opacity:1;"
         offset="0"
         id="stop27577" />
      <stop
         style="stop-color:#feac2c;stop-opacity:0.99000001;"
         offset="1"
         id="stop27579" />
    </linearGradient>
    <linearGradient
       inkscape:collect="always"
       xlink:href="#linearGradient28348"
       id="linearGradient28350-6"
       x1="37.162186"
       y1="71.327362"
       x2="38.701962"
       y2="50.77095"
       gradientUnits="userSpaceOnUse"
       gradientTransform="matrix(0.46785807,-0.05435486,0.05435486,0.46785807,-1.3936661,-9.09545)" />
    <linearGradient
       inkscape:collect="always"
       id="linearGradient28348">
      <stop
         style="stop-color:#ff9e0c;stop-opacity:1;"
         offset="0"
         id="stop28344" />
      <stop
         style="stop-color:#ffd60c;stop-opacity:1;"
         offset="1"
         id="stop28346" />
    </linearGradient>
  </defs>
  <g
     inkscape:label="Layer 1"
     inkscape:groupmode="layer"
     id="layer1">
    <g
       id="g117847"
       transform="translate(-85.682011,-18.429019)">
      <path
         id="rect29651"
         style="fill:#b89644;fill-opacity:1;fill-rule:evenodd;stroke-width:0.253198"
         d="m -35.605293,27.319225 c -0.492538,-1e-6 -0.984675,0.144973 -1.362085,0.434689 l -11.14712,8.556916 h 0.0022 V 52.7082 h 25.014637 V 36.31083 h 0.0022 L -34.24267,27.753914 c -0.377408,-0.289716 -0.870084,-0.43469 -1.362623,-0.434689 z" />
      <rect
         style="mix-blend-mode:multiply;fill:#ddd3d3;fill-opacity:1;fill-rule:evenodd;stroke-width:0.259054"
         id="rect31549-1"
         width="22.808271"
         height="19.408148"
         x="-46.973419"
         y="31.062712" />
      <rect
         style="fill:#ffffff;fill-rule:evenodd;stroke-width:0.264583"
         id="rect31549"
         width="22.101128"
         height="20.893148"
         x="-46.655563"
         y="31.252985" />
      <text
         xml:space="preserve"
         style="font-style:normal;font-weight:normal;font-size:15.5252px;line-height:1.25;font-family:sans-serif;fill:#000000;fill-opacity:1;stroke:none;stroke-width:0.24258"
         x="-31.271276"
         y="52.282772"
         id="text33454"
         transform="matrix(0.99810239,0.29980889,-0.22385307,0.93466048,0,0)"><tspan
           sodipodi:role="line"
           id="tspan33452"
           style="font-style:normal;font-variant:normal;font-weight:bold;font-stretch:normal;font-size:15.5252px;font-family:Amiri;-inkscape-font-specification:'Amiri Bold';fill:#ff2e2e;fill-opacity:1;stroke-width:0.24258"
           x="-31.271276"
           y="52.282772">@</tspan></text>
      <path
         id="path31562"
         style="mix-blend-mode:normal;fill:#c5a761;fill-opacity:1;stroke:#000000;stroke-width:0;stroke-linecap:butt;stroke-linejoin:miter;stroke-dasharray:none;stroke-opacity:1"
         d="m -24.548379,36.496118 -11.088147,7.974712 -11.019009,-7.924561 v 2.948302 l 9.953777,8.797419 h 1.995262 l -0.0031,-0.05016 h 0.207925 l 9.953265,-8.797952 z" />
      <g
         id="g31560"
         transform="matrix(1,0,0,0.99165096,-40.605258,66.988617)">
        <g
           id="g31553">
          <path
             id="rect29033-76-4"
             style="fill:url(#linearGradient31309);fill-opacity:1;fill-rule:evenodd;stroke-width:0.294987"
             d="m -7.50924,-30.936074 v 16.535425 c 0.452893,10e-7 0.905606,-0.13307 1.252636,-0.399458 l 10.250021,-7.868254 -10.250021,-7.868254 c -0.34703,-0.266388 -0.799743,-0.399459 -1.252636,-0.399459 z" />
          <path
             id="rect29033-76-4-0"
             style="fill:url(#linearGradient31385);fill-opacity:1;fill-rule:evenodd;stroke-width:0.294987"
             d="m 17.509757,-30.936074 v 16.535425 c -0.452893,10e-7 -0.905606,-0.13307 -1.252636,-0.399458 L 6.0071003,-22.668361 16.257121,-30.536615 c 0.34703,-0.266388 0.799743,-0.399459 1.252636,-0.399459 z" />
        </g>
        <path
           id="rect29033-76-0"
           style="fill:#b89644;fill-opacity:1;fill-rule:evenodd;stroke-width:0.319035"
           d="m 5.0002539,-23.668412 c -0.4725829,-1e-6 -0.9449721,0.149165 -1.3070895,0.447776 l -10.6955936,8.819987 H 17.002935 L 6.3073434,-23.220636 C 5.945226,-23.519247 5.4728368,-23.668413 5.0002539,-23.668412 Z" />
        <path
           id="rect29033-76"
           style="fill:url(#linearGradient29605);fill-opacity:1;fill-rule:evenodd;stroke-width:0.29873"
           d="m 5.0002391,-22.806416 c -0.4568329,-1e-6 -0.9134785,0.135291 -1.2635274,0.406128 l -10.3391353,7.999639 H 16.6029 L 6.2637665,-22.400288 c -0.3500489,-0.270837 -0.8066946,-0.406129 -1.2635274,-0.406128 z" />
      </g>
    </g>
    <g
       id="g41120"
       transform="matrix(0.84181251,0.7654226,-0.7654226,0.84181251,11.269151,-7.0585697)">
      <path
         id="path26342-2-8"
         style="fill:url(#linearGradient37955);fill-opacity:1;stroke:#5dafd4;stroke-width:0;stroke-linecap:round;stroke-linejoin:round;stroke-miterlimit:8;paint-order:fill markers stroke;stop-color:#000000"
         d="M 12.185519,6.8783184 C 11.80987,6.9241892 11.514223,7.0524989 11.37183,7.1256241 11.118687,7.2556262 9.6291205,7.9988087 8.4257318,8.6080469 7.6409055,9.0680647 7.1052647,9.3649484 5.9834181,10.098836 c -0.9626356,0.639595 -0.9532949,1.43615 -0.8584496,2.192584 0.2808573,2.350578 1.2108241,5.150431 1.5084151,5.998183 0.3591112,1.023003 0.5852309,1.381058 1.7051787,2.028779 1.5426587,0.892199 4.1387617,1.999978 4.7448407,2.195358 0.944145,0.304362 1.864704,0.348864 2.574836,-0.195071 0.516408,-0.39555 2.966856,-2.508218 4.178856,-3.803691 0.879892,-0.940494 0.898188,-1.479434 0.878966,-2.248139 -0.02299,-0.919425 -0.08629,-3.41087 -0.286545,-5.784101 C 20.402528,10.162935 20.373377,9.8478965 20.307883,9.54123 20.090337,8.5225996 19.446601,8.3298954 18.82866,8.1034418 17.9894,7.7958828 14.778578,7.092739 13.088434,6.8926223 12.783085,6.856468 12.477693,6.8426557 12.185519,6.8783184 Z"
         sodipodi:nodetypes="sscccsssssssssss" />
      <path
         style="fill:url(#linearGradient28358-3);fill-opacity:1;stroke:#5dafd4;stroke-width:0;stroke-linecap:round;stroke-linejoin:round;stroke-miterlimit:8;paint-order:fill markers stroke;stop-color:#000000"
         d="m 8.425645,8.6080707 c 1.2033902,-0.6092388 2.693007,-1.3523242 2.946151,-1.4823265 0.253142,-0.1300025 1.147652,-0.316346 1.716536,-0.2329529 1.066901,0.1563978 3.432171,0.5076068 5.33588,1.080158 0.995493,0.2994 0.849064,0.8742398 0.39508,1.2958204 -0.453983,0.4215836 -3.959727,3.0843273 -4.509751,3.5176873 -0.798693,0.629284 -1.919713,0.793053 -2.896039,0.470584 C 10.437175,12.934565 6.6050192,11.592032 6.2765108,11.36195 5.9480036,11.13187 5.1498491,10.637416 6.2716956,9.903529 7.3935429,9.1696406 7.6408183,9.0680895 8.4256452,8.6080717 Z"
         id="path26366-6"
         sodipodi:nodetypes="sssssssssss" />
      <ellipse
         style="mix-blend-mode:multiply;fill:#4d4d4d;fill-opacity:0.848485;fill-rule:evenodd;stroke-width:0.111079"
         id="path26403-2"
         cx="11.143918"
         cy="9.5062342"
         rx="1.0390772"
         ry="0.47500664"
         transform="rotate(-6.6268069)" />
      <ellipse
         style="mix-blend-mode:multiply;fill:#4d4d4d;fill-opacity:0.848485;fill-rule:evenodd;stroke-width:0.131174"
         id="path26403-4-7"
         cx="14.821167"
         cy="10.95532"
         rx="1.2270486"
         ry="0.56093651"
         transform="rotate(-6.6268069)" />
      <ellipse
         style="mix-blend-mode:multiply;fill:#4d4d4d;fill-opacity:0.848485;fill-rule:evenodd;stroke-width:0.131174"
         id="path26403-9-4"
         cx="7.5913186"
         cy="11.220209"
         rx="1.2270486"
         ry="0.56093651"
         transform="rotate(-6.6268069)" />
      <ellipse
         style="mix-blend-mode:multiply;fill:#4d4d4d;fill-opacity:0.848485;fill-rule:evenodd;stroke-width:0.131174"
         id="path26403-7-8-5"
         cx="11.299733"
         cy="12.809529"
         rx="1.2270486"
         ry="0.56093651"
         transform="rotate(-6.6268069)" />
      <path
         style="fill:url(#linearGradient27583-0);fill-opacity:1;stroke:#5dafd4;stroke-width:0;stroke-linecap:round;stroke-linejoin:round;stroke-miterlimit:8;paint-order:fill markers stroke;stop-color:#000000"
         d="M 13.266847,16.864529 C 13.012154,15.318134 13.085602,14.55332 11.500422,13.890082 9.5963048,13.093405 7.2614247,12.345752 6.6334707,12.088127 5.7902698,11.742195 5.012114,11.466552 5.1587209,12.680637 c 0.283804,2.350228 1.1770191,4.761357 1.4746108,5.60911 0.3591113,1.023005 0.5852692,1.380956 1.7052181,2.028678 1.5426602,0.892199 3.8161082,1.871037 4.3244002,2.05528 0.508292,0.18424 1.337597,0.03601 1.255072,-0.770504 -0.178893,-1.748323 -0.34652,-2.888887 -0.651175,-4.738672 z"
         id="path26342-6-4"
         sodipodi:nodetypes="sssssssss" />
      <path
         style="mix-blend-mode:multiply;fill:#f9d54d;fill-opacity:0.470588;stroke:#5dafd4;stroke-width:0;stroke-linecap:round;stroke-linejoin:round;stroke-miterlimit:8;paint-order:fill markers stroke;stop-color:#000000"
         d="M 13.266847,16.864529 C 13.012154,15.318134 13.085602,14.55332 11.500422,13.890082 9.5963047,13.093405 7.2614247,12.345752 6.6334707,12.088127 5.7902698,11.742195 5.012114,11.466552 5.1587209,12.680637 c 0.283804,2.350228 1.1770191,4.761357 1.4746108,5.60911 0.3591113,1.023005 0.5852692,1.380956 1.7052181,2.028678 1.54266,0.892199 3.8161082,1.871037 4.3244002,2.05528 0.508292,0.18424 1.337597,0.03601 1.255072,-0.770504 -0.178893,-1.748323 -0.34652,-2.888887 -0.651175,-4.738672 z"
         id="path26342-6-7"
         sodipodi:nodetypes="sssssssss" />
      <ellipse
         style="mix-blend-mode:multiply;fill:#4d4d4d;fill-opacity:0.890443;fill-rule:evenodd;stroke-width:0.135516"
         id="path26403-7-8-4-7-0"
         cx="-15.087726"
         cy="-2.7714159"
         rx="1.0117238"
         ry="0.72609866"
         transform="matrix(-0.29795457,-0.95458005,-0.99712317,0.07579832,0,0)" />
      <ellipse
         style="mix-blend-mode:multiply;fill:#4d4d4d;fill-opacity:0.890443;fill-rule:evenodd;stroke-width:0.135516"
         id="path26403-7-8-4-7-6-6"
         cx="-18.343933"
         cy="-4.1849914"
         rx="1.0117238"
         ry="0.72609866"
         transform="matrix(-0.29795457,-0.95458005,-0.99712317,0.07579832,0,0)" />
      <ellipse
         style="mix-blend-mode:multiply;fill:#4d4d4d;fill-opacity:0.890443;fill-rule:evenodd;stroke-width:0.135516"
         id="path26403-7-8-4-7-1-0"
         cx="-21.600145"
         cy="-5.5985661"
         rx="1.0117238"
         ry="0.72609866"
         transform="matrix(-0.29795457,-0.95458005,-0.99712317,0.07579832,0,0)" />
      <path
         style="fill:url(#linearGradient28350-6);fill-opacity:1;stroke:#5dafd4;stroke-width:0;stroke-linecap:round;stroke-linejoin:round;stroke-miterlimit:8;paint-order:fill markers stroke;stop-color:#000000"
         d="m 13.875026,16.169234 c -0.164177,-1.076932 -0.350331,-1.980017 1.173171,-3.263629 1.568721,-1.321684 3.064295,-2.477512 3.572028,-2.9214019 1.004491,-0.8781825 1.739584,-0.7098254 1.809292,0.4985339 0.161091,2.792494 0.263415,4.864893 0.286406,5.784319 0.01922,0.768707 0.05881,1.279258 -0.821087,2.219752 -1.212001,1.295475 -3.913546,3.604915 -4.345977,3.9234 -0.43243,0.318485 -0.832287,-0.190236 -0.975788,-1.010447 -0.350812,-2.005361 -0.530755,-4.133172 -0.698045,-5.230527 z"
         id="path26342-9"
         sodipodi:nodetypes="sssssssss" />
      <path
         style="mix-blend-mode:multiply;fill:#e1a640;fill-opacity:0.564706;stroke:#5dafd4;stroke-width:0;stroke-linecap:round;stroke-linejoin:round;stroke-miterlimit:8;paint-order:fill markers stroke;stop-color:#000000"
         d="m 13.956165,16.621659 c -0.0904,-1.320327 -0.43147,-2.43244 1.092031,-3.716053 1.568721,-1.321683 3.064295,-2.477512 3.572029,-2.9214017 1.00449,-0.8781826 1.739583,-0.7098254 1.809291,0.4985337 0.161091,2.792495 0.263416,4.864893 0.286406,5.784319 0.01922,0.768707 0.05881,1.279258 -0.821087,2.219752 -1.212001,1.295475 -3.913546,3.604915 -4.345977,3.9234 -0.43243,0.318485 -0.711323,-0.212032 -0.871381,-1.029173 -0.511844,-2.613156 -0.649522,-3.710804 -0.721312,-4.759377 z"
         id="path26342-5"
         sodipodi:nodetypes="sssssssss" />
      <ellipse
         style="mix-blend-mode:multiply;fill:#4d4d4d;fill-opacity:0.895105;fill-rule:evenodd;stroke-width:0.160477"
         id="path26403-7-8-4-5"
         cx="-15.822767"
         cy="19.990677"
         rx="1.1980789"
         ry="0.85984278"
         transform="matrix(0.07116976,-0.99746422,0.98794225,-0.15482283,0,0)" />
      <ellipse
         style="mix-blend-mode:multiply;fill:#4d4d4d;fill-opacity:0.895105;fill-rule:evenodd;stroke-width:0.160477"
         id="path26403-7-8-4-3-1"
         cx="-21.787994"
         cy="18.299931"
         rx="1.1980789"
         ry="0.85984278"
         transform="matrix(0.07116976,-0.99746422,0.98794225,-0.15482283,0,0)" />
    </g>
  </g>
</svg>
