<?xml version="1.0" encoding="UTF-8" standalone="no"?>
<!-- Created with Inkscape (http://www.inkscape.org/) -->

<svg
   width="54"
   height="98"
   viewBox="0 0 14.287509 25.929163"
   version="1.1"
   id="svg2787"
   inkscape:version="1.2.2 (732a01da63, 2022-12-09)"
   sodipodi:docname="experimenten.svg"
   xmlns:inkscape="http://www.inkscape.org/namespaces/inkscape"
   xmlns:sodipodi="http://sodipodi.sourceforge.net/DTD/sodipodi-0.dtd"
   xmlns:xlink="http://www.w3.org/1999/xlink"
   xmlns="http://www.w3.org/2000/svg"
   xmlns:svg="http://www.w3.org/2000/svg">
  <sodipodi:namedview
     id="namedview2789"
     pagecolor="#ffffff"
     bordercolor="#000000"
     borderopacity="0.25"
     inkscape:showpageshadow="2"
     inkscape:pageopacity="0.0"
     inkscape:pagecheckerboard="0"
     inkscape:deskcolor="#d1d1d1"
     inkscape:document-units="mm"
     showgrid="false"
     inkscape:zoom="8.0000004"
     inkscape:cx="20.937499"
     inkscape:cy="62.624997"
     inkscape:window-width="1366"
     inkscape:window-height="705"
     inkscape:window-x="-8"
     inkscape:window-y="-8"
     inkscape:window-maximized="1"
     inkscape:current-layer="layer1"
     inkscape:lockguides="false"
     showguides="true" />
  <defs
     id="defs2784">
    <radialGradient
       inkscape:collect="always"
       xlink:href="#linearGradient59915"
       id="radialGradient60842"
       cx="3.6350091"
       cy="19.025396"
       fx="3.6350091"
       fy="19.025396"
       r="8.0923395"
       gradientTransform="matrix(1.1846847,0.47830095,-0.54433558,1.4322322,9.8844829,-9.3692749)"
       gradientUnits="userSpaceOnUse" />
    <linearGradient
       inkscape:collect="always"
       id="linearGradient59915">
      <stop
         style="stop-color:#18587b;stop-opacity:1;"
         offset="0.00344234"
         id="stop59911" />
      <stop
         style="stop-color:#246183;stop-opacity:0.97254908;"
         offset="0.33734941"
         id="stop60848" />
      <stop
         style="stop-color:#3b91d9;stop-opacity:0.99533808;"
         offset="1"
         id="stop59913" />
    </linearGradient>
    <linearGradient
       inkscape:collect="always"
       xlink:href="#linearGradient76035"
       id="linearGradient76037"
       x1="3.644279"
       y1="23.31332"
       x2="6.447648"
       y2="14.912801"
       gradientUnits="userSpaceOnUse"
       gradientTransform="matrix(1.0978955,0,0,0.99464929,-0.59209477,0.29590117)" />
    <linearGradient
       inkscape:collect="always"
       id="linearGradient76035">
      <stop
         style="stop-color:#c18660;stop-opacity:1;"
         offset="0"
         id="stop76031" />
      <stop
         style="stop-color:#dca47f;stop-opacity:1;"
         offset="1"
         id="stop76033" />
    </linearGradient>
    <linearGradient
       inkscape:collect="always"
       xlink:href="#linearGradient85669"
       id="linearGradient85671"
       x1="5.3171616"
       y1="5.8550272"
       x2="7.3304787"
       y2="5.8550272"
       gradientUnits="userSpaceOnUse" />
    <linearGradient
       inkscape:collect="always"
       id="linearGradient85669">
      <stop
         style="stop-color:#636363;stop-opacity:1;"
         offset="0"
         id="stop85665" />
      <stop
         style="stop-color:#818181;stop-opacity:1;"
         offset="0.18415841"
         id="stop86670" />
      <stop
         style="stop-color:#d2d2d2;stop-opacity:1;"
         offset="0.52079207"
         id="stop85673" />
      <stop
         style="stop-color:#dcdcdc;stop-opacity:1;"
         offset="0.67524755"
         id="stop85675" />
      <stop
         style="stop-color:#8a8a8a;stop-opacity:1;"
         offset="1"
         id="stop85667" />
    </linearGradient>
    <linearGradient
       inkscape:collect="always"
       xlink:href="#linearGradient84743"
       id="linearGradient85041"
       gradientUnits="userSpaceOnUse"
       x1="-34.783966"
       y1="47.866688"
       x2="-31.361727"
       y2="47.866688"
       gradientTransform="matrix(0.74414859,-0.51875984,0.51875984,0.74414859,17.167406,-38.656978)" />
    <linearGradient
       inkscape:collect="always"
       id="linearGradient84743">
      <stop
         style="stop-color:#d40000;stop-opacity:1;"
         offset="0"
         id="stop84739" />
      <stop
         style="stop-color:#ff6464;stop-opacity:0.99607843;"
         offset="0.38888887"
         id="stop84747" />
      <stop
         style="stop-color:#f48080;stop-opacity:0.99607843;"
         offset="0.66503268"
         id="stop84749" />
      <stop
         style="stop-color:#d40000;stop-opacity:0.99565214;"
         offset="1"
         id="stop84741" />
    </linearGradient>
    <radialGradient
       inkscape:collect="always"
       xlink:href="#linearGradient84755"
       id="radialGradient84763-1"
       cx="-33.851471"
       cy="60.535767"
       fx="-33.851471"
       fy="60.535767"
       r="1.6756853"
       gradientTransform="matrix(1.4020455,2.1701738,-0.82322326,0.53184517,120.39559,63.19289)"
       gradientUnits="userSpaceOnUse" />
    <linearGradient
       inkscape:collect="always"
       id="linearGradient84755">
      <stop
         style="stop-color:#d5d5d5;stop-opacity:1;"
         offset="0"
         id="stop84761" />
      <stop
         style="stop-color:#808080;stop-opacity:1;"
         offset="1"
         id="stop84751" />
    </linearGradient>
    <linearGradient
       inkscape:collect="always"
       xlink:href="#linearGradient65575"
       id="linearGradient65577"
       x1="6.9087334"
       y1="24.187073"
       x2="22.028246"
       y2="15.96347"
       gradientUnits="userSpaceOnUse"
       gradientTransform="matrix(0.95453314,0,0,0.98381529,0.65478651,0.16794542)" />
    <linearGradient
       inkscape:collect="always"
       id="linearGradient65575">
      <stop
         style="stop-color:#c3906e;stop-opacity:1;"
         offset="0"
         id="stop65573" />
      <stop
         style="stop-color:#f7ba92;stop-opacity:1;"
         offset="1"
         id="stop65571" />
    </linearGradient>
    <linearGradient
       inkscape:collect="always"
       xlink:href="#linearGradient84936"
       id="linearGradient85043"
       gradientUnits="userSpaceOnUse"
       x1="-32.289822"
       y1="58.450787"
       x2="-32.676735"
       y2="61.374046"
       gradientTransform="matrix(0.74414859,-0.51875984,0.51875984,0.74414859,17.167406,-38.656978)" />
    <linearGradient
       inkscape:collect="always"
       id="linearGradient84936">
      <stop
         style="stop-color:#ffffff;stop-opacity:1;"
         offset="0"
         id="stop84932" />
      <stop
         style="stop-color:#c6c6c6;stop-opacity:1;"
         offset="1"
         id="stop84934" />
    </linearGradient>
    <linearGradient
       inkscape:collect="always"
       xlink:href="#linearGradient65608"
       id="linearGradient65610"
       x1="4.7467537"
       y1="22.041922"
       x2="17.090422"
       y2="7.6882763"
       gradientUnits="userSpaceOnUse"
       gradientTransform="matrix(0.95453314,0,0,0.98381529,0.65478651,0.16794542)" />
    <linearGradient
       inkscape:collect="always"
       id="linearGradient65608">
      <stop
         style="stop-color:#a17d59;stop-opacity:1;"
         offset="0"
         id="stop65604" />
      <stop
         style="stop-color:#e9af77;stop-opacity:1;"
         offset="1"
         id="stop65606" />
    </linearGradient>
    <linearGradient
       inkscape:collect="always"
       xlink:href="#linearGradient65616"
       id="linearGradient65618"
       x1="12.141349"
       y1="19.435463"
       x2="19.577906"
       y2="25.7486"
       gradientUnits="userSpaceOnUse"
       gradientTransform="matrix(0.95453314,0,0,0.98381529,0.65478651,0.16794542)" />
    <linearGradient
       inkscape:collect="always"
       id="linearGradient65616">
      <stop
         style="stop-color:#c9935f;stop-opacity:1;"
         offset="0"
         id="stop65612" />
      <stop
         style="stop-color:#8f5f30;stop-opacity:1;"
         offset="1"
         id="stop65614" />
    </linearGradient>
    <linearGradient
       inkscape:collect="always"
       xlink:href="#linearGradient90927"
       id="linearGradient90929"
       x1="22.897001"
       y1="21.65671"
       x2="24.824274"
       y2="22.582752"
       gradientUnits="userSpaceOnUse" />
    <linearGradient
       inkscape:collect="always"
       id="linearGradient90927">
      <stop
         style="stop-color:#b38a63;stop-opacity:1;"
         offset="0.08830272"
         id="stop90923" />
      <stop
         style="stop-color:#b38a63;stop-opacity:0;"
         offset="1"
         id="stop90925" />
    </linearGradient>
  </defs>
  <g
     inkscape:label="Layer 1"
     inkscape:groupmode="layer"
     id="layer1">
    <path
       id="rect32077-0-9"
       style="fill:#fff4b3;fill-opacity:1;fill-rule:evenodd;stroke-width:0.188698"
       d="m -24.894114,10.380148 c 0.03547,0.707737 2.341035,0.439797 3.165456,0.445981 0.298128,-0.0036 0.348454,-0.31009 0.346053,-0.510307 l -2.57e-4,-0.02126 c -0.0024,-0.200216 -0.244343,-0.3585212 -0.542471,-0.3549432 l -2.302687,0.02764 c -0.298128,0.0036 -0.688431,-0.03274 -0.666094,0.4128922 z"
       sodipodi:nodetypes="scsssss" />
    <g
       id="g69282"
       transform="translate(-17.798432,-2.1166667)">
      <rect
         style="fill:#a57e3b;fill-opacity:1;fill-rule:evenodd;stroke:#848382;stroke-width:0;stroke-dasharray:none;stroke-opacity:1"
         id="rect36182"
         width="0.87694013"
         height="2.9816287"
         x="7.0217299"
         y="19.394548"
         rx="0.56707847"
         ry="0.56707746"
         transform="matrix(0.99999955,-9.4788263e-4,9.3302365e-4,0.99999956,0,0)" />
      <rect
         style="fill:#dea43f;fill-opacity:1;fill-rule:evenodd;stroke-width:0.188699"
         id="rect32077"
         width="1.4468771"
         height="10.49292"
         x="6.736762"
         y="9.9878912"
         rx="0.56707847"
         ry="0.56707746"
         transform="matrix(0.99999955,-9.4788263e-4,9.3304355e-4,0.99999956,0,0)" />
      <path
         style="fill:#e5b869;fill-opacity:1;stroke:#fff4b3;stroke-width:0.762;stroke-linecap:round;stroke-linejoin:round;stroke-miterlimit:8;stroke-dasharray:none;stroke-opacity:1;paint-order:fill markers stroke"
         d="m 7.726223,11.582065 v 6.109386"
         id="path35166"
         sodipodi:nodetypes="cc" />
      <rect
         style="fill:#dea43f;fill-opacity:1;fill-rule:evenodd;stroke-width:0.188698"
         id="rect32077-0"
         width="1.4468927"
         height="4.4126892"
         x="9.6336327"
         y="4.9637084"
         rx="0.56707746"
         ry="0.56707847"
         transform="matrix(0.01199216,0.99992809,0.99992799,-0.01200047,0,0)" />
      <path
         id="rect32139"
         style="fill:#756653;fill-opacity:1;fill-rule:evenodd;stroke-width:0.188698"
         d="m 6.4776579,19.408003 c -0.1465499,0.04757 -0.076704,0.50755 -0.04501,0.658328 0.1101055,0.523729 0.4136148,0.717155 0.908211,0.716686 L 7.6012041,20.78277 C 8.0957999,20.782301 8.491217,20.591719 8.5519576,20.100863 8.5809616,19.86637 8.6021856,19.43978 8.4562986,19.390257 7.6977838,19.184825 7.1611117,19.186168 6.4776579,19.407997 Z"
         sodipodi:nodetypes="csssscc" />
      <g
         id="g67732"
         transform="translate(3.8782267,2.8147054)">
        <path
           style="fill:#a38787;fill-opacity:1;stroke:#99a6b4;stroke-width:0;stroke-linecap:square;stroke-linejoin:round;stroke-miterlimit:8;stroke-dasharray:none;paint-order:fill markers stroke;stop-color:#000000"
           d="M 3.6014565,18.895953 C 2.8637949,18.579381 1.304926,18.415781 0.37512403,18.708864 c 0,2.167479 -0.2902315,5.542502 3.22633247,6.758578"
           id="path65043"
           sodipodi:nodetypes="ccc" />
        <path
           style="fill:#c3b1b1;fill-opacity:1;stroke:#99a6b4;stroke-width:0;stroke-linecap:square;stroke-linejoin:round;stroke-miterlimit:8;stroke-dasharray:none;paint-order:fill markers stroke;stop-color:#000000"
           d="m 3.6014565,18.895953 c 0.7376616,-0.316572 2.2965305,-0.480172 3.2263325,-0.187089 0,2.167479 0.2902315,5.542502 -3.2263325,6.758578"
           id="path65043-4"
           sodipodi:nodetypes="ccc" />
      </g>
      <path
         style="fill:#e5b869;fill-opacity:1;stroke:#fff4b3;stroke-width:0.762;stroke-linecap:round;stroke-linejoin:round;stroke-miterlimit:8;stroke-dasharray:none;stroke-opacity:1;paint-order:fill markers stroke"
         d="m 8.9417925,9.9658874 -3.193139,0.029559"
         id="path35166-5"
         sodipodi:nodetypes="cc" />
    </g>
    <g
       id="path44300-3"
       style="fill:#c0e406;fill-opacity:1;stroke-width:1.49644"
       transform="matrix(1.2028442,0,0,0.50842289,-4.3577002,12.458837)">
      <path
         style="color:#000000;fill:#c0e406;fill-opacity:1;stroke-width:3.73618;stroke-linecap:round;stroke-linejoin:round;stroke-miterlimit:8;-inkscape-stroke:none;paint-order:fill markers stroke"
         d="M 14.067978,25.21 H 5.2466066"
         id="path72463-2" />
      <path
         style="color:#000000;fill:#c0e406;fill-opacity:1;stroke-width:1.49644;stroke-linecap:round;stroke-linejoin:round;stroke-miterlimit:8;-inkscape-stroke:none;paint-order:fill markers stroke"
         d="m 5.2460937,23.960937 c -0.6899745,1.59e-4 -1.2081583,0.69386 -1.4955468,1.320714 -0.4944604,1.078521 0.5588354,1.212531 1.2480468,1.21269 l 9.0697653,-0.03536 c 0.689211,-1.59e-4 1.742508,-0.240621 1.248047,-1.248047 -0.304007,-0.619391 -0.558072,-1.249841 -1.248047,-1.25 z"
         id="path72465-3"
         sodipodi:nodetypes="csccscc" />
    </g>
    <g
       id="g96770"
       transform="matrix(0.43137336,0,0,0.43137336,1.8144104,14.286849)"
       style="stroke-width:1.31089">
      <path
         style="fill:url(#radialGradient60842);fill-opacity:1;stroke:none;stroke-width:0;stroke-linecap:round;stroke-linejoin:round;stroke-miterlimit:8;stroke-dasharray:none;stroke-opacity:1;paint-order:fill markers stroke;stop-color:#000000"
         d="M 16.202169,15.404459 C 14.127761,13.966554 16.996934,13.082564 15.367042,11.55479 13.737151,10.027014 12.324465,8.8538493 7.4887301,10.269357 -1.5211697,12.90672 0.33495059,19.168225 0.11671023,22.707382 -0.01306459,24.811913 2.0952678,25.594471 3.0333664,25.571949 3.8845826,25.551509 5.9731956,25.6814 7.8668656,25.644839 11.217126,25.580159 16.202169,15.40446 16.202169,15.40446 Z"
         id="path57461"
         sodipodi:nodetypes="cssssscc" />
      <path
         style="fill:#1e4860;fill-opacity:1;stroke:#8d643e;stroke-width:0;stroke-linecap:round;stroke-linejoin:round;stroke-miterlimit:8;stroke-dasharray:none;stroke-opacity:1;paint-order:fill markers stroke;stop-color:#000000"
         d="m 9.9603992,12.502264 c -0.460687,1.789438 -2.3769679,3.145195 -4.1761122,5.531114 -1.7991446,2.385919 1.1661853,5.193836 1.9158287,7.380929 -2.8257588,-0.348202 -5.3830332,0.268518 -5.7524842,-0.528218 -1.36204992,-2.937317 -0.6275594,-6.349448 1.7711407,-8.584742 2.1086141,-1.96497 4.719949,-2.712484 6.241627,-3.799083 z"
         id="path53100"
         sodipodi:nodetypes="cscssc" />
      <path
         style="fill:url(#linearGradient76037);fill-opacity:1;stroke:#8d643e;stroke-width:0;stroke-linecap:round;stroke-linejoin:round;stroke-miterlimit:8;stroke-dasharray:none;stroke-opacity:1;paint-order:fill markers stroke;stop-color:#000000"
         d="m 10.553536,13.323216 c -1.9283934,0.107231 -5.980018,3.97156 -7.2568773,6.886662 -1.0251241,2.340383 0.25374,4.805119 3.8238728,5.383936 2.7039161,0.438379 3.4330045,-12.270598 3.4330045,-12.270598 z"
         id="path31127"
         sodipodi:nodetypes="cssc" />
      <path
         style="fill:#a96f4d;fill-opacity:1;stroke:#8d643e;stroke-width:0;stroke-linecap:round;stroke-linejoin:round;stroke-miterlimit:8;stroke-dasharray:none;stroke-opacity:1;paint-order:fill markers stroke;stop-color:#000000"
         d="m 18.389443,24.966964 c -0.533465,0.811263 -2.670657,0.971495 -4.9811,0.824149 C 9.0560215,25.51355 5.7870782,26.732705 5.7155677,23.519414 5.6241741,19.412676 9.6909075,12.958955 11.131408,10.958625 c 1.078846,-1.4981219 4.253249,-1.5080166 7.129467,0.24897 0.964176,0.588983 2.003823,1.192719 2.773964,2.251443 3.142864,4.320534 3.872969,8.588594 2.181604,10.688239 -0.78976,2.127685 -2.648596,1.773953 -4.827,0.819687 z"
         id="path29159-4"
         sodipodi:nodetypes="cssssscc" />
      <rect
         style="fill:url(#linearGradient85671);fill-opacity:1;fill-rule:evenodd;stroke:none;stroke-width:0.34684"
         id="rect83887-4"
         width="2.0133171"
         height="2.1571245"
         x="5.3171616"
         y="4.7764649"
         rx="2.0155561"
         ry="1.1875232"
         transform="rotate(-34.881071)" />
      <path
         style="opacity:1;fill:#999999;fill-opacity:1;stroke:#f5f5f5;stroke-width:0.786535;stroke-linecap:round;stroke-linejoin:round;stroke-miterlimit:8;stroke-dasharray:none;stroke-opacity:1;paint-order:fill markers stroke;stop-color:#000000"
         d="M 8.5826925,0.50280077 8.9685626,1.0406807"
         id="path85663" />
      <path
         style="fill:url(#linearGradient85041);fill-opacity:1;fill-rule:evenodd;stroke:none;stroke-width:0;stroke-opacity:1"
         d="m 24.268533,21.392336 c 0.563125,0.818576 1.886386,3.642462 1.025322,4.242727 -0.861064,0.600263 -2.954304,-1.686856 -3.517397,-2.505456 L 8.9193989,4.3700204 C 7.7932148,2.7328209 7.5486062,2.1259273 8.6752183,1.3057293 9.7550599,0.43876346 10.359695,0.99743302 11.465864,2.5948256 15.938397,8.8178319 20.0635,15.319945 24.268533,21.392336 Z"
         id="rect31697-3-6-0-6"
         sodipodi:nodetypes="csccccc" />
      <path
         id="path84605-6"
         style="fill:url(#radialGradient84763-1);fill-opacity:1;fill-rule:evenodd;stroke-width:0"
         d="m 23.348919,20.069406 0.919594,1.322943 c 0.563125,0.818576 1.886386,3.642463 1.025323,4.242727 -0.861063,0.600263 -2.954305,-1.686857 -3.517397,-2.505455 l -0.92138,-1.321696 c 0.801099,-0.19945 1.933433,-0.617658 2.49386,-1.738519 z"
         sodipodi:nodetypes="ccsccc" />
      <path
         style="fill:url(#linearGradient65577);fill-opacity:1;stroke:#8d643e;stroke-width:0;stroke-linecap:round;stroke-linejoin:round;stroke-miterlimit:8;stroke-dasharray:none;stroke-opacity:1;paint-order:fill markers stroke;stop-color:#000000"
         d="m 10.800056,17.277097 c 1.440118,1.390777 7.0022,1.744572 9.885653,4.199462 1.537042,1.308594 2.464757,2.811518 2.464757,2.811518 0,0 -0.678128,2.082721 -3.371327,1.177246 -0.809469,-0.27215 -2.11899,-0.8676 -3.010457,-1.922691 -0.107151,1.262965 -1.133205,1.451049 -2.918786,1.026748 -2.194459,-0.521462 -2.190592,-1.110407 -3.227565,-1.574823 -0.130527,1.840083 -3.8359306,1.493171 -4.9989442,0.272039 -1.0653176,-1.118555 -1.3544525,-2.595785 0.1825157,-5.163798 1.0318358,-1.724023 3.6199076,-2.775776 4.9941535,-0.825701 z"
         id="path29221"
         sodipodi:nodetypes="cscscscssc" />
      <path
         id="path83941-4"
         style="fill:#1a1a1a;stroke-width:0;stroke-linecap:round;stroke-linejoin:round;stroke-miterlimit:8;paint-order:fill markers stroke;stop-color:#000000"
         d="m 25.585882,24.803364 c 0,0 0.437199,1.187501 0.120276,1.408434 -0.316923,0.220933 -1.279878,-0.600054 -1.279878,-0.600054 0.363268,-0.139096 0.728263,-0.287865 1.159602,-0.80838 z"
         sodipodi:nodetypes="czcc" />
      <path
         style="fill:none;fill-opacity:1;stroke:#ffdddd;stroke-width:0.716317;stroke-linecap:round;stroke-linejoin:round;stroke-miterlimit:8;stroke-dasharray:none;stroke-opacity:0.44402984;paint-order:fill markers stroke;stop-color:#000000"
         d="M 10.693047,2.9568109 22.202536,19.517134"
         id="path84238-0"
         sodipodi:nodetypes="cc" />
      <path
         style="fill:none;fill-opacity:1;stroke:url(#linearGradient85043);stroke-width:1.04871;stroke-linecap:round;stroke-linejoin:round;stroke-miterlimit:8;stroke-dasharray:none;stroke-opacity:1;paint-order:fill markers stroke;stop-color:#000000"
         d="m 23.310931,21.314264 c 1.16788,1.722471 1.368162,2.526954 1.525603,3.071278"
         id="path84822-7"
         sodipodi:nodetypes="cc" />
      <path
         id="path29161-2"
         style="fill:#ffcaa2;fill-opacity:1;stroke:#8d643e;stroke-width:0;stroke-linecap:round;stroke-linejoin:round;stroke-miterlimit:8;stroke-dasharray:none;stroke-opacity:1;paint-order:fill markers stroke;stop-color:#000000"
         d="m 14.050129,8.8488386 c -2.78956,0.08764 -2.876325,1.5534364 -3.275082,2.4229804 -1.4684467,3.202818 -2.9751093,1.962091 -3.7483265,5.038248 -0.3291685,1.30956 -2.1466725,2.339803 -2.1275898,4.336741 0.01386,1.450351 3.3078727,1.705077 3.5363232,0.176595 0.2557692,-1.711265 -1.0575869,-1.56021 -0.367581,-3.227796 0.6549238,-1.582801 6.1545461,3.483561 7.0003181,4.177905 2.704024,3.469795 4.735742,2.558775 5.555809,1.253385 0.676928,-1.07754 0.960585,-1.249196 -0.302995,-2.64977 -0.820054,-0.972268 -1.850499,-1.778043 -3.482764,-2.704385 -2.14467,-1.217142 -4.315476,-1.577408 -2.653549,-2.754104 1.292236,0.514846 3.842903,1.746559 4.995196,3.464858 2.258484,3.367852 4.206153,5.636608 5.359896,5.515267 4.39133,-0.461847 -0.370586,-5.428362 -3.026669,-9.534232 C 20.580079,12.92221 18.522583,11.377215 16.826537,10.252326 15.87118,9.6186931 14.975336,8.8197712 14.050129,8.8488386 Z"
         sodipodi:nodetypes="scsssscscscsssss" />
      <g
         id="g64634"
         transform="matrix(0.95453314,0,0,0.98381528,-4.5584986,0.62385175)"
         style="stroke-width:1.35274">
        <path
           style="fill:#ffcaa2;fill-opacity:1;stroke:#8d643e;stroke-width:0;stroke-linecap:round;stroke-linejoin:round;stroke-miterlimit:8;stroke-dasharray:none;stroke-opacity:1;paint-order:fill markers stroke;stop-color:#000000"
           d="m 23.539065,10.84382 c 5.300081,1.093168 6.337239,1.108734 7.068286,2.566291 0.192028,0.382864 -0.0012,1.190128 0.324415,1.916106 0.597387,1.332386 0.61303,1.850839 0.466829,2.768237 -0.1569,0.984543 -1.005976,1.806251 -1.005976,2.223489 0,1.093168 -6.853554,-9.474123 -6.853554,-9.474123 z"
           id="path31071"
           sodipodi:nodetypes="cssssc" />
        <path
           style="opacity:1;fill:#fff4ea;fill-opacity:1;stroke:#8d643e;stroke-width:0;stroke-linecap:round;stroke-linejoin:round;stroke-miterlimit:8;stroke-dasharray:none;stroke-opacity:1;paint-order:fill markers stroke;stop-color:#000000"
           d="m 25.57987,11.213083 c 1.903354,0.145087 2.741793,0.643071 3.960368,1.214688 1.218572,0.571619 1.34043,1.143237 0.609287,1.286141 -0.731145,0.142905 -0.401978,1.569008 0.29572,2.068525 1.89878,1.359434 1.602423,3.637696 0.876581,4.040768 -1.155353,0.641586 -0.522838,-0.907424 -0.867363,-2.953124 -0.09787,-0.581128 -1.094363,-0.075 -1.564355,-0.579944 -0.831146,-0.89296 -1.51979,-2.608011 -2.609557,-2.79058 -1.706004,-0.285808 -5.101994,-2.621971 -0.700681,-2.286474 z"
           id="path54661"
           sodipodi:nodetypes="sssssssss" />
        <path
           style="opacity:1;fill:none;fill-opacity:1;stroke:#e9af77;stroke-width:0.405822;stroke-linecap:round;stroke-linejoin:round;stroke-miterlimit:8;stroke-dasharray:none;stroke-opacity:1;paint-order:fill markers stroke;stop-color:#000000"
           d="m 22.89903,10.784369 c 2.907536,0.500167 5.246207,0.92888 6.82639,1.786307 1.580182,0.857427 0.5308,1.669426 1.327354,3.286804 1.160237,2.355822 -0.620683,3.858422 -0.620683,3.858422"
           id="path55433"
           sodipodi:nodetypes="cssc" />
      </g>
      <path
         style="fill:#daa37e;fill-opacity:1;stroke:none;stroke-width:0;stroke-linecap:round;stroke-linejoin:round;stroke-miterlimit:8;stroke-dasharray:none;stroke-opacity:1;paint-order:fill markers stroke;stop-color:#000000"
         d="m 23.093016,16.575822 c 0.48914,-0.118915 1.215728,0.02096 1.667047,0.621078 0.644888,0.857508 0.476796,2.284549 -0.05462,1.990456 -0.531421,-0.294096 -1.78323,-1.967748 -1.612422,-2.611534 z"
         id="path70195"
         sodipodi:nodetypes="cssc" />
      <path
         id="path43365"
         style="fill:#fff4ea;fill-opacity:1;stroke:#8d643e;stroke-width:0;stroke-linecap:round;stroke-linejoin:round;stroke-miterlimit:8;stroke-dasharray:none;stroke-opacity:1;paint-order:fill markers stroke;stop-color:#000000"
         d="m 14.096111,8.9407452 c -0.30201,-0.00134 -0.632071,-0.018687 -0.996419,0.079633 -2.763968,0.745855 -1.946845,2.7671428 -3.081021,3.7084028 -0.9766263,0.810509 -3.7030641,2.50395 -1.6665666,3.1335 0.6087697,0.188191 1.7233486,-0.515279 2.8865166,-0.515279 1.163169,0 1.279486,-1.687102 0.465268,-2.811834 -0.661979,-0.914434 0.02438,-3.0308456 0.911452,-2.029242 1.354192,1.529045 3.477956,2.606821 5.951247,2.872792 1.598059,0.171852 3.824622,5.271912 5.010561,7.239094 0.981464,1.628008 2.290818,2.374557 2.232659,0.968641 C 25.77738,20.802344 23.571646,17.291604 21.453282,14.299778 20.535001,13.002865 19.201717,11.971631 18.433249,11.28776 16.215245,9.3139271 15.404816,8.9465462 14.096111,8.9407452 Z"
         sodipodi:nodetypes="sssssssssssss" />
      <path
         style="fill:#fff1e5;fill-opacity:1;stroke:#8d643e;stroke-width:0;stroke-linecap:round;stroke-linejoin:round;stroke-miterlimit:8;stroke-dasharray:none;stroke-opacity:1;paint-order:fill markers stroke;stop-color:#000000"
         d="m 24.727916,19.776569 c -0.631131,0.346592 -1.903873,1.390062 -1.679452,1.973932 0.565492,1.471234 1.76446,1.852318 2.089178,1.885209 0.754958,0.07647 1.169231,-0.952865 1.129702,-1.365778 -0.05257,-0.549055 -0.918914,-2.542044 -1.539428,-2.493363 z"
         id="path46096"
         sodipodi:nodetypes="csssc" />
      <path
         style="opacity:1;fill:#a96f4d;fill-opacity:1;stroke:#f8f5f1;stroke-width:0;stroke-linecap:round;stroke-linejoin:round;stroke-miterlimit:8;stroke-dasharray:none;stroke-opacity:1;paint-order:fill markers stroke;stop-color:#000000"
         d="m 17.495572,16.916796 c 0.553972,0.471289 1.504632,1.066651 2.248958,2.331641 0.126275,0.214606 0.529167,0.595312 0.529167,0.595312 0.146682,0.419086 -0.02577,0.42084 -0.28112,0.314193 0,0 -2.976562,-3.175 -2.497005,-3.241146 z"
         id="path94880"
         sodipodi:nodetypes="csccc" />
      <path
         style="fill:none;fill-opacity:1;stroke:url(#linearGradient65610);stroke-width:0.393268;stroke-linecap:round;stroke-linejoin:round;stroke-miterlimit:8;stroke-dasharray:none;stroke-opacity:1;paint-order:fill markers stroke;stop-color:#000000"
         d="m 6.7651237,24.066811 c -0.2435511,-0.09816 -1.181906,-0.477416 -1.6905443,-1.194195 -1.2012744,-1.69285 -0.0413,-4.380347 1.4202272,-5.665285 1.1119242,-0.977576 0.094778,-2.276754 2.8095394,-3.999378 1.421475,-0.901983 1.503013,-2.534226 1.962913,-3.192941 0.808313,-1.1577459 1.768344,-1.2426664 2.919821,-1.1929597 1.15148,0.049708 2.391118,1.4119607 4.077212,2.4060947 1.686094,0.994133 3.34163,2.986091 4.328611,4.626409 0.986981,1.64032 2.615475,3.952669 3.026718,4.698267 0.411245,0.745601 1.073093,2.27098 0.234243,2.887653 -0.688108,0.505858 -1.662619,0.431905 -2.439292,0.111186 -1.203256,-0.496872 -4.086967,-5.235638 -4.580459,-5.633292 -0.493492,-0.397654 -3.714696,-2.911888 -4.413809,-3.011302 -0.699112,-0.0994 -0.996455,0.413556 -0.708932,0.790757"
         id="path55269"
         sodipodi:nodetypes="cssssssssssscc" />
      <path
         style="fill:none;fill-opacity:1;stroke:url(#linearGradient65618);stroke-width:0.393268;stroke-linecap:round;stroke-linejoin:round;stroke-miterlimit:8;stroke-dasharray:none;stroke-opacity:1;paint-order:fill markers stroke;stop-color:#000000"
         d="m 23.046135,24.742765 c 0,0 -0.691875,1.371379 -2.813789,0.830432 -2.356159,-0.600663 -3.454438,-2.137388 -5.058281,-3.57888 -1.603847,-1.441494 -4.616863,-3.696868 -5.338795,-4.074422"
         id="path55435"
         sodipodi:nodetypes="cssc" />
      <path
         style="fill:none;fill-opacity:1;stroke:url(#linearGradient90929);stroke-width:0.393268;stroke-linecap:round;stroke-linejoin:round;stroke-miterlimit:8;stroke-dasharray:none;stroke-opacity:1;paint-order:fill markers stroke;stop-color:#000000"
         d="m 24.40469,20.018826 c -1.219668,0.798767 -1.658741,1.488955 -1.159238,2.328432 0.233131,0.391807 1.164238,0.947333 1.164238,0.947333"
         id="path63232"
         sodipodi:nodetypes="csc" />
      <path
         style="opacity:1;fill:none;fill-opacity:1;stroke:#bf8855;stroke-width:0.393268;stroke-linecap:round;stroke-linejoin:round;stroke-miterlimit:8;stroke-dasharray:none;stroke-opacity:1;paint-order:fill markers stroke;stop-color:#000000"
         d="m 13.797789,15.808991 c 0.514494,0.701583 4.230646,2.232249 5.150126,3.142247 0.825363,0.816852 3.943535,4.729664 4.256754,5.654245"
         id="path87710"
         sodipodi:nodetypes="csc" />
      <path
         style="fill:none;fill-opacity:1;stroke:#735132;stroke-width:0.393268;stroke-linecap:round;stroke-linejoin:round;stroke-miterlimit:8;stroke-dasharray:none;stroke-opacity:1;paint-order:fill markers stroke;stop-color:#000000"
         d="m 5.1930178,25.126769 c 1.3119178,0.727579 2.2706167,0.380475 6.4447982,0.522683 4.358071,0.148473 5.824446,-0.199135 6.83729,-0.552424 1.379178,0.548524 3.565916,1.160232 4.667966,-0.463887"
         id="path64267"
         sodipodi:nodetypes="cscc" />
      <path
         style="opacity:1;fill:none;fill-opacity:1;stroke:#a8713f;stroke-width:0.393268;stroke-linecap:round;stroke-linejoin:round;stroke-miterlimit:8;stroke-dasharray:none;stroke-opacity:1;paint-order:fill markers stroke;stop-color:#000000"
         d="m 25.995312,23.217187 c -0.463021,0.760676 -2.076391,0.648933 -3.162476,-0.107249 -1.20227,-0.837074 -1.901206,-1.973512 -2.509043,-2.962862"
         id="path89118"
         sodipodi:nodetypes="csc" />
    </g>
  </g>
</svg>
