<?xml version="1.0" encoding="UTF-8" standalone="no"?>
<!-- Created with Inkscape (http://www.inkscape.org/) -->

<svg
   width="100"
   height="100"
   viewBox="0 0 26.458332 26.458332"
   version="1.1"
   id="svg2787"
   inkscape:version="1.2.2 (732a01da63, 2022-12-09)"
   sodipodi:docname="dice3.svg"
   xmlns:inkscape="http://www.inkscape.org/namespaces/inkscape"
   xmlns:sodipodi="http://sodipodi.sourceforge.net/DTD/sodipodi-0.dtd"
   xmlns:xlink="http://www.w3.org/1999/xlink"
   xmlns="http://www.w3.org/2000/svg"
   xmlns:svg="http://www.w3.org/2000/svg">
  <sodipodi:namedview
     id="namedview2789"
     pagecolor="#ffffff"
     bordercolor="#000000"
     borderopacity="0.25"
     inkscape:showpageshadow="2"
     inkscape:pageopacity="0.0"
     inkscape:pagecheckerboard="0"
     inkscape:deskcolor="#d1d1d1"
     inkscape:document-units="mm"
     showgrid="false"
     inkscape:zoom="1.8707913"
     inkscape:cx="24.588526"
     inkscape:cy="61.471315"
     inkscape:window-width="1366"
     inkscape:window-height="705"
     inkscape:window-x="-8"
     inkscape:window-y="-8"
     inkscape:window-maximized="1"
     inkscape:current-layer="layer1"
     inkscape:lockguides="false" />
  <defs
     id="defs2784">
    <radialGradient
       inkscape:collect="always"
       xlink:href="#linearGradient7030"
       id="radialGradient10060"
       cx="-29.337963"
       cy="8.7420263"
       fx="-29.337963"
       fy="8.7420263"
       r="7.9298015"
       gradientTransform="matrix(-0.71361939,0.68924743,0.68284924,0.74712838,-18.352366,31.975985)"
       gradientUnits="userSpaceOnUse" />
    <linearGradient
       inkscape:collect="always"
       id="linearGradient7030">
      <stop
         style="stop-color:#fffccc;stop-opacity:1;"
         offset="0.02772277"
         id="stop10064" />
      <stop
         style="stop-color:#fff674;stop-opacity:1;"
         offset="0.41131458"
         id="stop7028" />
      <stop
         style="stop-color:#f69417;stop-opacity:1;"
         offset="0.9980198"
         id="stop7026" />
    </linearGradient>
    <radialGradient
       inkscape:collect="always"
       xlink:href="#linearGradient8680"
       id="radialGradient10052"
       cx="-33.520084"
       cy="9.3900013"
       fx="-33.520084"
       fy="9.3900013"
       r="7.9004035"
       gradientUnits="userSpaceOnUse"
       gradientTransform="matrix(0.15419298,1.3463779,-0.95661169,0.10402929,31.788467,53.507835)" />
    <linearGradient
       inkscape:collect="always"
       id="linearGradient8680">
      <stop
         style="stop-color:#ffef3b;stop-opacity:1;"
         offset="0"
         id="stop8678" />
      <stop
         style="stop-color:#ff9401;stop-opacity:1;"
         offset="1"
         id="stop8676" />
    </linearGradient>
    <radialGradient
       inkscape:collect="always"
       xlink:href="#linearGradient9723"
       id="radialGradient10056"
       cx="-33.021458"
       cy="4.9833846"
       fx="-33.021458"
       fy="4.9833846"
       r="7.4398866"
       gradientTransform="matrix(0.19929778,0.02460164,-0.11536602,-1.0590256,11.720443,22.150963)"
       gradientUnits="userSpaceOnUse" />
    <linearGradient
       inkscape:collect="always"
       id="linearGradient9723">
      <stop
         style="stop-color:#fbf427;stop-opacity:1;"
         offset="0"
         id="stop9721" />
      <stop
         style="stop-color:#ffb804;stop-opacity:1;"
         offset="0.91910499"
         id="stop9719" />
    </linearGradient>
  </defs>
  <g
     inkscape:label="Layer 1"
     inkscape:groupmode="layer"
     id="layer1">
    <g
       id="g26550"
       transform="matrix(-1.3907395,0,0,1.3907395,27.300727,-7.4726237)">
      <path
         id="rect3873-4"
         style="fill:url(#radialGradient10060);fill-opacity:1;fill-rule:evenodd;stroke-width:0.20976"
         d="m 4.586641,15.895221 c 0,0 0.051924,-0.393378 0.6610081,-1.035349 0.6699486,-0.514989 1.4096434,-0.644907 4.0312835,-0.618996 l 5.0591314,0.05 c 1.278863,0.01264 1.95786,0.954082 1.95786,2.164071 v 5.754559 c 0,1.14353 -0.895525,2.053061 -2.007863,2.064066 l -5.0541556,0.05 C 6.9413647,24.346255 4.9718751,24.492874 5.2101472,24.134544 4.2140545,23.43217 4.4371132,21.496596 4.5090764,20.805201 4.4473486,19.8686 4.1580099,16.238554 4.586641,15.895221 Z"
         sodipodi:nodetypes="ccssssssccc" />
      <path
         id="rect3873"
         style="fill:url(#radialGradient10052);fill-rule:evenodd;stroke-width:0.209941"
         transform="matrix(0,1,0.99827315,-0.05874281,0,0)"
         d="m 16.448311,6.6497429 c 2.151556,0.014671 6.454667,0.044012 6.454667,0.044012 1.143962,0.0078 1.863129,1.0191231 1.929988,2.1353675 L 25.1699,14.454383 c 0.06686,1.116244 -1.123392,1.86973 -2.266922,1.86973 h -5.754559 c -1.143531,0 -1.99905,-0.895159 -2.064135,-2.011403 L 14.735066,8.3234138 c -0.06508,-1.1162449 0.569282,-1.6814712 1.713245,-1.6736709 z"
         sodipodi:nodetypes="sssssssss" />
      <ellipse
         style="fill:#333333;fill-rule:evenodd;stroke-width:0.171268"
         id="path9917-0"
         cx="20.084528"
         cy="11.582978"
         transform="matrix(0,1,0.99827315,-0.05874281,0,0)"
         rx="0.96951795"
         ry="0.94475025" />
      <ellipse
         style="fill:#333333;fill-rule:evenodd;stroke-width:0.171268"
         id="path9917"
         cx="22.512041"
         cy="9.0403595"
         transform="matrix(0,1,0.99827315,-0.05874281,0,0)"
         rx="0.96951795"
         ry="0.94475025" />
      <ellipse
         style="fill:#333333;fill-rule:evenodd;stroke-width:0.171268"
         id="path9917-8"
         cx="22.838577"
         cy="13.966736"
         transform="matrix(0,1,0.99827315,-0.05874281,0,0)"
         rx="0.96951795"
         ry="0.94475025" />
      <ellipse
         style="fill:#333333;fill-rule:evenodd;stroke-width:0.171268"
         id="path9917-5"
         cx="17.551123"
         cy="14.025419"
         transform="matrix(0,1,0.99827315,-0.05874281,0,0)"
         rx="0.96951795"
         ry="0.94475025" />
      <ellipse
         style="fill:#333333;fill-rule:evenodd;stroke-width:0.171268"
         id="path9917-07"
         cx="17.264818"
         cy="9.1820326"
         transform="matrix(0,1,0.99827315,-0.05874281,0,0)"
         rx="0.96951795"
         ry="0.94475025" />
      <path
         id="rect3873-1"
         style="fill:url(#radialGradient10056);fill-opacity:1;fill-rule:evenodd;stroke-width:0.106853"
         inkscape:transform-center-x="0.35001785"
         inkscape:transform-center-y="2.000102"
         d="m 4.4329449,18.067213 c 0,-1.563706 0.085884,-2.110939 0.2845335,-2.313589 0,0 0.2303894,-0.304985 0.7590444,-0.876242 0.5286545,-0.571257 0.6731435,0.294788 0.6731435,1.438316 v 3.425456 0.654192 1.910537 c 0,1.143529 0.4188378,2.047053 -0.5231358,2.021182 C 5.2309488,24.3162 4.9804747,24.430841 4.729979,24.01364 4.4655577,23.573246 4.4329449,22.457129 4.4329449,20.893424 v -0.498078 -0.315137 z"
         sodipodi:nodetypes="scssccssssccs" />
      <ellipse
         style="fill:#333333;fill-rule:evenodd;stroke-width:0.0936208"
         id="path9917-8-5"
         cx="21.929798"
         cy="5.6673703"
         rx="0.96951795"
         ry="0.19426937"
         transform="matrix(0,1,1,0,0,0)" />
      <ellipse
         style="fill:#333333;fill-rule:evenodd;stroke-width:0.0936208"
         id="path9917-5-1"
         cx="16.957108"
         cy="5.6673703"
         rx="0.96951795"
         ry="0.19426937"
         transform="matrix(0,1,1,0,0,0)" />
      <ellipse
         style="fill:#333333;fill-rule:evenodd;stroke-width:0.0734414"
         id="path9917-7"
         cx="21.857964"
         cy="4.8816957"
         rx="0.76054561"
         ry="0.15239607"
         transform="matrix(0,1,1,0,0,0)" />
      <ellipse
         style="fill:#333333;fill-rule:evenodd;stroke-width:0.0734414"
         id="path9917-07-6"
         cx="17.515137"
         cy="4.8463387"
         rx="0.76054561"
         ry="0.15239607"
         transform="matrix(0,1,1,0,0,0)" />
    </g>
  </g>
</svg>
