<?xml version="1.0" encoding="UTF-8" standalone="no"?>
<!-- Created with Inkscape (http://www.inkscape.org/) -->

<svg
   width="95mm"
   height="20mm"
   viewBox="0 0 95 20"
   version="1.1"
   id="svg129077"
   inkscape:version="1.2.2 (732a01da63, 2022-12-09)"
   sodipodi:docname="endless.svg"
   xmlns:inkscape="http://www.inkscape.org/namespaces/inkscape"
   xmlns:sodipodi="http://sodipodi.sourceforge.net/DTD/sodipodi-0.dtd"
   xmlns="http://www.w3.org/2000/svg"
   xmlns:svg="http://www.w3.org/2000/svg">
  <sodipodi:namedview
     id="namedview129079"
     pagecolor="#ffffff"
     bordercolor="#000000"
     borderopacity="0.25"
     inkscape:showpageshadow="2"
     inkscape:pageopacity="0.0"
     inkscape:pagecheckerboard="0"
     inkscape:deskcolor="#d1d1d1"
     inkscape:document-units="mm"
     showgrid="false"
     inkscape:zoom="0.93539562"
     inkscape:cx="279.02632"
     inkscape:cy="84.456243"
     inkscape:window-width="1366"
     inkscape:window-height="705"
     inkscape:window-x="-8"
     inkscape:window-y="-8"
     inkscape:window-maximized="1"
     inkscape:current-layer="layer1"
     inkscape:lockguides="true" />
  <defs
     id="defs129074" />
  <g
     inkscape:label="Layer 1"
     inkscape:groupmode="layer"
     id="layer1">
    <g
       aria-label="Endless"
       transform="scale(1.0022441,0.99776093)"
       id="text114090"
       style="font-size:26.6398px;line-height:1.25;fill:#b9ff0f;fill-opacity:0.99215686;stroke-width:0.263333">
      <path
         d="M 3.5527162e-5,19.719692 V 1.0666298 H 11.615924 V 5.4632372 H 5.6193682 V 8.1818495 H 11.251708 V 12.578457 H 5.6193682 v 2.744628 h 6.4258108 v 4.396607 z"
         style="font-weight:900;font-family:'Segoe UI';-inkscape-font-specification:'Segoe UI Heavy';fill:#b9ff0f;fill-opacity:0.99215686"
         id="path2276" />
      <path
         d="M 22.828574,19.719692 V 12.44838 q 0,-1.235733 -0.377224,-1.769049 -0.364216,-0.546324 -1.196709,-0.546324 -0.715425,0 -1.118664,0.559331 -0.403239,0.559332 -0.403239,1.430849 v 7.596505 H 14.191452 V 6.3997927 h 5.541286 V 8.481027 h 0.05203 q 0.663393,-1.1446789 1.782057,-1.7690492 1.118663,-0.637378 2.432442,-0.637378 4.370592,0 4.370592,5.5152712 v 8.129821 z"
         style="font-weight:900;font-family:'Segoe UI';-inkscape-font-specification:'Segoe UI Heavy';fill:#b9ff0f;fill-opacity:0.99215686"
         id="path2278" />
      <path
         d="m 39.764618,19.719692 v -1.547918 h -0.05203 q -0.663394,0.871517 -1.730026,1.378818 -1.066633,0.494293 -2.10725,0.494293 -1.704011,0 -3.004782,-0.832494 -1.300772,-0.845501 -1.951157,-2.354396 -0.637378,-1.508895 -0.637378,-3.564114 0,-2.120257 0.767455,-3.7592292 0.767455,-1.638972 2.15928,-2.549512 1.391826,-0.91054 3.121852,-0.91054 0.819486,0 1.508895,0.2341389 0.702416,0.2341388 1.209717,0.637378 0.520309,0.3902314 0.663394,0.7804628 h 0.05203 V -2.8200448e-6 h 5.541287 V 19.719692 Z m 0.11707,-7.063189 q 0,-1.196709 -0.533316,-1.860103 -0.520309,-0.663393 -1.417841,-0.663393 -0.897533,0 -1.469872,0.832493 -0.559332,0.819486 -0.559332,2.198304 0,2.822674 1.951157,2.822674 0.923548,0 1.469872,-0.754447 0.559332,-0.767455 0.559332,-2.224319 z"
         style="font-weight:900;font-family:'Segoe UI';-inkscape-font-specification:'Segoe UI Heavy';fill:#b9ff0f;fill-opacity:0.99215686"
         id="path2280" />
      <path
         d="M 47.972486,19.719692 V -2.8200448e-6 h 5.541287 V 19.719692 Z"
         style="font-weight:900;font-family:'Segoe UI';-inkscape-font-specification:'Segoe UI Heavy';fill:#b9ff0f;fill-opacity:0.99215686"
         id="path2282" />
      <path
         d="m 60.954184,14.633676 q 0.143085,0.858509 0.988586,1.352802 0.845502,0.481286 2.237327,0.481286 1.93815,0 3.668176,-0.74144 v 3.512083 q -2.016196,0.806478 -4.890901,0.806478 -3.486067,0 -5.424217,-1.782057 -1.938149,-1.782057 -1.938149,-4.903908 0,-2.146273 0.845501,-3.785245 0.858509,-1.638972 2.523497,-2.5625198 1.677995,-0.9365554 3.694191,-0.9365554 2.068226,0 3.538098,0.8064783 1.469872,0.8064783 2.224319,2.2633423 0.767455,1.4568636 0.767455,3.4080216 v 2.081234 z m 3.329975,-2.90072 q 0,-2.3023659 -1.65198,-2.3023659 -0.689409,0 -1.157686,0.6373779 -0.468278,0.62437 -0.546324,1.664988 z"
         style="font-weight:900;font-family:'Segoe UI';-inkscape-font-specification:'Segoe UI Heavy';fill:#b9ff0f;fill-opacity:0.99215686"
         id="path2284" />
      <path
         d="m 81.922621,15.297069 q 0,2.263343 -1.730026,3.512083 -1.717019,1.235733 -4.799847,1.235733 -0.897532,0 -2.224319,-0.182108 -1.313779,-0.182108 -2.146273,-0.442262 v -3.889307 q 2.458458,1.092648 4.110438,1.092648 1.625964,0 1.625964,-0.845501 0,-0.351209 -0.377224,-0.57234 -0.377223,-0.234139 -1.977172,-0.767455 -1.769049,-0.559332 -2.575528,-1.482879 -0.806478,-0.923548 -0.806478,-2.406427 0,-2.068227 1.638972,-3.2649367 1.65198,-1.2097175 4.630746,-1.2097175 1.743034,0 3.694191,0.5073009 V 10.315115 Q 80.166579,9.9639064 79.191001,9.7297676 78.215422,9.4956287 77.552029,9.4956287 q -0.546324,0 -0.871517,0.182108 -0.325193,0.182108 -0.325193,0.5073013 0,0.377223 0.351208,0.611362 0.351209,0.234139 1.404833,0.559332 2.042212,0.598355 2.926736,1.53491 0.884525,0.936556 0.884525,2.406427 z"
         style="font-weight:900;font-family:'Segoe UI';-inkscape-font-specification:'Segoe UI Heavy';fill:#b9ff0f;fill-opacity:0.99215686"
         id="path2286" />
      <path
         d="m 94.787252,15.297069 q 0,2.263343 -1.730026,3.512083 -1.717018,1.235733 -4.799846,1.235733 -0.897533,0 -2.224319,-0.182108 -1.31378,-0.182108 -2.146273,-0.442262 v -3.889307 q 2.458458,1.092648 4.110437,1.092648 1.625965,0 1.625965,-0.845501 0,-0.351209 -0.377224,-0.57234 -0.377224,-0.234139 -1.977173,-0.767455 -1.769049,-0.559332 -2.575527,-1.482879 -0.806478,-0.923548 -0.806478,-2.406427 0,-2.068227 1.638972,-3.2649367 1.651979,-1.2097175 4.630746,-1.2097175 1.743034,0 3.694191,0.5073009 V 10.315115 Q 93.031211,9.9639064 92.055632,9.7297676 91.080054,9.4956287 90.41666,9.4956287 q -0.546324,0 -0.871517,0.182108 -0.325192,0.182108 -0.325192,0.5073013 0,0.377223 0.351208,0.611362 0.351208,0.234139 1.404833,0.559332 2.042211,0.598355 2.926736,1.53491 0.884524,0.936556 0.884524,2.406427 z"
         style="font-weight:900;font-family:'Segoe UI';-inkscape-font-specification:'Segoe UI Heavy';fill:#b9ff0f;fill-opacity:0.99215686"
         id="path2288" />
    </g>
    <text
       xml:space="preserve"
       style="font-style:normal;font-weight:normal;font-size:26.6398px;line-height:1.25;font-family:sans-serif;mix-blend-mode:normal;fill:#baff10;fill-opacity:0.988345;stroke:none;stroke-width:0.263333"
       x="26.972731"
       y="56.189922"
       id="text114090-2"
       transform="scale(1.0022441,0.99776093)"><tspan
         sodipodi:role="line"
         id="tspan114088-0"
         style="font-style:normal;font-variant:normal;font-weight:900;font-stretch:normal;font-family:'Segoe UI';-inkscape-font-specification:'Segoe UI Heavy';fill:#baff10;fill-opacity:0.988345;stroke-width:0.263333"
         x="26.972731"
         y="56.189922">Endless</tspan></text>
  </g>
</svg>
