<?xml version="1.0" encoding="UTF-8" standalone="no"?>
<!-- Created with Inkscape (http://www.inkscape.org/) -->

<svg
   width="100"
   height="100"
   viewBox="0 0 26.458332 26.458332"
   version="1.1"
   id="svg2787"
   inkscape:version="1.2.2 (732a01da63, 2022-12-09)"
   sodipodi:docname="picto.svg"
   xmlns:inkscape="http://www.inkscape.org/namespaces/inkscape"
   xmlns:sodipodi="http://sodipodi.sourceforge.net/DTD/sodipodi-0.dtd"
   xmlns:xlink="http://www.w3.org/1999/xlink"
   xmlns="http://www.w3.org/2000/svg"
   xmlns:svg="http://www.w3.org/2000/svg">
  <sodipodi:namedview
     id="namedview2789"
     pagecolor="#ffffff"
     bordercolor="#000000"
     borderopacity="0.25"
     inkscape:showpageshadow="2"
     inkscape:pageopacity="0.0"
     inkscape:pagecheckerboard="0"
     inkscape:deskcolor="#d1d1d1"
     inkscape:document-units="mm"
     showgrid="false"
     inkscape:zoom="1.8707913"
     inkscape:cx="75.636443"
     inkscape:cy="21.381327"
     inkscape:window-width="1117"
     inkscape:window-height="689"
     inkscape:window-x="0"
     inkscape:window-y="0"
     inkscape:window-maximized="0"
     inkscape:current-layer="layer1"
     showguides="true" />
  <defs
     id="defs2784">
    <radialGradient
       inkscape:collect="always"
       xlink:href="#linearGradient51705"
       id="radialGradient51707"
       cx="80.92717"
       cy="23.283854"
       fx="80.92717"
       fy="23.283854"
       r="2.3989551"
       gradientTransform="matrix(0.09121776,-0.88937556,1.0277965,0.10541474,-44.196089,95.192472)"
       gradientUnits="userSpaceOnUse" />
    <linearGradient
       inkscape:collect="always"
       id="linearGradient51705">
      <stop
         style="stop-color:#e4e2ed;stop-opacity:1;"
         offset="0"
         id="stop51701" />
      <stop
         style="stop-color:#484456;stop-opacity:1;"
         offset="0.81209153"
         id="stop6762" />
      <stop
         style="stop-color:#372e4d;stop-opacity:1;"
         offset="1"
         id="stop51703" />
    </linearGradient>
    <radialGradient
       inkscape:collect="always"
       xlink:href="#linearGradient52127"
       id="radialGradient52129"
       cx="77.355919"
       cy="-0.54782826"
       fx="77.355919"
       fy="-0.54782826"
       r="8.0335798"
       gradientTransform="matrix(1.558933,0.99927008,-0.89801303,1.4009647,-110.71815,-71.877878)"
       gradientUnits="userSpaceOnUse" />
    <linearGradient
       inkscape:collect="always"
       id="linearGradient52127">
      <stop
         style="stop-color:#fffae2;stop-opacity:1;"
         offset="0"
         id="stop52123" />
      <stop
         style="stop-color:#fff7ce;stop-opacity:1;"
         offset="0.11485147"
         id="stop52131" />
      <stop
         style="stop-color:#ffde4f;stop-opacity:1;"
         offset="0.40792078"
         id="stop52133" />
      <stop
         style="stop-color:#ffc221;stop-opacity:1;"
         offset="0.760396"
         id="stop52135" />
      <stop
         style="stop-color:#ffa605;stop-opacity:1;"
         offset="1"
         id="stop52125" />
    </linearGradient>
    <linearGradient
       inkscape:collect="always"
       xlink:href="#linearGradient29522"
       id="linearGradient31309"
       gradientUnits="userSpaceOnUse"
       gradientTransform="matrix(0.79324094,-0.60890789,0.79324094,0.60890789,4.892518,-8.867114)"
       x1="14.228266"
       y1="-29.189594"
       x2="3.6590269"
       y2="-18.620356" />
    <linearGradient
       inkscape:collect="always"
       id="linearGradient29522">
      <stop
         style="stop-color:#d4a125;stop-opacity:1;"
         offset="0"
         id="stop29518" />
      <stop
         style="stop-color:#edd495;stop-opacity:1;"
         offset="1"
         id="stop29520" />
    </linearGradient>
    <linearGradient
       inkscape:collect="always"
       xlink:href="#linearGradient29522"
       id="linearGradient31385"
       gradientUnits="userSpaceOnUse"
       gradientTransform="matrix(-0.79324094,-0.60890789,-0.79324094,0.60890789,5.1079993,-8.8671145)"
       x1="14.228266"
       y1="-29.189594"
       x2="3.6590269"
       y2="-18.620356" />
    <linearGradient
       inkscape:collect="always"
       xlink:href="#linearGradient29522"
       id="linearGradient29605"
       gradientUnits="userSpaceOnUse"
       gradientTransform="matrix(0.80013746,-0.61907549,0.80013746,0.61907549,17.509457,-0.36880917)"
       x1="14.228266"
       y1="-29.189594"
       x2="3.6590269"
       y2="-18.620356" />
  </defs>
  <g
     inkscape:label="Layer 1"
     inkscape:groupmode="layer"
     id="layer1">
    <rect
       style="fill:#800080;fill-rule:evenodd;stroke-width:0.264583"
       id="rect21125"
       width="26.470026"
       height="24.017801"
       x="-83.964668"
       y="52.546955" />
    <g
       id="g117847"
       transform="matrix(0.67134216,0,0,0.67134216,-82.51628,-11.043571)"
       style="stroke-width:1.48955">
      <path
         id="rect29651"
         style="fill:#b89644;fill-opacity:1;fill-rule:evenodd;stroke-width:0.377152"
         d="m -35.605293,27.319225 c -0.492538,-1e-6 -0.984675,0.144973 -1.362085,0.434689 l -11.14712,8.556916 h 0.0022 V 52.7082 h 25.014637 V 36.31083 h 0.0022 L -34.24267,27.753914 c -0.377408,-0.289716 -0.870084,-0.43469 -1.362623,-0.434689 z" />
      <rect
         style="mix-blend-mode:multiply;fill:#ddd3d3;fill-opacity:1;fill-rule:evenodd;stroke-width:0.385875"
         id="rect31549-1"
         width="22.808271"
         height="19.408148"
         x="-46.973419"
         y="31.062712" />
      <rect
         style="fill:#ffffff;fill-rule:evenodd;stroke-width:0.394111"
         id="rect31549"
         width="22.101128"
         height="20.893148"
         x="-46.655563"
         y="31.252985" />
      <text
         xml:space="preserve"
         style="font-style:normal;font-weight:normal;font-size:15.5252px;line-height:1.25;font-family:sans-serif;fill:#000000;fill-opacity:1;stroke:none;stroke-width:0.361336"
         x="-31.271276"
         y="52.282772"
         id="text33454"
         transform="matrix(0.99810239,0.29980889,-0.22385307,0.93466048,0,0)"><tspan
           sodipodi:role="line"
           id="tspan33452"
           style="font-style:normal;font-variant:normal;font-weight:bold;font-stretch:normal;font-size:15.5252px;font-family:Amiri;-inkscape-font-specification:'Amiri Bold';fill:#ff2e2e;fill-opacity:1;stroke-width:0.361336"
           x="-31.271276"
           y="52.282772">@</tspan></text>
      <path
         id="path31562"
         style="mix-blend-mode:normal;fill:#c5a761;fill-opacity:1;stroke:#000000;stroke-width:0;stroke-linecap:butt;stroke-linejoin:miter;stroke-dasharray:none;stroke-opacity:1"
         d="m -24.548379,36.496118 -11.088147,7.974712 -11.019009,-7.924561 v 2.948302 l 9.953777,8.797419 h 1.995262 l -0.0031,-0.05016 h 0.207925 l 9.953265,-8.797952 z" />
      <g
         id="g31560"
         transform="matrix(1,0,0,0.99165096,-40.605258,66.988617)"
         style="stroke-width:1.48955">
        <g
           id="g31553"
           style="stroke-width:1.48955">
          <path
             id="rect29033-76-4"
             style="fill:url(#linearGradient31309);fill-opacity:1;fill-rule:evenodd;stroke-width:0.439399"
             d="m -7.50924,-30.936074 v 16.535425 c 0.452893,10e-7 0.905606,-0.13307 1.252636,-0.399458 l 10.250021,-7.868254 -10.250021,-7.868254 c -0.34703,-0.266388 -0.799743,-0.399459 -1.252636,-0.399459 z" />
          <path
             id="rect29033-76-4-0"
             style="fill:url(#linearGradient31385);fill-opacity:1;fill-rule:evenodd;stroke-width:0.439399"
             d="m 17.509757,-30.936074 v 16.535425 c -0.452893,10e-7 -0.905606,-0.13307 -1.252636,-0.399458 L 6.0071003,-22.668361 16.257121,-30.536615 c 0.34703,-0.266388 0.799743,-0.399459 1.252636,-0.399459 z" />
        </g>
        <path
           id="rect29033-76-0"
           style="fill:#b89644;fill-opacity:1;fill-rule:evenodd;stroke-width:0.47522"
           d="m 5.0002539,-23.668412 c -0.4725829,-1e-6 -0.9449721,0.149165 -1.3070895,0.447776 l -10.6955936,8.819987 H 17.002935 L 6.3073434,-23.220636 C 5.945226,-23.519247 5.4728368,-23.668413 5.0002539,-23.668412 Z" />
        <path
           id="rect29033-76"
           style="fill:url(#linearGradient29605);fill-opacity:1;fill-rule:evenodd;stroke-width:0.444974"
           d="m 5.0002391,-22.806416 c -0.4568329,-1e-6 -0.9134785,0.135291 -1.2635274,0.406128 l -10.3391353,7.999639 H 16.6029 L 6.2637665,-22.400288 c -0.3500489,-0.270837 -0.8066946,-0.406129 -1.2635274,-0.406128 z" />
      </g>
    </g>
    <g
       id="g6943"
       transform="matrix(0.71546681,0.188197,-0.188197,0.71546681,7.1273093,1.631247)"
       style="stroke-width:1.21797">
      <rect
         style="fill:url(#radialGradient51707);fill-opacity:1;fill-rule:evenodd;stroke-width:0.390146"
         id="rect51147"
         width="4.2895293"
         height="3.7300673"
         x="-15.944508"
         y="22.858942"
         rx="2.5407705"
         ry="2.5407705"
         transform="scale(-1,1)" />
      <path
         id="path49262"
         style="fill:url(#radialGradient52129);fill-opacity:1;fill-rule:evenodd;stroke-width:0.370694"
         d="m 13.970964,-0.6846776 a 9.0000833,8.3238025 0 0 0 -9.000356,8.32419 9.0000833,8.3238025 0 0 0 2.576547,5.8219936 h -0.0083 c 2.172061,2.070167 2.345698,3.643851 2.556113,4.452537 0.1739,0.668338 0.453343,1.278155 1.350533,1.251643 0.504485,-0.01491 1.588801,-0.0168 2.252804,-0.01645 v 0.0011 c 0,0 0.129971,-8.54e-4 0.279046,-0.0011 0.148567,2.43e-4 0.279046,0.0011 0.279046,0.0011 v -0.0011 c 0.664053,-3.66e-4 1.748426,0.0016 2.252803,0.01645 0.897191,0.02652 1.175994,-0.583305 1.349894,-1.251643 0.210417,-0.808686 0.384054,-2.38237 2.556114,-4.452537 h -0.02043 a 9.0000833,8.3238025 0 0 0 2.575917,-5.8219936 9.0000833,8.3238025 0 0 0 -8.999718,-8.32419 z" />
      <g
         id="g51137"
         transform="matrix(0.89404114,0,0,0.89404114,-57.518581,4.9978024)"
         style="stroke-width:1.21797">
        <path
           style="fill:none;stroke:#afafaf;stroke-width:2.60271;stroke-linecap:round;stroke-linejoin:miter;stroke-dasharray:none;stroke-opacity:1"
           d="m 76.397089,16.800856 h 6.853988"
           id="path49649" />
        <path
           style="fill:none;stroke:#eeeeee;stroke-width:1.21797;stroke-linecap:round;stroke-linejoin:miter;stroke-dasharray:none;stroke-opacity:1"
           d="m 76.322429,16.405462 h 7.003309"
           id="path49649-1" />
      </g>
      <g
         id="g51141"
         transform="matrix(0.89404114,0,0,0.89404114,-57.635765,4.9754524)"
         style="stroke-width:1.21797">
        <path
           style="fill:none;stroke:#afafaf;stroke-width:2.60271;stroke-linecap:round;stroke-linejoin:miter;stroke-dasharray:none;stroke-opacity:1"
           d="m 76.528161,18.950966 h 6.853988"
           id="path49649-2" />
        <path
           style="fill:none;stroke:#eeeeee;stroke-width:1.21797;stroke-linecap:round;stroke-linejoin:miter;stroke-dasharray:none;stroke-opacity:1"
           d="M 76.453501,18.555572 H 83.45681"
           id="path49649-1-5" />
      </g>
      <g
         id="g51145"
         transform="matrix(-0.89404114,0,0,0.89404114,85.330629,4.9978024)"
         style="stroke-width:1.21797">
        <path
           style="fill:none;stroke:#afafaf;stroke-width:2.56164;stroke-linecap:round;stroke-linejoin:miter;stroke-dasharray:none;stroke-opacity:1"
           d="m 76.896033,21.051075 h 6.118245"
           id="path49649-2-4" />
        <path
           style="fill:none;stroke:#eeeeee;stroke-width:1.21797;stroke-linecap:round;stroke-linejoin:miter;stroke-dasharray:none;stroke-opacity:1"
           d="m 76.829387,20.648323 h 6.251537"
           id="path49649-1-5-0" />
      </g>
      <ellipse
         style="fill:#ffffff;fill-rule:evenodd;stroke-width:0.326646"
         id="path90349"
         cx="11.193284"
         cy="2.0435984"
         rx="2.0838096"
         ry="2.6757441"
         transform="matrix(0.97709194,0.21281761,-0.43143572,0.90214368,0,0)" />
    </g>
    <path
       id="path2444-6"
       style="fill:#ff0025;fill-opacity:1;stroke:#590079;stroke-width:0;stroke-linecap:round;stroke-linejoin:round;stroke-miterlimit:8;paint-order:fill markers stroke"
       d="m -80.897176,66.209202 c -1.070596,0.0073 -2.143428,0.488632 -2.996716,1.383378 -1.654862,1.735264 -1.349684,5.049969 1.200444,7.200077 1.273055,1.073361 4.62504,4.298446 4.62504,4.298446 0,0 3.351984,-3.225086 4.62504,-4.298446 2.550127,-2.150108 2.854789,-5.464813 1.199927,-7.200077 -1.654863,-1.735264 -4.134282,-1.914493 -5.824967,-0.100252 -0.818925,-0.878773 -1.823056,-1.289994 -2.828768,-1.283126 z" />
    <path
       id="path2444"
       style="fill:#ff0025;fill-opacity:1;stroke:#590079;stroke-width:0;stroke-linecap:round;stroke-linejoin:round;stroke-miterlimit:8;paint-order:fill markers stroke"
       d="m -79.696691,50.384487 c -0.612855,-0.300638 -1.361944,-0.331478 -2.103483,-0.06396 -1.438135,0.518824 -2.207741,2.496751 -1.365035,4.449421 0.420689,0.974797 1.414805,3.769034 1.414805,3.769034 0,0 2.830504,-0.885591 3.862373,-1.1355 2.066994,-0.500608 3.184513,-2.304911 2.73445,-3.766026 -0.450065,-1.461115 -1.813548,-2.269266 -3.294607,-1.715585 -0.217007,-0.734492 -0.672789,-1.254973 -1.248503,-1.537384 z" />
  </g>
</svg>
