<?xml version="1.0" encoding="UTF-8" standalone="no"?>
<!-- Created with Inkscape (http://www.inkscape.org/) -->

<svg
   width="100"
   height="100"
   viewBox="0 0 26.458332 26.458332"
   version="1.1"
   id="svg2787"
   inkscape:version="1.2.2 (732a01da63, 2022-12-09)"
   sodipodi:docname="interviews_icon.svg"
   xmlns:inkscape="http://www.inkscape.org/namespaces/inkscape"
   xmlns:sodipodi="http://sodipodi.sourceforge.net/DTD/sodipodi-0.dtd"
   xmlns="http://www.w3.org/2000/svg"
   xmlns:svg="http://www.w3.org/2000/svg">
  <sodipodi:namedview
     id="namedview2789"
     pagecolor="#ffffff"
     bordercolor="#000000"
     borderopacity="0.25"
     inkscape:showpageshadow="2"
     inkscape:pageopacity="0.0"
     inkscape:pagecheckerboard="0"
     inkscape:deskcolor="#d1d1d1"
     inkscape:document-units="mm"
     showgrid="false"
     inkscape:zoom="3.7415826"
     inkscape:cx="36.882789"
     inkscape:cy="50.513385"
     inkscape:window-width="1366"
     inkscape:window-height="705"
     inkscape:window-x="-8"
     inkscape:window-y="-8"
     inkscape:window-maximized="1"
     inkscape:current-layer="layer1"
     showguides="true"
     inkscape:lockguides="false" />
  <defs
     id="defs2784" />
  <g
     inkscape:label="Layer 1"
     inkscape:groupmode="layer"
     id="layer1">
    <path
       id="path4915-0"
       style="mix-blend-mode:normal;fill:#b7eded;fill-opacity:0.86534655;fill-rule:evenodd;stroke-width:0.312167"
       d="M 16.093134,9.1973385 C 7.2786995,9.1938099 5.3730793,12.346795 5.285887,17.326577 c -0.042179,2.408939 0.4091149,4.183657 1.8459472,5.404736 l -1.9398089,3.72702 5.3156567,-2.194626 c 1.376208,0.324822 3.084294,0.515041 5.191414,0.581745 8.479753,0.268438 10.668817,-2.530598 10.75601,-7.510379 0.08719,-4.979782 -1.547538,-8.1342041 -10.361972,-8.1377345 z" />
    <path
       id="path4915-7-0"
       style="mix-blend-mode:multiply;fill:#89e78f;fill-opacity:1;fill-rule:evenodd;stroke-width:0.275083"
       d="m -13.073051,1.534501 c -0.207519,-0.03224 -0.420278,-0.06299 -0.638006,-0.09229 -6.967291,-0.93741398 -8.940951,0.646073 -9.635782,4.614402 -0.69483,3.968327 0.758933,6.473003 7.748979,7.687085 1.361728,0.236516 2.539699,0.343147 3.5603,0.332947 l 4.4796748,2.491543 -1.100797,-3.168472 c 1.74288,-0.854986 2.541895,-2.474513 2.915125,-4.606111 0.673117,-3.844319 -0.896407,-6.259666 -7.3294938,-7.259106 z" />
  </g>
</svg>
