<?xml version="1.0" encoding="UTF-8" standalone="no"?>
<!-- Created with Inkscape (http://www.inkscape.org/) -->

<svg
   width="100"
   height="100"
   viewBox="0 0 26.458332 26.458332"
   version="1.1"
   id="svg2787"
   inkscape:version="1.2.2 (732a01da63, 2022-12-09)"
   sodipodi:docname="interviews_icon.svg"
   xmlns:inkscape="http://www.inkscape.org/namespaces/inkscape"
   xmlns:sodipodi="http://sodipodi.sourceforge.net/DTD/sodipodi-0.dtd"
   xmlns="http://www.w3.org/2000/svg"
   xmlns:svg="http://www.w3.org/2000/svg">
  <sodipodi:namedview
     id="namedview2789"
     pagecolor="#ffffff"
     bordercolor="#000000"
     borderopacity="0.25"
     inkscape:showpageshadow="2"
     inkscape:pageopacity="0.0"
     inkscape:pagecheckerboard="0"
     inkscape:deskcolor="#d1d1d1"
     inkscape:document-units="mm"
     showgrid="false"
     inkscape:zoom="3.7415826"
     inkscape:cx="32.740157"
     inkscape:cy="50.513385"
     inkscape:window-width="1366"
     inkscape:window-height="705"
     inkscape:window-x="-8"
     inkscape:window-y="-8"
     inkscape:window-maximized="1"
     inkscape:current-layer="layer1"
     showguides="true"
     inkscape:lockguides="false" />
  <defs
     id="defs2784" />
  <g
     inkscape:label="Layer 1"
     inkscape:groupmode="layer"
     id="layer1">
    <path
       id="path4915-7-0"
       style="mix-blend-mode:multiply;fill:#89e78f;fill-opacity:1;fill-rule:evenodd;stroke-width:0.275083"
       d="m -13.073051,1.534501 c -0.207519,-0.03224 -0.420278,-0.06299 -0.638006,-0.09229 -6.967291,-0.93741398 -8.940951,0.646073 -9.635782,4.614402 -0.69483,3.968327 0.758933,6.473003 7.748979,7.687085 1.361728,0.236516 2.539699,0.343147 3.5603,0.332947 l 4.4796748,2.491543 -1.100797,-3.168472 c 1.74288,-0.854986 2.541895,-2.474513 2.915125,-4.606111 0.673117,-3.844319 -0.896407,-6.259666 -7.3294938,-7.259106 z" />
    <path
       id="path4915"
       style="mix-blend-mode:screen;fill:#bde2ff;fill-opacity:0.95149255;fill-rule:evenodd;stroke-width:0.348544"
       d="M 10.684125,6.6209225 C 1.8533572,6.6209225 0,9.930591 0,15.157445 0,17.979931 0.60252362,19.972439 2.4946683,21.25267 L 0.36238892,26.614791 5.6199988,22.499466 c 1.3361748,0.302057 2.9656535,0.480986 4.9439782,0.545733 8.500113,0.278193 10.644074,-2.660901 10.644074,-7.887754 0,-5.226854 -1.693156,-8.5365225 -10.523926,-8.5365225 z"
       sodipodi:nodetypes="sscccsss" />
    <text
       xml:space="preserve"
       style="font-weight:bold;font-size:13.0501px;line-height:1.3;font-family:'Segoe UI';-inkscape-font-specification:'Segoe UI Bold';text-align:center;text-anchor:middle;fill:#516678;fill-opacity:1;stroke:#feb470;stroke-width:0;stroke-linecap:round;stroke-linejoin:round;stroke-miterlimit:8;stroke-dasharray:none;stroke-opacity:0.613054;paint-order:fill markers stroke;stop-color:#000000"
       x="11.656888"
       y="15.395994"
       id="text57253-0"
       transform="scale(0.96536455,1.0358781)"><tspan
         sodipodi:role="line"
         id="tspan57251-7"
         style="fill:#516678;fill-opacity:1;stroke-width:0"
         x="11.656888"
         y="15.395994">...</tspan></text>
  </g>
</svg>
