<?xml version="1.0" encoding="UTF-8" standalone="no"?>
<!-- Created with Inkscape (http://www.inkscape.org/) -->

<svg
   width="100"
   height="100"
   viewBox="0 0 26.458332 26.458332"
   version="1.1"
   id="svg2787"
   inkscape:version="1.3.2 (091e20e, 2023-11-25, custom)"
   sodipodi:docname="projecten_icon.svg"
   xmlns:inkscape="http://www.inkscape.org/namespaces/inkscape"
   xmlns:sodipodi="http://sodipodi.sourceforge.net/DTD/sodipodi-0.dtd"
   xmlns:xlink="http://www.w3.org/1999/xlink"
   xmlns="http://www.w3.org/2000/svg"
   xmlns:svg="http://www.w3.org/2000/svg">
  <sodipodi:namedview
     id="namedview2789"
     pagecolor="#ffffff"
     bordercolor="#000000"
     borderopacity="0.25"
     inkscape:showpageshadow="2"
     inkscape:pageopacity="0.0"
     inkscape:pagecheckerboard="0"
     inkscape:deskcolor="#d1d1d1"
     inkscape:document-units="mm"
     showgrid="false"
     inkscape:zoom="10.582794"
     inkscape:cx="20.457736"
     inkscape:cy="72.334396"
     inkscape:window-width="1920"
     inkscape:window-height="991"
     inkscape:window-x="-9"
     inkscape:window-y="-9"
     inkscape:window-maximized="1"
     inkscape:current-layer="layer1"
     showguides="true" />
  <defs
     id="defs2784">
    <radialGradient
       inkscape:collect="always"
       xlink:href="#linearGradient51705"
       id="radialGradient51707"
       cx="80.92717"
       cy="23.283854"
       fx="80.92717"
       fy="23.283854"
       r="2.3989551"
       gradientTransform="matrix(0.09121776,-0.88937556,1.0277965,0.10541474,-44.196089,95.192472)"
       gradientUnits="userSpaceOnUse" />
    <linearGradient
       inkscape:collect="always"
       id="linearGradient51705">
      <stop
         style="stop-color:#e4e2ed;stop-opacity:1;"
         offset="0"
         id="stop51701" />
      <stop
         style="stop-color:#484456;stop-opacity:1;"
         offset="0.81209153"
         id="stop6762" />
      <stop
         style="stop-color:#372e4d;stop-opacity:1;"
         offset="1"
         id="stop51703" />
    </linearGradient>
    <radialGradient
       inkscape:collect="always"
       xlink:href="#linearGradient52127"
       id="radialGradient52129"
       cx="77.355919"
       cy="-0.54782826"
       fx="77.355919"
       fy="-0.54782826"
       r="8.0335798"
       gradientTransform="matrix(1.558933,0.99927008,-0.89801303,1.4009647,-110.71815,-71.877878)"
       gradientUnits="userSpaceOnUse" />
    <linearGradient
       inkscape:collect="always"
       id="linearGradient52127">
      <stop
         style="stop-color:#fffae2;stop-opacity:1;"
         offset="0"
         id="stop52123" />
      <stop
         style="stop-color:#fff7ce;stop-opacity:1;"
         offset="0.11485147"
         id="stop52131" />
      <stop
         style="stop-color:#ffde4f;stop-opacity:1;"
         offset="0.40792078"
         id="stop52133" />
      <stop
         style="stop-color:#ffc221;stop-opacity:1;"
         offset="0.760396"
         id="stop52135" />
      <stop
         style="stop-color:#ffa605;stop-opacity:1;"
         offset="1"
         id="stop52125" />
    </linearGradient>
    <linearGradient
       inkscape:collect="always"
       xlink:href="#linearGradient29522"
       id="linearGradient31309"
       gradientUnits="userSpaceOnUse"
       gradientTransform="matrix(0.79324094,-0.60890789,0.79324094,0.60890789,4.892518,-8.867114)"
       x1="14.228266"
       y1="-29.189594"
       x2="3.6590269"
       y2="-18.620356" />
    <linearGradient
       inkscape:collect="always"
       id="linearGradient29522">
      <stop
         style="stop-color:#d4a125;stop-opacity:1;"
         offset="0"
         id="stop29518" />
      <stop
         style="stop-color:#edd495;stop-opacity:1;"
         offset="1"
         id="stop29520" />
    </linearGradient>
    <linearGradient
       inkscape:collect="always"
       xlink:href="#linearGradient29522"
       id="linearGradient31385"
       gradientUnits="userSpaceOnUse"
       gradientTransform="matrix(-0.79324094,-0.60890789,-0.79324094,0.60890789,5.1079993,-8.8671145)"
       x1="14.228266"
       y1="-29.189594"
       x2="3.6590269"
       y2="-18.620356" />
    <linearGradient
       inkscape:collect="always"
       xlink:href="#linearGradient29522"
       id="linearGradient29605"
       gradientUnits="userSpaceOnUse"
       gradientTransform="matrix(0.80013746,-0.61907549,0.80013746,0.61907549,17.509457,-0.36880917)"
       x1="14.228266"
       y1="-29.189594"
       x2="3.6590269"
       y2="-18.620356" />
    <radialGradient
       inkscape:collect="always"
       xlink:href="#linearGradient21516"
       id="radialGradient21518"
       cx="-10.294176"
       cy="21.568451"
       fx="-10.294176"
       fy="21.568451"
       r="6.3662009"
       gradientTransform="matrix(1.4949018,0.11618124,-0.03361773,0.58519066,26.730342,12.359205)"
       gradientUnits="userSpaceOnUse" />
    <linearGradient
       inkscape:collect="always"
       id="linearGradient21516">
      <stop
         style="stop-color:#605a62;stop-opacity:1;"
         offset="0.0019802"
         id="stop21512" />
      <stop
         style="stop-color:#989399;stop-opacity:0.31444758;"
         offset="1"
         id="stop21514" />
    </linearGradient>
    <linearGradient
       inkscape:collect="always"
       xlink:href="#linearGradient15170"
       id="linearGradient15172"
       x1="-15.648705"
       y1="17.281696"
       x2="2.0717561"
       y2="20.393126"
       gradientUnits="userSpaceOnUse" />
    <linearGradient
       inkscape:collect="always"
       id="linearGradient15170">
      <stop
         style="stop-color:#dccd9a;stop-opacity:1;"
         offset="0"
         id="stop15166" />
      <stop
         style="stop-color:#aa4400;stop-opacity:0.93767703;"
         offset="1"
         id="stop15168" />
    </linearGradient>
    <linearGradient
       inkscape:collect="always"
       xlink:href="#linearGradient17471"
       id="linearGradient17473"
       x1="-17.019377"
       y1="7.6721411"
       x2="3.4424262"
       y2="7.6721411"
       gradientUnits="userSpaceOnUse" />
    <linearGradient
       inkscape:collect="always"
       id="linearGradient17471">
      <stop
         style="stop-color:#fae8c9;stop-opacity:1;"
         offset="0"
         id="stop17467" />
      <stop
         style="stop-color:#dc8427;stop-opacity:1;"
         offset="1"
         id="stop17469" />
    </linearGradient>
    <linearGradient
       inkscape:collect="always"
       xlink:href="#linearGradient21349"
       id="linearGradient21351"
       x1="-15.673205"
       y1="6.8083696"
       x2="2.0962551"
       y2="6.8083696"
       gradientUnits="userSpaceOnUse" />
    <linearGradient
       inkscape:collect="always"
       id="linearGradient21349">
      <stop
         style="stop-color:#c38e66;stop-opacity:1;"
         offset="0"
         id="stop21345" />
      <stop
         style="stop-color:#8b5b37;stop-opacity:1;"
         offset="1"
         id="stop21347" />
    </linearGradient>
    <linearGradient
       inkscape:collect="always"
       xlink:href="#linearGradient16633"
       id="linearGradient16635"
       x1="-17.009029"
       y1="10.925782"
       x2="3.4320812"
       y2="10.925782"
       gradientUnits="userSpaceOnUse" />
    <linearGradient
       inkscape:collect="always"
       id="linearGradient16633">
      <stop
         style="stop-color:#d7b088;stop-opacity:1;"
         offset="0"
         id="stop16629" />
      <stop
         style="stop-color:#8c2d07;stop-opacity:1;"
         offset="1"
         id="stop16631" />
    </linearGradient>
    <radialGradient
       inkscape:collect="always"
       xlink:href="#linearGradient10799"
       id="radialGradient23030-7-7-2"
       cx="15.860661"
       cy="-2.6314101"
       fx="15.860661"
       fy="-2.6314101"
       r="1.8648378"
       gradientTransform="matrix(1.4097645,0.41133515,-1.0148915,1.3285268,-14.357295,7.9912225)"
       gradientUnits="userSpaceOnUse" />
    <linearGradient
       inkscape:collect="always"
       id="linearGradient10799">
      <stop
         style="stop-color:#ffe2e2;stop-opacity:1;"
         offset="0"
         id="stop10793" />
      <stop
         style="stop-color:#ffa174;stop-opacity:1;"
         offset="0.38810959"
         id="stop10795" />
      <stop
         style="stop-color:#ff2121;stop-opacity:1;"
         offset="0.79518074"
         id="stop10797" />
    </linearGradient>
    <radialGradient
       inkscape:collect="always"
       xlink:href="#linearGradient10799"
       id="radialGradient23030-7-7-2-0"
       cx="15.860661"
       cy="-2.6314101"
       fx="15.860661"
       fy="-2.6314101"
       r="1.8648378"
       gradientTransform="matrix(-1.4097645,0.41133515,1.0148915,1.3285268,39.894823,3.9279211)"
       gradientUnits="userSpaceOnUse" />
    <radialGradient
       inkscape:collect="always"
       xlink:href="#linearGradient10799"
       id="radialGradient23030-7-7-2-0-2"
       cx="15.860661"
       cy="-2.6314101"
       fx="15.860661"
       fy="-2.6314101"
       r="1.8648378"
       gradientTransform="matrix(1.2224993,0.36625614,-0.88007903,1.182931,-13.537772,3.53111)"
       gradientUnits="userSpaceOnUse" />
    <radialGradient
       inkscape:collect="always"
       xlink:href="#linearGradient44"
       id="radialGradient45"
       cx="11.29548"
       cy="13.492684"
       fx="11.29548"
       fy="13.492684"
       r="9.210536"
       gradientTransform="matrix(0.15029873,1.4678296,1.2916019,-0.11584068,-8.2612455,-9.5249017)"
       gradientUnits="userSpaceOnUse" />
    <linearGradient
       id="linearGradient44"
       inkscape:collect="always">
      <stop
         style="stop-color:#d4a175;stop-opacity:1;"
         offset="0"
         id="stop44" />
      <stop
         style="stop-color:#965d2d;stop-opacity:1;"
         offset="1"
         id="stop45" />
    </linearGradient>
    <linearGradient
       inkscape:collect="always"
       xlink:href="#linearGradient36"
       id="linearGradient37"
       x1="8.9754581"
       y1="12.250625"
       x2="7.3753762"
       y2="10.225521"
       gradientUnits="userSpaceOnUse"
       gradientTransform="matrix(-1.052461,0.44043768,0.44547645,1.1017636,19.414225,-13.411613)" />
    <linearGradient
       id="linearGradient36"
       inkscape:collect="always">
      <stop
         style="stop-color:#77511a;stop-opacity:1;"
         offset="0"
         id="stop36" />
      <stop
         style="stop-color:#916f57;stop-opacity:0;"
         offset="1"
         id="stop37" />
    </linearGradient>
    <linearGradient
       inkscape:collect="always"
       xlink:href="#linearGradient38"
       id="linearGradient39"
       x1="16.570852"
       y1="10.621636"
       x2="17.679352"
       y2="7.7964911"
       gradientUnits="userSpaceOnUse"
       gradientTransform="matrix(-1.052461,0.44043768,0.44547645,1.1017636,19.414225,-13.411613)" />
    <linearGradient
       id="linearGradient38"
       inkscape:collect="always">
      <stop
         style="stop-color:#8a650a;stop-opacity:1;"
         offset="0.00424628"
         id="stop38" />
      <stop
         style="stop-color:#916f57;stop-opacity:0;"
         offset="1"
         id="stop39" />
    </linearGradient>
  </defs>
  <g
     inkscape:label="Layer 1"
     inkscape:groupmode="layer"
     id="layer1">
    <g
       id="g16872"
       transform="translate(-31.049965,0.85004333)">
      <rect
         style="fill:#800080;fill-rule:evenodd;stroke-width:0.264583"
         id="rect21125"
         width="26.470026"
         height="24.017801"
         x="-83.964668"
         y="52.546955" />
      <g
         id="g117847"
         transform="matrix(0.67134216,0,0,0.67134216,-82.51628,-11.043571)"
         style="stroke-width:1.48955">
        <path
           id="rect29651"
           style="fill:#b89644;fill-opacity:1;fill-rule:evenodd;stroke-width:0.377152"
           d="m -35.605293,27.319225 c -0.492538,-1e-6 -0.984675,0.144973 -1.362085,0.434689 l -11.14712,8.556916 h 0.0022 V 52.7082 h 25.014637 V 36.31083 h 0.0022 L -34.24267,27.753914 c -0.377408,-0.289716 -0.870084,-0.43469 -1.362623,-0.434689 z" />
        <rect
           style="mix-blend-mode:multiply;fill:#ddd3d3;fill-opacity:1;fill-rule:evenodd;stroke-width:0.385875"
           id="rect31549-1"
           width="22.808271"
           height="19.408148"
           x="-46.973419"
           y="31.062712" />
        <rect
           style="fill:#ffffff;fill-rule:evenodd;stroke-width:0.394111"
           id="rect31549"
           width="22.101128"
           height="20.893148"
           x="-46.655563"
           y="31.252985" />
        <text
           xml:space="preserve"
           style="font-style:normal;font-weight:normal;font-size:15.5252px;line-height:1.25;font-family:sans-serif;fill:#000000;fill-opacity:1;stroke:none;stroke-width:0.361336"
           x="-31.271276"
           y="52.282772"
           id="text33454"
           transform="matrix(0.99810239,0.29980889,-0.22385307,0.93466048,0,0)"><tspan
             sodipodi:role="line"
             id="tspan33452"
             style="font-style:normal;font-variant:normal;font-weight:bold;font-stretch:normal;font-size:15.5252px;font-family:Amiri;-inkscape-font-specification:'Amiri Bold';fill:#ff2e2e;fill-opacity:1;stroke-width:0.361336"
             x="-31.271276"
             y="52.282772">@</tspan></text>
        <path
           id="path31562"
           style="mix-blend-mode:normal;fill:#c5a761;fill-opacity:1;stroke:#000000;stroke-width:0;stroke-linecap:butt;stroke-linejoin:miter;stroke-dasharray:none;stroke-opacity:1"
           d="m -24.548379,36.496118 -11.088147,7.974712 -11.019009,-7.924561 v 2.948302 l 9.953777,8.797419 h 1.995262 l -0.0031,-0.05016 h 0.207925 l 9.953265,-8.797952 z" />
        <g
           id="g31560"
           transform="matrix(1,0,0,0.99165096,-40.605258,66.988617)"
           style="stroke-width:1.48955">
          <g
             id="g31553"
             style="stroke-width:1.48955">
            <path
               id="rect29033-76-4"
               style="fill:url(#linearGradient31309);fill-opacity:1;fill-rule:evenodd;stroke-width:0.439399"
               d="m -7.50924,-30.936074 v 16.535425 c 0.452893,10e-7 0.905606,-0.13307 1.252636,-0.399458 l 10.250021,-7.868254 -10.250021,-7.868254 c -0.34703,-0.266388 -0.799743,-0.399459 -1.252636,-0.399459 z" />
            <path
               id="rect29033-76-4-0"
               style="fill:url(#linearGradient31385);fill-opacity:1;fill-rule:evenodd;stroke-width:0.439399"
               d="m 17.509757,-30.936074 v 16.535425 c -0.452893,10e-7 -0.905606,-0.13307 -1.252636,-0.399458 L 6.0071003,-22.668361 16.257121,-30.536615 c 0.34703,-0.266388 0.799743,-0.399459 1.252636,-0.399459 z" />
          </g>
          <path
             id="rect29033-76-0"
             style="fill:#b89644;fill-opacity:1;fill-rule:evenodd;stroke-width:0.47522"
             d="m 5.0002539,-23.668412 c -0.4725829,-1e-6 -0.9449721,0.149165 -1.3070895,0.447776 l -10.6955936,8.819987 H 17.002935 L 6.3073434,-23.220636 C 5.945226,-23.519247 5.4728368,-23.668413 5.0002539,-23.668412 Z" />
          <path
             id="rect29033-76"
             style="fill:url(#linearGradient29605);fill-opacity:1;fill-rule:evenodd;stroke-width:0.444974"
             d="m 5.0002391,-22.806416 c -0.4568329,-1e-6 -0.9134785,0.135291 -1.2635274,0.406128 l -10.3391353,7.999639 H 16.6029 L 6.2637665,-22.400288 c -0.3500489,-0.270837 -0.8066946,-0.406129 -1.2635274,-0.406128 z" />
        </g>
      </g>
      <g
         id="g6943"
         transform="matrix(0.71546681,0.188197,-0.188197,0.71546681,1.7530237,-28.917324)"
         style="stroke-width:1.21797">
        <rect
           style="fill:url(#radialGradient51707);fill-opacity:1;fill-rule:evenodd;stroke-width:0.390146"
           id="rect51147"
           width="4.2895293"
           height="3.7300673"
           x="-15.944508"
           y="22.858942"
           rx="2.5407705"
           ry="2.5407705"
           transform="scale(-1,1)" />
        <path
           id="path49262"
           style="fill:url(#radialGradient52129);fill-opacity:1;fill-rule:evenodd;stroke-width:0.370694"
           d="m 13.970964,-0.6846776 a 9.0000833,8.3238025 0 0 0 -9.000356,8.32419 9.0000833,8.3238025 0 0 0 2.576547,5.8219936 h -0.0083 c 2.172061,2.070167 2.345698,3.643851 2.556113,4.452537 0.1739,0.668338 0.453343,1.278155 1.350533,1.251643 0.504485,-0.01491 1.588801,-0.0168 2.252804,-0.01645 v 0.0011 c 0,0 0.129971,-8.54e-4 0.279046,-0.0011 0.148567,2.43e-4 0.279046,0.0011 0.279046,0.0011 v -0.0011 c 0.664053,-3.66e-4 1.748426,0.0016 2.252803,0.01645 0.897191,0.02652 1.175994,-0.583305 1.349894,-1.251643 0.210417,-0.808686 0.384054,-2.38237 2.556114,-4.452537 h -0.02043 a 9.0000833,8.3238025 0 0 0 2.575917,-5.8219936 9.0000833,8.3238025 0 0 0 -8.999718,-8.32419 z" />
        <g
           id="g51137"
           transform="matrix(0.89404114,0,0,0.89404114,-57.518581,4.9978024)"
           style="stroke-width:1.21797">
          <path
             style="fill:none;stroke:#afafaf;stroke-width:2.60271;stroke-linecap:round;stroke-linejoin:miter;stroke-dasharray:none;stroke-opacity:1"
             d="m 76.397089,16.800856 h 6.853988"
             id="path49649" />
          <path
             style="fill:none;stroke:#eeeeee;stroke-width:1.21797;stroke-linecap:round;stroke-linejoin:miter;stroke-dasharray:none;stroke-opacity:1"
             d="m 76.322429,16.405462 h 7.003309"
             id="path49649-1" />
        </g>
        <g
           id="g51141"
           transform="matrix(0.89404114,0,0,0.89404114,-57.635765,4.9754524)"
           style="stroke-width:1.21797">
          <path
             style="fill:none;stroke:#afafaf;stroke-width:2.60271;stroke-linecap:round;stroke-linejoin:miter;stroke-dasharray:none;stroke-opacity:1"
             d="m 76.528161,18.950966 h 6.853988"
             id="path49649-2" />
          <path
             style="fill:none;stroke:#eeeeee;stroke-width:1.21797;stroke-linecap:round;stroke-linejoin:miter;stroke-dasharray:none;stroke-opacity:1"
             d="M 76.453501,18.555572 H 83.45681"
             id="path49649-1-5" />
        </g>
        <g
           id="g51145"
           transform="matrix(-0.89404114,0,0,0.89404114,85.330629,4.9978024)"
           style="stroke-width:1.21797">
          <path
             style="fill:none;stroke:#afafaf;stroke-width:2.56164;stroke-linecap:round;stroke-linejoin:miter;stroke-dasharray:none;stroke-opacity:1"
             d="m 76.896033,21.051075 h 6.118245"
             id="path49649-2-4" />
          <path
             style="fill:none;stroke:#eeeeee;stroke-width:1.21797;stroke-linecap:round;stroke-linejoin:miter;stroke-dasharray:none;stroke-opacity:1"
             d="m 76.829387,20.648323 h 6.251537"
             id="path49649-1-5-0" />
        </g>
        <ellipse
           style="fill:#ffffff;fill-rule:evenodd;stroke-width:0.326646"
           id="path90349"
           cx="11.193284"
           cy="2.0435984"
           rx="2.0838096"
           ry="2.6757441"
           transform="matrix(0.97709194,0.21281761,-0.43143572,0.90214368,0,0)" />
      </g>
      <ellipse
         style="fill:url(#radialGradient21518);fill-opacity:1;fill-rule:evenodd;stroke-width:0.275151"
         id="path21510"
         cx="15.202121"
         cy="23.864708"
         rx="6.1610093"
         ry="2.3902314"
         transform="matrix(0.9999117,0.01328877,-0.00138747,0.99999904,0,0)" />
      <g
         id="g21506"
         transform="matrix(0.76934285,0,0,0.77788571,18.311267,7.536908)"
         style="stroke-width:0.99575">
        <path
           id="path14647-2-1-5"
           style="fill:url(#linearGradient15172);fill-opacity:1;fill-rule:evenodd;stroke:#44b2c8;stroke-width:0;stroke-dasharray:none;stroke-opacity:1"
           d="m -15.51758,10.997886 3.276602,10.091771 a 5.2561326,2.4758983 0 0 0 5.2565196,2.475848 5.2561326,2.4758983 0 0 0 5.2560479,-2.475848 l 3.664192,-10.091771 z" />
        <path
           id="path14647-5"
           style="fill:url(#linearGradient17473);fill-opacity:1;fill-rule:evenodd;stroke:#44b2c8;stroke-width:0;stroke-dasharray:none;stroke-opacity:1"
           d="m -6.7884745,4.3005124 a 10.230728,3.3714428 0 0 0 -10.2309005,3.3713704 10.230728,3.3714428 0 0 0 10.2309005,3.3718872 10.230728,3.3714428 0 0 0 10.2309,-3.3718872 10.230728,3.3714428 0 0 0 -10.2309,-3.3713704 z m 0.035657,0.8159709 A 8.8845978,2.4142406 0 0 1 2.1313944,7.5308062 8.8845978,2.4142406 0 0 1 -6.7528178,9.9451291 8.8845978,2.4142406 0 0 1 -15.637547,7.5308062 8.8845978,2.4142406 0 0 1 -6.7528175,5.1164833 Z" />
        <path
           id="path14647-9-6"
           style="fill:url(#linearGradient21351);fill-opacity:1;fill-rule:evenodd;stroke:#44b2c8;stroke-width:0;stroke-dasharray:none;stroke-opacity:1"
           d="m -6.7884745,5.1164833 a 8.8845978,2.4142406 0 0 0 -8.8847295,2.414323 8.8845978,2.4142406 0 0 0 0.751892,0.96945 9.5639706,3.3764713 0 0 1 8.3447109,-1.72961 9.5639706,3.3764713 0 0 1 8.1214681,1.593701 8.8845978,2.4142406 0 0 0 0.5513875,-0.833541 8.8845978,2.4142406 0 0 0 -8.884729,-2.414323 z" />
        <path
           id="path14647-9-3"
           style="fill:#362c25;fill-opacity:1;fill-rule:evenodd;stroke:#44b2c8;stroke-width:0;stroke-dasharray:none;stroke-opacity:1"
           d="M -6.6244389,6.7711635 A 9.6203053,3.3764709 0 0 0 -15.018303,8.5002563 8.9369308,2.4142403 0 0 0 -6.8375609,9.9451291 8.9369308,2.4142403 0 0 0 1.544867,8.3643473 9.6203053,3.3764709 0 0 0 -6.6244389,6.7711635 Z" />
        <path
           id="path14647-2-2"
           style="fill:url(#linearGradient16635);fill-opacity:1;fill-rule:evenodd;stroke:#44b2c8;stroke-width:0;stroke-dasharray:none;stroke-opacity:1"
           d="m -16.864087,8.2475586 0.511597,1.9001424 a 9.5639706,3.3764713 0 0 0 9.5637571,3.376021 9.5639706,3.3764713 0 0 0 9.5642741,-3.376021 L 3.2871379,8.2475586 A 10.230728,3.3714428 0 0 1 -6.7887329,11.04377 10.230728,3.3714428 0 0 1 -16.864087,8.2475586 Z" />
      </g>
      <path
         style="fill:#c8df3f;fill-opacity:1;stroke:#000000;stroke-width:0;stroke-linecap:butt;stroke-linejoin:miter;stroke-dasharray:none;stroke-opacity:1"
         d="m 12.836882,13.61679 c 0,0 -1.573965,-3.531154 -5.0101252,-4.9958123 C 4.3905978,7.1563189 1.0191997,7.8583449 1.0191997,7.8583449 c 0,0 4.3191708,5.2268951 11.8176823,5.7584451 z"
         id="path21674" />
      <path
         style="fill:#c8df3f;fill-opacity:1;stroke:#000000;stroke-width:0;stroke-linecap:butt;stroke-linejoin:miter;stroke-dasharray:none;stroke-opacity:1"
         d="m 12.903877,13.728492 c 1.567656,-1.674616 3.232576,-5.1926974 8.209088,-3.969141 3.440213,0.845833 4.326168,2.077047 4.326168,2.077047 0,0 -3.344413,-0.579845 -5.367887,0.356716 -2.023476,0.936565 -7.167369,1.535378 -7.167369,1.535378 z"
         id="path21676"
         inkscape:transform-center-x="-5.7029181"
         inkscape:transform-center-y="-1.7400739"
         sodipodi:nodetypes="cscsc" />
      <path
         style="fill:#c8df3f;fill-opacity:1;stroke:#000000;stroke-width:0;stroke-linecap:butt;stroke-linejoin:miter;stroke-dasharray:none;stroke-opacity:1"
         d="M 13.659643,13.960761 C 13.439228,10.906414 13.439228,5.6609064 16.451567,3.2041496 19.463908,0.74739289 22.99055,0.81379172 22.99055,0.81379172 c 0,0 -7.788001,11.61979528 -9.330907,13.14696928 z"
         id="path21680" />
      <path
         style="fill:#c8df3f;fill-opacity:1;stroke:#000000;stroke-width:0;stroke-linecap:butt;stroke-linejoin:miter;stroke-dasharray:none;stroke-opacity:1"
         d="M 13.089318,13.821186 C 13.402525,10.036452 13.637429,6.5173148 9.8006478,3.7285638 5.9638653,0.9398128 2.7534962,1.4046048 2.7534962,1.4046048 c 0,0 10.1009158,10.7566112 10.3358218,12.4165812 z"
         id="path21682" />
      <path
         style="fill:#c8df3f;fill-opacity:1;stroke:#000000;stroke-width:0;stroke-linecap:butt;stroke-linejoin:miter;stroke-dasharray:none;stroke-opacity:1"
         d="m 14.006204,13.555428 c 2.650344,-1.733833 6.392007,0.115589 7.483324,1.849423 1.091318,1.733832 1.636977,2.427365 1.636977,2.427365 0,0 -6.781762,-1.040299 -9.120301,-4.276788 z"
         id="path21684" />
      <path
         style="fill:#c8df3f;fill-opacity:1;stroke:#000000;stroke-width:0;stroke-linecap:butt;stroke-linejoin:miter;stroke-dasharray:none;stroke-opacity:1"
         d="m 12.893724,13.816341 c -2.462022,-1.129492 -7.295452,-0.809812 -9.2325848,2.541354 -0.6240088,1.079512 -0.9576389,3.274738 -0.9576389,3.274738 0,0 3.881291,-1.486377 5.4200552,-2.333495 1.5387639,-0.847118 4.7701685,-3.482597 4.7701685,-3.482597 z"
         id="path21686"
         sodipodi:nodetypes="cscsc" />
      <path
         style="fill:#c8df3f;fill-opacity:1;stroke:#000000;stroke-width:0;stroke-linecap:butt;stroke-linejoin:miter;stroke-dasharray:none;stroke-opacity:1"
         d="m 13.432292,13.086872 c 2.077331,0.517485 1.769578,4.743608 0.384691,6.382309 -1.384887,1.6387 -2.462023,1.552453 -2.462023,1.552453 0,0 -1.307949,-5.69233 2.077332,-7.934762 z"
         id="path21688" />
      <path
         style="fill:#96be19;fill-opacity:1;stroke:#000000;stroke-width:0;stroke-linecap:butt;stroke-linejoin:miter;stroke-dasharray:none;stroke-opacity:1"
         d="m 13.984561,10.682485 c 0,0 0.923259,-2.784995 1.720746,-4.638671 1.125596,-2.616346 5.439019,-4.5365359 6.775198,-4.9346115 -1.485741,1.9213086 -2.684188,3.2155786 -4.022923,5.0043391 -1.130222,1.510155 -4.473021,4.5689434 -4.473021,4.5689434 z"
         id="path24398-1"
         sodipodi:nodetypes="cscsc"
         inkscape:transform-center-x="-4.7823458"
         inkscape:transform-center-y="-5.1541704" />
      <path
         style="fill:#96be19;fill-opacity:1;stroke:#000000;stroke-width:0;stroke-linecap:butt;stroke-linejoin:miter;stroke-dasharray:none;stroke-opacity:1"
         d="m 12.473279,11.093912 c 0,0 0.392163,-1.6521702 -0.34413,-3.5058461 -1.039225,-2.616346 -7.333024,-5.5501162 -8.5666736,-5.9481918 1.3717347,1.9213086 3.3211174,3.2513315 4.5571269,5.040092 1.0434963,1.510155 4.3536767,4.4139459 4.3536767,4.4139459 z"
         id="path24398-1-6"
         sodipodi:nodetypes="cscsc"
         inkscape:transform-center-x="4.4153809"
         inkscape:transform-center-y="-5.1541704" />
      <path
         style="fill:#96be19;fill-opacity:1;stroke:#000000;stroke-width:0;stroke-linecap:butt;stroke-linejoin:miter;stroke-dasharray:none;stroke-opacity:1"
         d="m 13.504186,11.827144 c 0,0 2.618362,-0.925333 4.434533,-1.445708 2.563411,-0.7344762 5.84383,0.547091 6.701205,1.043506 -2.588469,-0.101134 -4.327221,0.07636 -5.928568,0.914426 -1.601346,0.838067 -5.20717,-0.512224 -5.20717,-0.512224 z"
         id="path24398"
         sodipodi:nodetypes="cscsc"
         inkscape:transform-center-x="-5.8170254"
         inkscape:transform-center-y="-0.35683274" />
      <path
         style="fill:#96be19;fill-opacity:1;stroke:#000000;stroke-width:0;stroke-linecap:butt;stroke-linejoin:miter;stroke-dasharray:none;stroke-opacity:1"
         d="m 13.660034,13.243348 c 0,0 1.726784,-0.276015 3.52117,0.186983 2.532661,0.65349 5.001376,3.345313 5.582571,4.110783 -2.045899,-0.522138 -2.974012,-1.01794 -4.792532,-1.757964 -2.575234,-1.047959 -4.311209,-2.539802 -4.311209,-2.539802 z"
         id="path24398-3"
         sodipodi:nodetypes="cscsc"
         inkscape:transform-center-x="-5.0331143"
         inkscape:transform-center-y="2.2992181" />
      <path
         style="fill:#96be19;fill-opacity:1;stroke:#000000;stroke-width:0;stroke-linecap:butt;stroke-linejoin:miter;stroke-dasharray:none;stroke-opacity:1"
         d="m 14.106356,13.433964 c 0,0 0.44229,1.918101 0.44457,3.308952 0.0032,1.963098 -2.221279,3.285993 -2.963797,3.894362 0.413465,-2.204866 0.437027,-3.047477 0.761724,-4.526495 0.459807,-2.094458 1.333862,-2.930849 1.333862,-2.930849 z"
         id="path24398-3-2"
         sodipodi:nodetypes="cscscc"
         inkscape:transform-center-x="1.1031318"
         inkscape:transform-center-y="4.1501331" />
      <path
         style="fill:#96be19;fill-opacity:1;stroke:#000000;stroke-width:0;stroke-linecap:butt;stroke-linejoin:miter;stroke-dasharray:none;stroke-opacity:1"
         d="m 10.618679,13.950727 c 0,0 -2.4241231,0.208821 -3.8979692,0.933312 -2.5077869,1.232739 -2.9457909,2.28486 -3.5098109,4.117793 1.834135,-0.698298 2.988958,-1.307073 3.7684109,-1.702851 2.2112743,-1.122802 3.8075332,-2.867022 3.8075332,-2.867022 z"
         id="path24398-3-2-7"
         sodipodi:nodetypes="cscscc"
         inkscape:transform-center-x="4.1754878"
         inkscape:transform-center-y="2.6818174" />
      <path
         style="fill:#96be19;fill-opacity:1;stroke:#000000;stroke-width:0;stroke-linecap:butt;stroke-linejoin:miter;stroke-dasharray:none;stroke-opacity:1"
         d="m 10.495452,12.26908 c 0,0 -0.177503,-1.168111 -2.4473241,-2.521345 C 6.2406414,8.6701385 3.4403734,8.62276 2.4280015,8.6673202 c 1.3105097,1.081881 1.9564239,1.4597178 3.4074558,2.2640338 2.0548265,1.139004 4.5820987,1.771409 4.5820987,1.771409 z"
         id="path24398-3-2-7-6"
         sodipodi:nodetypes="cscscc"
         inkscape:transform-center-x="4.530155"
         inkscape:transform-center-y="-1.8484359" />
      <path
         id="path2444-6"
         style="fill:#ff0025;fill-opacity:1;stroke:#590079;stroke-width:0;stroke-linecap:round;stroke-linejoin:round;stroke-miterlimit:8;paint-order:fill markers stroke"
         d="m -80.897176,66.209202 c -1.070596,0.0073 -2.143428,0.488632 -2.996716,1.383378 -1.654862,1.735264 -1.349684,5.049969 1.200444,7.200077 1.273055,1.073361 4.62504,4.298446 4.62504,4.298446 0,0 3.351984,-3.225086 4.62504,-4.298446 2.550127,-2.150108 2.854789,-5.464813 1.199927,-7.200077 -1.654863,-1.735264 -4.134282,-1.914493 -5.824967,-0.100252 -0.818925,-0.878773 -1.823056,-1.289994 -2.828768,-1.283126 z" />
      <path
         id="path2444"
         style="fill:#ff0025;fill-opacity:1;stroke:#590079;stroke-width:0;stroke-linecap:round;stroke-linejoin:round;stroke-miterlimit:8;paint-order:fill markers stroke"
         d="m -79.696691,50.384487 c -0.612855,-0.300638 -1.361944,-0.331478 -2.103483,-0.06396 -1.438135,0.518824 -2.207741,2.496751 -1.365035,4.449421 0.420689,0.974797 1.414805,3.769034 1.414805,3.769034 0,0 2.830504,-0.885591 3.862373,-1.1355 2.066994,-0.500608 3.184513,-2.304911 2.73445,-3.766026 -0.450065,-1.461115 -1.813548,-2.269266 -3.294607,-1.715585 -0.217007,-0.734492 -0.672789,-1.254973 -1.248503,-1.537384 z" />
    </g>
    <g
       id="g14196"
       transform="matrix(1.0109944,0,0,1.064793,-29.892355,1.600361)">
      <g
         id="g14185">
        <path
           id="path23014-4-0-5"
           style="fill:url(#radialGradient23030-7-7-2);fill-opacity:1;stroke:#000000;stroke-width:0;stroke-linecap:butt;stroke-linejoin:miter;stroke-dasharray:none;stroke-opacity:1"
           inkscape:transform-center-x="1.9427805"
           inkscape:transform-center-y="-0.6999913"
           d="m 12.061677,8.2117402 c -0.04132,0.00102 -0.08547,0.00512 -0.132292,0.012402 C 11.231811,8.3325611 10.7012,8.7301984 10.548591,9.560495 10.34936,8.8638697 9.8400548,8.5690546 9.1895009,8.5414358 8.1892158,8.4989698 8.4866699,9.785983 8.9781443,10.372332 c 0.055151,0.0658 0.1183728,0.12534 0.1865519,0.179317 -1.0454224,-0.266726 -1.7159694,0.04539 -2.1052974,0.643888 -0.51439,0.79075 0.947241,1.021449 1.7807694,0.839742 0.059942,-0.01307 0.1186593,-0.02962 0.1762167,-0.04909 -0.4539928,0.51177 -0.465155,1.019975 -0.1994711,1.486731 0.4420143,0.776533 1.5312682,-0.193571 1.8557002,-0.903304 0.0048,-0.0106 0.0094,-0.02137 0.01395,-0.03204 0.289731,0.528637 0.783693,0.729629 1.370459,0.708484 0.848573,-0.03058 0.677151,-0.927499 0.272335,-1.532723 0.574825,0.11454 1.059172,-0.05952 1.452624,-0.410311 0.729126,-0.650066 -0.584371,-1.227126 -1.42937,-1.249536 -0.07071,-0.0019 -0.141637,0.0015 -0.211873,0.0088 0.0086,-0.01065 0.01711,-0.02166 0.02532,-0.03256 0.460441,-0.6112808 0.73573,-1.8386977 -0.104382,-1.8179898 z" />
        <ellipse
           style="fill:#fff800;fill-opacity:1;fill-rule:evenodd;stroke-width:0.331077"
           id="path13160"
           cx="7.3556542"
           cy="13.324549"
           rx="1.1240214"
           ry="0.83956856"
           transform="matrix(0.96810783,-0.25053388,0.26238896,0.96496219,0,0)" />
      </g>
      <g
         id="g14181">
        <path
           id="path23014-4-0-5-0"
           style="fill:url(#radialGradient23030-7-7-2-0);fill-opacity:1;stroke:#000000;stroke-width:0;stroke-linecap:butt;stroke-linejoin:miter;stroke-dasharray:none;stroke-opacity:1"
           inkscape:transform-center-x="-1.9427802"
           inkscape:transform-center-y="-0.6999913"
           d="m 13.475851,4.1484388 c 0.04132,0.00102 0.08547,0.00512 0.132292,0.012402 0.697574,0.1084189 1.228185,0.5060562 1.380794,1.3363528 0.199231,-0.6966253 0.708536,-0.9914404 1.35909,-1.0190592 1.000285,-0.042466 0.702831,1.2445472 0.211356,1.8308963 -0.05515,0.0658 -0.118373,0.12534 -0.186552,0.179317 1.045423,-0.266726 1.71597,0.04539 2.105298,0.643888 0.51439,0.79075 -0.947241,1.021449 -1.78077,0.839742 -0.05994,-0.01307 -0.118659,-0.02962 -0.176216,-0.04909 0.453992,0.51177 0.465155,1.019975 0.199471,1.486731 -0.442015,0.7765333 -1.531268,-0.193571 -1.8557,-0.903304 -0.0048,-0.0106 -0.0094,-0.02137 -0.01395,-0.03204 -0.289731,0.528637 -0.783693,0.729629 -1.370459,0.708484 -0.848573,-0.03058 -0.677151,-0.927499 -0.272335,-1.532723 -0.574825,0.11454 -1.059172,-0.05952 -1.452624,-0.410311 -0.729126,-0.650066 0.584371,-1.227126 1.42937,-1.249536 0.07071,-0.0019 0.141637,0.0015 0.211873,0.0088 -0.0086,-0.01065 -0.01711,-0.02166 -0.02532,-0.03256 -0.460441,-0.6112808 -0.73573,-1.8386977 0.104382,-1.8179899 z" />
        <ellipse
           style="fill:#fff800;fill-opacity:1;fill-rule:evenodd;stroke-width:0.301701"
           id="path13160-3"
           cx="-16.129496"
           cy="2.4687428"
           rx="0.96732205"
           ry="0.81013298"
           transform="matrix(-0.9590665,-0.28318094,-0.23182854,0.97275666,0,0)" />
      </g>
      <g
         id="g14177">
        <path
           id="path23014-4-0-5-0-9"
           style="fill:url(#radialGradient23030-7-7-2-0-2);fill-opacity:1;stroke:#000000;stroke-width:0;stroke-linecap:butt;stroke-linejoin:miter;stroke-dasharray:none;stroke-opacity:1"
           inkscape:transform-center-x="1.6847122"
           inkscape:transform-center-y="-0.62327793"
           d="M 9.3718518,3.7274607 C 9.3360205,3.728369 9.2977351,3.7320196 9.2571327,3.7385036 8.6522205,3.8350406 8.1920929,4.1891001 8.0597556,4.9284029 7.8869893,4.3081221 7.4453376,4.0456164 6.8811995,4.0210244 6.0137867,3.9832123 6.2717286,5.1291793 6.6979188,5.6512692 6.7457428,5.7098582 6.8005678,5.762873 6.8596903,5.8109345 5.9531354,5.5734396 5.3716601,5.8513505 5.0340482,6.3842576 4.5879869,7.0883478 5.8554631,7.2937641 6.5782708,7.1319707 6.6302488,7.1203327 6.6811678,7.1055967 6.7310792,7.0882607 6.337393,7.5439447 6.3277128,7.9964545 6.5581048,8.4120582 6.941405,9.1034895 7.8859678,8.239701 8.1673041,7.6077487 c 0.00416,-0.00944 0.00815,-0.019028 0.012097,-0.028529 C 8.4306458,8.0499224 8.8589927,8.2288876 9.367816,8.2100599 10.103669,8.1828309 9.9550181,7.384207 9.6039755,6.8453106 10.102444,6.947298 10.522453,6.7923136 10.863641,6.4799664 11.495914,5.9011424 10.356895,5.3873235 9.6241406,5.3673694 c -0.061317,-0.00169 -0.1228227,0.00134 -0.183729,0.00784 0.00746,-0.00948 0.014837,-0.019286 0.021957,-0.028992 C 9.8616469,4.801924 10.100368,3.709022 9.3718518,3.7274607 Z" />
        <ellipse
           style="fill:#fff800;fill-opacity:1;fill-rule:evenodd;stroke-width:0.259777"
           id="path13160-3-5"
           cx="-3.5474005"
           cy="9.2243948"
           rx="0.84592551"
           ry="0.68682021"
           transform="matrix(-0.88391482,0.46764794,0.538214,0.84280821,0,0)" />
      </g>
    </g>
    <path
       style="fill:url(#radialGradient45);fill-opacity:1;stroke-width:0.308074"
       d="M 24.329067,19.95554 C 21.181822,16.172236 16.841112,16.662571 18.595976,14.397733 20.293816,12.206497 19.537972,9.4464083 19.091255,7.711714 18.82651,6.683654 18.103704,6.6325129 18.157045,6.1302281 18.306654,4.7213889 17.724921,0.91012925 17.420531,0.15434799 17.161633,-0.48848023 15.160284,1.0322485 14.573637,1.6795112 13.941818,2.3766109 12.968195,4.1152901 12.968195,4.1152901 12.171089,4.0692581 11.871818,3.7872487 8.6235219,4.8320576 c 0,0 -1.7999936,-2.1947239 -3.4140777,-3.0785693 C 3.5446485,0.84187372 3.2985905,5.5371951 4.671677,8.4570157 4.7479905,8.6192266 3.7236093,9.4161599 3.7142808,10.650157 c -0.00949,1.261676 -0.1084002,2.577917 1.1734704,4.803044 0.5908971,1.025702 3.1357364,2.314111 0.4163789,3.391732 -1.603007,0.635238 -2.5524942,2.786437 -3.385229,5.561814 -0.5277408,1.758879 4.0251779,2.123563 10.1821409,2.080863 3.558256,-0.02468 7.785463,0.130948 11.533318,-0.476076 3.314825,-0.536888 2.277215,-3.847145 0.694707,-6.055994 z"
       id="path1"
       sodipodi:nodetypes="csssssccssssssssc" />
    <path
       style="fill:url(#linearGradient37);fill-opacity:1;stroke-width:0.381672"
       d="m 14.141391,4.0508323 c 2.311705,0.2513575 3.196117,2.2598808 3.562334,1.8113099 C 18.069939,5.4135712 17.463532,1.7935567 17.303676,1.0818951 17.143824,0.3702349 16.632672,0.51250786 16.131567,0.84030006 15.091002,1.5209757 13.071927,3.9345456 14.141391,4.0508323 Z"
       id="path5"
       sodipodi:nodetypes="sssss" />
    <path
       style="fill:url(#linearGradient39);stroke-width:0.39107"
       d="M 4.9904297,7.6013355 C 5.3232602,8.0362741 6.6073968,5.8987646 7.7734988,5.1637368 8.4278955,4.7512651 5.6702228,2.4539013 4.800026,2.0640379 4.2895821,1.8353488 3.5808247,5.7592761 4.9904297,7.6013355 Z"
       id="path6"
       sodipodi:nodetypes="ssss" />
    <g
       id="g573-06-4-8"
       transform="matrix(0.16442188,-0.06880785,0.06959506,0.17212426,-22.286206,-48.604552)">
      <g
         id="g258-2-0-8-5"
         transform="matrix(0.14105505,0,0,0.14105505,21.172092,269.61286)"
         mask="none">
        <path
           style="fill:#50e1ff;fill-opacity:1"
           d="m 364.98867,606.58913 c -20.00034,-0.93698 -40.17757,-8.45392 -54.05082,-23.25461 -8.58414,-8.53121 -14.27512,-20.88377 -11.8312,-33.12845 1.36114,-10.67955 7.88093,-19.80973 14.15315,-28.22358 7.47271,-9.35465 16.89995,-16.55114 28.20944,-20.90813 11.60452,-4.56942 23.26486,-3.13195 35.09755,0.0642 15.85349,4.42205 27.48005,15.15917 35.87654,30.1249 5.93496,13.09577 12.42137,26.18848 11.49373,40.68469 -0.12816,9.03718 -2.99186,18.81493 -10.73274,24.23024 -9.64474,7.33808 -22.18034,8.67515 -33.82446,10.16848 -4.78899,0.28713 -9.59574,0.3465 -14.39119,0.24229 z m 12.0726,-68.58431 c 8.19833,-4.14956 -2.36267,-14.93246 -7.47475,-7.98047 -4.01881,4.83165 2.66981,10.91744 7.47475,7.98047 z"
           id="path267-7-4-3-4"
           sodipodi:nodetypes="cccccccccccccc" />
        <path
           style="fill:#31c3f9;fill-opacity:1"
           d="m 359.69701,605.92946 c -17.01556,-1.28875 -33.73906,-8.15272 -45.93884,-20.24002 -5.60042,-5.29809 -11.45597,-11.35742 -13.23399,-19.0914 -0.55577,-5.75928 0.29826,-11.7276 -0.82144,-17.3739 -0.23632,-5.1193 2.87408,-10.80618 6.00161,-15.07388 2.80802,-4.79833 5.57407,-9.68553 9.59563,-13.60794 3.52334,-3.7791 5.28617,-6.84951 9.71517,-9.72068 10.51415,-9.29653 24.66631,-14.03431 38.60398,-12.44154 20.44934,1.65821 40.13672,12.64329 49.08823,31.59563 5.0219,10.879 10.43808,22.00431 11.25214,33.99784 0.19494,10.54732 0.0345,22.94484 -8.70043,30.36126 -6.43888,5.85085 -14.90608,8.6745 -23.39336,9.73109 -10.54041,2.54318 -21.4191,2.1305 -32.1687,1.86354 z m 15.61041,-4.84949 c 7.66204,-0.67606 15.49432,-2.73479 21.92216,-7.05607 6.58722,-5.04432 -4.64453,-7.55031 -8.65694,-7.81845 -9.55526,-1.17701 -19.53053,-1.88293 -28.01292,-6.93578 -9.7577,-4.91842 -16.71074,-13.75332 -25.86584,-19.50019 -5.97991,-3.54897 -13.33471,3.67449 -11.24808,9.82323 2.32398,7.19816 6.85022,13.70294 12.24558,18.94969 9.30853,7.36068 21.04677,11.54984 32.79889,12.68803 2.27396,0.1534 4.5453,-0.0754 6.81715,-0.15046 z m 2.15482,-63.28058 c 5.49826,-2.88718 1.55813,-11.51945 -4.20048,-10.00596 -7.6694,0.72347 -5.03077,12.77201 2.12633,10.81091 0.74205,-0.10534 1.44555,-0.40599 2.07415,-0.80495 z"
           id="path266-6-4-0-5"
           sodipodi:nodetypes="cccccccccccccccccccccccccc" />
        <path
           style="mix-blend-mode:normal;fill:#0098f6;fill-opacity:0.956863"
           d="m 359.69701,605.23977 c -16.10615,-0.61272 -32.28929,-6.9077 -43.29137,-18.93725 -6.11576,-4.81615 -12.80383,-9.99417 -15.05913,-17.84957 -1.96821,-6.97093 0.8525,-15.30907 0.99186,-21.31154 -3.39032,-6.68404 5.83031,-11.38826 7.73615,-17.32322 6.01572,-9.27155 13.76411,-17.40154 22.28262,-24.40165 9.9856,-7.3451 23.19984,-9.03288 35.25222,-7.58299 13.02693,1.25071 24.64507,8.24529 33.92253,17.16031 5.51823,3.68971 8.25894,9.05431 11.41476,14.51089 3.32515,5.54752 5.39851,11.62268 8.10388,17.59628 2.92107,9.45026 3.16389,19.50464 3.18507,29.3189 -0.14695,9.87114 -6.69272,18.75371 -15.61801,22.64536 -9.13008,4.65741 -19.50907,6.65329 -29.70604,6.04607 -6.39631,0.43403 -12.81111,0.23035 -19.21454,0.12841 z m 51.86967,-14.83042 c 8.8286,-7.72901 9.12552,-22.4976 5.84236,-33.06942 -1.99903,-5.19996 -1.01408,-1.18514 -5.14763,-5.04037 -0.70298,3.80667 -1.11923,-0.96302 -1.19454,3.3732 0.8219,8.30625 0.70669,17.17304 -3.20545,24.73176 -4.02599,6.39562 -15.7892,7.36335 -21.14255,5.14152 l -41.7265,-25.09896 c -15.58495,0.29612 -21.88868,-7.02574 -25.90182,8.7577 -0.88401,9.10081 6.92067,15.59975 14.00909,19.71538 14.33253,11.58144 49.76723,25.62206 78.46704,1.48919 z m -34.53946,-52.20621 c 8.1499,-3.11672 -0.85924,-15.32407 -6.67421,-9.44312 -5.43485,4.2961 0.94222,12.82726 6.67421,9.44312 z"
           id="path264-1-21-6-8"
           sodipodi:nodetypes="ccccccccccccccccccccccccccc" />
        <path
           style="fill:#00507d;fill-opacity:1"
           d="m 351.1042,604.90717 c -11.88312,-2.10906 -21.48166,-5.90769 -31.97429,-14.03413 -17.46555,-12.35236 -21.37316,-21.54463 -20.09352,-41.95791 0.42585,-9.08046 6.14497,-16.27707 10.51013,-23.08904 7.39779,-11.54451 17.80377,-18.17854 28.10213,-24.28597 6.18612,-3.74697 44.39378,-10.85363 66.44813,13.36115 6.23754,6.84857 14.61251,22.75358 16.37136,32.14205 -11.07524,-8.01006 -31.16483,-19.71088 -45.03406,-22.80959 -31.24175,-6.69444 -32.5846,13.08035 -52.01206,20.98042 -4.46498,1.81566 -19.73341,-5.67002 -14.89971,15.87512 4.8337,21.54514 20.26393,31.03416 36.76173,37.77666 2.54364,0.57289 13.78538,7.2702 5.82016,6.04124 z m 8.79573,-30.98609 c -6.89428,-9.51207 -13.94086,-21.63841 -10.16412,-33.7214 2.8507,-7.09026 11.41999,-11.51178 18.7167,-9.98338 -3.02822,6.07621 5.98341,12.41139 10.52638,6.83114 5.63856,-0.73806 4.4873,11.79668 4.2335,16.55096 -1.40532,9.015 -9.67159,14.66756 -16.2806,19.99472 -2.73706,1.55442 -5.08261,5.00228 -7.03186,0.32796 z"
           id="path260-9-47-5-2"
           sodipodi:nodetypes="cszscscczzccccccccc" />
      </g>
    </g>
    <g
       id="g20"
       transform="matrix(-1.1585869,0.48484967,0.49039651,1.2128611,20.121576,-13.015555)">
      <g
         id="g177-8-7-4"
         transform="matrix(0.16139965,0,0,0.16139965,-27.307714,-11.901302)">
        <g
           id="g592-5-7-3"
           transform="matrix(-0.11416336,0,0,0.12048396,250.71569,107.82623)">
          <path
             style="fill:#029af7;fill-opacity:1;stroke-width:0.993881"
             d="m -41.656862,322.39678 c -1.005063,-1.42614 2.571159,0.57487 0,0 z m -42.890242,-2.80567 c -10.927462,-1.6454 -20.258626,-4.8865 -30.782136,-8.09046 -15.07713,-6.51471 -28.86071,-16.47932 -33.77111,-32.7648 -2.93435,-8.25558 -3.70522,-18.01885 0.57454,-25.48103 7.26643,-12.53684 18.42091,-23.13804 32.10468,-28.59642 17.679545,-6.82925 37.533386,-7.50625 55.916349,-3.13754 12.239016,1.97618 23.976685,8.62076 30.311357,19.39212 6.183112,8.45586 10.177551,18.6801 9.4822,29.23198 -0.578796,11.27082 -1.948947,23.70893 -10.467667,32.10871 -13.804503,13.6741 -34.269746,18.92813 -53.368213,17.33744 z m 21.040654,-68.94495 c 6.304341,-2.77647 2.641484,-14.29176 -4.322085,-11.31558 -6.305826,2.88722 -2.973058,14.5243 4.322085,11.31558 z"
             id="path597-5-8-9"
             sodipodi:nodetypes="ccccccccccccccc" />
          <path
             style="fill:#029af7;fill-opacity:1"
             d="m -84.547104,319.55544 c -11.413184,-1.69711 -20.521126,-6.47526 -31.214986,-10.70528 -13.44591,-5.45409 -26.58102,-13.7199 -32.2573,-27.56485 -3.9897,-8.9015 -5.99304,-19.68077 -0.72568,-28.13253 9.01025,-17.36061 25.52657,-29.651 44.82277,-33.07733 14.823547,-3.224 30.854608,-2.10396 45.521063,1.56731 11.466997,2.25181 22.238139,8.06339 28.207813,18.26253 6.183112,8.56029 10.177551,18.91081 9.4822,29.59301 -0.578796,11.41002 -1.948947,24.00175 -10.467667,32.50527 -13.813187,13.84724 -34.262011,19.15847 -53.368213,17.55187 z m 3.154932,-9.8054 c 7.735473,-1.65344 17.09888,-1.96172 22.345903,-8.76489 3.120337,-4.88227 0.533564,-11.48372 -2.876244,-15.588 -4.012098,-4.52557 -8.356594,-10.13271 -14.755693,-10.91586 -5.12143,0.31027 -9.048036,4.3776 -13.733721,6.13927 -5.188224,2.96207 -11.526053,1.27012 -17.223983,1.3099 -9.08548,-0.8379 -17.78037,-4.06883 -26.8598,-4.84831 -7.97821,0.37659 -6.27938,10.24807 -2.51355,14.48243 7.05471,10.96937 20.46095,15.47109 32.77854,17.26933 7.545285,1.12081 15.229963,1.71101 22.838548,0.91613 z m 17.885722,-59.99136 c 6.304341,-2.81076 2.641484,-14.46827 -4.322085,-11.45534 -6.305826,2.92288 -2.973058,14.70369 4.322085,11.45534 z"
             id="path596-5-0-0"
             sodipodi:nodetypes="ccccccccccccccccccccccc" />
          <path
             style="fill:#029af7;fill-opacity:1"
             d="m -84.729804,319.53905 c -9.833644,-1.69168 -19.645726,-4.44488 -28.296636,-9.51484 2.57729,-1.77449 10.21505,2.19682 14.767302,1.4182 11.560583,0.11555 23.269002,-1.54502 34.148666,-5.48603 5.613038,-2.51957 12.755651,-6.30247 12.942977,-13.25138 -6.514204,-8.56129 -14.432734,-16.83387 -24.067719,-21.55211 -7.707191,1.72438 -12.56426,9.82897 -20.555489,10.72171 -7.468077,0.63157 -7.136707,-8.57133 -11.915517,-11.926 -4.90348,-4.20487 -36.82549,-7.07331 -35.94096,5.80519 3.80298,19.14494 8.28701,21.21801 -1.51655,12.44587 -5.28766,-7.88746 -8.04799,-17.82 -6.63003,-27.28088 6.99116,-19.74108 24.4048,-35.59243 44.89763,-40.26847 16.939395,-4.32483 34.947594,-3.50825 51.762589,0.99201 10.353665,2.64285 19.556139,9.27593 25.014573,18.50622 6.245517,8.59532 10.007967,19.08107 9.343187,29.78462 -0.765696,11.78988 -2.145946,25.01193 -11.651278,33.28101 -13.857823,13.00904 -33.704973,17.92513 -52.302745,16.32488 z m 21.878533,-69.78472 c 5.7257,-3.53189 1.618934,-14.85764 -5.269107,-11.43185 -5.84709,3.0032 -2.695834,13.76901 4.115392,11.88173 z"
             id="path595-7-0-7"
             sodipodi:nodetypes="ccccccccccccccccccccc" />
          <path
             style="fill:#00507d;fill-opacity:1"
             d="m -65.824605,315.1978 c 75.664604,-24.04111 -0.334407,-80.01719 2.564951,-67.80611 0,0 -34.074308,-18.24054 -45.244146,-17.12915 -11.16984,1.11139 -18.746,1.09636 -12.9449,-3.62132 11.52178,-8.73126 30.394787,-9.68728 39.850608,-9.81309 28.929371,-0.38491 48.057622,10.90369 60.29307,34.81112 5.953337,11.63251 2.970828,25.66255 0.210272,37.98342 -3.075308,12.10216 -15.977864,18.53616 -26.682412,23.59213 -10.25829,4.50203 -22.369707,6.79153 -33.521522,6.52085 -6.391494,-0.6578 9.136584,-1.19834 15.474079,-4.53785 z m -76.988975,-24.82558 c -5.78415,-6.7249 -9.24166,-15.97391 -8.22549,-24.87065 -0.0614,-2.91205 4.47413,-10.4261 4.13044,-3.47254 0.69165,9.42851 -0.56554,19.99701 5.79867,27.86478 2.33034,2.95691 -0.497,1.98247 -1.70362,0.47841 z"
             id="path594-5-3-1"
             sodipodi:nodetypes="cczcssccccccccc" />
        </g>
      </g>
    </g>
    <path
       style="fill:#029af7;fill-opacity:1;stroke:#fefefa;stroke-width:0;stroke-dasharray:none;stroke-opacity:1"
       d="m 14.97089,5.8199135 c 0.06765,0.4901425 -0.0867,0.6694616 -0.376699,0.8117548 -0.475015,0.233056 -1.034821,-0.400638 -1.297326,-0.3750191 -0.497573,0.048555 -0.809676,0.6566754 -0.257843,1.0228771 0.551834,0.3661974 1.257243,0.3025376 1.802198,-0.023016 0.544957,-0.3255464 0.790292,-0.79706 0.387271,-1.4172642 -0.266385,-0.4099366 -0.340076,-0.2772995 -0.257602,-0.019341 z"
       id="path44"
       sodipodi:nodetypes="cssscscc" />
    <path
       style="fill:#231f0c;fill-opacity:1;stroke:#fefefa;stroke-width:0;stroke-dasharray:none;stroke-opacity:1"
       d="m 13.822692,5.1643118 c 0.126916,0.056034 0.618516,0.2811417 0.669343,0.9089959 0.04952,0.4618098 -0.226228,0.9333653 -0.321161,1.0650035 C 14.07593,7.269951 13.790325,7.0792794 13.652209,6.9819764 13.514087,6.884666 13.146852,6.5328462 13.10904,5.9914544 13.071228,5.4500639 13.680062,5.0286901 13.822694,5.1643103 Z"
       id="path42"
       sodipodi:nodetypes="ccssscc" />
    <ellipse
       style="fill:#ffffff;fill-opacity:1;stroke:none;stroke-width:0;stroke-dasharray:none;stroke-opacity:0.52381"
       id="path269-1-4-0"
       cx="10.993959"
       cy="10.501542"
       rx="0.31739488"
       ry="0.30994946"
       transform="matrix(0.92248075,-0.38604308,0.37484895,0.9270859,0,0)" />
    <path
       style="fill:#231f0c;fill-opacity:1;stroke:#fefefa;stroke-width:0;stroke-dasharray:none;stroke-opacity:1"
       d="M 8.3319907,6.1368173 C 8.444062,6.2164868 8.8765526,6.5329039 8.8065119,7.1452751 8.7667386,7.5981824 8.4106643,7.993883 8.2939074,8.1006714 8.177149,8.2074793 7.9372337,7.9662217 7.8221853,7.8446753 7.7071127,7.7231375 7.4189019,7.3106693 7.4851121,6.783861 7.551311,6.2570499 8.2198503,5.977603 8.3319931,6.1368159 Z"
       id="path42-8"
       sodipodi:nodetypes="ccssscc" />
    <ellipse
       style="fill:#ffffff;fill-opacity:1;stroke:none;stroke-width:0;stroke-dasharray:none;stroke-opacity:0.52381"
       id="path269-1-4-0-5"
       cx="7.3345547"
       cy="7.8602052"
       rx="0.26913062"
       ry="0.26320544"
       transform="matrix(0.98278711,-0.1847417,0.1895565,0.98186981,0,0)" />
    <g
       id="g1795-9-0"
       transform="matrix(-0.19568766,-0.01954092,-0.04157803,0.18250233,-5.2952053,-7.7554533)"
       style="stroke:#fefefa;stroke-width:1.49121;stroke-dasharray:none;stroke-opacity:1">
      <path
         style="opacity:0.671946;fill:none;fill-opacity:1;stroke:#fefefa;stroke-width:1.49121;stroke-linecap:round;stroke-dasharray:none;stroke-opacity:1"
         d="m -118.38442,83.788058 c -13.48562,-2.798756 -40.06852,1.388618 -53.16557,6.584155"
         id="path1792-9-9"
         sodipodi:nodetypes="cc" />
      <path
         style="opacity:0.671946;fill:none;fill-opacity:1;stroke:#fefefa;stroke-width:1.49121;stroke-linecap:round;stroke-dasharray:none;stroke-opacity:1"
         d="m -124.89979,80.446277 c -17.05645,-3.341782 -36.16502,-2.99936 -54.72515,1.862729"
         id="path1793-0-4"
         sodipodi:nodetypes="cc" />
      <path
         style="opacity:0.671946;fill:none;fill-opacity:1;stroke:#fefefa;stroke-width:1.49121;stroke-linecap:round;stroke-dasharray:none;stroke-opacity:1"
         d="m -122.97924,86.490899 c -16.66647,0.557715 -33.4596,9.48576 -39.71424,15.039571"
         id="path1794-4-4"
         sodipodi:nodetypes="cc" />
      <path
         style="opacity:0.671946;fill:none;fill-opacity:1;stroke:#fefefa;stroke-width:1.49121;stroke-linecap:round;stroke-dasharray:none;stroke-opacity:1"
         d="m -120.84553,78.824571 c -7.83239,-5.080032 -37.2262,-13.750129 -53.38031,-10.856962"
         id="path1795-6-8"
         sodipodi:nodetypes="cc" />
    </g>
    <g
       id="g1796-5-7"
       transform="matrix(-0.19657823,-0.01221242,-0.04095633,0.17966637,-4.0241463,-6.4277875)"
       style="stroke:#fefefa;stroke-width:1.37013;stroke-dasharray:none;stroke-opacity:1">
      <path
         style="opacity:0.671946;fill:none;fill-opacity:1;stroke:#fefefa;stroke-width:1.37013;stroke-linecap:round;stroke-dasharray:none;stroke-opacity:1"
         d="m -76.491804,95.672289 c 7.317269,0.50913 28.307578,3.704257 47.926176,18.325771"
         id="path1788-2-3"
         sodipodi:nodetypes="cc" />
      <path
         style="opacity:0.671946;fill:none;fill-opacity:1;stroke:#fefefa;stroke-width:1.37013;stroke-linecap:round;stroke-dasharray:none;stroke-opacity:1"
         d="m -75.750731,100.49435 c 9.097111,5.17533 26.409289,22.44072 30.307268,30.81695"
         id="path1789-5-7"
         sodipodi:nodetypes="cc" />
      <path
         style="opacity:0.671946;fill:none;fill-opacity:1;stroke:#fefefa;stroke-width:1.37013;stroke-linecap:round;stroke-dasharray:none;stroke-opacity:1"
         d="m -73.512797,92.174793 c 13.226483,-1.484119 33.185991,0.282798 51.091443,10.864167"
         id="path1790-4-8"
         sodipodi:nodetypes="cc" />
      <path
         style="opacity:0.671946;fill:none;fill-opacity:1;stroke:#fefefa;stroke-width:1.37013;stroke-linecap:round;stroke-dasharray:none;stroke-opacity:1"
         d="m -72.257915,99.138477 c 9.07435,2.195163 29.340832,12.971063 41.19959,28.123893"
         id="path1791-7-0"
         sodipodi:nodetypes="cc" />
    </g>
    <path
       style="fill:#fed6ca;fill-opacity:1;stroke-width:0.367817"
       d="m 9.9893519,7.9283041 c -0.375453,0.4708324 0.00375,0.4156012 0.4711401,0.7009574 0.29171,0.1780967 0.702734,0.8747572 0.922167,0.3412713 C 11.582244,8.485299 12.710923,8.1318557 12.182376,7.7565366 11.65383,7.3812164 10.564127,7.4297056 9.9893519,7.9283041 Z"
       id="path14"
       sodipodi:nodetypes="ssszs" />
    <path
       style="fill:#854f45;fill-opacity:1;stroke:#fefefa;stroke-width:0;stroke-dasharray:none;stroke-opacity:1"
       d="m 11.303985,9.605696 c 0.303355,-0.037445 -0.139254,0.477253 0.500479,0.607511 0.657941,0.133959 1.722702,0.0029 1.28587,0.464107 -0.49345,0.520959 -1.074935,-0.7246942 -2.732138,0.04807 -0.3974596,0.185329 -0.5404279,0.577663 -0.757893,0.370652 -0.5560035,-0.529269 1.131085,-0.640404 1.399638,-1.043624 0.113651,-0.1707199 -0.133432,-0.3927425 0.30403,-0.4467312 z"
       id="path63-0"
       sodipodi:nodetypes="ssssssss" />
  </g>
</svg>
