<?xml version="1.0" encoding="UTF-8" standalone="no"?>
<!-- Created with Inkscape (http://www.inkscape.org/) -->

<svg
   width="100"
   height="100"
   viewBox="0 0 26.458332 26.458332"
   version="1.1"
   id="svg2787"
   inkscape:version="1.2.2 (732a01da63, 2022-12-09)"
   sodipodi:docname="projecten_icon.svg"
   xmlns:inkscape="http://www.inkscape.org/namespaces/inkscape"
   xmlns:sodipodi="http://sodipodi.sourceforge.net/DTD/sodipodi-0.dtd"
   xmlns:xlink="http://www.w3.org/1999/xlink"
   xmlns="http://www.w3.org/2000/svg"
   xmlns:svg="http://www.w3.org/2000/svg">
  <sodipodi:namedview
     id="namedview2789"
     pagecolor="#ffffff"
     bordercolor="#000000"
     borderopacity="0.25"
     inkscape:showpageshadow="2"
     inkscape:pageopacity="0.0"
     inkscape:pagecheckerboard="0"
     inkscape:deskcolor="#d1d1d1"
     inkscape:document-units="mm"
     showgrid="false"
     inkscape:zoom="5.2913969"
     inkscape:cx="42.899825"
     inkscape:cy="40.443007"
     inkscape:window-width="1366"
     inkscape:window-height="705"
     inkscape:window-x="-8"
     inkscape:window-y="-8"
     inkscape:window-maximized="1"
     inkscape:current-layer="layer1"
     showguides="true" />
  <defs
     id="defs2784">
    <radialGradient
       inkscape:collect="always"
       xlink:href="#linearGradient51705"
       id="radialGradient51707"
       cx="80.92717"
       cy="23.283854"
       fx="80.92717"
       fy="23.283854"
       r="2.3989551"
       gradientTransform="matrix(0.09121776,-0.88937556,1.0277965,0.10541474,-44.196089,95.192472)"
       gradientUnits="userSpaceOnUse" />
    <linearGradient
       inkscape:collect="always"
       id="linearGradient51705">
      <stop
         style="stop-color:#e4e2ed;stop-opacity:1;"
         offset="0"
         id="stop51701" />
      <stop
         style="stop-color:#484456;stop-opacity:1;"
         offset="0.81209153"
         id="stop6762" />
      <stop
         style="stop-color:#372e4d;stop-opacity:1;"
         offset="1"
         id="stop51703" />
    </linearGradient>
    <radialGradient
       inkscape:collect="always"
       xlink:href="#linearGradient52127"
       id="radialGradient52129"
       cx="77.355919"
       cy="-0.54782826"
       fx="77.355919"
       fy="-0.54782826"
       r="8.0335798"
       gradientTransform="matrix(1.558933,0.99927008,-0.89801303,1.4009647,-110.71815,-71.877878)"
       gradientUnits="userSpaceOnUse" />
    <linearGradient
       inkscape:collect="always"
       id="linearGradient52127">
      <stop
         style="stop-color:#fffae2;stop-opacity:1;"
         offset="0"
         id="stop52123" />
      <stop
         style="stop-color:#fff7ce;stop-opacity:1;"
         offset="0.11485147"
         id="stop52131" />
      <stop
         style="stop-color:#ffde4f;stop-opacity:1;"
         offset="0.40792078"
         id="stop52133" />
      <stop
         style="stop-color:#ffc221;stop-opacity:1;"
         offset="0.760396"
         id="stop52135" />
      <stop
         style="stop-color:#ffa605;stop-opacity:1;"
         offset="1"
         id="stop52125" />
    </linearGradient>
    <linearGradient
       inkscape:collect="always"
       xlink:href="#linearGradient29522"
       id="linearGradient31309"
       gradientUnits="userSpaceOnUse"
       gradientTransform="matrix(0.79324094,-0.60890789,0.79324094,0.60890789,4.892518,-8.867114)"
       x1="14.228266"
       y1="-29.189594"
       x2="3.6590269"
       y2="-18.620356" />
    <linearGradient
       inkscape:collect="always"
       id="linearGradient29522">
      <stop
         style="stop-color:#d4a125;stop-opacity:1;"
         offset="0"
         id="stop29518" />
      <stop
         style="stop-color:#edd495;stop-opacity:1;"
         offset="1"
         id="stop29520" />
    </linearGradient>
    <linearGradient
       inkscape:collect="always"
       xlink:href="#linearGradient29522"
       id="linearGradient31385"
       gradientUnits="userSpaceOnUse"
       gradientTransform="matrix(-0.79324094,-0.60890789,-0.79324094,0.60890789,5.1079993,-8.8671145)"
       x1="14.228266"
       y1="-29.189594"
       x2="3.6590269"
       y2="-18.620356" />
    <linearGradient
       inkscape:collect="always"
       xlink:href="#linearGradient29522"
       id="linearGradient29605"
       gradientUnits="userSpaceOnUse"
       gradientTransform="matrix(0.80013746,-0.61907549,0.80013746,0.61907549,17.509457,-0.36880917)"
       x1="14.228266"
       y1="-29.189594"
       x2="3.6590269"
       y2="-18.620356" />
    <radialGradient
       inkscape:collect="always"
       xlink:href="#linearGradient21516"
       id="radialGradient21518"
       cx="-10.294176"
       cy="21.568451"
       fx="-10.294176"
       fy="21.568451"
       r="6.3662009"
       gradientTransform="matrix(1.4949018,0.11618124,-0.03361773,0.58519066,26.730342,12.359205)"
       gradientUnits="userSpaceOnUse" />
    <linearGradient
       inkscape:collect="always"
       id="linearGradient21516">
      <stop
         style="stop-color:#605a62;stop-opacity:1;"
         offset="0.0019802"
         id="stop21512" />
      <stop
         style="stop-color:#989399;stop-opacity:0.31444758;"
         offset="1"
         id="stop21514" />
    </linearGradient>
    <linearGradient
       inkscape:collect="always"
       xlink:href="#linearGradient15170"
       id="linearGradient15172"
       x1="-15.648705"
       y1="17.281696"
       x2="2.0717561"
       y2="20.393126"
       gradientUnits="userSpaceOnUse" />
    <linearGradient
       inkscape:collect="always"
       id="linearGradient15170">
      <stop
         style="stop-color:#dccd9a;stop-opacity:1;"
         offset="0"
         id="stop15166" />
      <stop
         style="stop-color:#aa4400;stop-opacity:0.93767703;"
         offset="1"
         id="stop15168" />
    </linearGradient>
    <linearGradient
       inkscape:collect="always"
       xlink:href="#linearGradient17471"
       id="linearGradient17473"
       x1="-17.019377"
       y1="7.6721411"
       x2="3.4424262"
       y2="7.6721411"
       gradientUnits="userSpaceOnUse" />
    <linearGradient
       inkscape:collect="always"
       id="linearGradient17471">
      <stop
         style="stop-color:#fae8c9;stop-opacity:1;"
         offset="0"
         id="stop17467" />
      <stop
         style="stop-color:#dc8427;stop-opacity:1;"
         offset="1"
         id="stop17469" />
    </linearGradient>
    <linearGradient
       inkscape:collect="always"
       xlink:href="#linearGradient21349"
       id="linearGradient21351"
       x1="-15.673205"
       y1="6.8083696"
       x2="2.0962551"
       y2="6.8083696"
       gradientUnits="userSpaceOnUse" />
    <linearGradient
       inkscape:collect="always"
       id="linearGradient21349">
      <stop
         style="stop-color:#c38e66;stop-opacity:1;"
         offset="0"
         id="stop21345" />
      <stop
         style="stop-color:#8b5b37;stop-opacity:1;"
         offset="1"
         id="stop21347" />
    </linearGradient>
    <linearGradient
       inkscape:collect="always"
       xlink:href="#linearGradient16633"
       id="linearGradient16635"
       x1="-17.009029"
       y1="10.925782"
       x2="3.4320812"
       y2="10.925782"
       gradientUnits="userSpaceOnUse" />
    <linearGradient
       inkscape:collect="always"
       id="linearGradient16633">
      <stop
         style="stop-color:#d7b088;stop-opacity:1;"
         offset="0"
         id="stop16629" />
      <stop
         style="stop-color:#8c2d07;stop-opacity:1;"
         offset="1"
         id="stop16631" />
    </linearGradient>
    <radialGradient
       inkscape:collect="always"
       xlink:href="#linearGradient10799"
       id="radialGradient23030-7-7-2"
       cx="15.860661"
       cy="-2.6314101"
       fx="15.860661"
       fy="-2.6314101"
       r="1.8648378"
       gradientTransform="matrix(1.4097645,0.41133515,-1.0148915,1.3285268,-14.357295,7.9912225)"
       gradientUnits="userSpaceOnUse" />
    <linearGradient
       inkscape:collect="always"
       id="linearGradient10799">
      <stop
         style="stop-color:#ffe2e2;stop-opacity:1;"
         offset="0"
         id="stop10793" />
      <stop
         style="stop-color:#ffa174;stop-opacity:1;"
         offset="0.38810959"
         id="stop10795" />
      <stop
         style="stop-color:#ff2121;stop-opacity:1;"
         offset="0.79518074"
         id="stop10797" />
    </linearGradient>
    <radialGradient
       inkscape:collect="always"
       xlink:href="#linearGradient10799"
       id="radialGradient23030-7-7-2-0"
       cx="15.860661"
       cy="-2.6314101"
       fx="15.860661"
       fy="-2.6314101"
       r="1.8648378"
       gradientTransform="matrix(-1.4097645,0.41133515,1.0148915,1.3285268,39.894823,3.9279211)"
       gradientUnits="userSpaceOnUse" />
    <radialGradient
       inkscape:collect="always"
       xlink:href="#linearGradient10799"
       id="radialGradient23030-7-7-2-0-2"
       cx="15.860661"
       cy="-2.6314101"
       fx="15.860661"
       fy="-2.6314101"
       r="1.8648378"
       gradientTransform="matrix(1.2224993,0.36625614,-0.88007903,1.182931,-13.537772,3.53111)"
       gradientUnits="userSpaceOnUse" />
  </defs>
  <g
     inkscape:label="Layer 1"
     inkscape:groupmode="layer"
     id="layer1">
    <g
       id="g16872">
      <rect
         style="fill:#800080;fill-rule:evenodd;stroke-width:0.264583"
         id="rect21125"
         width="26.470026"
         height="24.017801"
         x="-83.964668"
         y="52.546955" />
      <g
         id="g117847"
         transform="matrix(0.67134216,0,0,0.67134216,-82.51628,-11.043571)"
         style="stroke-width:1.48955">
        <path
           id="rect29651"
           style="fill:#b89644;fill-opacity:1;fill-rule:evenodd;stroke-width:0.377152"
           d="m -35.605293,27.319225 c -0.492538,-1e-6 -0.984675,0.144973 -1.362085,0.434689 l -11.14712,8.556916 h 0.0022 V 52.7082 h 25.014637 V 36.31083 h 0.0022 L -34.24267,27.753914 c -0.377408,-0.289716 -0.870084,-0.43469 -1.362623,-0.434689 z" />
        <rect
           style="mix-blend-mode:multiply;fill:#ddd3d3;fill-opacity:1;fill-rule:evenodd;stroke-width:0.385875"
           id="rect31549-1"
           width="22.808271"
           height="19.408148"
           x="-46.973419"
           y="31.062712" />
        <rect
           style="fill:#ffffff;fill-rule:evenodd;stroke-width:0.394111"
           id="rect31549"
           width="22.101128"
           height="20.893148"
           x="-46.655563"
           y="31.252985" />
        <text
           xml:space="preserve"
           style="font-style:normal;font-weight:normal;font-size:15.5252px;line-height:1.25;font-family:sans-serif;fill:#000000;fill-opacity:1;stroke:none;stroke-width:0.361336"
           x="-31.271276"
           y="52.282772"
           id="text33454"
           transform="matrix(0.99810239,0.29980889,-0.22385307,0.93466048,0,0)"><tspan
             sodipodi:role="line"
             id="tspan33452"
             style="font-style:normal;font-variant:normal;font-weight:bold;font-stretch:normal;font-size:15.5252px;font-family:Amiri;-inkscape-font-specification:'Amiri Bold';fill:#ff2e2e;fill-opacity:1;stroke-width:0.361336"
             x="-31.271276"
             y="52.282772">@</tspan></text>
        <path
           id="path31562"
           style="mix-blend-mode:normal;fill:#c5a761;fill-opacity:1;stroke:#000000;stroke-width:0;stroke-linecap:butt;stroke-linejoin:miter;stroke-dasharray:none;stroke-opacity:1"
           d="m -24.548379,36.496118 -11.088147,7.974712 -11.019009,-7.924561 v 2.948302 l 9.953777,8.797419 h 1.995262 l -0.0031,-0.05016 h 0.207925 l 9.953265,-8.797952 z" />
        <g
           id="g31560"
           transform="matrix(1,0,0,0.99165096,-40.605258,66.988617)"
           style="stroke-width:1.48955">
          <g
             id="g31553"
             style="stroke-width:1.48955">
            <path
               id="rect29033-76-4"
               style="fill:url(#linearGradient31309);fill-opacity:1;fill-rule:evenodd;stroke-width:0.439399"
               d="m -7.50924,-30.936074 v 16.535425 c 0.452893,10e-7 0.905606,-0.13307 1.252636,-0.399458 l 10.250021,-7.868254 -10.250021,-7.868254 c -0.34703,-0.266388 -0.799743,-0.399459 -1.252636,-0.399459 z" />
            <path
               id="rect29033-76-4-0"
               style="fill:url(#linearGradient31385);fill-opacity:1;fill-rule:evenodd;stroke-width:0.439399"
               d="m 17.509757,-30.936074 v 16.535425 c -0.452893,10e-7 -0.905606,-0.13307 -1.252636,-0.399458 L 6.0071003,-22.668361 16.257121,-30.536615 c 0.34703,-0.266388 0.799743,-0.399459 1.252636,-0.399459 z" />
          </g>
          <path
             id="rect29033-76-0"
             style="fill:#b89644;fill-opacity:1;fill-rule:evenodd;stroke-width:0.47522"
             d="m 5.0002539,-23.668412 c -0.4725829,-1e-6 -0.9449721,0.149165 -1.3070895,0.447776 l -10.6955936,8.819987 H 17.002935 L 6.3073434,-23.220636 C 5.945226,-23.519247 5.4728368,-23.668413 5.0002539,-23.668412 Z" />
          <path
             id="rect29033-76"
             style="fill:url(#linearGradient29605);fill-opacity:1;fill-rule:evenodd;stroke-width:0.444974"
             d="m 5.0002391,-22.806416 c -0.4568329,-1e-6 -0.9134785,0.135291 -1.2635274,0.406128 l -10.3391353,7.999639 H 16.6029 L 6.2637665,-22.400288 c -0.3500489,-0.270837 -0.8066946,-0.406129 -1.2635274,-0.406128 z" />
        </g>
      </g>
      <g
         id="g6943"
         transform="matrix(0.71546681,0.188197,-0.188197,0.71546681,1.7530237,-28.917324)"
         style="stroke-width:1.21797">
        <rect
           style="fill:url(#radialGradient51707);fill-opacity:1;fill-rule:evenodd;stroke-width:0.390146"
           id="rect51147"
           width="4.2895293"
           height="3.7300673"
           x="-15.944508"
           y="22.858942"
           rx="2.5407705"
           ry="2.5407705"
           transform="scale(-1,1)" />
        <path
           id="path49262"
           style="fill:url(#radialGradient52129);fill-opacity:1;fill-rule:evenodd;stroke-width:0.370694"
           d="m 13.970964,-0.6846776 a 9.0000833,8.3238025 0 0 0 -9.000356,8.32419 9.0000833,8.3238025 0 0 0 2.576547,5.8219936 h -0.0083 c 2.172061,2.070167 2.345698,3.643851 2.556113,4.452537 0.1739,0.668338 0.453343,1.278155 1.350533,1.251643 0.504485,-0.01491 1.588801,-0.0168 2.252804,-0.01645 v 0.0011 c 0,0 0.129971,-8.54e-4 0.279046,-0.0011 0.148567,2.43e-4 0.279046,0.0011 0.279046,0.0011 v -0.0011 c 0.664053,-3.66e-4 1.748426,0.0016 2.252803,0.01645 0.897191,0.02652 1.175994,-0.583305 1.349894,-1.251643 0.210417,-0.808686 0.384054,-2.38237 2.556114,-4.452537 h -0.02043 a 9.0000833,8.3238025 0 0 0 2.575917,-5.8219936 9.0000833,8.3238025 0 0 0 -8.999718,-8.32419 z" />
        <g
           id="g51137"
           transform="matrix(0.89404114,0,0,0.89404114,-57.518581,4.9978024)"
           style="stroke-width:1.21797">
          <path
             style="fill:none;stroke:#afafaf;stroke-width:2.60271;stroke-linecap:round;stroke-linejoin:miter;stroke-dasharray:none;stroke-opacity:1"
             d="m 76.397089,16.800856 h 6.853988"
             id="path49649" />
          <path
             style="fill:none;stroke:#eeeeee;stroke-width:1.21797;stroke-linecap:round;stroke-linejoin:miter;stroke-dasharray:none;stroke-opacity:1"
             d="m 76.322429,16.405462 h 7.003309"
             id="path49649-1" />
        </g>
        <g
           id="g51141"
           transform="matrix(0.89404114,0,0,0.89404114,-57.635765,4.9754524)"
           style="stroke-width:1.21797">
          <path
             style="fill:none;stroke:#afafaf;stroke-width:2.60271;stroke-linecap:round;stroke-linejoin:miter;stroke-dasharray:none;stroke-opacity:1"
             d="m 76.528161,18.950966 h 6.853988"
             id="path49649-2" />
          <path
             style="fill:none;stroke:#eeeeee;stroke-width:1.21797;stroke-linecap:round;stroke-linejoin:miter;stroke-dasharray:none;stroke-opacity:1"
             d="M 76.453501,18.555572 H 83.45681"
             id="path49649-1-5" />
        </g>
        <g
           id="g51145"
           transform="matrix(-0.89404114,0,0,0.89404114,85.330629,4.9978024)"
           style="stroke-width:1.21797">
          <path
             style="fill:none;stroke:#afafaf;stroke-width:2.56164;stroke-linecap:round;stroke-linejoin:miter;stroke-dasharray:none;stroke-opacity:1"
             d="m 76.896033,21.051075 h 6.118245"
             id="path49649-2-4" />
          <path
             style="fill:none;stroke:#eeeeee;stroke-width:1.21797;stroke-linecap:round;stroke-linejoin:miter;stroke-dasharray:none;stroke-opacity:1"
             d="m 76.829387,20.648323 h 6.251537"
             id="path49649-1-5-0" />
        </g>
        <ellipse
           style="fill:#ffffff;fill-rule:evenodd;stroke-width:0.326646"
           id="path90349"
           cx="11.193284"
           cy="2.0435984"
           rx="2.0838096"
           ry="2.6757441"
           transform="matrix(0.97709194,0.21281761,-0.43143572,0.90214368,0,0)" />
      </g>
      <ellipse
         style="fill:url(#radialGradient21518);fill-opacity:1;fill-rule:evenodd;stroke-width:0.275151"
         id="path21510"
         cx="15.202121"
         cy="23.864708"
         rx="6.1610093"
         ry="2.3902314"
         transform="matrix(0.9999117,0.01328877,-0.00138747,0.99999904,0,0)" />
      <g
         id="g21506"
         transform="matrix(0.76934285,0,0,0.77788571,18.311267,7.536908)"
         style="stroke-width:0.99575">
        <path
           id="path14647-2-1-5"
           style="fill:url(#linearGradient15172);fill-opacity:1;fill-rule:evenodd;stroke:#44b2c8;stroke-width:0;stroke-dasharray:none;stroke-opacity:1"
           d="m -15.51758,10.997886 3.276602,10.091771 a 5.2561326,2.4758983 0 0 0 5.2565196,2.475848 5.2561326,2.4758983 0 0 0 5.2560479,-2.475848 l 3.664192,-10.091771 z" />
        <path
           id="path14647-5"
           style="fill:url(#linearGradient17473);fill-opacity:1;fill-rule:evenodd;stroke:#44b2c8;stroke-width:0;stroke-dasharray:none;stroke-opacity:1"
           d="m -6.7884745,4.3005124 a 10.230728,3.3714428 0 0 0 -10.2309005,3.3713704 10.230728,3.3714428 0 0 0 10.2309005,3.3718872 10.230728,3.3714428 0 0 0 10.2309,-3.3718872 10.230728,3.3714428 0 0 0 -10.2309,-3.3713704 z m 0.035657,0.8159709 A 8.8845978,2.4142406 0 0 1 2.1313944,7.5308062 8.8845978,2.4142406 0 0 1 -6.7528178,9.9451291 8.8845978,2.4142406 0 0 1 -15.637547,7.5308062 8.8845978,2.4142406 0 0 1 -6.7528175,5.1164833 Z" />
        <path
           id="path14647-9-6"
           style="fill:url(#linearGradient21351);fill-opacity:1;fill-rule:evenodd;stroke:#44b2c8;stroke-width:0;stroke-dasharray:none;stroke-opacity:1"
           d="m -6.7884745,5.1164833 a 8.8845978,2.4142406 0 0 0 -8.8847295,2.414323 8.8845978,2.4142406 0 0 0 0.751892,0.96945 9.5639706,3.3764713 0 0 1 8.3447109,-1.72961 9.5639706,3.3764713 0 0 1 8.1214681,1.593701 8.8845978,2.4142406 0 0 0 0.5513875,-0.833541 8.8845978,2.4142406 0 0 0 -8.884729,-2.414323 z" />
        <path
           id="path14647-9-3"
           style="fill:#362c25;fill-opacity:1;fill-rule:evenodd;stroke:#44b2c8;stroke-width:0;stroke-dasharray:none;stroke-opacity:1"
           d="M -6.6244389,6.7711635 A 9.6203053,3.3764709 0 0 0 -15.018303,8.5002563 8.9369308,2.4142403 0 0 0 -6.8375609,9.9451291 8.9369308,2.4142403 0 0 0 1.544867,8.3643473 9.6203053,3.3764709 0 0 0 -6.6244389,6.7711635 Z" />
        <path
           id="path14647-2-2"
           style="fill:url(#linearGradient16635);fill-opacity:1;fill-rule:evenodd;stroke:#44b2c8;stroke-width:0;stroke-dasharray:none;stroke-opacity:1"
           d="m -16.864087,8.2475586 0.511597,1.9001424 a 9.5639706,3.3764713 0 0 0 9.5637571,3.376021 9.5639706,3.3764713 0 0 0 9.5642741,-3.376021 L 3.2871379,8.2475586 A 10.230728,3.3714428 0 0 1 -6.7887329,11.04377 10.230728,3.3714428 0 0 1 -16.864087,8.2475586 Z" />
      </g>
      <path
         style="fill:#c8df3f;fill-opacity:1;stroke:#000000;stroke-width:0;stroke-linecap:butt;stroke-linejoin:miter;stroke-dasharray:none;stroke-opacity:1"
         d="m 12.836882,13.61679 c 0,0 -1.573965,-3.531154 -5.0101252,-4.9958123 C 4.3905978,7.1563189 1.0191997,7.8583449 1.0191997,7.8583449 c 0,0 4.3191708,5.2268951 11.8176823,5.7584451 z"
         id="path21674" />
      <path
         style="fill:#c8df3f;fill-opacity:1;stroke:#000000;stroke-width:0;stroke-linecap:butt;stroke-linejoin:miter;stroke-dasharray:none;stroke-opacity:1"
         d="m 12.903877,13.728492 c 1.567656,-1.674616 3.232576,-5.1926974 8.209088,-3.969141 3.440213,0.845833 4.326168,2.077047 4.326168,2.077047 0,0 -3.344413,-0.579845 -5.367887,0.356716 -2.023476,0.936565 -7.167369,1.535378 -7.167369,1.535378 z"
         id="path21676"
         inkscape:transform-center-x="-5.7029181"
         inkscape:transform-center-y="-1.7400739"
         sodipodi:nodetypes="cscsc" />
      <path
         style="fill:#c8df3f;fill-opacity:1;stroke:#000000;stroke-width:0;stroke-linecap:butt;stroke-linejoin:miter;stroke-dasharray:none;stroke-opacity:1"
         d="M 13.659643,13.960761 C 13.439228,10.906414 13.439228,5.6609064 16.451567,3.2041496 19.463908,0.74739289 22.99055,0.81379172 22.99055,0.81379172 c 0,0 -7.788001,11.61979528 -9.330907,13.14696928 z"
         id="path21680" />
      <path
         style="fill:#c8df3f;fill-opacity:1;stroke:#000000;stroke-width:0;stroke-linecap:butt;stroke-linejoin:miter;stroke-dasharray:none;stroke-opacity:1"
         d="M 13.089318,13.821186 C 13.402525,10.036452 13.637429,6.5173148 9.8006478,3.7285638 5.9638653,0.9398128 2.7534962,1.4046048 2.7534962,1.4046048 c 0,0 10.1009158,10.7566112 10.3358218,12.4165812 z"
         id="path21682" />
      <path
         style="fill:#c8df3f;fill-opacity:1;stroke:#000000;stroke-width:0;stroke-linecap:butt;stroke-linejoin:miter;stroke-dasharray:none;stroke-opacity:1"
         d="m 14.006204,13.555428 c 2.650344,-1.733833 6.392007,0.115589 7.483324,1.849423 1.091318,1.733832 1.636977,2.427365 1.636977,2.427365 0,0 -6.781762,-1.040299 -9.120301,-4.276788 z"
         id="path21684" />
      <path
         style="fill:#c8df3f;fill-opacity:1;stroke:#000000;stroke-width:0;stroke-linecap:butt;stroke-linejoin:miter;stroke-dasharray:none;stroke-opacity:1"
         d="m 12.893724,13.816341 c -2.462022,-1.129492 -7.295452,-0.809812 -9.2325848,2.541354 -0.6240088,1.079512 -0.9576389,3.274738 -0.9576389,3.274738 0,0 3.881291,-1.486377 5.4200552,-2.333495 1.5387639,-0.847118 4.7701685,-3.482597 4.7701685,-3.482597 z"
         id="path21686"
         sodipodi:nodetypes="cscsc" />
      <path
         style="fill:#c8df3f;fill-opacity:1;stroke:#000000;stroke-width:0;stroke-linecap:butt;stroke-linejoin:miter;stroke-dasharray:none;stroke-opacity:1"
         d="m 13.432292,13.086872 c 2.077331,0.517485 1.769578,4.743608 0.384691,6.382309 -1.384887,1.6387 -2.462023,1.552453 -2.462023,1.552453 0,0 -1.307949,-5.69233 2.077332,-7.934762 z"
         id="path21688" />
      <path
         style="fill:#96be19;fill-opacity:1;stroke:#000000;stroke-width:0;stroke-linecap:butt;stroke-linejoin:miter;stroke-dasharray:none;stroke-opacity:1"
         d="m 13.984561,10.682485 c 0,0 0.923259,-2.784995 1.720746,-4.638671 1.125596,-2.616346 5.439019,-4.5365359 6.775198,-4.9346115 -1.485741,1.9213086 -2.684188,3.2155786 -4.022923,5.0043391 -1.130222,1.510155 -4.473021,4.5689434 -4.473021,4.5689434 z"
         id="path24398-1"
         sodipodi:nodetypes="cscsc"
         inkscape:transform-center-x="-4.7823458"
         inkscape:transform-center-y="-5.1541704" />
      <path
         style="fill:#96be19;fill-opacity:1;stroke:#000000;stroke-width:0;stroke-linecap:butt;stroke-linejoin:miter;stroke-dasharray:none;stroke-opacity:1"
         d="m 12.473279,11.093912 c 0,0 0.392163,-1.6521702 -0.34413,-3.5058461 -1.039225,-2.616346 -7.333024,-5.5501162 -8.5666736,-5.9481918 1.3717347,1.9213086 3.3211174,3.2513315 4.5571269,5.040092 1.0434963,1.510155 4.3536767,4.4139459 4.3536767,4.4139459 z"
         id="path24398-1-6"
         sodipodi:nodetypes="cscsc"
         inkscape:transform-center-x="4.4153809"
         inkscape:transform-center-y="-5.1541704" />
      <path
         style="fill:#96be19;fill-opacity:1;stroke:#000000;stroke-width:0;stroke-linecap:butt;stroke-linejoin:miter;stroke-dasharray:none;stroke-opacity:1"
         d="m 13.504186,11.827144 c 0,0 2.618362,-0.925333 4.434533,-1.445708 2.563411,-0.7344762 5.84383,0.547091 6.701205,1.043506 -2.588469,-0.101134 -4.327221,0.07636 -5.928568,0.914426 -1.601346,0.838067 -5.20717,-0.512224 -5.20717,-0.512224 z"
         id="path24398"
         sodipodi:nodetypes="cscsc"
         inkscape:transform-center-x="-5.8170254"
         inkscape:transform-center-y="-0.35683274" />
      <path
         style="fill:#96be19;fill-opacity:1;stroke:#000000;stroke-width:0;stroke-linecap:butt;stroke-linejoin:miter;stroke-dasharray:none;stroke-opacity:1"
         d="m 13.660034,13.243348 c 0,0 1.726784,-0.276015 3.52117,0.186983 2.532661,0.65349 5.001376,3.345313 5.582571,4.110783 -2.045899,-0.522138 -2.974012,-1.01794 -4.792532,-1.757964 -2.575234,-1.047959 -4.311209,-2.539802 -4.311209,-2.539802 z"
         id="path24398-3"
         sodipodi:nodetypes="cscsc"
         inkscape:transform-center-x="-5.0331143"
         inkscape:transform-center-y="2.2992181" />
      <path
         style="fill:#96be19;fill-opacity:1;stroke:#000000;stroke-width:0;stroke-linecap:butt;stroke-linejoin:miter;stroke-dasharray:none;stroke-opacity:1"
         d="m 14.106356,13.433964 c 0,0 0.44229,1.918101 0.44457,3.308952 0.0032,1.963098 -2.221279,3.285993 -2.963797,3.894362 0.413465,-2.204866 0.437027,-3.047477 0.761724,-4.526495 0.459807,-2.094458 1.333862,-2.930849 1.333862,-2.930849 z"
         id="path24398-3-2"
         sodipodi:nodetypes="cscscc"
         inkscape:transform-center-x="1.1031318"
         inkscape:transform-center-y="4.1501331" />
      <path
         style="fill:#96be19;fill-opacity:1;stroke:#000000;stroke-width:0;stroke-linecap:butt;stroke-linejoin:miter;stroke-dasharray:none;stroke-opacity:1"
         d="m 10.618679,13.950727 c 0,0 -2.4241231,0.208821 -3.8979692,0.933312 -2.5077869,1.232739 -2.9457909,2.28486 -3.5098109,4.117793 1.834135,-0.698298 2.988958,-1.307073 3.7684109,-1.702851 2.2112743,-1.122802 3.8075332,-2.867022 3.8075332,-2.867022 z"
         id="path24398-3-2-7"
         sodipodi:nodetypes="cscscc"
         inkscape:transform-center-x="4.1754878"
         inkscape:transform-center-y="2.6818174" />
      <path
         style="fill:#96be19;fill-opacity:1;stroke:#000000;stroke-width:0;stroke-linecap:butt;stroke-linejoin:miter;stroke-dasharray:none;stroke-opacity:1"
         d="m 10.495452,12.26908 c 0,0 -0.177503,-1.168111 -2.4473241,-2.521345 C 6.2406414,8.6701385 3.4403734,8.62276 2.4280015,8.6673202 c 1.3105097,1.081881 1.9564239,1.4597178 3.4074558,2.2640338 2.0548265,1.139004 4.5820987,1.771409 4.5820987,1.771409 z"
         id="path24398-3-2-7-6"
         sodipodi:nodetypes="cscscc"
         inkscape:transform-center-x="4.530155"
         inkscape:transform-center-y="-1.8484359" />
      <path
         id="path2444-6"
         style="fill:#ff0025;fill-opacity:1;stroke:#590079;stroke-width:0;stroke-linecap:round;stroke-linejoin:round;stroke-miterlimit:8;paint-order:fill markers stroke"
         d="m -80.897176,66.209202 c -1.070596,0.0073 -2.143428,0.488632 -2.996716,1.383378 -1.654862,1.735264 -1.349684,5.049969 1.200444,7.200077 1.273055,1.073361 4.62504,4.298446 4.62504,4.298446 0,0 3.351984,-3.225086 4.62504,-4.298446 2.550127,-2.150108 2.854789,-5.464813 1.199927,-7.200077 -1.654863,-1.735264 -4.134282,-1.914493 -5.824967,-0.100252 -0.818925,-0.878773 -1.823056,-1.289994 -2.828768,-1.283126 z" />
      <path
         id="path2444"
         style="fill:#ff0025;fill-opacity:1;stroke:#590079;stroke-width:0;stroke-linecap:round;stroke-linejoin:round;stroke-miterlimit:8;paint-order:fill markers stroke"
         d="m -79.696691,50.384487 c -0.612855,-0.300638 -1.361944,-0.331478 -2.103483,-0.06396 -1.438135,0.518824 -2.207741,2.496751 -1.365035,4.449421 0.420689,0.974797 1.414805,3.769034 1.414805,3.769034 0,0 2.830504,-0.885591 3.862373,-1.1355 2.066994,-0.500608 3.184513,-2.304911 2.73445,-3.766026 -0.450065,-1.461115 -1.813548,-2.269266 -3.294607,-1.715585 -0.217007,-0.734492 -0.672789,-1.254973 -1.248503,-1.537384 z" />
    </g>
    <g
       id="g14196"
       transform="matrix(1.0109944,0,0,1.064793,1.1576097,0.75031766)">
      <g
         id="g14185">
        <path
           id="path23014-4-0-5"
           style="fill:url(#radialGradient23030-7-7-2);fill-opacity:1;stroke:#000000;stroke-width:0;stroke-linecap:butt;stroke-linejoin:miter;stroke-dasharray:none;stroke-opacity:1"
           inkscape:transform-center-x="1.9427805"
           inkscape:transform-center-y="-0.6999913"
           d="m 12.061677,8.2117402 c -0.04132,0.00102 -0.08547,0.00512 -0.132292,0.012402 C 11.231811,8.3325611 10.7012,8.7301984 10.548591,9.560495 10.34936,8.8638697 9.8400548,8.5690546 9.1895009,8.5414358 8.1892158,8.4989698 8.4866699,9.785983 8.9781443,10.372332 c 0.055151,0.0658 0.1183728,0.12534 0.1865519,0.179317 -1.0454224,-0.266726 -1.7159694,0.04539 -2.1052974,0.643888 -0.51439,0.79075 0.947241,1.021449 1.7807694,0.839742 0.059942,-0.01307 0.1186593,-0.02962 0.1762167,-0.04909 -0.4539928,0.51177 -0.465155,1.019975 -0.1994711,1.486731 0.4420143,0.776533 1.5312682,-0.193571 1.8557002,-0.903304 0.0048,-0.0106 0.0094,-0.02137 0.01395,-0.03204 0.289731,0.528637 0.783693,0.729629 1.370459,0.708484 0.848573,-0.03058 0.677151,-0.927499 0.272335,-1.532723 0.574825,0.11454 1.059172,-0.05952 1.452624,-0.410311 0.729126,-0.650066 -0.584371,-1.227126 -1.42937,-1.249536 -0.07071,-0.0019 -0.141637,0.0015 -0.211873,0.0088 0.0086,-0.01065 0.01711,-0.02166 0.02532,-0.03256 0.460441,-0.6112808 0.73573,-1.8386977 -0.104382,-1.8179898 z" />
        <ellipse
           style="fill:#fff800;fill-opacity:1;fill-rule:evenodd;stroke-width:0.331077"
           id="path13160"
           cx="7.3556542"
           cy="13.324549"
           rx="1.1240214"
           ry="0.83956856"
           transform="matrix(0.96810783,-0.25053388,0.26238896,0.96496219,0,0)" />
      </g>
      <g
         id="g14181">
        <path
           id="path23014-4-0-5-0"
           style="fill:url(#radialGradient23030-7-7-2-0);fill-opacity:1;stroke:#000000;stroke-width:0;stroke-linecap:butt;stroke-linejoin:miter;stroke-dasharray:none;stroke-opacity:1"
           inkscape:transform-center-x="-1.9427802"
           inkscape:transform-center-y="-0.6999913"
           d="m 13.475851,4.1484388 c 0.04132,0.00102 0.08547,0.00512 0.132292,0.012402 0.697574,0.1084189 1.228185,0.5060562 1.380794,1.3363528 0.199231,-0.6966253 0.708536,-0.9914404 1.35909,-1.0190592 1.000285,-0.042466 0.702831,1.2445472 0.211356,1.8308963 -0.05515,0.0658 -0.118373,0.12534 -0.186552,0.179317 1.045423,-0.266726 1.71597,0.04539 2.105298,0.643888 0.51439,0.79075 -0.947241,1.021449 -1.78077,0.839742 -0.05994,-0.01307 -0.118659,-0.02962 -0.176216,-0.04909 0.453992,0.51177 0.465155,1.019975 0.199471,1.486731 -0.442015,0.7765333 -1.531268,-0.193571 -1.8557,-0.903304 -0.0048,-0.0106 -0.0094,-0.02137 -0.01395,-0.03204 -0.289731,0.528637 -0.783693,0.729629 -1.370459,0.708484 -0.848573,-0.03058 -0.677151,-0.927499 -0.272335,-1.532723 -0.574825,0.11454 -1.059172,-0.05952 -1.452624,-0.410311 -0.729126,-0.650066 0.584371,-1.227126 1.42937,-1.249536 0.07071,-0.0019 0.141637,0.0015 0.211873,0.0088 -0.0086,-0.01065 -0.01711,-0.02166 -0.02532,-0.03256 -0.460441,-0.6112808 -0.73573,-1.8386977 0.104382,-1.8179899 z" />
        <ellipse
           style="fill:#fff800;fill-opacity:1;fill-rule:evenodd;stroke-width:0.301701"
           id="path13160-3"
           cx="-16.129496"
           cy="2.4687428"
           rx="0.96732205"
           ry="0.81013298"
           transform="matrix(-0.9590665,-0.28318094,-0.23182854,0.97275666,0,0)" />
      </g>
      <g
         id="g14177">
        <path
           id="path23014-4-0-5-0-9"
           style="fill:url(#radialGradient23030-7-7-2-0-2);fill-opacity:1;stroke:#000000;stroke-width:0;stroke-linecap:butt;stroke-linejoin:miter;stroke-dasharray:none;stroke-opacity:1"
           inkscape:transform-center-x="1.6847122"
           inkscape:transform-center-y="-0.62327793"
           d="M 9.3718518,3.7274607 C 9.3360205,3.728369 9.2977351,3.7320196 9.2571327,3.7385036 8.6522205,3.8350406 8.1920929,4.1891001 8.0597556,4.9284029 7.8869893,4.3081221 7.4453376,4.0456164 6.8811995,4.0210244 6.0137867,3.9832123 6.2717286,5.1291793 6.6979188,5.6512692 6.7457428,5.7098582 6.8005678,5.762873 6.8596903,5.8109345 5.9531354,5.5734396 5.3716601,5.8513505 5.0340482,6.3842576 4.5879869,7.0883478 5.8554631,7.2937641 6.5782708,7.1319707 6.6302488,7.1203327 6.6811678,7.1055967 6.7310792,7.0882607 6.337393,7.5439447 6.3277128,7.9964545 6.5581048,8.4120582 6.941405,9.1034895 7.8859678,8.239701 8.1673041,7.6077487 c 0.00416,-0.00944 0.00815,-0.019028 0.012097,-0.028529 C 8.4306458,8.0499224 8.8589927,8.2288876 9.367816,8.2100599 10.103669,8.1828309 9.9550181,7.384207 9.6039755,6.8453106 10.102444,6.947298 10.522453,6.7923136 10.863641,6.4799664 11.495914,5.9011424 10.356895,5.3873235 9.6241406,5.3673694 c -0.061317,-0.00169 -0.1228227,0.00134 -0.183729,0.00784 0.00746,-0.00948 0.014837,-0.019286 0.021957,-0.028992 C 9.8616469,4.801924 10.100368,3.709022 9.3718518,3.7274607 Z" />
        <ellipse
           style="fill:#fff800;fill-opacity:1;fill-rule:evenodd;stroke-width:0.259777"
           id="path13160-3-5"
           cx="-3.5474005"
           cy="9.2243948"
           rx="0.84592551"
           ry="0.68682021"
           transform="matrix(-0.88391482,0.46764794,0.538214,0.84280821,0,0)" />
      </g>
    </g>
  </g>
</svg>
