<?xml version="1.0" encoding="UTF-8" standalone="no"?>
<!-- Created with Inkscape (http://www.inkscape.org/) -->

<svg
   width="100"
   height="100"
   viewBox="0 0 26.458332 26.458332"
   version="1.1"
   id="svg2787"
   inkscape:version="1.2.2 (732a01da63, 2022-12-09)"
   sodipodi:docname="schep.svg"
   xmlns:inkscape="http://www.inkscape.org/namespaces/inkscape"
   xmlns:sodipodi="http://sodipodi.sourceforge.net/DTD/sodipodi-0.dtd"
   xmlns:xlink="http://www.w3.org/1999/xlink"
   xmlns="http://www.w3.org/2000/svg"
   xmlns:svg="http://www.w3.org/2000/svg">
  <sodipodi:namedview
     id="namedview2789"
     pagecolor="#ffffff"
     bordercolor="#000000"
     borderopacity="0.25"
     inkscape:showpageshadow="2"
     inkscape:pageopacity="0.0"
     inkscape:pagecheckerboard="0"
     inkscape:deskcolor="#d1d1d1"
     inkscape:document-units="mm"
     showgrid="false"
     inkscape:zoom="1.8707912"
     inkscape:cx="1.336333"
     inkscape:cy="87.128911"
     inkscape:window-width="1366"
     inkscape:window-height="705"
     inkscape:window-x="-8"
     inkscape:window-y="-8"
     inkscape:window-maximized="1"
     inkscape:current-layer="layer1" />
  <defs
     id="defs2784">
    <linearGradient
       inkscape:collect="always"
       xlink:href="#linearGradient42482"
       id="linearGradient42484"
       x1="8.2408409"
       y1="25.481987"
       x2="21.083717"
       y2="19.027426"
       gradientUnits="userSpaceOnUse"
       gradientTransform="matrix(0.91557407,-0.09210092,0,1,39.142462,-12.150129)" />
    <linearGradient
       inkscape:collect="always"
       id="linearGradient42482">
      <stop
         style="stop-color:#c8b7b7;stop-opacity:1;"
         offset="0"
         id="stop42478" />
      <stop
         style="stop-color:#c5b3b3;stop-opacity:1;"
         offset="0.49390733"
         id="stop42488" />
      <stop
         style="stop-color:#ae9696;stop-opacity:1;"
         offset="0.55555558"
         id="stop42618" />
      <stop
         style="stop-color:#a18686;stop-opacity:1;"
         offset="0.63725489"
         id="stop42486" />
      <stop
         style="stop-color:#916f6f;stop-opacity:1;"
         offset="0.80882353"
         id="stop42492" />
      <stop
         style="stop-color:#916e6e;stop-opacity:1;"
         offset="1"
         id="stop42480" />
    </linearGradient>
    <radialGradient
       inkscape:collect="always"
       xlink:href="#linearGradient51705"
       id="radialGradient51707"
       cx="80.92717"
       cy="23.283854"
       fx="80.92717"
       fy="23.283854"
       r="2.3989551"
       gradientTransform="matrix(0.09121776,-0.88937556,1.0277965,0.10541474,-76.82448,100.62393)"
       gradientUnits="userSpaceOnUse" />
    <linearGradient
       inkscape:collect="always"
       id="linearGradient51705">
      <stop
         style="stop-color:#e4e2ed;stop-opacity:1;"
         offset="0"
         id="stop51701" />
      <stop
         style="stop-color:#242034;stop-opacity:1;"
         offset="1"
         id="stop51703" />
    </linearGradient>
    <radialGradient
       inkscape:collect="always"
       xlink:href="#linearGradient52127"
       id="radialGradient52129"
       cx="77.355919"
       cy="-0.54782826"
       fx="77.355919"
       fy="-0.54782826"
       r="8.0335798"
       gradientTransform="matrix(1.558933,0.99927008,-0.89801303,1.4009647,-78.089763,-66.44642)"
       gradientUnits="userSpaceOnUse" />
    <linearGradient
       inkscape:collect="always"
       id="linearGradient52127">
      <stop
         style="stop-color:#fffae2;stop-opacity:1;"
         offset="0"
         id="stop52123" />
      <stop
         style="stop-color:#fff7ce;stop-opacity:1;"
         offset="0.11485147"
         id="stop52131" />
      <stop
         style="stop-color:#ffde4f;stop-opacity:1;"
         offset="0.40792078"
         id="stop52133" />
      <stop
         style="stop-color:#ffc221;stop-opacity:1;"
         offset="0.760396"
         id="stop52135" />
      <stop
         style="stop-color:#ffa605;stop-opacity:1;"
         offset="1"
         id="stop52125" />
    </linearGradient>
  </defs>
  <g
     inkscape:label="Layer 1"
     inkscape:groupmode="layer"
     id="layer1">
    <g
       id="g62734"
       transform="matrix(1,0,0,1.0323477,-53.175834,-133.85311)"
       style="stroke-width:0.984208">
      <g
         id="g57676"
         transform="translate(-34.649999,-10.182857)"
         style="stroke-width:0.984208">
        <g
           id="g90331"
           style="stroke-width:0.984208">
          <path
             id="path4915"
             style="fill:#a6dcdc;fill-opacity:1;fill-rule:evenodd;stroke-width:0.278901"
             d="m 24.994174,11.315617 c 0,5.272737 -2.500406,8.237514 -12.412617,7.956881 C 2.6693456,18.991865 0.26248458,16.588354 0.26248458,11.315617 c 0,-5.2727385 2.16159332,-8.6116935 12.45938842,-8.6116935 10.297795,0 12.272301,3.338955 12.272301,8.6116935 z"
             sodipodi:nodetypes="szszs" />
          <path
             style="fill:#a6dcdc;fill-opacity:1;stroke:#000000;stroke-width:0;stroke-linecap:round;stroke-linejoin:miter;stroke-dasharray:none;stroke-opacity:1"
             d="M 3.7332865,14.868144 0.33947713,20.984424 6.8038726,18.545671 Z"
             id="path56756"
             sodipodi:nodetypes="cccc" />
        </g>
      </g>
      <g
         id="g56946"
         transform="translate(-34.616544,-10.182857)"
         style="mix-blend-mode:multiply;stroke-width:0.984208">
        <g
           id="g90327"
           style="stroke-width:0.984208">
          <path
             id="path4915-7"
             style="mix-blend-mode:multiply;fill:#a9eaad;fill-opacity:1;fill-rule:evenodd;stroke-width:0.2789"
             d="m 9.3086373,21.539929 c 0,5.101353 2.3447267,7.953082 11.2700997,8.112338 8.925373,0.159256 11.137808,-3.010985 11.137808,-8.112338 0,-5.101353 -2.631392,-7.831871 -11.468537,-7.649316 -8.837145,0.182555 -10.9393707,2.547963 -10.9393707,7.649316 z"
             sodipodi:nodetypes="szszs" />
          <path
             style="fill:#a9eaad;fill-opacity:1;stroke:#000000;stroke-width:0;stroke-linecap:round;stroke-linejoin:miter;stroke-dasharray:none;stroke-opacity:1"
             d="m 28.122772,26.078274 3.032305,5.544014 -6.333961,-2.335585 z"
             id="path56756-6"
             sodipodi:nodetypes="cccc" />
        </g>
      </g>
    </g>
    <g
       id="g29719"
       transform="translate(-176.31982,92.327472)">
      <rect
         style="fill:url(#radialGradient51707);fill-opacity:1;fill-rule:evenodd;stroke-width:0.320325"
         id="rect51147"
         width="4.2895293"
         height="3.7300673"
         x="-48.572899"
         y="28.2904"
         rx="2.0860713"
         ry="2.0860713"
         transform="scale(-1,1)" />
      <path
         id="path49262"
         style="fill:url(#radialGradient52129);fill-opacity:1;fill-rule:evenodd;stroke-width:0.304354"
         d="m 46.599355,4.74678 a 9.0000833,8.3238025 0 0 0 -9.000356,8.32419 9.0000833,8.3238025 0 0 0 2.576547,5.821994 h -0.0083 c 2.172061,2.070167 2.345698,3.643851 2.556113,4.452537 0.1739,0.668338 0.453343,1.278155 1.350533,1.251643 0.504485,-0.01491 1.588801,-0.0168 2.252804,-0.01645 v 0.0011 c 0,0 0.129971,-8.54e-4 0.279046,-0.0011 0.148567,2.43e-4 0.279046,0.0011 0.279046,0.0011 v -0.0011 c 0.664053,-3.66e-4 1.748426,0.0016 2.252803,0.01645 0.897191,0.02652 1.175994,-0.583305 1.349894,-1.251643 0.210417,-0.808686 0.384054,-2.38237 2.556114,-4.452537 h -0.02043 A 9.0000833,8.3238025 0 0 0 55.599086,13.07097 9.0000833,8.3238025 0 0 0 46.599368,4.74678 Z" />
      <g
         id="g51137"
         transform="matrix(0.89404114,0,0,0.89404114,-24.89019,10.42926)">
        <path
           style="fill:none;stroke:#afafaf;stroke-width:2.13693;stroke-linecap:round;stroke-linejoin:miter;stroke-dasharray:none;stroke-opacity:1"
           d="m 76.397089,16.800856 h 6.853988"
           id="path49649" />
        <path
           style="fill:none;stroke:#eeeeee;stroke-width:1;stroke-linecap:round;stroke-linejoin:miter;stroke-dasharray:none;stroke-opacity:1"
           d="m 76.322429,16.405462 h 7.003309"
           id="path49649-1" />
      </g>
      <g
         id="g51141"
         transform="matrix(0.89404114,0,0,0.89404114,-25.007374,10.40691)">
        <path
           style="fill:none;stroke:#afafaf;stroke-width:2.13693;stroke-linecap:round;stroke-linejoin:miter;stroke-dasharray:none;stroke-opacity:1"
           d="m 76.528161,18.950966 h 6.853988"
           id="path49649-2" />
        <path
           style="fill:none;stroke:#eeeeee;stroke-width:1;stroke-linecap:round;stroke-linejoin:miter;stroke-dasharray:none;stroke-opacity:1"
           d="M 76.453501,18.555572 H 83.45681"
           id="path49649-1-5" />
      </g>
      <g
         id="g51145"
         transform="matrix(-0.89404114,0,0,0.89404114,117.95902,10.42926)">
        <path
           style="fill:none;stroke:#afafaf;stroke-width:2.10321;stroke-linecap:round;stroke-linejoin:miter;stroke-dasharray:none;stroke-opacity:1"
           d="m 76.896033,21.051075 h 6.118245"
           id="path49649-2-4" />
        <path
           style="fill:none;stroke:#eeeeee;stroke-width:1;stroke-linecap:round;stroke-linejoin:miter;stroke-dasharray:none;stroke-opacity:1"
           d="m 76.829387,20.648323 h 6.251537"
           id="path49649-1-5-0" />
      </g>
      <ellipse
         style="fill:#ffffff;fill-rule:evenodd;stroke-width:0.268189"
         id="path90349"
         cx="43.844063"
         cy="0.3618229"
         rx="2.0838096"
         ry="2.6757441"
         transform="matrix(0.97709194,0.21281761,-0.43143572,0.90214368,0,0)" />
    </g>
    <g
       id="g4517"
       transform="matrix(0.84371221,0,0,0.84372423,-32.608671,11.192641)"
       style="stroke-width:1.18523">
      <path
         style="fill:#493117;fill-opacity:1;stroke:#848382;stroke-width:0;stroke-linecap:round;stroke-linejoin:round;stroke-miterlimit:8;stroke-dasharray:none;stroke-opacity:1;paint-order:fill markers stroke"
         d="m 40.755796,17.79339 c 0,0 1.514497,-0.29201 4.188632,-0.05245 0.772877,0.06924 2.922286,-0.243478 3.674239,-0.192578 1.778997,0.120419 1.890774,0.329207 3.713689,0.405114 1.662669,0.06924 3.156452,0.08559 4.359586,-0.0572 0.56981,-0.06764 2.077141,0.122929 2.436002,-0.01925 0.895043,-0.354634 2.347785,0.148577 3.245842,-0.02716 0.529212,-0.103571 1.555353,0.358298 2.045445,0.215473 0.713262,-0.20786 1.498689,-0.676827 2.106166,-0.974365 0.988654,-0.484235 2.404777,0.486672 3.004235,-0.330144 0.398253,-0.542656 0.554029,-1.533313 -0.791472,-1.825371 -1.345501,-0.292062 -0.145696,-1.189624 -1.332902,-1.627713 -0.490652,-0.181054 -0.896752,-0.812814 -1.07483,-1.431232 -0.252812,-0.877942 -1.025089,-1.833052 -1.628771,-1.833052 -1.028913,0 -2.136973,-2.117432 -3.403326,-1.387283 C 60.619798,9.047405 60.054881,8.396752 59.567053,8.358277 59.14444,8.324937 58.10959,8.864764 57.778941,8.729194 57.066617,8.437135 56.261631,7.651686 55.311866,8.162791 55.000078,8.330576 54.010508,7.898063 53.457846,8.110951 52.946584,8.307892 52.850907,8.844178 52.361382,8.920472 51.768135,9.012932 51.252287,8.738829 51.077514,8.765701 c -0.474883,0.07301 -1.749297,0.45688 -1.986738,0.967983 -0.237442,0.511105 -0.555895,1.112941 -1.030777,0.96691 -0.474884,-0.14603 -0.77071,0.146029 -1.166446,0.876177 -0.395736,0.730149 -1.345502,0.876179 -2.136973,0.803164 -0.79147,-0.073 -1.741237,0.292059 -1.89953,0.949193 -0.158296,0.657133 -0.31659,0.803165 -1.345503,1.022209 -1.028911,0.219044 -1.978677,1.022208 -2.45356,1.460297 -0.474883,0.438089 0,0.876179 0,0.876179 z"
         id="path30448"
         sodipodi:nodetypes="cssssssssscssssssssscssssssscc" />
      <rect
         style="fill:#a57e3b;fill-opacity:1;fill-rule:evenodd;stroke:#848382;stroke-width:0;stroke-dasharray:none;stroke-opacity:1"
         id="rect36182"
         width="1.4573635"
         height="4.9550481"
         x="42.381142"
         y="24.75577"
         rx="0.94241267"
         ry="0.94240314"
         transform="matrix(0.89154082,-0.45294036,0.45293737,0.89154234,0,0)" />
      <rect
         style="fill:#dea43f;fill-opacity:1;fill-rule:evenodd;stroke-width:0.313593"
         id="rect32077"
         width="2.4045267"
         height="17.437759"
         x="41.907562"
         y="9.1232271"
         rx="0.94241267"
         ry="0.94240302"
         transform="matrix(0.89154082,-0.45294036,0.45293739,0.89154233,0,0)" />
      <path
         style="fill:#e5b869;fill-opacity:1;stroke:#fff4b3;stroke-width:1.43195;stroke-linecap:round;stroke-linejoin:round;stroke-miterlimit:8;stroke-dasharray:none;stroke-opacity:1;paint-order:fill markers stroke"
         d="M 44.164794,-9.2192297 48.72545,-0.148192"
         id="path35166" />
      <rect
         style="fill:#dea43f;fill-opacity:1;fill-rule:evenodd;stroke-width:0.313591"
         id="rect32077-0"
         width="2.4045327"
         height="7.3333302"
         x="8.874404"
         y="39.041763"
         rx="0.94240326"
         ry="0.94241256"
         transform="matrix(0.4627695,0.88647864,0.88648021,-0.46276651,0,0)" />
      <path
         id="rect32077-0-9"
         style="fill:#fff4b3;fill-opacity:1;fill-rule:evenodd;stroke-width:0.313591"
         d="m 40.348204,-10.35231 0.01635,0.03132 c 1.164611,-0.150849 3.167082,-0.781998 4.848747,-1.582373 0.439239,-0.229295 0.283546,-0.721455 0.129557,-1.016436 l -0.01635,-0.03132 c -0.153989,-0.294981 -0.63157,-0.347862 -1.070808,-0.118568 l -3.392606,1.771032 c -0.439239,0.229294 -0.66888,0.651364 -0.51489,0.946345 z"
         sodipodi:nodetypes="sccsssss" />
      <path
         id="path32079"
         style="fill:url(#linearGradient42484);fill-opacity:1;stroke:#848382;stroke-width:0;stroke-linecap:round;stroke-linejoin:round;stroke-miterlimit:8;stroke-dasharray:none;stroke-opacity:1;paint-order:fill markers stroke"
         d="m 55.6128,3.122776 c -2.081845,0.595527 -3.8228,1.712621 -4.466351,2.334413 -1.859713,0.125263 -3.34693,0.793067 -4.599208,1.903338 2.698715,6.894619 7.156366,9.274192 9.34092,8.654172 0.006,0.01149 0.01205,0.02287 0.01798,0.03436 0.01694,-0.01794 0.0341,-0.03666 0.0511,-0.05527 0.01067,-0.0032 0.02161,-0.0061 0.03217,-0.0094 -0.0027,-0.0056 -0.0053,-0.01068 -0.0081,-0.01624 1.605872,-1.785454 3.400497,-6.508408 -0.368572,-12.845342 z"
         sodipodi:nodetypes="cccccccccc" />
      <path
         id="rect32139"
         style="fill:#756653;fill-opacity:1;fill-rule:evenodd;stroke-width:0.313591"
         d="m 48.179129,3.326879 c -0.181498,0.180615 0.267639,0.80998 0.427905,1.00967 0.55671,0.693608 1.151942,0.752293 1.88475,0.379996 l 0.385735,-0.19597 c 0.732807,-0.372297 1.175759,-0.951886 0.897,-1.725129 -0.133166,-0.369393 -0.422236,-1.017676 -0.675703,-0.981473 -1.278726,0.265375 -2.073247,0.670582 -2.91969,1.5129 z"
         sodipodi:nodetypes="csssscc" />
      <path
         style="fill:#62421f;fill-opacity:1;stroke:#848382;stroke-width:0;stroke-linecap:round;stroke-linejoin:round;stroke-miterlimit:8;stroke-dasharray:none;stroke-opacity:1;paint-order:fill markers stroke"
         d="m 61.886169,17.052865 c 0.615368,-0.06018 1.157436,0.365267 1.810727,0.252635 0.932065,-0.160695 1.922309,-0.849592 2.238172,-0.76374 0.537259,0.146029 2.717595,0.584121 2.174417,-0.292058 -0.543175,-0.876179 0.456891,-1.752356 -1.0487,-2.117432 -1.505591,-0.365076 -2.292438,-1.241253 -3.429136,-2.190446 -1.136699,-0.949193 -1.726833,-0.547611 -2.59533,-0.474597 -0.868499,0.073 -0.471732,-0.393164 -1.421453,-0.32015 -0.949721,0.07301 -1.587646,-0.266681 -2.605135,0.04981 -0.976913,0.303868 -0.955521,1.377143 -1.386596,1.304129 -0.431075,-0.073 -2.699561,-0.44061 -2.794531,0.07034 -0.195645,1.052607 -1.365443,0.515734 -2.277512,0.223675 -0.912069,-0.292061 -1.833653,-0.05005 -2.221156,0.242012 -0.387505,0.292058 -2.52427,0.219045 -2.649492,0.803164 -0.125222,0.584117 -0.294443,1.752357 -1.212857,1.679342 -0.918418,-0.07302 -2.317827,-0.365074 -2.468007,0.146029 -0.150179,0.511105 -1.324958,0.876178 -1.468793,1.168239 -0.05938,0.12058 0.436559,0.610368 1.722292,0.679552 1.263034,0.06796 1.996816,-0.577493 3.907722,-0.489776 0.855455,0.03927 2.667612,0.426918 3.476402,0.506459 0.658223,0.06473 2.223393,0.107666 2.986562,0.172679 0.689258,0.05872 1.476045,-0.379749 2.095578,-0.431271 1.164365,-0.09684 2.15108,-0.280503 3.175099,-0.310965 1.003273,-0.02984 1.085696,0.355134 1.790889,0.415485 0.637766,0.05459 1.932802,-0.209532 2.200838,-0.323121 z"
         id="path30780"
         sodipodi:nodetypes="csssssssscsssscsssssssssc" />
      <path
         style="fill:#493117;fill-opacity:1;stroke:#848382;stroke-width:0;stroke-linecap:round;stroke-linejoin:round;stroke-miterlimit:8;stroke-dasharray:none;stroke-opacity:1;paint-order:fill markers stroke"
         d="m 47.472976,15.804796 c -0.631769,0.154888 -0.344601,1.084214 0.172301,0.980956 0.516902,-0.103259 0.516902,-1.032587 -0.172301,-0.980956 z"
         id="path31250" />
      <path
         style="fill:#493117;fill-opacity:1;stroke:#848382;stroke-width:0;stroke-linecap:round;stroke-linejoin:round;stroke-miterlimit:8;stroke-dasharray:none;stroke-opacity:1;paint-order:fill markers stroke"
         d="m 53.388632,15.443391 c -0.344602,0 -0.918936,-0.103259 -1.091236,0.206516 -0.172302,0.309777 0.459467,0.361406 0.746634,0.413035 0.287168,0.05163 0.918938,-0.309777 0.344602,-0.619551 z"
         id="path31321" />
      <path
         style="fill:#493117;fill-opacity:1;stroke:#848382;stroke-width:0;stroke-linecap:round;stroke-linejoin:round;stroke-miterlimit:8;stroke-dasharray:none;stroke-opacity:1;paint-order:fill markers stroke"
         d="m 49.483151,13.94614 c -0.918937,0.206518 -0.976371,0.929328 -0.402036,0.877698 0.574337,-0.05163 0.976371,-0.929328 0.402036,-0.877698 z"
         id="path31323" />
      <path
         style="fill:#493117;fill-opacity:1;stroke:#848382;stroke-width:0;stroke-linecap:round;stroke-linejoin:round;stroke-miterlimit:8;stroke-dasharray:none;stroke-opacity:1;paint-order:fill markers stroke"
         d="m 62.980036,15.83061 c -0.258452,0.283961 -0.315885,0.645367 0.05744,0.593737 0.373318,-0.05163 0.287167,-0.748624 -0.05744,-0.593737 z"
         id="path31327" />
      <path
         style="fill:#493117;fill-opacity:1;stroke:#848382;stroke-width:0;stroke-linecap:round;stroke-linejoin:round;stroke-miterlimit:8;stroke-dasharray:none;stroke-opacity:1;paint-order:fill markers stroke"
         d="m 66.655781,15.77898 c -0.402034,-0.180702 -0.717918,-0.129073 -0.890218,0.05163 -0.172302,0.180702 0.1723,0.464663 0.488184,0.438849 0.315886,-0.02581 0.71792,-0.413034 0.402034,-0.490479 z"
         id="path31329" />
      <path
         style="fill:#493117;fill-opacity:1;stroke:#848382;stroke-width:0;stroke-linecap:round;stroke-linejoin:round;stroke-miterlimit:8;stroke-dasharray:none;stroke-opacity:1;paint-order:fill markers stroke"
         d="m 64.703042,14.72058 c -0.229734,-0.103259 -0.89022,-0.258147 -0.832787,-0.02581 0.05743,0.232331 0.287168,0.309775 0.459468,0.361404 0.172301,0.05163 0.516903,-0.258147 0.373319,-0.33559 z"
         id="path31331" />
      <path
         style="fill:#62421f;fill-opacity:1;stroke:#848382;stroke-width:0;stroke-linecap:round;stroke-linejoin:round;stroke-miterlimit:8;stroke-dasharray:none;stroke-opacity:1;paint-order:fill markers stroke"
         d="m 60.549699,9.58279 c -0.568562,0.109522 -0.812232,0.03651 -0.893456,0.474597 -0.08122,0.438089 0,0.547611 0.609175,0.438089 0.609175,-0.109522 0.73101,-1.022209 0.284281,-0.912686 z"
         id="path31333" />
      <path
         style="fill:#62421f;fill-opacity:1;stroke:#848382;stroke-width:0;stroke-linecap:round;stroke-linejoin:round;stroke-miterlimit:8;stroke-dasharray:none;stroke-opacity:1;paint-order:fill markers stroke"
         d="m 44.008656,13.621167 c -0.406116,0.146028 -0.527951,0.255551 -0.527951,0.474596 0,0.219044 0.162446,0.073 0.527951,0.073 0.365505,0 0.24367,-0.584119 0,-0.547611 z"
         id="path31335" />
    </g>
  </g>
</svg>
