<?xml version="1.0" encoding="UTF-8" standalone="no"?>
<!-- Created with Inkscape (http://www.inkscape.org/) -->

<svg
   width="100"
   height="100"
   viewBox="0 0 26.458332 26.458332"
   version="1.1"
   id="svg2787"
   inkscape:version="1.2.2 (732a01da63, 2022-12-09)"
   sodipodi:docname="think01.svg"
   xmlns:inkscape="http://www.inkscape.org/namespaces/inkscape"
   xmlns:sodipodi="http://sodipodi.sourceforge.net/DTD/sodipodi-0.dtd"
   xmlns="http://www.w3.org/2000/svg"
   xmlns:svg="http://www.w3.org/2000/svg">
  <sodipodi:namedview
     id="namedview2789"
     pagecolor="#ffffff"
     bordercolor="#000000"
     borderopacity="0.25"
     inkscape:showpageshadow="2"
     inkscape:pageopacity="0.0"
     inkscape:pagecheckerboard="0"
     inkscape:deskcolor="#d1d1d1"
     inkscape:document-units="mm"
     showgrid="false"
     inkscape:zoom="1.3228492"
     inkscape:cx="-21.922378"
     inkscape:cy="85.421678"
     inkscape:window-width="1303"
     inkscape:window-height="689"
     inkscape:window-x="0"
     inkscape:window-y="0"
     inkscape:window-maximized="0"
     inkscape:current-layer="layer1"
     showguides="true"
     inkscape:lockguides="false" />
  <defs
     id="defs2784" />
  <g
     inkscape:label="Layer 1"
     inkscape:groupmode="layer"
     id="layer1">
    <g
       id="g4859"
       transform="matrix(-0.49051258,-0.09622484,-0.10393409,0.52981101,27.8691,48.712244)"
       style="fill:#a6dcdc;fill-opacity:1;stroke-width:1.92493">
      <path
         style="fill:#a6dcdc;fill-opacity:1;stroke:#000000;stroke-width:0;stroke-linecap:butt;stroke-linejoin:miter;stroke-dasharray:none;stroke-opacity:1"
         d="m 40.302056,-49.402518 c 0,0 -3.200164,3.300169 -7.500383,2.600132 -4.300219,-0.700037 -5.400275,-4.700239 -5.400275,-4.700239 0,0 -6.767939,0.07576 -7.500383,-7.000357 -0.732444,-7.076119 6.200316,-9.300475 6.200316,-9.300475 0,0 -1.300064,-6.300323 4.100211,-8.700445 5.400275,-2.400122 9.300472,1.700088 9.300472,1.700088 0,0 3.70019,-3.500179 9.000461,-2.000102 5.300271,1.500076 6.400326,5.800297 6.400326,5.800297 0,0 8.000407,0.100003 8.400428,5.300268 0.400021,5.200265 -3.200164,7.500384 -3.200164,7.500384 0,0 2.600132,5.200263 -1.600082,8.400427 -4.200214,3.200163 -7.900403,0.100005 -7.900403,0.100005 0,0 -0.400019,4.400226 -5.300269,4.500231 -4.900251,0.100006 -5.000255,-4.200214 -5.000255,-4.200214 z"
         id="path4522"
         sodipodi:nodetypes="czczczczczczczc" />
      <circle
         style="fill:#a6dcdc;fill-opacity:1;fill-rule:evenodd;stroke-width:0.509304"
         id="path4576"
         cx="53.602737"
         cy="-43.602219"
         r="2.9001479" />
      <circle
         style="fill:#a6dcdc;fill-opacity:1;fill-rule:evenodd;stroke-width:0.509304"
         id="path4578"
         cx="59.003014"
         cy="-39.602016"
         r="2.000102" />
    </g>
  </g>
</svg>
