<?xml version="1.0" encoding="UTF-8" standalone="no"?>
<!-- Created with Inkscape (http://www.inkscape.org/) -->

<svg
   width="100"
   height="100"
   viewBox="0 0 26.458332 26.458332"
   version="1.1"
   id="svg2787"
   inkscape:version="1.3.2 (091e20e, 2023-11-25, custom)"
   sodipodi:docname="mij.svg"
   xmlns:inkscape="http://www.inkscape.org/namespaces/inkscape"
   xmlns:sodipodi="http://sodipodi.sourceforge.net/DTD/sodipodi-0.dtd"
   xmlns:xlink="http://www.w3.org/1999/xlink"
   xmlns="http://www.w3.org/2000/svg"
   xmlns:svg="http://www.w3.org/2000/svg">
  <sodipodi:namedview
     id="namedview2789"
     pagecolor="#ffffff"
     bordercolor="#000000"
     borderopacity="0.25"
     inkscape:showpageshadow="2"
     inkscape:pageopacity="0.0"
     inkscape:pagecheckerboard="0"
     inkscape:deskcolor="#d1d1d1"
     inkscape:document-units="mm"
     showgrid="false"
     inkscape:zoom="3.7415824"
     inkscape:cx="73.498315"
     inkscape:cy="63.475817"
     inkscape:window-width="1920"
     inkscape:window-height="991"
     inkscape:window-x="-9"
     inkscape:window-y="-9"
     inkscape:window-maximized="1"
     inkscape:current-layer="layer1" />
  <defs
     id="defs2784">
    <linearGradient
       id="linearGradient1"
       inkscape:collect="always">
      <stop
         style="stop-color:#9accbb;stop-opacity:1;"
         offset="0"
         id="stop1" />
      <stop
         style="stop-color:#87c5bc;stop-opacity:1;"
         offset="0.21052632"
         id="stop3" />
      <stop
         style="stop-color:#15a29a;stop-opacity:0.99829352;"
         offset="1"
         id="stop2" />
    </linearGradient>
    <linearGradient
       inkscape:collect="always"
       id="linearGradient127555">
      <stop
         style="stop-color:#ff476b;stop-opacity:1;"
         offset="0"
         id="stop127551" />
      <stop
         style="stop-color:#d10029;stop-opacity:1;"
         offset="1"
         id="stop127553" />
    </linearGradient>
    <linearGradient
       inkscape:collect="always"
       xlink:href="#linearGradient29522"
       id="linearGradient31309"
       gradientUnits="userSpaceOnUse"
       gradientTransform="matrix(0.79324094,-0.60890789,0.79324094,0.60890789,4.892518,-8.867114)"
       x1="14.228266"
       y1="-29.189594"
       x2="3.6590269"
       y2="-18.620356" />
    <linearGradient
       inkscape:collect="always"
       id="linearGradient29522">
      <stop
         style="stop-color:#d4a125;stop-opacity:1;"
         offset="0"
         id="stop29518" />
      <stop
         style="stop-color:#edd495;stop-opacity:1;"
         offset="1"
         id="stop29520" />
    </linearGradient>
    <linearGradient
       inkscape:collect="always"
       xlink:href="#linearGradient29522"
       id="linearGradient31385"
       gradientUnits="userSpaceOnUse"
       gradientTransform="matrix(-0.79324094,-0.60890789,-0.79324094,0.60890789,5.1079993,-8.8671145)"
       x1="14.228266"
       y1="-29.189594"
       x2="3.6590269"
       y2="-18.620356" />
    <linearGradient
       inkscape:collect="always"
       xlink:href="#linearGradient29522"
       id="linearGradient29605"
       gradientUnits="userSpaceOnUse"
       gradientTransform="matrix(0.80013746,-0.61907549,0.80013746,0.61907549,17.509457,-0.36880917)"
       x1="14.228266"
       y1="-29.189594"
       x2="3.6590269"
       y2="-18.620356" />
    <radialGradient
       inkscape:collect="always"
       xlink:href="#linearGradient26559"
       id="radialGradient26561-8-4"
       cx="50.0355"
       cy="10.592171"
       fx="50.0355"
       fy="10.592171"
       r="5.7715068"
       gradientTransform="matrix(-0.94966531,1.7729145,0.98934138,0.4942698,56.352096,-87.898044)"
       gradientUnits="userSpaceOnUse" />
    <linearGradient
       inkscape:collect="always"
       id="linearGradient26559">
      <stop
         style="stop-color:#ffe9d9;stop-opacity:1;"
         offset="0"
         id="stop26555" />
      <stop
         style="stop-color:#ffd0af;stop-opacity:1;"
         offset="0.60792077"
         id="stop26563" />
      <stop
         style="stop-color:#ffb380;stop-opacity:1;"
         offset="1"
         id="stop26557" />
    </linearGradient>
    <radialGradient
       inkscape:collect="always"
       xlink:href="#linearGradient127555"
       id="radialGradient127557"
       cx="10.793171"
       cy="27.690676"
       fx="10.793171"
       fy="27.690676"
       r="12.047679"
       gradientTransform="matrix(-0.27135395,0.75184774,-1.9400269,-0.70018702,65.925391,28.605872)"
       gradientUnits="userSpaceOnUse" />
    <linearGradient
       inkscape:collect="always"
       xlink:href="#linearGradient1"
       id="linearGradient2"
       x1="22.530796"
       y1="1.7299881"
       x2="3.0935557"
       y2="24.690599"
       gradientUnits="userSpaceOnUse"
       gradientTransform="translate(-26.301342)" />
  </defs>
  <g
     inkscape:label="Layer 1"
     inkscape:groupmode="layer"
     id="layer1">
    <g
       id="g117847"
       transform="matrix(0.67134216,0,0,0.67134216,-82.51628,-11.043571)"
       style="stroke-width:1.48955">
      <path
         id="rect29651"
         style="fill:#b89644;fill-opacity:1;fill-rule:evenodd;stroke-width:0.377152"
         d="m -35.605293,27.319225 c -0.492538,-1e-6 -0.984675,0.144973 -1.362085,0.434689 l -11.14712,8.556916 h 0.0022 V 52.7082 h 25.014637 V 36.31083 h 0.0022 L -34.24267,27.753914 c -0.377408,-0.289716 -0.870084,-0.43469 -1.362623,-0.434689 z" />
      <rect
         style="mix-blend-mode:multiply;fill:#ddd3d3;fill-opacity:1;fill-rule:evenodd;stroke-width:0.385875"
         id="rect31549-1"
         width="22.808271"
         height="19.408148"
         x="-46.973419"
         y="31.062712" />
      <rect
         style="fill:#ffffff;fill-rule:evenodd;stroke-width:0.394111"
         id="rect31549"
         width="22.101128"
         height="20.893148"
         x="-46.655563"
         y="31.252985" />
      <text
         xml:space="preserve"
         style="font-style:normal;font-weight:normal;font-size:15.5252px;line-height:1.25;font-family:sans-serif;fill:#000000;fill-opacity:1;stroke:none;stroke-width:0.361336"
         x="-31.271276"
         y="52.282772"
         id="text33454"
         transform="matrix(0.99810239,0.29980889,-0.22385307,0.93466048,0,0)"><tspan
           sodipodi:role="line"
           id="tspan33452"
           style="font-style:normal;font-variant:normal;font-weight:bold;font-stretch:normal;font-size:15.5252px;font-family:Amiri;-inkscape-font-specification:'Amiri Bold';fill:#ff2e2e;fill-opacity:1;stroke-width:0.361336"
           x="-31.271276"
           y="52.282772">@</tspan></text>
      <path
         id="path31562"
         style="mix-blend-mode:normal;fill:#c5a761;fill-opacity:1;stroke:#000000;stroke-width:0;stroke-linecap:butt;stroke-linejoin:miter;stroke-dasharray:none;stroke-opacity:1"
         d="m -24.548379,36.496118 -11.088147,7.974712 -11.019009,-7.924561 v 2.948302 l 9.953777,8.797419 h 1.995262 l -0.0031,-0.05016 h 0.207925 l 9.953265,-8.797952 z" />
      <g
         id="g31560"
         transform="matrix(1,0,0,0.99165096,-40.605258,66.988617)"
         style="stroke-width:1.48955">
        <g
           id="g31553"
           style="stroke-width:1.48955">
          <path
             id="rect29033-76-4"
             style="fill:url(#linearGradient31309);fill-opacity:1;fill-rule:evenodd;stroke-width:0.439399"
             d="m -7.50924,-30.936074 v 16.535425 c 0.452893,10e-7 0.905606,-0.13307 1.252636,-0.399458 l 10.250021,-7.868254 -10.250021,-7.868254 c -0.34703,-0.266388 -0.799743,-0.399459 -1.252636,-0.399459 z" />
          <path
             id="rect29033-76-4-0"
             style="fill:url(#linearGradient31385);fill-opacity:1;fill-rule:evenodd;stroke-width:0.439399"
             d="m 17.509757,-30.936074 v 16.535425 c -0.452893,10e-7 -0.905606,-0.13307 -1.252636,-0.399458 L 6.0071003,-22.668361 16.257121,-30.536615 c 0.34703,-0.266388 0.799743,-0.399459 1.252636,-0.399459 z" />
        </g>
        <path
           id="rect29033-76-0"
           style="fill:#b89644;fill-opacity:1;fill-rule:evenodd;stroke-width:0.47522"
           d="m 5.0002539,-23.668412 c -0.4725829,-1e-6 -0.9449721,0.149165 -1.3070895,0.447776 l -10.6955936,8.819987 H 17.002935 L 6.3073434,-23.220636 C 5.945226,-23.519247 5.4728368,-23.668413 5.0002539,-23.668412 Z" />
        <path
           id="rect29033-76"
           style="fill:url(#linearGradient29605);fill-opacity:1;fill-rule:evenodd;stroke-width:0.444974"
           d="m 5.0002391,-22.806416 c -0.4568329,-1e-6 -0.9134785,0.135291 -1.2635274,0.406128 l -10.3391353,7.999639 H 16.6029 L 6.2637665,-22.400288 c -0.3500489,-0.270837 -0.8066946,-0.406129 -1.2635274,-0.406128 z" />
      </g>
    </g>
    <rect
       style="fill:url(#linearGradient2);stroke-width:0.220341"
       id="rect1"
       width="27.101383"
       height="27.101385"
       x="-26.701363"
       y="-0.30001554"
       transform="scale(-1,1)" />
    <g
       id="g1"
       transform="matrix(1.2968637,0,0,1.2968637,35.42311,8.2862622)">
      <path
         id="path13238-1-2-5-8"
         style="fill:#ffba8a;fill-opacity:1;stroke:#000000;stroke-width:0;stroke-linecap:butt;stroke-linejoin:miter;stroke-dasharray:none;stroke-opacity:1"
         d="m 18.335984,14.619543 c 0.711985,0.656215 1.161208,0.387238 1.559918,1.28953 0.39871,0.902298 0.854445,2.187377 0.484214,3.417776 -0.370229,1.230398 -2.078989,3.062607 -2.534659,4.074273 -0.455668,1.011658 -1.651893,2.32395 -2.648666,2.816111 -0.996776,0.492161 -2.392408,-0.109407 -2.848072,-0.08207 -0.455674,0.02733 -1.253124,-3.827947 -1.509444,-4.757582 -0.25631,-0.929634 -1.8226838,-1.640594 -0.284805,-3.581894 1.53788,-1.94129 0.813217,-3.816854 0.784739,-4.172305 -0.02853,-0.355443 1.02873,0.256085 1.228076,0.474826 0.199362,0.218741 1.015163,1.06212 2.204796,1.559079 1.049314,0.438353 1.988988,0.32675 2.216824,-0.05605 0.227835,-0.382787 1.520615,-1.566288 1.520615,-1.566288 z"
         sodipodi:nodetypes="cssssssscssscc" />
      <path
         style="fill:url(#radialGradient26561-8-4);fill-opacity:1;stroke:#000000;stroke-width:0;stroke-linecap:butt;stroke-linejoin:miter;stroke-dasharray:none;stroke-opacity:1"
         d="m 18.759074,4.6126141 c 0.644414,0.9280304 1.128203,3.7188189 1.248314,4.5443206 0.280891,1.9305043 -0.654352,4.9215203 -1.507528,5.5489243 -0.946483,0.696016 -1.619491,1.124206 -2.26391,1.201536 -0.96662,0.116003 -1.913097,-0.386673 -2.879715,-1.082697 -0.680819,-0.490226 -1.40165,-0.884117 -1.837379,-1.892831 -0.102158,-0.236521 -0.16522,-0.248952 -0.267377,-0.503198 -0.04172,-0.103848 -0.06902,-0.07697 -0.420282,-0.03393 -0.217222,0.02661 -1.3996048,-1.446007 -1.4825568,-1.874813 -0.05656,-0.29237 1.8561118,-0.281522 1.9084758,-0.439528 0.563855,-1.7013856 1.222961,-1.346263 1.384068,-2.1969554 0.161098,-0.8506844 1.149469,-3.4259686 2.409809,-4.3735613 1.573624,0.1460881 2.660909,0.1747138 3.708081,1.102736 z"
         id="path12892-7-4-9-0"
         sodipodi:nodetypes="cssssssssssccc" />
      <path
         style="fill:url(#radialGradient127557);fill-opacity:1;stroke:#000000;stroke-width:0;stroke-linecap:butt;stroke-linejoin:miter;stroke-dasharray:none;stroke-opacity:0"
         d="m 0.53517613,26.655467 c -0.70689,0.02717 -0.372597,-0.383931 -0.06454,-1.017867 0.413868,-0.851676 0.65919497,-2.142607 0.84608897,-2.688513 0.281981,-0.823639 1.007305,-3.566895 1.586144,-4.186832 1.057429,-1.132507 2.538461,-1.532679 4.793677,-1.990457 2.007865,-0.407573 2.7140709,-0.857966 2.7140709,-0.857966 0,0 0.341664,1.789908 0.775445,2.608193 0.563964,1.063869 1.029743,1.378397 1.527403,2.173492 1.652886,2.640752 2.127907,4.377133 2.943175,4.570062 0.815269,0.192938 0.939193,-0.778073 1.656226,-2.054131 1.29959,-2.312798 1.017124,-2.506345 1.944913,-3.934414 0.49346,-0.823639 1.004009,-1.844492 1.004009,-1.844492 l 1.604309,0.643348 c 0,0 0.577809,0.06185 1.656634,0.686365 1.304162,0.755002 1.656642,1.750234 1.797631,3.809336 0.05597,0.818011 0.184342,1.625184 0.318688,2.301042 0.203828,1.025405 0.902194,1.814274 -0.195318,1.791415 -0.89032,-0.01854 -2.797067,-0.04056 -2.797067,-0.04056 l -19.6065679,0.02394 c -0.8352,0.0056 -1.669917,-0.0097 -2.50491697,0.0081 z"
         id="path3866-5-8-8"
         sodipodi:nodetypes="csssscsszscccsssscccc" />
      <g
         id="g2"
         transform="matrix(-1,0,0,1,26.152868,0.14142857)">
        <g
           id="g27721-2-8"
           transform="matrix(-0.82629109,0,0,0.79799584,56.816502,-0.21801671)"
           style="stroke-width:1.21039">
          <ellipse
             style="fill:#aa0000;fill-opacity:1;fill-rule:evenodd;stroke-width:0.320244"
             id="path11936-3-7-4-3"
             cx="56.012829"
             cy="28.856459"
             rx="0.53422982"
             ry="0.59104741" />
          <ellipse
             style="fill:#ffffff;fill-rule:evenodd;stroke-width:0.320249"
             id="path12898-2-3-7-8"
             cx="61.47369"
             cy="-12.193314"
             rx="0.13521306"
             ry="0.17366834"
             transform="matrix(0.78456418,0.62004762,-0.62454848,0.78098604,0,0)" />
        </g>
        <path
           style="fill:none;stroke:#848382;stroke-width:0.18352;stroke-linecap:round;stroke-linejoin:miter;stroke-dasharray:none;stroke-opacity:1"
           d="m 14.198365,17.657998 c 0,0 -1.100869,3.159677 -3.491259,4.429104 -0.716805,0.380657 -1.941879,-1.236955 -2.99546,-4.508908"
           id="path27717-0-1"
           sodipodi:nodetypes="csc" />
      </g>
      <path
         style="fill:#916f6f;stroke:#000000;stroke-width:0;stroke-linecap:butt;stroke-linejoin:miter;stroke-dasharray:none;stroke-opacity:1"
         d="m 16.519996,1.2401715 c 2.313734,0.4788241 4.131667,2.3143063 4.710098,3.5911595 0.578435,1.276861 2.148469,5.1074364 1.322135,5.985279 -0.826333,0.877843 -1.074234,1.516269 -1.074234,1.516269 0,0 0.661067,1.51627 0.413167,2.553714 -0.247901,1.037454 -0.908966,2.713326 -0.908966,2.713326 L 20.403761,16.24326 c 0,0 0.08264,1.596066 -0.247898,1.915288 -0.330534,0.319213 -1.726136,1.991908 -1.726136,1.991908 0,0 0.369774,-1.366343 -0.433216,-2.624666 -0.620737,-0.972727 0.176152,-2.719002 0.176152,-2.719002 0,0 1.404767,-1.835482 1.570032,-3.271945 0.165269,-1.436465 -0.2479,-5.9054749 -1.652665,-7.182328 -1.23905,-1.1262332 -3.2227,-0.9576478 -3.2227,-0.9576478 0,0 -0.395194,2.8590419 -1.4874,4.3093992 -0.661062,0.8778345 -1.637265,1.5649813 -2.024513,2.6734186 -0.530621,0.188464 -0.824108,0.200603 -1.17082,0.296379 -0.3055408,0.439052 0.0074,1.184636 0.327121,1.338992 0.495802,0.239408 1.000704,0.05636 1.000704,0.05636 0,0 1.206446,4.173847 0.958545,5.131486 -0.247901,0.957649 -2.9748008,1.67588 -2.9748008,1.67588 l 0.6610628,-1.197058 c 0,0 -0.6610628,0.877843 -1.4873958,0.877843 -0.826334,0 -0.991604,-0.478823 -0.991604,-0.478823 0,0 0.684611,0.639724 0.743703,-0.55863 0.123947,-2.513815 0.867649,-1.915288 1.115549,-2.952732 0.247901,-1.037446 -0.619747,0.558629 -1.19818,0.798036 -0.578441,0.239408 0.661064,-0.478824 0.578433,-1.436463 C 8.8350942,12.971307 7.2237522,10.696907 7.5542832,9.4998512 7.8848152,8.3027943 8.1798272,5.150143 10.245663,3.394466 12.311492,1.6387809 14.426895,1.0278334 16.519996,1.2401715 Z"
         id="path26059-6-5"
         sodipodi:nodetypes="csscsccscscsscsccscsccscssssssc" />
      <path
         style="fill:none;fill-opacity:1;stroke:#685050;stroke-width:0.231327;stroke-linecap:round;stroke-linejoin:round;stroke-miterlimit:8;stroke-dasharray:none;stroke-opacity:1;paint-order:fill markers stroke"
         d="m 14.672874,3.4411737 c 1.58157,0 2.982987,0.2354421 3.817581,1.4401064 0.795376,1.1480548 1.450344,3.7201205 1.308885,5.6537509 -0.137712,1.882428 -0.92221,3.127121 -1.565596,4.02886 -1.287691,1.804763 -2.669339,2.044273 -4.542533,0.771495 -0.818053,-0.586709 -1.547686,-1.170971 -2.188895,-3.11644"
         id="path28002"
         sodipodi:nodetypes="cssscc" />
    </g>
    <g
       id="g3"
       style="fill:#d9f0f0;fill-opacity:1"
       transform="matrix(1.2001701,0.35860701,-0.36953002,1.164694,6.7287352,5.1705336)">
      <path
         style="fill:#d9f0f0;fill-opacity:1;stroke:#000000;stroke-width:0;stroke-linecap:butt;stroke-linejoin:miter;stroke-dasharray:none;stroke-opacity:1"
         d="m 8.4925362,9.6491267 c 0,0 -0.7364067,2.1218313 -2.6736579,2.5798083 C 3.881627,12.686913 2.6807827,11.02306 2.6807827,11.02306 c 0,0 -2.83162461,1.269628 -4.4456296,-1.8949388 -1.6140052,-3.1645682 0.89035058,-5.4657075 0.89035058,-5.4657075 0,0 -1.70947398,-2.69945213 0.11810105,-4.8030252 1.82757487,-2.1035731 4.22420857,-0.9037892 4.22420857,-0.9037892 0,0 0.9097285,-2.3062485 3.4151199,-2.5737169 2.5053913,-0.2674689 3.7616098,1.5362211 3.7616098,1.5362211 0,0 3.382262,-1.41248 4.510271,0.9383869 1.128007,2.35086704 0.03883,4.079534 0.03883,4.079534 0,0 2.053054,1.9496162 0.877714,4.2072218 -1.17534,2.2576051 -3.303299,1.4874645 -3.303299,1.4874645 0,0 0.643965,2.1238809 -1.397908,3.0641863 C 9.3282791,11.635203 8.4925362,9.6491267 8.4925362,9.6491267 Z"
         id="path4522"
         sodipodi:nodetypes="czczczczczczczc" />
      <ellipse
         style="fill:#d9f0f0;fill-opacity:1;fill-rule:evenodd;stroke-width:0.236311"
         id="path4576"
         cx="11.953953"
         cy="12.915872"
         transform="matrix(0.97174992,-0.23601292,0.24909201,0.96847982,0,0)"
         rx="1.3163326"
         ry="1.3755946" />
      <ellipse
         style="fill:#d9f0f0;fill-opacity:1;fill-rule:evenodd;stroke-width:0.236311"
         id="path4578"
         cx="14.405055"
         cy="14.813243"
         transform="matrix(0.97174992,-0.23601292,0.24909201,0.96847982,0,0)"
         rx="0.90781558"
         ry="0.94868594" />
    </g>
  </g>
</svg>
