<?xml version="1.0" encoding="UTF-8" standalone="no"?>
<!-- Created with Inkscape (http://www.inkscape.org/) -->

<svg
   width="100"
   height="100"
   viewBox="0 0 26.458332 26.458332"
   version="1.1"
   id="svg2787"
   inkscape:version="1.2.2 (732a01da63, 2022-12-09)"
   sodipodi:docname="questionmark.svg"
   xml:space="preserve"
   xmlns:inkscape="http://www.inkscape.org/namespaces/inkscape"
   xmlns:sodipodi="http://sodipodi.sourceforge.net/DTD/sodipodi-0.dtd"
   xmlns:xlink="http://www.w3.org/1999/xlink"
   xmlns="http://www.w3.org/2000/svg"
   xmlns:svg="http://www.w3.org/2000/svg"><sodipodi:namedview
     id="namedview2789"
     pagecolor="#ffffff"
     bordercolor="#000000"
     borderopacity="0.25"
     inkscape:showpageshadow="2"
     inkscape:pageopacity="0.0"
     inkscape:pagecheckerboard="0"
     inkscape:deskcolor="#d1d1d1"
     inkscape:document-units="mm"
     showgrid="false"
     inkscape:zoom="2.8284273"
     inkscape:cx="12.904698"
     inkscape:cy="79.195956"
     inkscape:window-width="1366"
     inkscape:window-height="705"
     inkscape:window-x="-8"
     inkscape:window-y="-8"
     inkscape:window-maximized="1"
     inkscape:current-layer="layer1"
     inkscape:lockguides="true" /><defs
     id="defs2784"><mask
       maskUnits="userSpaceOnUse"
       id="mask26974"><path
         id="path26976"
         style="fill:#ffffff;fill-rule:evenodd;stroke:#c0e506;stroke-width:0;stroke-dasharray:none;stroke-opacity:1"
         d="M 4.4567842,9.3361618 C 5.0797253,13.076748 8.317584,15.8187 12.111751,15.8187 c 2.606497,-10e-7 5.038895,-1.307782 6.475385,-3.481496 L 16.405279,23.578846 C 9.8045434,26.660443 2.9604923,30.41704 1.6720464,18.761313 Z"
         sodipodi:nodetypes="cscccc" /></mask><mask
       maskUnits="userSpaceOnUse"
       id="mask52005"><circle
         style="fill:#ffffff;fill-rule:evenodd;stroke-width:0.264583"
         id="circle52007"
         cx="10.456643"
         cy="7.7537866"
         r="7.7671599" /></mask><mask
       maskUnits="userSpaceOnUse"
       id="mask52005-7"><circle
         style="fill:#ffffff;fill-rule:evenodd;stroke-width:0.264583"
         id="circle52007-2"
         cx="10.456643"
         cy="7.7537866"
         r="7.7671599" /></mask><mask
       maskUnits="userSpaceOnUse"
       id="mask52191"><circle
         style="fill:#ffffff;fill-rule:evenodd;stroke-width:0.240503"
         id="circle52193"
         cx="10.456643"
         cy="7.7537866"
         r="7.0602455" /></mask><mask
       maskUnits="userSpaceOnUse"
       id="mask52005-7-5"><circle
         style="fill:#ffffff;fill-rule:evenodd;stroke-width:0.264583"
         id="circle52007-2-4"
         cx="10.456643"
         cy="7.7537866"
         r="7.7671599" /></mask><mask
       maskUnits="userSpaceOnUse"
       id="mask52191-9"><circle
         style="fill:#ffffff;fill-rule:evenodd;stroke-width:0.240503"
         id="circle52193-5"
         cx="10.456643"
         cy="7.7537866"
         r="7.0602455" /></mask><mask
       maskUnits="userSpaceOnUse"
       id="mask2800"><g
         id="g2804"
         style="stroke-width:0.859666"
         transform="matrix(0.94845896,-0.60858602,0.67587802,0.99297963,2.1311592,-3.3603817)"><circle
           style="fill:#ffffff;fill-rule:evenodd;stroke-width:0.227453"
           id="circle2802"
           cx="5.5892658"
           cy="7.5853982"
           r="6.6851969"
           transform="rotate(-8.3419391)" /></g></mask><mask
       maskUnits="userSpaceOnUse"
       id="mask2806"><g
         id="g2810"
         style="stroke-width:0.859666"
         transform="matrix(0.94845896,-0.60858602,0.67587802,0.99297963,2.1311592,-3.3603817)"><circle
           style="fill:#ffffff;fill-rule:evenodd;stroke-width:0.227453"
           id="circle2808"
           cx="5.5892658"
           cy="7.5853982"
           r="6.6851969"
           transform="rotate(-8.3419391)" /></g></mask><mask
       maskUnits="userSpaceOnUse"
       id="mask2812"><g
         id="g2816"
         style="stroke-width:0.860699"
         transform="matrix(1.1495522,0.16856097,-0.16856097,1.1495522,3.9627847,-1.0592676)"><circle
           style="fill:#ffffff;fill-rule:evenodd;stroke-width:0.227727"
           id="circle2814"
           cx="5.5892658"
           cy="7.5853982"
           r="6.6851969"
           transform="rotate(-8.3419391)" /></g></mask><mask
       maskUnits="userSpaceOnUse"
       id="mask2818"><g
         id="g2822"
         style="stroke-width:0.860699"
         transform="matrix(1.1495522,0.16856097,-0.16856097,1.1495522,3.9627847,-1.0592676)"><circle
           style="fill:#ffffff;fill-rule:evenodd;stroke-width:0.227727"
           id="circle2820"
           cx="5.5892658"
           cy="7.5853982"
           r="6.6851969"
           transform="rotate(-8.3419391)" /></g></mask><mask
       maskUnits="userSpaceOnUse"
       id="mask2824"><g
         id="g2828"
         style="stroke-width:0.860699"
         transform="matrix(1.1495522,0.16856097,-0.16856097,1.1495522,3.9627847,-1.0592676)"><circle
           style="fill:#ffffff;fill-rule:evenodd;stroke-width:0.227727"
           id="circle2826"
           cx="5.5892658"
           cy="7.5853982"
           r="6.6851969"
           transform="rotate(-8.3419391)" /></g></mask><mask
       maskUnits="userSpaceOnUse"
       id="mask2830"><g
         id="g2834"
         style="stroke-width:0.860699"
         transform="matrix(1.1495522,0.16856097,-0.16856097,1.1495522,3.9627847,-1.0592676)"><circle
           style="fill:#ffffff;fill-rule:evenodd;stroke-width:0.227727"
           id="circle2832"
           cx="5.5892658"
           cy="7.5853982"
           r="6.6851969"
           transform="rotate(-8.3419391)" /></g></mask><linearGradient
       inkscape:collect="always"
       xlink:href="#linearGradient93376-0"
       id="linearGradient93378-6"
       x1="18.534082"
       y1="11.914744"
       x2="17.741018"
       y2="2.560312"
       gradientUnits="userSpaceOnUse"
       gradientTransform="matrix(0.84414892,0,0,0.84414892,-23.516297,12.632976)" /><linearGradient
       inkscape:collect="always"
       id="linearGradient93376-0"><stop
         style="stop-color:#fe005b;stop-opacity:0.55348837;"
         offset="0"
         id="stop93372-3" /><stop
         style="stop-color:#fe005b;stop-opacity:0;"
         offset="0.80034423"
         id="stop93374-8" /></linearGradient></defs><g
     inkscape:label="Layer 1"
     inkscape:groupmode="layer"
     id="layer1"><g
       id="g12197"
       transform="translate(21.034375,-9.524999)"><path
         style="fill:#fe005b;fill-opacity:1;stroke-width:0.844146"
         d="m -9.8692407,22.365302 c 2.0258132,0.219378 3.3495972,-0.496929 4.0515922,-2.345315 0.6467048,-1.878292 -0.05888,-4.021121 -2.677158,-4.15395 0.543486,0.422302 0.905013,0.990034 0.523434,2.054324 -0.410322,1.144465 -1.6441022,1.290349 -2.6062955,0.734204 -0.740198,-0.427832 -0.909494,-1.317786 -0.659523,-2.171571 0.295124,-1.008004 1.231523,-1.558783 2.4315725,-1.746346 3.6193538,-0.565692 6.7781097,1.840775 5.9859147,5.494701 -0.639821,2.951116 -3.3929157,3.713027 -5.6786647,3.384585 -0.382057,0.793979 -1.0764792,2.215459 -1.0764792,2.215459 L -10.69847,25.418771 Z"
         id="path60165-05"
         sodipodi:nodetypes="cccssssscccc" /><circle
         style="fill:#fe005b;fill-opacity:1;fill-rule:evenodd;stroke-width:0.223347"
         id="path59885-0"
         cx="-0.44251069"
         cy="31.470072"
         r="1.5167594"
         transform="rotate(20.424435)" /><path
         style="fill:url(#linearGradient93378-6);fill-opacity:1;stroke-width:0.844145"
         d="m -9.8692417,22.365302 c 2.0258137,0.219379 3.3495977,-0.496929 4.0515927,-2.345314 0.646704,-1.878293 -0.05889,-4.021122 -2.677158,-4.153951 0.543487,0.422302 0.905014,0.990035 0.523434,2.054324 -0.410322,1.144465 -1.6441027,1.290349 -2.606296,0.734204 -0.740197,-0.427831 -0.909493,-1.317785 -0.659523,-2.171571 0.295125,-1.008004 1.231524,-1.558783 2.431574,-1.746346 3.619352,-0.565692 6.7781087,1.840775 5.9859137,5.494701 -0.639821,2.951117 -3.3929167,3.713027 -5.6786637,3.384586 -0.382057,0.793978 -1.0764797,2.215458 -1.0764797,2.215458 l -1.1236233,-0.412622 z"
         id="path60165-3-3"
         sodipodi:nodetypes="cccssssscccc" /></g></g></svg>
