<?xml version="1.0" encoding="UTF-8" standalone="no"?>
<!-- Created with Inkscape (http://www.inkscape.org/) -->

<svg
   width="7.5mm"
   height="7.5mm"
   viewBox="0 0 7.5 7.5"
   version="1.1"
   id="svg1"
   inkscape:version="1.3.2 (091e20e, 2023-11-25, custom)"
   sodipodi:docname="at.svg"
   xmlns:inkscape="http://www.inkscape.org/namespaces/inkscape"
   xmlns:sodipodi="http://sodipodi.sourceforge.net/DTD/sodipodi-0.dtd"
   xmlns="http://www.w3.org/2000/svg"
   xmlns:svg="http://www.w3.org/2000/svg">
  <sodipodi:namedview
     id="namedview1"
     pagecolor="#ffffff"
     bordercolor="#000000"
     borderopacity="0.25"
     inkscape:showpageshadow="2"
     inkscape:pageopacity="0.0"
     inkscape:pagecheckerboard="0"
     inkscape:deskcolor="#d1d1d1"
     inkscape:document-units="mm"
     inkscape:zoom="3.9156336"
     inkscape:cx="-25.666345"
     inkscape:cy="51.460382"
     inkscape:window-width="1920"
     inkscape:window-height="991"
     inkscape:window-x="-9"
     inkscape:window-y="-9"
     inkscape:window-maximized="1"
     inkscape:current-layer="layer1" />
  <defs
     id="defs1" />
  <g
     inkscape:label="Layer 1"
     inkscape:groupmode="layer"
     id="layer1">
    <path
       d="M 5.0319991,2.359845 Q 5.6001298,2.5310333 5.99998,2.8350616 6.4007257,3.1353695 6.5993268,3.5144223 6.801901,3.8946722 6.8488231,4.3197941 6.8957439,4.744916 6.7893005,5.1876684 6.6551278,5.7457595 6.2893397,6.1861784 5.9235512,6.6265984 5.4392017,6.8158264 4.954852,7.0050544 4.5019372,6.8685814 4.180129,6.7716154 3.9881601,6.5421964 3.8001658,6.3139744 3.8770916,5.9940024 3.910189,5.8563394 3.9607523,5.7877824 3.7444829,6.0138964 3.3458538,6.2010224 2.9520919,6.3856244 2.6302837,6.2886574 2.4634198,6.2383784 2.3452299,6.1628664 2.2279352,6.0836324 2.135082,5.9558994 2.0470961,5.8256454 2.0291472,5.6167398 2.0160628,5.4053108 2.083151,5.1262657 2.2101677,4.5979391 2.7156133,4.1437391 3.2250308,3.6907359 3.8865834,3.4910605 4.5521085,3.2925823 5.1003743,3.4577831 5.3149131,3.5224275 5.5779171,3.6335971 5.840921,3.7447662 5.9432187,3.8154918 L 4.956193,5.9361034 q -0.045309,0.08211 -0.068566,0.178846 -0.0018,0.0074 -0.016504,0.05089 -0.010736,0.04465 -0.016101,0.06697 -4.83e-4,0.01981 -0.00726,0.06565 -0.00586,0.04212 -2.073e-4,0.07176 0.00655,0.02592 0.020153,0.05794 0.013607,0.03203 0.041809,0.05649 0.033071,0.02193 0.076775,0.03511 0.1509716,0.04549 0.3628506,-0.0383 0.211882,-0.08379 0.4196013,-0.256616 Q 5.981328,6.0494874 6.1624452,5.7569199 6.3475342,5.4655495 6.4271431,5.1344149 6.5210636,4.743752 6.489431,4.3790985 6.4626826,4.0119132 6.3046002,3.6769908 6.146516,3.342071 5.8017877,3.0746025 5.4610317,2.808331 4.9604405,2.6574937 4.5671195,2.5389788 4.1619609,2.5405912 3.7616696,2.5396779 3.4123182,2.645891 3.0638613,2.7483815 2.7412179,2.9384525 2.4234408,3.1259998 2.1752837,3.3784161 1.9319941,3.6283093 1.7570346,3.9307127 q -0.17496,0.3024034 -0.2518853,0.6223759 -0.1484842,0.6176202 0.04115,1.1934775 0.1896338,0.5758573 0.589671,0.9677243 0.2414319,0.236343 0.5635307,0.38527 -0.010736,0.04465 -0.1344989,0.06322 -0.1237657,0.01857 -0.2191163,-0.01016 Q 2.1750492,7.1011404 2.0044224,6.9779024 1.4726754,6.6022084 1.2033966,5.9145714 0.93411744,5.2269322 1.1148029,4.4753693 1.2194575,4.0400579 1.4768729,3.6427961 1.7342884,3.2455347 2.1142607,2.9410636 2.4991007,2.6340689 2.9538504,2.4439026 3.4125742,2.2549337 3.9521271,2.2259845 4.4956527,2.1982325 5.032,2.3598437 Z M 4.6700512,3.7590533 Q 4.3522152,3.6632837 4.0207311,3.8546809 3.6932201,4.0472754 3.4518006,4.4134463 3.2143547,4.7808138 3.1105945,5.2124041 3.0631875,5.4095961 3.1255445,5.54011 3.1887985,5.6669027 3.331824,5.7099991 3.5860931,5.7866141 3.9081556,5.4926255 4.2350865,5.1961127 4.5119942,4.6291585 L 4.8533829,3.9180383 Q 4.8120705,3.8417488 4.7768164,3.8111748 4.7455323,3.7817964 4.6700463,3.7590523 Z"
       style="font-weight:bold;font-size:10.4227px;line-height:1.25;font-family:Amiri;-inkscape-font-specification:'Amiri Bold';fill:#ff2e2e;stroke-width:0.189782"
       id="path9406" />
  </g>
</svg>
