<?xml version="1.0" encoding="UTF-8" standalone="no"?>
<!-- Created with Inkscape (http://www.inkscape.org/) -->

<svg
   width="100"
   height="100"
   viewBox="0 0 26.458332 26.458332"
   version="1.1"
   id="svg2787"
   inkscape:version="1.2.2 (732a01da63, 2022-12-09)"
   sodipodi:docname="contact.svg"
   xmlns:inkscape="http://www.inkscape.org/namespaces/inkscape"
   xmlns:sodipodi="http://sodipodi.sourceforge.net/DTD/sodipodi-0.dtd"
   xmlns:xlink="http://www.w3.org/1999/xlink"
   xmlns="http://www.w3.org/2000/svg"
   xmlns:svg="http://www.w3.org/2000/svg">
  <sodipodi:namedview
     id="namedview2789"
     pagecolor="#ffffff"
     bordercolor="#000000"
     borderopacity="0.25"
     inkscape:showpageshadow="2"
     inkscape:pageopacity="0.0"
     inkscape:pagecheckerboard="0"
     inkscape:deskcolor="#d1d1d1"
     inkscape:document-units="mm"
     showgrid="false"
     inkscape:zoom="2.6456983"
     inkscape:cx="-69.168884"
     inkscape:cy="49.89231"
     inkscape:window-width="1366"
     inkscape:window-height="705"
     inkscape:window-x="-8"
     inkscape:window-y="-8"
     inkscape:window-maximized="1"
     inkscape:current-layer="layer1" />
  <defs
     id="defs2784">
    <linearGradient
       inkscape:collect="always"
       xlink:href="#linearGradient29522"
       id="linearGradient31309"
       gradientUnits="userSpaceOnUse"
       gradientTransform="matrix(0.79324094,-0.60890789,0.79324094,0.60890789,4.892518,-8.867114)"
       x1="14.228266"
       y1="-29.189594"
       x2="3.6590269"
       y2="-18.620356" />
    <linearGradient
       inkscape:collect="always"
       id="linearGradient29522">
      <stop
         style="stop-color:#d4a125;stop-opacity:1;"
         offset="0"
         id="stop29518" />
      <stop
         style="stop-color:#edd495;stop-opacity:1;"
         offset="1"
         id="stop29520" />
    </linearGradient>
    <linearGradient
       inkscape:collect="always"
       xlink:href="#linearGradient29522"
       id="linearGradient31385"
       gradientUnits="userSpaceOnUse"
       gradientTransform="matrix(-0.79324094,-0.60890789,-0.79324094,0.60890789,5.1079993,-8.8671145)"
       x1="14.228266"
       y1="-29.189594"
       x2="3.6590269"
       y2="-18.620356" />
    <linearGradient
       inkscape:collect="always"
       xlink:href="#linearGradient29522"
       id="linearGradient29605"
       gradientUnits="userSpaceOnUse"
       gradientTransform="matrix(0.80013746,-0.61907549,0.80013746,0.61907549,17.509457,-0.36880917)"
       x1="14.228266"
       y1="-29.189594"
       x2="3.6590269"
       y2="-18.620356" />
  </defs>
  <g
     inkscape:label="Layer 1"
     inkscape:groupmode="layer"
     id="layer1">
    <circle
       style="fill:#ade3f4;fill-opacity:1;fill-rule:evenodd;stroke-width:0.223867"
       id="path29876"
       cx="13.229167"
       cy="14.816666"
       r="11" />
    <g
       id="g66786"
       transform="matrix(0.94377863,0.25513306,-0.25513306,0.94377863,6.2660396,-3.448306)">
      <path
         id="rect29651"
         style="fill:#b89644;fill-opacity:1;fill-rule:evenodd;stroke-width:0.253198"
         d="m 13.228957,7.2969765 c -0.330662,-7e-7 -0.661054,0.097326 -0.914425,0.2918251 L 4.831,13.33342 H 4.83248 V 24.341666 H 21.625857 V 13.33342 h 0.0015 L 14.143743,7.5888016 C 13.890373,7.394303 13.559619,7.2969758 13.228957,7.2969765 Z" />
      <rect
         style="mix-blend-mode:multiply;fill:#ddd3d3;fill-opacity:1;fill-rule:evenodd;stroke-width:0.259054"
         id="rect31549-1"
         width="15.312154"
         height="13.029508"
         x="5.5970545"
         y="9.8101368" />
      <rect
         style="fill:#ffffff;fill-rule:evenodd;stroke-width:0.264583"
         id="rect31549"
         width="14.837419"
         height="14.026451"
         x="5.8104444"
         y="9.9378757" />
      <g
         aria-label="@"
         transform="matrix(0.99810238,0.29980889,-0.22385306,0.93466049,0,0)"
         id="text33454"
         style="font-size:10.4227px;line-height:1.25;stroke-width:0.24258">
        <path
           d="m 15.779796,7.0612981 q 0.727757,0 1.292659,0.2341036 0.564903,0.2290144 0.910969,0.6361512 0.351155,0.4071367 0.529278,0.9313252 0.178122,0.5241885 0.178122,1.1298044 0,0.7633815 -0.310442,1.4656925 -0.310442,0.70231 -0.83463,1.129804 -0.524189,0.427494 -1.104358,0.427494 -0.412226,0 -0.707401,-0.218836 -0.290084,-0.218836 -0.290084,-0.656508 0,-0.188301 0.04071,-0.295174 -0.19339,0.371512 -0.615794,0.763381 -0.417315,0.38678 -0.829541,0.38678 -0.213747,0 -0.376602,-0.05089 -0.162854,-0.05598 -0.310441,-0.183212 -0.142498,-0.132319 -0.223926,-0.391869 -0.07634,-0.264639 -0.07634,-0.646329 0,-0.722668 0.473297,-1.496228 0.478385,-0.7735597 1.211232,-1.2824806 0.737935,-0.5089209 1.440246,-0.5089209 0.274817,0 0.620883,0.040714 0.346066,0.040714 0.488564,0.091606 l -0.569991,3.0840615 q -0.03054,0.12214 -0.03054,0.25446 0,0.01018 -0.0051,0.07125 0,0.06107 0,0.09161 0.0051,0.02545 0.01018,0.08652 0.0051,0.05598 0.02036,0.09161 0.01527,0.03054 0.04071,0.06616 0.02545,0.03562 0.06616,0.05598 0.0458,0.01527 0.101784,0.01527 0.19339,0 0.422405,-0.188301 0.229014,-0.188301 0.427493,-0.488564 0.203568,-0.305353 0.335888,-0.748114 0.137408,-0.442761 0.137408,-0.895701 0,-0.534366 -0.142497,-0.9873056 Q 17.963067,8.6185961 17.678071,8.252173 17.393076,7.88575 16.904512,7.6770924 16.421037,7.4684348 15.779796,7.4684348 q -0.503831,0 -0.987306,0.1577655 -0.478386,0.1526763 -0.865166,0.4224044 -0.38678,0.2646388 -0.717578,0.6310619 -0.32571,0.3613338 -0.549635,0.7786489 -0.218836,0.412226 -0.340977,0.8651655 -0.122141,0.45294 -0.122141,0.890612 0,0.844808 0.391869,1.506405 0.391869,0.661598 0.982218,1.007664 0.356244,0.208657 0.783738,0.274817 0,0.06107 -0.142498,0.13232 -0.142498,0.07125 -0.264639,0.07125 -0.218836,0 -0.458029,-0.09161 -0.743024,-0.274818 -1.262123,-1.048377 -0.5191,-0.77356 -0.5191,-1.80158 0,-0.595438 0.19339,-1.201054 0.19339,-0.6056155 0.559813,-1.1399824 0.371512,-0.5394561 0.860076,-0.9567713 0.493654,-0.4173151 1.129805,-0.6615971 0.64124,-0.2442821 1.328283,-0.2442821 z m -0.03053,1.923721 q -0.407137,0 -0.748114,0.3715123 -0.335887,0.3715122 -0.519099,0.9313256 -0.178122,0.559813 -0.178122,1.150161 0,0.269728 0.111962,0.412226 0.111963,0.137408 0.295174,0.137408 0.32571,0 0.625973,-0.498742 0.305353,-0.503832 0.473297,-1.333373 L 16.0139,9.1173385 q -0.07125,-0.081427 -0.122141,-0.1068733 -0.0458,-0.025446 -0.142498,-0.025446 z"
           style="font-weight:bold;font-family:Amiri;-inkscape-font-specification:'Amiri Bold';fill:#ff2e2e"
           id="path9406" />
      </g>
      <path
         id="path31562"
         style="mix-blend-mode:normal;fill:#c5a761;fill-opacity:1;stroke:#000000;stroke-width:0;stroke-linecap:butt;stroke-linejoin:miter;stroke-dasharray:none;stroke-opacity:1"
         d="m 20.651929,13.457812 -7.44394,5.35376 -7.3975256,-5.320092 v 1.97932 l 6.6823906,5.906078 h 1.339503 l -0.0021,-0.03368 h 0.139589 l 6.682046,-5.906436 z" />
      <g
         id="g31560"
         transform="matrix(0.67134216,0,0,0.6657371,9.8722694,33.928712)"
         style="stroke-width:1.48955">
        <g
           id="g31553"
           style="stroke-width:1.48955">
          <path
             id="rect29033-76-4"
             style="fill:url(#linearGradient31309);fill-opacity:1;fill-rule:evenodd;stroke-width:0.439399"
             d="m -7.50924,-30.936074 v 16.535425 c 0.452893,10e-7 0.905606,-0.13307 1.252636,-0.399458 l 10.250021,-7.868254 -10.250021,-7.868254 c -0.34703,-0.266388 -0.799743,-0.399459 -1.252636,-0.399459 z" />
          <path
             id="rect29033-76-4-0"
             style="fill:url(#linearGradient31385);fill-opacity:1;fill-rule:evenodd;stroke-width:0.439399"
             d="m 17.509757,-30.936074 v 16.535425 c -0.452893,10e-7 -0.905606,-0.13307 -1.252636,-0.399458 L 6.0071003,-22.668361 16.257121,-30.536615 c 0.34703,-0.266388 0.799743,-0.399459 1.252636,-0.399459 z" />
        </g>
        <path
           id="rect29033-76-0"
           style="fill:#b89644;fill-opacity:1;fill-rule:evenodd;stroke-width:0.47522"
           d="m 5.0002539,-23.668412 c -0.4725829,-1e-6 -0.9449721,0.149165 -1.3070895,0.447776 l -10.6955936,8.819987 H 17.002935 L 6.3073434,-23.220636 C 5.945226,-23.519247 5.4728368,-23.668413 5.0002539,-23.668412 Z" />
        <path
           id="rect29033-76"
           style="fill:url(#linearGradient29605);fill-opacity:1;fill-rule:evenodd;stroke-width:0.444974"
           d="m 5.0002391,-22.806416 c -0.4568329,-1e-6 -0.9134785,0.135291 -1.2635274,0.406128 l -10.3391353,7.999639 H 16.6029 L 6.2637665,-22.400288 c -0.3500489,-0.270837 -0.8066946,-0.406129 -1.2635274,-0.406128 z" />
      </g>
    </g>
    <text
       xml:space="preserve"
       style="font-weight:bold;font-size:6.35px;line-height:1.3;font-family:Consolas;-inkscape-font-specification:'Consolas Bold';text-align:center;text-anchor:middle;fill:#fe005b;fill-opacity:0.593284;stroke:#7c7777;stroke-width:0;stroke-linejoin:round;stroke-miterlimit:8;paint-order:fill markers stroke;stop-color:#000000"
       x="13.611547"
       y="31.492083"
       id="text97103"><tspan
         sodipodi:role="line"
         id="tspan97101"
         style="stroke-width:0"
         x="13.611547"
         y="31.492083">Home</tspan></text>
  </g>
</svg>
