<?xml version="1.0" encoding="UTF-8" standalone="no"?>
<!-- Created with Inkscape (http://www.inkscape.org/) -->

<svg
   width="31"
   height="26"
   viewBox="0 0 8.2020697 6.8791682"
   version="1.1"
   id="svg129077"
   inkscape:version="1.2.2 (732a01da63, 2022-12-09)"
   sodipodi:docname="copyright.svg"
   xml:space="preserve"
   xmlns:inkscape="http://www.inkscape.org/namespaces/inkscape"
   xmlns:sodipodi="http://sodipodi.sourceforge.net/DTD/sodipodi-0.dtd"
   xmlns="http://www.w3.org/2000/svg"
   xmlns:svg="http://www.w3.org/2000/svg"><sodipodi:namedview
     id="namedview129079"
     pagecolor="#ffffff"
     bordercolor="#000000"
     borderopacity="0.25"
     inkscape:showpageshadow="2"
     inkscape:pageopacity="0.0"
     inkscape:pagecheckerboard="0"
     inkscape:deskcolor="#d1d1d1"
     inkscape:document-units="mm"
     showgrid="false"
     inkscape:zoom="5.2913964"
     inkscape:cx="5.1026228"
     inkscape:cy="5.1971158"
     inkscape:window-width="1230"
     inkscape:window-height="728"
     inkscape:window-x="0"
     inkscape:window-y="0"
     inkscape:window-maximized="0"
     inkscape:current-layer="layer1"
     inkscape:lockguides="true"
     showguides="true"><sodipodi:guide
       position="-13.196495,76.627539"
       orientation="0,-1"
       id="guide121341"
       inkscape:locked="true" /><sodipodi:guide
       position="9.3342715,19.917453"
       orientation="0,-1"
       id="guide121705"
       inkscape:locked="true" /></sodipodi:namedview><defs
     id="defs129074" /><g
     inkscape:label="Layer 1"
     inkscape:groupmode="layer"
     id="layer1"><g
       aria-label="©"
       transform="matrix(0.99645987,0,0,1.0035527,0.05000256,0)"
       id="text100499"
       style="font-weight:bold;font-size:9.46639px;line-height:1.3;font-family:'Segoe UI';-inkscape-font-specification:'Segoe UI Bold';text-align:center;text-anchor:middle;fill:#a0ee1f;stroke:#009800;stroke-width:0;stroke-linecap:round;stroke-linejoin:round;stroke-miterlimit:8;stroke-opacity:0;paint-order:stroke fill markers;stop-color:#000000;fill-opacity:1"><path
         d="m 7.7001677,3.415852 q 0,0.9521857 -0.4714705,1.7425922 -0.4714706,0.7857843 -1.3034775,1.2433881 -0.8320069,0.4529816 -1.8257929,0.4529816 -1.0122751,0 -1.8350375,-0.4344925 Q 1.4462492,5.9812066 0.98864537,5.1954223 0.53104157,4.409638 0.53104157,3.4435855 q 0,-0.9568079 0.47147063,-1.7472145 Q 1.4739827,0.90596449 2.3013674,0.45298295 3.128752,1.4184043e-6 4.1410271,1.4184043e-6 q 1.0030305,0 1.8211707,0.4391147515957 0.8181401,0.4344925 1.2757439,1.22489903 0.462226,0.7857843 0.462226,1.7518368 z M 6.923628,3.434341 q 0,-0.7857843 -0.3559141,-1.419034 Q 6.2117998,1.3774351 5.5693056,1.021521 4.9268114,0.66098468 4.1225381,0.66098468 q -0.7950289,0 -1.4467676,0.36515862 Q 2.028654,1.3913019 1.6681177,2.0291738 1.3075813,2.6670458 1.3075813,3.434341 q 0,0.7811621 0.3651587,1.419034 0.3651585,0.6332497 1.0168973,0.9845415 0.6517387,0.3512918 1.4329008,0.3512918 0.7580507,0 1.4051672,-0.355914 Q 6.1748217,5.4727579 6.5492249,4.8395082 6.923628,4.2016363 6.923628,3.434341 Z M 5.5415721,5.2416449 q -0.5916494,0.3050692 -1.2618772,0.3050692 -0.6240052,0 -1.1324538,-0.2634688 Q 2.6434147,5.0197764 2.3568345,4.5529281 2.0748766,4.0814575 2.0748766,3.5129195 q 0,-0.9984083 0.6517388,-1.6085467 0.6517387,-0.6101384 1.7056141,-0.6101384 0.5546713,0 1.1093426,0.2680911 v 1.312722 Q 5.3474371,2.7317574 5.060857,2.6346899 4.7788991,2.5376225 4.4599631,2.5376225 q -0.4113812,0 -0.6840946,0.2588466 -0.2727134,0.2588466 -0.2727134,0.6656055 0,0.3790254 0.2865802,0.6286274 0.2912024,0.2449798 0.6979613,0.2449798 0.6147607,0 1.0538755,-0.3328027 z"
         style="font-weight:900;-inkscape-font-specification:'Segoe UI Heavy';fill:#a0ee1f;fill-opacity:1"
         id="path104867" /></g></g></svg>
