<?xml version="1.0" encoding="UTF-8" standalone="no"?>
<!-- Created with Inkscape (http://www.inkscape.org/) -->

<svg
   width="100"
   height="100"
   viewBox="0 0 26.458332 26.458332"
   version="1.1"
   id="svg2787"
   inkscape:version="1.2.2 (732a01da63, 2022-12-09)"
   sodipodi:docname="gesprekken.svg"
   xml:space="preserve"
   xmlns:inkscape="http://www.inkscape.org/namespaces/inkscape"
   xmlns:sodipodi="http://sodipodi.sourceforge.net/DTD/sodipodi-0.dtd"
   xmlns="http://www.w3.org/2000/svg"
   xmlns:svg="http://www.w3.org/2000/svg"><sodipodi:namedview
     id="namedview2789"
     pagecolor="#ffffff"
     bordercolor="#000000"
     borderopacity="0.25"
     inkscape:showpageshadow="2"
     inkscape:pageopacity="0.0"
     inkscape:pagecheckerboard="0"
     inkscape:deskcolor="#d1d1d1"
     inkscape:document-units="mm"
     showgrid="false"
     inkscape:zoom="0.93539561"
     inkscape:cx="175.32689"
     inkscape:cy="144.32396"
     inkscape:window-width="1366"
     inkscape:window-height="705"
     inkscape:window-x="-8"
     inkscape:window-y="-8"
     inkscape:window-maximized="1"
     inkscape:current-layer="layer1"
     inkscape:lockguides="true"
     showguides="false" /><defs
     id="defs2784"><mask
       maskUnits="userSpaceOnUse"
       id="mask64179"><path
         style="opacity:1;fill:#ffffff;fill-opacity:1;stroke:#9e2b0e;stroke-width:0;stroke-linecap:round;stroke-linejoin:round;stroke-miterlimit:8;stroke-dasharray:none;paint-order:fill markers stroke;stop-color:#000000"
         d="m 12.200623,46.502373 c 0,0 8.200418,-0.60003 10.20052,-1.600081 C 24.401245,43.902241 23.17935,36.620437 20.101026,32.801674 17.47325,29.54183 14.30073,27.801419 9.0004593,27.701415 3.7001889,27.601407 -2.000102,30.501556 -3.4001736,35.501813 c -1.4000713,5.000254 0.6000308,11.500585 4.6002348,13.000662 4.0002041,1.500076 7.0003574,1.300067 11.0005618,-2.000102 z"
         id="path64181"
         sodipodi:nodetypes="csssssc" /></mask></defs><g
     inkscape:label="Layer 1"
     inkscape:groupmode="layer"
     id="layer1"><g
       id="g28710"><circle
         style="fill:#73bfd7;fill-opacity:1;fill-rule:evenodd;stroke-width:0.223867"
         id="path29876"
         cx="13.229167"
         cy="14.816666"
         r="11" /><g
         id="g28569"
         transform="translate(1.5709405,1.1481173)"><path
           id="path4915-7-3"
           style="mix-blend-mode:normal;fill:#cfeaff;fill-opacity:0.734266;fill-rule:evenodd;stroke-width:0.241507"
           d="m 16.360408,12.27527 c -0.163277,2.1e-5 -0.330234,0.0018 -0.500935,0.0056 -5.462447,0.120539 -6.7617956,1.682524 -6.7617956,5.050868 0,3.368343 1.4490526,5.251317 6.9660356,5.356472 0.375576,0.0071 0.73154,0.004 1.069532,-0.0088 l 3.775932,2.630806 -1.176277,-3.01538 c 2.496388,-0.750049 3.215742,-2.521521 3.215742,-4.963019 0,-3.263081 -1.526653,-5.057125 -6.588234,-5.056474 z" /><text
           xml:space="preserve"
           style="font-weight:bold;font-size:6.91355px;line-height:1.3;font-family:'Segoe UI';-inkscape-font-specification:'Segoe UI Bold';text-align:center;text-anchor:middle;fill:#516678;fill-opacity:1;stroke:#feb470;stroke-width:0;stroke-linecap:round;stroke-linejoin:round;stroke-miterlimit:8;stroke-dasharray:none;stroke-opacity:0.613054;paint-order:fill markers stroke;stop-color:#000000"
           x="16.094797"
           y="18.217525"
           id="text57253-0"><tspan
             sodipodi:role="line"
             id="tspan57251-7"
             style="fill:#516678;fill-opacity:1;stroke-width:0"
             x="16.094797"
             y="18.217525">...</tspan></text></g><g
         id="g28667"
         transform="translate(-0.80004083,-0.20001021)"><path
           id="path4915"
           style="mix-blend-mode:screen;fill:#def5fc;fill-opacity:1;fill-rule:evenodd;stroke-width:0.237605"
           d="m 11.351582,5.945416 c -6.2359664,0 -7.5447389,2.1780733 -7.5447389,5.617835 0,1.857462 0.4254798,3.16872 1.7616432,4.011232 l -1.8584143,2.29627 4.0654092,-1.475761 c 0.9435584,0.198783 2.0942354,0.316535 3.4912568,0.359144 6.00247,0.183077 7.516457,-1.751124 7.516457,-5.190885 0,-3.4397617 -1.195645,-5.617835 -7.431613,-5.617835 z" /><text
           xml:space="preserve"
           style="font-weight:bold;font-size:6.8768px;line-height:1.3;font-family:'Segoe UI';-inkscape-font-specification:'Segoe UI Bold';text-align:center;text-anchor:middle;fill:#516678;fill-opacity:1;stroke:#feb470;stroke-width:0;stroke-linecap:round;stroke-linejoin:round;stroke-miterlimit:8;stroke-dasharray:none;stroke-opacity:0.613054;paint-order:fill markers stroke;stop-color:#000000"
           x="11.311086"
           y="11.526602"
           id="text57253"><tspan
             sodipodi:role="line"
             id="tspan57251"
             style="fill:#516678;fill-opacity:1;stroke-width:0"
             x="11.311086"
             y="11.526602">...</tspan></text></g></g><text
       xml:space="preserve"
       style="font-weight:bold;font-size:6.35px;line-height:1.3;font-family:Consolas;-inkscape-font-specification:'Consolas Bold';text-align:center;text-anchor:middle;fill:#fe005b;fill-opacity:0.593284;stroke:#7c7777;stroke-width:0;stroke-linejoin:round;stroke-miterlimit:8;paint-order:fill markers stroke;stop-color:#000000"
       x="13.240019"
       y="31.141108"
       id="text97103"><tspan
         sodipodi:role="line"
         id="tspan97101"
         style="stroke-width:0"
         x="13.240019"
         y="31.141108">Home</tspan></text></g></svg>
