<?xml version="1.0" encoding="UTF-8" standalone="no"?>
<!-- Created with Inkscape (http://www.inkscape.org/) -->

<svg
   width="100"
   height="100"
   viewBox="0 0 26.458332 26.458332"
   version="1.1"
   id="svg2787"
   inkscape:version="1.2.2 (732a01da63, 2022-12-09)"
   sodipodi:docname="mij.svg"
   xmlns:inkscape="http://www.inkscape.org/namespaces/inkscape"
   xmlns:sodipodi="http://sodipodi.sourceforge.net/DTD/sodipodi-0.dtd"
   xmlns:xlink="http://www.w3.org/1999/xlink"
   xmlns="http://www.w3.org/2000/svg"
   xmlns:svg="http://www.w3.org/2000/svg">
  <sodipodi:namedview
     id="namedview2789"
     pagecolor="#ffffff"
     bordercolor="#000000"
     borderopacity="0.25"
     inkscape:showpageshadow="2"
     inkscape:pageopacity="0.0"
     inkscape:pagecheckerboard="0"
     inkscape:deskcolor="#d1d1d1"
     inkscape:document-units="mm"
     showgrid="false"
     inkscape:zoom="7.4831651"
     inkscape:cx="47.172553"
     inkscape:cy="40.758155"
     inkscape:window-width="1366"
     inkscape:window-height="705"
     inkscape:window-x="-8"
     inkscape:window-y="-8"
     inkscape:window-maximized="1"
     inkscape:current-layer="layer1" />
  <defs
     id="defs2784">
    <linearGradient
       inkscape:collect="always"
       id="linearGradient26559">
      <stop
         style="stop-color:#ffe9d9;stop-opacity:1;"
         offset="0"
         id="stop26555" />
      <stop
         style="stop-color:#ffd0af;stop-opacity:1;"
         offset="0.60792077"
         id="stop26563" />
      <stop
         style="stop-color:#ffb380;stop-opacity:1;"
         offset="1"
         id="stop26557" />
    </linearGradient>
    <radialGradient
       inkscape:collect="always"
       xlink:href="#linearGradient26559"
       id="radialGradient26561-8-4-3"
       cx="50.0355"
       cy="10.592171"
       fx="50.0355"
       fy="10.592171"
       r="5.7715068"
       gradientTransform="matrix(-0.89423857,1.6694392,0.93159897,0.46542199,26.265247,-85.107656)"
       gradientUnits="userSpaceOnUse" />
    <mask
       maskUnits="userSpaceOnUse"
       id="mask10222">
      <circle
         style="fill:#ffffff;fill-opacity:1;fill-rule:evenodd;stroke-width:0.223867"
         id="circle10224"
         cx="13.229167"
         cy="14.816666"
         r="11" />
    </mask>
  </defs>
  <g
     inkscape:label="Layer 1"
     inkscape:groupmode="layer"
     id="layer1">
    <circle
       style="fill:#ade3f4;fill-opacity:1;fill-rule:evenodd;stroke-width:0.223867"
       id="path29876"
       cx="13.229167"
       cy="14.816666"
       r="11" />
    <g
       id="g20718"
       transform="translate(26.40149,1.2600266)">
      <path
         id="path13238-1-2-5-8-1"
         style="fill:#ffba8a;fill-opacity:1;stroke:#000000;stroke-width:0;stroke-linecap:butt;stroke-linejoin:miter;stroke-dasharray:none;stroke-opacity:1"
         d="m -9.532072,11.426544 c 0.67043,0.617916 1.134056,0.347824 1.468873,1.214266 0.459523,1.189155 0.868181,0.708717 0.979463,1.256242 0.113429,0.558083 -0.347532,1.377232 -0.523508,1.962057 -0.348624,1.158587 -1.957651,2.88386 -2.386726,3.836481 -0.429074,0.952613 -1.276065,1.676052 -2.214663,2.139488 -0.938599,0.463437 -2.648614,-0.149591 -3.077684,-0.123843 -0.429078,0.02574 -1.063563,-3.045698 -1.304922,-3.921076 -0.241351,-0.875377 -1.716304,-1.544841 -0.268182,-3.372839 1.448122,-1.82799 0.765753,-3.594088 0.738937,-3.928793 -0.02686,-0.334698 0.968689,0.241138 1.1564,0.447112 0.187727,0.205975 0.955913,1.000131 2.076114,1.468085 0.988071,0.412768 1.872902,0.307679 2.087441,-0.05278 0.214537,-0.360445 1.431864,-1.474872 1.431864,-1.474872 z"
         sodipodi:nodetypes="csssssssscssscc" />
      <path
         style="fill:url(#radialGradient26561-8-4-3);fill-opacity:1;stroke:#000000;stroke-width:0;stroke-linecap:butt;stroke-linejoin:miter;stroke-dasharray:none;stroke-opacity:1"
         d="m -9.133676,2.0036642 c 0.606803,0.8738663 1.062356,3.5017719 1.175457,4.2790936 0.264497,1.8178315 -0.616161,4.6342782 -1.419542,5.2250642 -0.891242,0.655393 -1.524971,1.058592 -2.131777,1.131409 -0.910204,0.109233 -1.801441,-0.364105 -2.711643,-1.019507 -0.641083,-0.461614 -1.319842,-0.832515 -1.73014,-1.7823557 -0.0962,-0.222717 -0.155578,-0.234424 -0.251774,-0.47383 -0.03928,-0.09779 -0.065,-0.07248 -0.395751,-0.03195 -0.204543,0.02505 -1.317917,-1.361612 -1.396029,-1.765391 -0.05326,-0.275301 1.747782,-0.265086 1.797089,-0.4138705 0.530947,-1.6020842 1.151584,-1.2676882 1.303288,-2.0687304 0.151695,-0.8010346 1.08238,-3.2260137 2.269161,-4.1183005 1.481782,0.1375616 2.505608,0.1645167 3.491661,1.0383753 z"
         id="path12892-7-4-9-0-9"
         sodipodi:nodetypes="cssssssssssccc" />
      <path
         id="path3866-5-8-8-7"
         mask="none"
         style="fill:#333333;fill-opacity:1;stroke:#000000;stroke-width:0;stroke-linecap:butt;stroke-linejoin:miter;stroke-dasharray:none;stroke-opacity:0"
         d="m -16.800008,12.095384 c 0,0 -0.222374,0.466102 -2.113049,0.887801 -2.123589,0.473643 -3.518225,0.887551 -4.513937,2.059306 -0.149795,0.17628 -0.309602,0.521782 -0.468705,0.943095 a 11,11 0 0 0 10.723376,8.571053 11,11 0 0 0 10.5171879,-7.775753 c -0.246701,-0.765429 -0.6550178,-1.29283 -1.3554728,-1.738395 -1.015859,-0.646161 -1.5601115,-0.710034 -1.5601115,-0.710034 l -2.0055623,-0.842326 c 0,0 0.014556,1.232961 -0.4501018,2.085144 -0.8736381,1.477562 -0.6784697,1.465728 -1.9022094,3.858679 -0.6751831,1.320283 -1.3929091,2.04189 -2.1605921,1.842265 -1.213449,-0.370625 -3.434103,-4.617522 -4.027144,-6.354134 -0.147876,-0.944373 -0.683679,-2.826701 -0.683679,-2.826701 z" />
      <path
         style="fill:none;stroke:#848382;stroke-width:0.245254;stroke-linecap:round;stroke-linejoin:miter;stroke-dasharray:none;stroke-opacity:1"
         d="m -9.384296,14.187989 c 0,0 -0.304277,2.975264 -2.260929,4.170601 -0.586741,0.358441 -2.115241,-1.164761 -3.865693,-4.245748"
         id="path27717-0-1-6"
         sodipodi:nodetypes="csc" />
      <path
         style="fill:#916f6f;stroke:#000000;stroke-width:0;stroke-linecap:butt;stroke-linejoin:miter;stroke-dasharray:none;stroke-opacity:1"
         d="m -11.242071,-1.1719475 c 2.178694,0.4508776 3.890525,2.179233 4.435196,3.3815632 0.544675,1.2023378 2.023075,4.8093435 1.244968,5.6359516 -0.778104,0.826607 -1.011536,1.427773 -1.011536,1.427773 0,0 0.622485,1.4277717 0.389052,2.4046677 -0.233432,0.976903 -0.855913,2.554962 -0.855913,2.554962 l -0.474822,-0.753573 c 0,0 0.0079,0.979008 -0.303284,1.279599 -0.311243,0.300582 -1.625391,1.87565 -1.625391,1.87565 0,0 0.348193,-1.286596 -0.40793,-2.471478 -0.58451,-0.915953 0.16587,-2.560308 0.16587,-2.560308 0,0 1.322779,-1.7283547 1.478398,-3.0809797 C -8.05184,7.1692545 -8.440895,2.9610758 -9.763671,1.7587457 -10.930404,0.6982445 -12.79828,0.8569904 -12.79828,0.8569904 c 0,0 -0.372128,2.6921755 -1.400588,4.0578834 -0.622481,0.8266001 -1.541706,1.4736419 -1.906353,2.5173855 -0.499653,0.177464 -0.77601,0.188895 -1.102486,0.279081 -0.287708,0.413428 0.007,1.115496 0.308029,1.260843 0.466864,0.225435 0.942298,0.05307 0.942298,0.05307 0,0 1.136031,3.9302427 0.902599,4.8319897 -0.233432,0.901756 -2.801178,1.578068 -2.801178,1.578068 l 0.622481,-1.12719 c 0,0 -0.622481,0.826608 -1.400585,0.826608 -0.778104,0 -0.933729,-0.450878 -0.933729,-0.450878 0,0 0.644654,0.602387 0.700297,-0.526025 0.116712,-2.3671 0.817008,-1.803505 1.050441,-2.7804 0.233432,-0.976895 -0.583577,0.526025 -1.128249,0.75146 -0.54468,0.225435 0.62248,-0.450877 0.544672,-1.352625 -0.07781,-0.9017547 -1.595113,-3.0434097 -1.283873,-4.1706009 0.311241,-1.1271912 0.589034,-4.0958396 2.534299,-5.7490475 1.945257,-1.6532153 3.937196,-2.2285052 5.908134,-2.0285601 z"
         id="path26059-6-5-7"
         sodipodi:nodetypes="csscsccscscsscsccscsccscssssssc" />
      <path
         style="fill:none;fill-opacity:1;stroke:#685050;stroke-width:0.290578;stroke-linecap:round;stroke-linejoin:round;stroke-miterlimit:8;stroke-dasharray:none;stroke-opacity:1;paint-order:fill markers stroke"
         d="m -12.981386,0.9005943 c 1.489262,0 2.808886,0.2217005 3.59477,1.3560553 0.748954,1.0810491 1.365694,3.5029976 1.232492,5.3237727 -0.129674,1.77256 -0.868386,2.9446087 -1.474221,3.7937177 -1.212535,1.699429 -2.513544,1.92496 -4.27741,0.726467 -0.770309,-0.552467 -1.457356,-1.102628 -2.061142,-2.9345517"
         id="path28002-0"
         sodipodi:nodetypes="cssscc" />
      <g
         id="g27721-2-8-1"
         transform="matrix(-0.77806502,0,0,0.75142122,31.866771,-2.7082203)"
         style="stroke-width:1.21039">
        <ellipse
           style="fill:#aa0000;fill-opacity:1;fill-rule:evenodd;stroke-width:0.320244"
           id="path11936-3-7-4-3-1"
           cx="56.012829"
           cy="28.856459"
           rx="0.53422982"
           ry="0.59104741" />
        <ellipse
           style="fill:#ffffff;fill-rule:evenodd;stroke-width:0.320249"
           id="path12898-2-3-7-8-0"
           cx="61.47369"
           cy="-12.193314"
           rx="0.13521306"
           ry="0.17366834"
           transform="matrix(0.78456418,0.62004762,-0.62454848,0.78098604,0,0)" />
      </g>
    </g>
    <text
       xml:space="preserve"
       style="font-weight:bold;font-size:6.35px;line-height:1.3;font-family:Consolas;-inkscape-font-specification:'Consolas Bold';text-align:center;text-anchor:middle;fill:#fe005b;fill-opacity:0.593284;stroke:#7c7777;stroke-width:0;stroke-linejoin:round;stroke-miterlimit:8;paint-order:fill markers stroke;stop-color:#000000"
       x="13.136925"
       y="32.064003"
       id="text97103"><tspan
         sodipodi:role="line"
         id="tspan97101"
         style="stroke-width:0"
         x="13.136925"
         y="32.064003">Home</tspan></text>
  </g>
</svg>
