<?xml version="1.0" encoding="UTF-8" standalone="no"?>
<!-- Created with Inkscape (http://www.inkscape.org/) -->

<svg
   width="431"
   height="54.104"
   viewBox="0 0 114.03516 14.31502"
   version="1.1"
   id="svg129077"
   inkscape:version="1.2.2 (732a01da63, 2022-12-09)"
   sodipodi:docname="playground.svg"
   xml:space="preserve"
   xmlns:inkscape="http://www.inkscape.org/namespaces/inkscape"
   xmlns:sodipodi="http://sodipodi.sourceforge.net/DTD/sodipodi-0.dtd"
   xmlns="http://www.w3.org/2000/svg"
   xmlns:svg="http://www.w3.org/2000/svg"><sodipodi:namedview
     id="namedview129079"
     pagecolor="#ffffff"
     bordercolor="#000000"
     borderopacity="0.25"
     inkscape:showpageshadow="2"
     inkscape:pageopacity="0.0"
     inkscape:pagecheckerboard="0"
     inkscape:deskcolor="#d1d1d1"
     inkscape:document-units="mm"
     showgrid="false"
     inkscape:zoom="0.66142454"
     inkscape:cx="68.790916"
     inkscape:cy="79.374134"
     inkscape:window-width="1230"
     inkscape:window-height="728"
     inkscape:window-x="59"
     inkscape:window-y="0"
     inkscape:window-maximized="0"
     inkscape:current-layer="layer1"
     inkscape:lockguides="true"
     showguides="true"><sodipodi:guide
       position="-13.196495,76.627539"
       orientation="0,-1"
       id="guide121341"
       inkscape:locked="true" /><sodipodi:guide
       position="9.3342715,19.917453"
       orientation="0,-1"
       id="guide121705"
       inkscape:locked="true" /></sodipodi:namedview><defs
     id="defs129074" /><g
     inkscape:label="Layer 1"
     inkscape:groupmode="layer"
     id="layer1"><g
       id="g12226"
       transform="translate(6.0747515,-1.5875004)"
       style="fill:#2abde2;fill-opacity:0.69697"><g
         id="g12210"
         transform="matrix(0.89188612,0,0,1,1.5370327,0)"
         style="fill:#2abde2;fill-opacity:0.69697"><path
           d="m 3.69462,8.4601937 q 0,0.7276601 -0.5140604,1.1754508 -0.5140603,0.4477915 -1.4216982,0.4477915 -0.8273159,0 -1.35744066,-0.463784 -0.52209256,-0.4717796 -0.52209256,-1.1594583 0,-0.7036713 0.51406037,-1.1354696 0.52209256,-0.4397944 1.39760165,-0.4397944 0.8514124,0 1.373505,0.4397944 Q 3.69462,7.7565224 3.69462,8.4601937 Z"
           style="font-weight:900;font-size:16.4131px;line-height:1.25;font-family:'Segoe UI';-inkscape-font-specification:'Segoe UI Heavy';fill:#2abde2;fill-opacity:0.69697;stroke-width:0.162242"
           id="path12167" /><path
           d="m 8.9557067,8.4601937 q 0,0.7276601 -0.5140604,1.1754508 -0.5140604,0.4477915 -1.4216982,0.4477915 -0.8273159,0 -1.3574407,-0.463784 -0.5220926,-0.4717796 -0.5220926,-1.1594583 0,-0.7036713 0.5140604,-1.1354696 0.5220926,-0.4397944 1.3976016,-0.4397944 0.8514125,0 1.3735051,0.4397944 0.5301248,0.4317983 0.5301248,1.1354696 z"
           style="font-weight:900;font-size:16.4131px;line-height:1.25;font-family:'Segoe UI';-inkscape-font-specification:'Segoe UI Heavy';fill:#2abde2;fill-opacity:0.69697;stroke-width:0.162242"
           id="path12169" /><path
           d="m 14.216793,8.4601937 q 0,0.7276601 -0.514061,1.1754508 -0.51406,0.4477915 -1.421697,0.4477915 -0.827316,0 -1.357441,-0.463784 -0.522092,-0.4717796 -0.522092,-1.1594583 0,-0.7036713 0.51406,-1.1354696 0.522093,-0.4397944 1.397601,-0.4397944 0.851412,0 1.373505,0.4397944 0.530125,0.4317983 0.530125,1.1354696 z"
           style="font-weight:900;font-size:16.4131px;line-height:1.25;font-family:'Segoe UI';-inkscape-font-specification:'Segoe UI Heavy';fill:#2abde2;fill-opacity:0.69697;stroke-width:0.162242"
           id="path12171" /></g><path
         d="m 25.485961,2.1991188 q 0,1.1754508 -0.602415,2.087025 -0.594383,0.9115741 -1.702825,1.4153387 -1.108443,0.4957684 -2.578334,0.4957684 h -1.06025 V 9.8835287 H 16.07223 V -1.5831142 h 4.72293 q 2.433754,0 3.558261,0.91957038 1.13254,0.91957038 1.13254,2.86266262 z m -3.670713,0.1199439 q 0,-0.7036712 -0.409641,-1.0635031 -0.409642,-0.3598319 -1.20483,-0.3598319 h -0.65864 v 2.8306776 h 0.779123 q 1.493988,0 1.493988,-1.4073426 z"
         style="font-weight:900;font-size:16.4131px;line-height:1.25;font-family:'Segoe UI';-inkscape-font-specification:'Segoe UI Heavy';fill:#2abde2;fill-opacity:0.69697;stroke-width:0.162242"
         id="path12173" /><path
         d="M 26.546209,9.8835287 V -2.2388079 h 3.421714 V 9.8835287 Z"
         style="font-weight:900;font-size:16.4131px;line-height:1.25;font-family:'Segoe UI';-inkscape-font-specification:'Segoe UI Heavy';fill:#2abde2;fill-opacity:0.69697;stroke-width:0.162242"
         id="path12175" /><path
         d="M 36.176811,9.8835287 V 8.6361115 h -0.03213 q -0.819284,1.4473245 -2.506045,1.4473245 -1.164667,0 -1.823308,-0.6876794 -0.65864,-0.6876788 -0.65864,-1.8391408 0,-2.4148718 2.979944,-2.7986924 L 36.17681,4.4940466 q 0,-0.3998131 -0.36145,-0.6556936 -0.361448,-0.2558805 -0.971895,-0.2558805 -1.381537,0 -2.915686,0.7836339 V 2.1511412 q 0.666672,-0.2878656 1.670697,-0.4717795 1.004024,-0.1839141 1.718888,-0.1839141 2.096403,0 3.036169,0.8955815 0.9478,0.8875854 0.9478,2.9746103 V 9.8835287 Z M 34.152697,7.1008288 q 0,0.3358431 0.208838,0.5517422 0.216869,0.2158991 0.610446,0.2158991 0.538157,0 0.867477,-0.3998132 0.337353,-0.3998132 0.337353,-1.0235218 V 6.1332808 L 35.020175,6.293206 q -0.867478,0.1439329 -0.867478,0.8076228 z"
         style="font-weight:900;font-size:16.4131px;line-height:1.25;font-family:'Segoe UI';-inkscape-font-specification:'Segoe UI Heavy';fill:#2abde2;fill-opacity:0.69697;stroke-width:0.162242"
         id="path12177" /><path
         d="m 42.441922,13.729732 q -0.481931,0 -1.036153,-0.08796 -0.554221,-0.07996 -0.987959,-0.239888 v -2.566801 q 0.200804,0.151929 0.594381,0.279869 0.40161,0.127941 0.755027,0.127941 0.95583,0 1.269087,-0.751649 L 43.301366,9.8515437 39.863588,1.6953542 h 3.783162 l 0.995992,3.9501544 q 0.28916,1.1034845 0.313256,1.4873052 h 0.03213 q 0.02409,-0.1759177 0.06425,-0.3918169 0.0482,-0.2158991 1.253021,-5.0456427 h 3.325329 l -3.02813,8.4200658 q -0.682737,1.935096 -1.694793,2.774704 -1.004024,0.839608 -2.465883,0.839608 z"
         style="font-weight:900;font-size:16.4131px;line-height:1.25;font-family:'Segoe UI';-inkscape-font-specification:'Segoe UI Heavy';fill:#2abde2;fill-opacity:0.69697;stroke-width:0.162242"
         id="path12179" /><path
         d="m 59.205109,8.740063 q 0,2.358898 -1.493987,3.670285 -1.485957,1.319384 -4.345417,1.319384 -0.771091,0 -1.493988,-0.119944 -0.722898,-0.119944 -1.036153,-0.271874 v -2.670751 q 0.51406,0.31985 1.204828,0.51176 0.690769,0.191911 1.228926,0.191911 1.148604,0 1.839373,-0.551742 0.690768,-0.551743 0.690768,-1.4633167 V 8.8520106 h -0.03213 q -0.369477,0.5597385 -1.020085,0.8955817 -0.642576,0.3358437 -1.381537,0.3358437 -1.590375,0 -2.514076,-1.0954889 -0.923703,-1.1034844 -0.923703,-3.0385803 0,-1.32738 0.481931,-2.3429055 0.481933,-1.0155256 1.341377,-1.5592716 0.859444,-0.5517421 1.895597,-0.5517421 1.421699,0 2.120499,1.0475106 h 0.03213 v -0.847604 h 3.40565 z M 55.855684,5.5575497 q 0,-0.7196637 -0.329319,-1.1434657 -0.321288,-0.4238021 -0.859445,-0.4238021 -0.578318,0 -0.923702,0.511761 -0.345384,0.5117609 -0.345384,1.3673612 0,0.7916301 0.289158,1.2554134 0.28916,0.4637834 0.91567,0.4637834 0.58635,0 0.915671,-0.4717796 0.337351,-0.4797759 0.337351,-1.2794023 z"
         style="font-weight:900;font-size:16.4131px;line-height:1.25;font-family:'Segoe UI';-inkscape-font-specification:'Segoe UI Heavy';fill:#2abde2;fill-opacity:0.69697;stroke-width:0.162242"
         id="path12181" /><path
         d="m 67.036495,4.6139906 q -0.192773,-0.087959 -0.522093,-0.1599253 -0.329321,-0.071967 -0.546189,-0.071967 -1.694793,0 -1.694793,1.9510884 v 3.550342 H 60.851706 V 1.6953542 h 3.421714 v 1.4393275 h 0.03213 q 0.313255,-0.7756376 0.891573,-1.1754508 0.578318,-0.4078095 1.349409,-0.4078095 0.281126,0 0.489964,0.095955 z"
         style="font-weight:900;font-size:16.4131px;line-height:1.25;font-family:'Segoe UI';-inkscape-font-specification:'Segoe UI Heavy';fill:#2abde2;fill-opacity:0.69697;stroke-width:0.162242"
         id="path12183" /><path
         d="m 77.173126,5.6455086 q 0,2.0710326 -1.261054,3.2544797 -1.253022,1.1834477 -3.510068,1.1834477 -2.240982,0 -3.494005,-1.1514627 -1.244989,-1.1594584 -1.244989,-3.1905095 0,-1.3033911 0.586349,-2.2629427 0.586351,-0.9595517 1.670697,-1.4713127 1.084346,-0.5117608 2.498013,-0.5117608 1.461859,0 2.53014,0.5357496 1.076314,0.5357497 1.6466,1.4873051 0.578317,0.9515556 0.578317,2.1270063 z m -3.469907,0.015993 q 0,-1.6712194 -1.28515,-1.6712194 -1.285152,0 -1.285152,1.7511819 0,1.8471371 1.301215,1.8471371 1.269087,0 1.269087,-1.9270996 z"
         style="font-weight:900;font-size:16.4131px;line-height:1.25;font-family:'Segoe UI';-inkscape-font-specification:'Segoe UI Heavy';fill:#2abde2;fill-opacity:0.69697;stroke-width:0.162242"
         id="path12185" /><path
         d="M 83.687235,9.8835287 V 8.6201189 h -0.03213 q -0.425706,0.5837274 -0.77109,0.8556004 -0.337353,0.271873 -0.771091,0.4397944 -0.425707,0.1679223 -0.995992,0.1679223 -1.349409,0 -2.056242,-0.8715934 Q 78.353855,8.3402497 78.353855,6.6370454 V 1.6953542 H 81.77557 V 6.381165 q 0,1.2074359 0.907637,1.2074359 0.497996,0 0.746995,-0.3278468 0.257029,-0.3278469 0.257029,-0.9275667 V 1.6953542 h 3.421714 v 8.1881745 z"
         style="font-weight:900;font-size:16.4131px;line-height:1.25;font-family:'Segoe UI';-inkscape-font-specification:'Segoe UI Heavy';fill:#2abde2;fill-opacity:0.69697;stroke-width:0.162242"
         id="path12187" /><path
         d="M 94.080894,9.8835287 V 5.413617 q 0,-0.7596451 -0.232933,-1.0874919 -0.224902,-0.3358432 -0.738963,-0.3358432 -0.44177,0 -0.690769,0.3438394 -0.248997,0.3438394 -0.248997,0.8795891 V 9.8835287 H 88.747517 V 1.6953542 h 3.421715 v 1.2794023 h 0.03213 q 0.409641,-0.7036713 1.10041,-1.087492 0.690768,-0.3918169 1.50202,-0.3918169 2.698817,0 2.698817,3.390416 v 4.9976651 z"
         style="font-weight:900;font-size:16.4131px;line-height:1.25;font-family:'Segoe UI';-inkscape-font-specification:'Segoe UI Heavy';fill:#2abde2;fill-opacity:0.69697;stroke-width:0.162242"
         id="path12189" /><path
         d="M 104.53881,9.8835287 V 8.9319733 h -0.0322 q -0.40964,0.5357497 -1.06828,0.847604 -0.65864,0.3038587 -1.30122,0.3038587 -1.05221,0 -1.85543,-0.5117615 Q 99.478488,9.0519172 99.076879,8.1243506 98.6833,7.1967839 98.6833,5.9333741 q 0,-1.303391 0.4739,-2.3109202 0.4739,-1.0075293 1.33335,-1.5672678 0.85944,-0.5597385 1.92772,-0.5597385 0.50603,0 0.93174,0.1439327 0.43373,0.1439328 0.74699,0.3918169 0.32129,0.239888 0.40964,0.4797758 h 0.0322 v -4.7497809 h 3.42171 V 9.8835287 Z m 0.0723,-4.3419715 q 0,-0.7356563 -0.32933,-1.1434657 -0.32127,-0.4078096 -0.8755,-0.4078096 -0.55422,0 -0.90764,0.511761 -0.34538,0.5037646 -0.34538,1.3513687 0,1.7351893 1.20483,1.7351893 0.57028,0 0.90764,-0.4637834 0.34538,-0.4717795 0.34538,-1.3673611 z"
         style="font-weight:900;font-size:16.4131px;line-height:1.25;font-family:'Segoe UI';-inkscape-font-specification:'Segoe UI Heavy';fill:#2abde2;fill-opacity:0.69697;stroke-width:0.162242"
         id="path12191" /></g><text
       xml:space="preserve"
       style="font-style:normal;font-weight:normal;font-size:16.4131px;line-height:1.25;font-family:sans-serif;mix-blend-mode:normal;fill:#baff10;fill-opacity:0.988345;stroke:none;stroke-width:0.162242"
       x="2.7456379"
       y="47.246044"
       id="text114090-2-8"
       transform="scale(1.0022441,0.99776093)"><tspan
         sodipodi:role="line"
         id="tspan114088-0-8"
         style="font-style:normal;font-variant:normal;font-weight:900;font-stretch:normal;font-family:'Segoe UI';-inkscape-font-specification:'Segoe UI Heavy';fill:#baff10;fill-opacity:0.988345;stroke-width:0.162242"
         x="2.7456379"
         y="47.246044">...playground</tspan></text><g
       id="g121719"
       transform="translate(14.200724,56.72053)"><g
         id="g10970"
         transform="scale(1,1.0171975)"><path
           d="M -3.367e-7,19.675538 V 1.0642412 H 11.626343 V 5.4510039 H 5.6243901 V 8.1635297 H 11.261799 V 12.550292 H 5.6243901 v 2.738483 h 6.4315939 v 4.386763 z"
           style="font-weight:900;font-size:26.6398px;line-height:1.25;font-family:'Segoe UI';-inkscape-font-specification:'Segoe UI Heavy';fill:#baff10;fill-opacity:0.988345;stroke-width:0.263156"
           id="path7247" /><path
           d="m 22.849084,19.675538 v -7.255031 q 0,-1.232966 -0.377563,-1.765088 -0.364544,-0.545101 -1.197787,-0.545101 -0.716068,0 -1.11967,0.55808 -0.403602,0.558078 -0.403602,1.427644 v 7.579496 H 14.204188 V 6.3854629 h 5.546274 v 2.0765739 h 0.05208 q 0.66399,-1.1421159 1.78366,-1.7650879 1.119671,-0.6359509 2.434632,-0.6359509 4.374526,0 4.374526,5.502922 v 8.111618 z"
           style="font-weight:900;font-size:26.6398px;line-height:1.25;font-family:'Segoe UI';-inkscape-font-specification:'Segoe UI Heavy';fill:#baff10;fill-opacity:0.988345;stroke-width:0.263156"
           id="path7249" /><path
           d="m 39.800371,19.675655 v -1.544452 h -0.05208 c -0.44266,0.57971 -1.019854,1.038287 -1.731583,1.37573 -0.711728,0.328791 -1.414777,0.493187 -2.109147,0.493187 -1.137029,0 -2.139524,-0.276876 -3.007486,-0.830629 -0.867961,-0.562406 -1.518932,-1.345448 -1.952913,-2.349126 -0.425301,-1.003677 -0.637952,-2.189055 -0.637952,-3.556132 0,-1.410341 0.256049,-2.660612 0.768146,-3.7508136 0.512098,-1.0902015 1.232506,-1.938136 2.161224,-2.5438035 0.928719,-0.6056675 1.970272,-0.9085012 3.124661,-0.9085012 0.546816,0 1.050234,0.077872 1.510253,0.2336147 0.468699,0.1557432 0.872302,0.3677268 1.210807,0.6359509 0.347184,0.2595715 0.568514,0.5191434 0.66399,0.7787155 h 0.05208 V 1.0643583 h 5.546273 V 19.675655 Z m 0.117174,-7.047373 c 0,-0.796021 -0.177932,-1.414667 -0.533796,-1.855939 -0.347184,-0.441272 -0.820223,-0.661908 -1.419117,-0.661908 -0.598893,0 -1.089291,0.276877 -1.471194,0.83063 -0.373223,0.545101 -0.559835,1.276228 -0.559835,2.193381 0,1.877569 0.650971,2.816354 1.952913,2.816354 0.616253,0 1.106651,-0.250919 1.471195,-0.752758 0.373223,-0.510491 0.559834,-1.250271 0.559834,-2.219339 z"
           style="font-weight:900;font-size:26.6398px;line-height:1.25;font-family:'Segoe UI';-inkscape-font-specification:'Segoe UI Heavy';fill:#baff10;fill-opacity:0.988345;stroke-width:0.263156"
           id="path7251"
           sodipodi:nodetypes="ccccsccssssccccccccscscsscss" /><path
           d="M 48.015626,19.675538 V 1.0642416 h 5.546273 V 19.675538 Z"
           style="font-weight:900;font-size:26.6398px;line-height:1.25;font-family:'Segoe UI';-inkscape-font-specification:'Segoe UI Heavy';fill:#baff10;fill-opacity:0.988345;stroke-width:0.263156"
           id="path7253"
           sodipodi:nodetypes="ccccc" /><path
           d="m 61.009007,14.60091 q 0.143214,0.856586 0.989476,1.349773 0.846262,0.480208 2.239341,0.480208 1.939893,0 3.671476,-0.73978 v 3.504219 q -2.018009,0.804673 -4.895302,0.804673 -3.489205,0 -5.429099,-1.778067 -1.939894,-1.778066 -1.939894,-4.892928 0,-2.141467 0.846263,-3.7767697 0.859282,-1.6353022 2.525767,-2.5567823 1.679506,-0.934458 3.697516,-0.934458 2.070088,0 3.541283,0.8046722 1.471194,0.8046733 2.226321,2.2582753 0.768146,1.4536015 0.768146,3.4003905 v 2.076574 z m 3.332972,-2.894225 q 0,-2.2972113 -1.653466,-2.2972113 -0.69003,0 -1.158729,0.6359513 -0.468699,0.622973 -0.546816,1.66126 z"
           style="font-weight:900;font-size:26.6398px;line-height:1.25;font-family:'Segoe UI';-inkscape-font-specification:'Segoe UI Heavy';fill:#baff10;fill-opacity:0.988345;stroke-width:0.263156"
           id="path7255" /><path
           d="m 81.996313,15.262818 q 0,2.258274 -1.731577,3.504218 -1.718565,1.232967 -4.80417,1.232967 -0.898341,0 -2.226321,-0.181701 -1.314962,-0.1817 -2.148204,-0.441271 v -3.880599 q 2.46067,1.090201 4.114136,1.090201 1.627428,0 1.627428,-0.843607 0,-0.350422 -0.377559,-0.571058 -0.377568,-0.233615 -1.978957,-0.765737 -1.770641,-0.558079 -2.577845,-1.479559 -0.807203,-0.92148 -0.807203,-2.401039 0,-2.0635962 1.640447,-3.2576256 1.653465,-1.2070094 4.634917,-1.2070094 1.744599,0 3.697515,0.5061651 V 10.292018 Q 80.238693,9.9415966 79.262235,9.7079818 78.285777,9.4743671 77.621789,9.4743671 q -0.546811,0 -0.872304,0.1817002 -0.325483,0.1817003 -0.325483,0.5061647 0,0.37638 0.351527,0.609994 0.351526,0.233614 1.406094,0.558079 2.044048,0.597015 2.929374,1.531473 0.885316,0.934459 0.885316,2.40104 z"
           style="font-weight:900;font-size:26.6398px;line-height:1.25;font-family:'Segoe UI';-inkscape-font-specification:'Segoe UI Heavy';fill:#baff10;fill-opacity:0.988345;stroke-width:0.263156"
           id="path7257" /><path
           d="m 94.872521,15.262818 q 0,2.258274 -1.731577,3.504218 -1.718565,1.232967 -4.80417,1.232967 -0.898338,0 -2.226322,-0.181701 -1.314962,-0.1817 -2.148201,-0.441271 v -3.880599 q 2.460672,1.090201 4.114139,1.090201 1.627424,0 1.627424,-0.843607 0,-0.350422 -0.37756,-0.571058 -0.37757,-0.233615 -1.978949,-0.765737 -1.770643,-0.558079 -2.577848,-1.479559 -0.807206,-0.92148 -0.807206,-2.401039 0,-2.0635962 1.640445,-3.2576256 1.653467,-1.2070094 4.634917,-1.2070094 1.744599,0 3.697515,0.5061651 V 10.292018 Q 93.114901,9.9415966 92.138443,9.7079818 91.161995,9.4743671 90.497998,9.4743671 q -0.546812,0 -0.872295,0.1817002 -0.325492,0.1817003 -0.325492,0.5061647 0,0.37638 0.351526,0.609994 0.351526,0.233614 1.406094,0.558079 2.044048,0.597015 2.929374,1.531473 0.885316,0.934459 0.885316,2.40104 z"
           style="font-weight:900;font-size:26.6398px;line-height:1.25;font-family:'Segoe UI';-inkscape-font-specification:'Segoe UI Heavy';fill:#baff10;fill-opacity:0.988345;stroke-width:0.263156"
           id="path7259" /></g><g
         id="g7298"
         transform="matrix(0.87305541,0,0,1,11.790584,0.42428045)"><path
           d="m 102.94457,17.365349 q 0,1.181052 -0.83324,1.907853 -0.83325,0.726801 -2.304442,0.726801 -1.340996,0 -2.200278,-0.752758 -0.846271,-0.765737 -0.846271,-1.881896 0,-1.142116 0.833249,-1.842959 0.846261,-0.713822 2.265377,-0.713822 1.380065,0 2.226325,0.713822 0.85928,0.700843 0.85928,1.842959 z"
           style="font-weight:900;font-size:26.6398px;line-height:1.25;font-family:'Segoe UI';-inkscape-font-specification:'Segoe UI Heavy';fill:#baff10;fill-opacity:0.988345;stroke-width:0.263156"
           id="path7261" /><path
           d="m 111.47229,17.365349 q 0,1.181052 -0.83324,1.907853 -0.83325,0.726801 -2.30444,0.726801 -1.341,0 -2.20028,-0.752758 -0.84627,-0.765737 -0.84627,-1.881896 0,-1.142116 0.83325,-1.842959 0.84626,-0.713822 2.26537,-0.713822 1.38006,0 2.22632,0.713822 0.85929,0.700843 0.85929,1.842959 z"
           style="font-weight:900;font-size:26.6398px;line-height:1.25;font-family:'Segoe UI';-inkscape-font-specification:'Segoe UI Heavy';fill:#baff10;fill-opacity:0.988345;stroke-width:0.263156"
           id="path7263" /><path
           d="m 120.00001,17.365349 q 0,1.181052 -0.83324,1.907853 -0.83325,0.726801 -2.30445,0.726801 -1.34099,0 -2.20027,-0.752758 -0.84628,-0.765737 -0.84628,-1.881896 0,-1.142116 0.83325,-1.842959 0.84626,-0.713822 2.26538,-0.713822 1.38006,0 2.22632,0.713822 0.85929,0.700843 0.85929,1.842959 z"
           style="font-weight:900;font-size:26.6398px;line-height:1.25;font-family:'Segoe UI';-inkscape-font-specification:'Segoe UI Heavy';fill:#baff10;fill-opacity:0.988345;stroke-width:0.263156"
           id="path7265" /></g></g><path
       style="fill:#b9ff0f;fill-opacity:0.992157;stroke-width:1"
       d="m 42.713771,-21.907126 c -1.300926,-0.318116 -2.67326,-1.513276 -3.322725,-2.893755 -0.708713,-1.506416 -0.88911,-2.469455 -0.88315,-4.714632 0.0079,-2.956036 0.514581,-4.597108 1.881231,-6.092443 1.148842,-1.257016 2.908092,-1.982452 5.280085,-2.177274 l 1.266618,-0.104032 0.03782,-3.201727 0.03782,-1.786459 h 2.671328 2.671328 v 9.776672 11.191943 l -2.278303,-0.03867 -2.278302,-0.03867 -0.195854,-0.773608 c -0.107722,-0.425483 -0.220687,-0.798439 -0.251036,-0.828785 -0.03034,-0.03037 -0.346918,0.269308 -0.703489,0.665902 -0.495705,0.551344 -0.817351,0.771279 -1.366428,0.934337 -0.749918,0.222702 -1.846444,0.257388 -2.566954,0.0812 z m 4.102221,-4.587358 c 0.187363,-0.256234 0.277315,-6.072969 0.104558,-6.761285 -0.09,-0.358579 -0.123369,-0.369958 -0.916727,-0.312571 -1.576088,0.114004 -2.022725,1.0668 -1.925568,4.107749 0.0668,2.090768 0.333258,2.8868 1.059437,3.165 0.526527,0.201713 1.466855,0.09028 1.6783,-0.198893 z m 20.596821,4.568587 c -4.107777,-0.72095 -5.84085,-3.399549 -5.585335,-8.632569 0.09202,-1.88445 0.291663,-2.77151 0.890927,-3.958466 1.039592,-2.059128 3.230307,-3.301962 5.820287,-3.301962 2.559272,0 4.432516,1.135173 5.416283,3.282233 0.610551,1.332514 0.779066,2.18217 0.877258,4.423023 l 0.08171,1.864742 H 71.07542 67.236897 l 0.08958,0.45739 c 0.115356,0.588987 0.497297,1.105951 1.013768,1.372169 0.488876,0.251991 4.113575,0.278451 5.088997,0.03715 l 0.598126,-0.147965 v 2.14701 2.147008 l -0.809226,0.173536 c -1.0443,0.223946 -4.803812,0.312472 -5.80533,0.136702 z m 2.391715,-10.228402 c -0.0011,-0.823485 -0.218079,-1.641293 -0.514392,-1.937608 -0.147994,-0.14799 -0.413903,-0.208813 -0.789859,-0.180668 -0.803013,0.06012 -1.103081,0.509424 -1.194612,1.788752 l -0.07141,0.998016 h 1.285528 1.285527 l -0.0011,-0.668492 z m 8.233794,10.170296 c -0.541828,-0.100941 -1.159304,-0.251983 -1.372165,-0.335653 l -0.387026,-0.152127 v -2.129567 c 0,-1.9721 0.01819,-2.122242 0.246287,-2.030449 1.011182,0.406969 4.409946,0.642939 5.158933,0.358175 0.436365,-0.165907 0.632588,-0.782778 0.341573,-1.073799 -0.110324,-0.110322 -1.039326,-0.41137 -2.06445,-0.668995 -2.051928,-0.515672 -2.721713,-0.877625 -3.491402,-1.886754 -0.557907,-0.731466 -0.809779,-1.851295 -0.722455,-3.212038 0.140761,-2.193325 1.422245,-3.597714 3.985539,-4.367796 1.475867,-0.443386 5.828585,-0.321707 6.327163,0.176875 0.167249,0.167249 0.21102,0.615897 0.21102,2.162955 0,1.073564 -0.0475,1.98048 -0.105553,2.015368 -0.05805,0.03489 -0.5172,-0.02339 -1.020331,-0.129497 -1.211554,-0.255521 -3.251419,-0.255313 -3.863411,3.94e-4 -0.262201,0.109554 -0.544238,0.325331 -0.626748,0.479505 -0.27794,0.519339 0.185967,0.808889 1.956924,1.221414 3.123467,0.727579 4.169325,1.66334 4.430058,3.963725 0.320105,2.824152 -1.362783,4.968341 -4.405617,5.613248 -1.150421,0.243823 -3.275147,0.24152 -4.598339,-0.0048 z m 11.724983,-0.06872 c -0.672466,-0.141813 -1.289942,-0.299425 -1.372171,-0.350244 -0.147382,-0.09108 -0.225132,-4.034566 -0.08236,-4.177338 0.03691,-0.03693 0.622742,0.04645 1.301804,0.185283 0.683407,0.139721 1.850163,0.25348 2.613224,0.25479 1.277618,0.0022 1.403862,-0.02293 1.724004,-0.343078 0.694024,-0.694022 0.37094,-0.970105 -1.73602,-1.483474 -1.948743,-0.474819 -2.342002,-0.646311 -3.144339,-1.371174 -0.726072,-0.655962 -1.075688,-1.353567 -1.232022,-2.458298 -0.496807,-3.510761 1.769727,-5.730155 6.105988,-5.978996 1.256181,-0.07209 3.513231,0.109671 4.084612,0.32893 0.170861,0.06557 0.207813,0.466636 0.207813,2.25557 0,2.074907 -0.01245,2.17188 -0.267855,2.090809 -1.193634,-0.378844 -3.833204,-0.469297 -4.580707,-0.156971 -0.525327,0.219497 -0.825954,0.645398 -0.695508,0.985338 0.08835,0.230213 0.314935,0.305997 2.370747,0.792902 1.605786,0.380317 2.432108,0.802656 3.136813,1.603246 0.69196,0.78611 0.947321,1.633507 0.922502,3.061297 -0.04308,2.480092 -1.654984,4.257511 -4.385926,4.83636 -1.277644,0.270813 -3.489162,0.237462 -4.970598,-0.07495 z m 12.550945,0.154515 c -1.58997,-0.521344 -2.30764,-1.533813 -2.3069,-3.254514 2.8e-4,-0.808682 0.0718,-1.192202 0.30564,-1.640026 0.59799,-1.145341 1.71554,-1.745229 3.22556,-1.731443 2.00586,0.01831 3.32154,1.346576 3.32154,3.353325 0,1.401522 -0.61542,2.466071 -1.77299,3.066952 -0.50089,0.260004 -2.21862,0.387434 -2.77285,0.205706 z m 7.23881,-0.204472 c -2.08888,-0.994491 -2.55647,-3.804284 -0.90751,-5.453245 0.76606,-0.766061 1.67154,-1.053632 2.95199,-0.937525 4.50228,0.619615 2.83229,6.373227 -0.34569,6.683391 -0.81382,0.03894 -1.10925,-0.01197 -1.69879,-0.292621 z M 7.6003217,-32.39926 v -10.486104 h 6.8153413 c 6.198565,0 6.819458,0.02085 6.860844,0.23033 0.02503,0.126681 0.0265,1.17164 0.0032,2.322131 l -0.04223,2.091803 h -4.07427 -4.07427 v 1.618456 1.618456 h 3.377646 3.377646 v 2.322131 2.322133 h -3.38169 -3.381731 l 0.03927,1.864742 0.03927,1.864742 4.19035,0.03728 4.19035,0.03728 -0.03866,2.284849 -0.03866,2.284848 -6.931212,0.03649 -6.9312123,0.03654 z m 15.8269193,10.307534 c -0.03703,-0.09676 -0.05088,-3.627453 -0.03077,-7.845993 l 0.03656,-7.670072 h 2.240164 2.240164 l 0.209701,0.774044 c 0.115334,0.425724 0.230088,0.799137 0.255008,0.829805 0.02492,0.03067 0.31576,-0.193517 0.646312,-0.498192 1.03177,-0.950998 1.80981,-1.246676 3.274973,-1.244583 1.545629,0.0022 2.290451,0.312211 3.211536,1.33668 1.176273,1.308299 1.365128,2.635638 1.356406,9.53331 l -0.0063,4.96092 h -2.733272 -2.733271 l -0.04014,-5.192594 c -0.0377,-4.87731 -0.05641,-5.210568 -0.308231,-5.488675 -0.345865,-0.381968 -1.12551,-0.389218 -1.737378,-0.01615 l -0.45739,0.278876 v 5.209273 5.209276 h -2.678385 c -2.012976,0 -2.695115,-0.04372 -2.745719,-0.17592 z m 31.178661,-11.009497 v -9.776225 h 2.745185 2.745185 l -0.03603,9.738002 -0.03603,11.153272 -2.709154,0.03819 -2.709154,0.03824 z"
       id="path121339"
       sodipodi:nodetypes="csssscccccccccccssccsssssscssssscccssscccscccssccccccscsssssssssssssssssccscsssssscssscsssscssscssssscsssccssscccccccccccccccccccccsscccssscssccccsscccsssccccccccccc" /></g></svg>
