<?xml version="1.0" encoding="UTF-8" standalone="no"?>
<!-- Created with Inkscape (http://www.inkscape.org/) -->

<svg
   width="117.876mm"
   height="14.315mm"
   viewBox="0 0 117.87557 14.315003"
   version="1.1"
   id="svg129077"
   inkscape:version="1.2.2 (732a01da63, 2022-12-09)"
   sodipodi:docname="playground.svg"
   xml:space="preserve"
   xmlns:inkscape="http://www.inkscape.org/namespaces/inkscape"
   xmlns:sodipodi="http://sodipodi.sourceforge.net/DTD/sodipodi-0.dtd"
   xmlns="http://www.w3.org/2000/svg"
   xmlns:svg="http://www.w3.org/2000/svg"><sodipodi:namedview
     id="namedview129079"
     pagecolor="#ffffff"
     bordercolor="#000000"
     borderopacity="0.25"
     inkscape:showpageshadow="2"
     inkscape:pageopacity="0.0"
     inkscape:pagecheckerboard="0"
     inkscape:deskcolor="#d1d1d1"
     inkscape:document-units="mm"
     showgrid="false"
     inkscape:zoom="2.6456982"
     inkscape:cx="187.47415"
     inkscape:cy="-22.489338"
     inkscape:window-width="1230"
     inkscape:window-height="728"
     inkscape:window-x="59"
     inkscape:window-y="0"
     inkscape:window-maximized="0"
     inkscape:current-layer="layer1"
     inkscape:lockguides="false"
     showguides="true"><sodipodi:guide
       position="-13.196464,76.627523"
       orientation="0,-1"
       id="guide121341"
       inkscape:locked="false" /><sodipodi:guide
       position="9.334258,19.917436"
       orientation="0,-1"
       id="guide121705"
       inkscape:locked="false" /></sodipodi:namedview><defs
     id="defs129074" /><g
     inkscape:label="Layer 1"
     inkscape:groupmode="layer"
     id="layer1"><g
       id="g12210"
       transform="matrix(0.99369443,0,0,1.0264856,0.1199041,0.81500611)"
       style="fill:#92d119;fill-opacity:1"><path
         d="m 3.69462,8.4601937 q 0,0.7276601 -0.5140604,1.1754508 -0.5140603,0.4477915 -1.4216982,0.4477915 -0.8273159,0 -1.35744066,-0.463784 -0.52209256,-0.4717796 -0.52209256,-1.1594583 0,-0.7036713 0.51406037,-1.1354696 0.52209256,-0.4397944 1.39760165,-0.4397944 0.8514124,0 1.373505,0.4397944 Q 3.69462,7.7565224 3.69462,8.4601937 Z"
         style="font-weight:900;font-size:16.4131px;line-height:1.25;font-family:'Segoe UI';-inkscape-font-specification:'Segoe UI Heavy';fill:#92d119;fill-opacity:1;stroke-width:0.162242"
         id="path12167" /><path
         d="m 8.9557067,8.4601937 q 0,0.7276601 -0.5140604,1.1754508 -0.5140604,0.4477915 -1.4216982,0.4477915 -0.8273159,0 -1.3574407,-0.463784 -0.5220926,-0.4717796 -0.5220926,-1.1594583 0,-0.7036713 0.5140604,-1.1354696 0.5220926,-0.4397944 1.3976016,-0.4397944 0.8514125,0 1.3735051,0.4397944 0.5301248,0.4317983 0.5301248,1.1354696 z"
         style="font-weight:900;font-size:16.4131px;line-height:1.25;font-family:'Segoe UI';-inkscape-font-specification:'Segoe UI Heavy';fill:#92d119;fill-opacity:1;stroke-width:0.162242"
         id="path12169" /><path
         d="m 14.216793,8.4601937 q 0,0.7276601 -0.514061,1.1754508 -0.51406,0.4477915 -1.421697,0.4477915 -0.827316,0 -1.357441,-0.463784 -0.522092,-0.4717796 -0.522092,-1.1594583 0,-0.7036713 0.51406,-1.1354696 0.522093,-0.4397944 1.397601,-0.4397944 0.851412,0 1.373505,0.4397944 0.530125,0.4317983 0.530125,1.1354696 z"
         style="font-weight:900;font-size:16.4131px;line-height:1.25;font-family:'Segoe UI';-inkscape-font-specification:'Segoe UI Heavy';fill:#92d119;fill-opacity:1;stroke-width:0.162242"
         id="path12171" /></g><path
       d="m 26.802589,3.8562118 c 0,0.804389 -0.223727,1.5184893 -0.671182,2.1423012 -0.441486,0.6238117 -1.073887,1.1080867 -1.8972,1.4528248 -0.823314,0.339266 -1.780864,0.5088991 -2.87265,0.5088991 H 20.18028 V 12.543948 H 16.314285 V -0.02619599 h 5.26205 c 1.807711,0 3.129189,0.31464192 3.964435,0.94392576 0.841212,0.62928383 1.261819,1.60877783 1.261819,2.93848203 z m -4.089723,0.1231207 c 0,-0.4815389 -0.152134,-0.8454292 -0.456401,-1.0916707 C 21.952196,2.6414204 21.504743,2.5182996 20.914104,2.5182996 H 20.18028 v 2.9056498 h 0.86806 c 1.109684,0 1.664526,-0.481539 1.664526,-1.4446169 z"
       style="font-weight:900;font-size:16.4131px;line-height:1.25;font-family:'Segoe UI';-inkscape-font-specification:'Segoe UI Heavy';fill:#92d119;fill-opacity:1;stroke-width:0.173505"
       id="path12173"
       sodipodi:nodetypes="sccsccccscssssccss" /><path
       d="M 27.783853,12.653218 V -0.02417915 h 3.883989 V 12.653218 Z"
       style="font-weight:900;font-size:16.4131px;line-height:1.25;font-family:'Segoe UI';-inkscape-font-specification:'Segoe UI Heavy';fill:#92d119;fill-opacity:1;stroke-width:0.176768"
       id="path12175" /><path
       d="m 38.715554,12.543948 v -1.304534 h -0.03647 q -0.92997,1.513595 -2.844613,1.513595 -1.322014,0 -2.069637,-0.719167 -0.747624,-0.719166 -0.747624,-1.923352 0,-2.5254445 3.382537,-2.9268396 l 2.315808,-0.2759593 q 0,-0.4181199 -0.410282,-0.6857166 -0.410281,-0.2675968 -1.103198,-0.2675968 -1.568184,0 -3.309597,0.8195151 V 4.4575083 q 0.756735,-0.3010464 1.896404,-0.4933815 1.139668,-0.1923351 1.95111,-0.1923351 2.379627,0 3.446358,0.9365886 1.075847,0.9282262 1.075847,3.1108123 V 12.543948 Z M 36.417982,9.633833 q 0,0.3512216 0.237051,0.577005 0.246168,0.225787 0.692919,0.225787 0.610861,0 0.984672,-0.418121 0.38293,-0.4181199 0.38293,-1.0703869 V 8.6219829 L 37.402656,8.7892312 Q 36.417982,8.939754 36.417982,9.633833 Z"
       style="font-weight:900;font-size:16.4131px;line-height:1.25;font-family:'Segoe UI';-inkscape-font-specification:'Segoe UI Heavy';fill:#92d119;fill-opacity:1;stroke-width:0.176768"
       id="path12177" /><path
       d="m 45.342285,11.336565 q -0.493808,0 -1.061689,-0.08303 -0.567881,-0.07547 -1.012309,-0.22646 V 8.6039465 q 0.205753,0.1434251 0.609031,0.264203 0.411507,0.1207794 0.773634,0.1207794 0.979388,0 1.300365,-0.7095752 l 0.271594,-0.603892 -3.522504,-7.69964085 h 3.8764 l 1.020539,3.72904195 q 0.296287,1.0417165 0.320977,1.4040523 h 0.03292 q 0.02468,-0.1660705 0.06583,-0.3698849 0.04939,-0.2038139 1.283903,-4.76320935 H 52.70826 L 49.605507,7.9245669 q -0.699564,1.8267782 -1.736562,2.6193881 -1.02877,0.79261 -2.526658,0.79261 z"
       style="font-weight:900;font-size:16.4131px;line-height:1.25;font-family:'Segoe UI';-inkscape-font-specification:'Segoe UI Heavy';fill:#92d119;fill-opacity:1;stroke-width:0.159567"
       id="path12179" /><path
       d="m 72.297702,7.0331272 q -0.218816,-0.091987 -0.592627,-0.1672481 -0.373812,-0.075262 -0.61998,-0.075262 -1.923761,0 -1.923761,2.0404251 V 12.543948 H 65.277346 V 3.9808516 h 3.883988 v 1.5052317 h 0.03648 q 0.35557,-0.8111525 1.01202,-1.2292725 0.656449,-0.4264824 1.531715,-0.4264824 0.319107,0 0.556158,0.1003485 z"
       style="font-weight:900;font-size:16.4131px;line-height:1.25;font-family:'Segoe UI';-inkscape-font-specification:'Segoe UI Heavy';fill:#92d119;fill-opacity:1;stroke-width:0.176768"
       id="path12183" /><path
       d="m 83.728793,8.1118765 q 0,2.1658615 -1.431423,3.4034965 -1.422305,1.237636 -3.98428,1.237636 -2.543739,0 -3.966045,-1.204187 -1.413189,-1.212548 -1.413189,-3.3365967 0,-1.3630709 0.665565,-2.3665587 0.665567,-1.0034879 1.896409,-1.5386816 1.230842,-0.5351933 2.835496,-0.5351933 1.659357,0 2.871963,0.5602806 1.221724,0.5602807 1.869056,1.5554061 0.656448,0.9951256 0.656448,2.2243981 z M 79.7901,8.1286015 q 0,-1.7477415 -1.458774,-1.7477415 -1.458777,0 -1.458777,1.8313652 0,1.9317148 1.47701,1.9317148 1.440541,0 1.440541,-2.0153385 z"
       style="font-weight:900;font-size:16.4131px;line-height:1.25;font-family:'Segoe UI';-inkscape-font-specification:'Segoe UI Heavy';fill:#92d119;fill-opacity:1;stroke-width:0.176768"
       id="path12185" /><path
       d="m 90.922952,12.543948 v -1.321259 h -0.03647 q -0.483219,0.610456 -0.875266,0.894777 -0.38293,0.284321 -0.875265,0.459931 -0.48322,0.175612 -1.130551,0.175612 -1.531714,0 -2.334041,-0.911503 Q 84.86903,10.930005 84.86903,9.1488141 V 3.9808516 h 3.883991 v 4.9003659 q 0,1.2627225 1.030259,1.2627225 0.565275,0 0.847913,-0.342858 0.291754,-0.3428593 0.291754,-0.9700388 V 3.9808516 h 3.883989 v 8.5630964 z"
       style="font-weight:900;font-size:16.4131px;line-height:1.25;font-family:'Segoe UI';-inkscape-font-specification:'Segoe UI Heavy';fill:#92d119;fill-opacity:1;stroke-width:0.176768"
       id="path12187" /><path
       d="M 102.7208,12.543948 V 7.8693669 q 0,-0.7944278 -0.2644,-1.1372861 -0.2553,-0.3512208 -0.83881,-0.3512208 -0.50145,0 -0.78409,0.3595832 -0.28264,0.3595832 -0.28264,0.9198639 V 12.543948 H 96.666866 V 3.9808516 h 3.883994 v 1.3379838 h 0.0365 q 0.46498,-0.7358911 1.24906,-1.1372862 0.7841,-0.4097575 1.70495,-0.4097575 3.06343,0 3.06343,3.545657 v 5.2264993 z"
       style="font-weight:900;font-size:16.4131px;line-height:1.25;font-family:'Segoe UI';-inkscape-font-specification:'Segoe UI Heavy';fill:#92d119;fill-opacity:1;stroke-width:0.176768"
       id="path12189" /><path
       d="m 113.99155,12.543948 v -0.995126 h -0.0365 q -0.46498,0.560281 -1.2126,0.886416 -0.74762,0.317771 -1.47701,0.317771 -1.19437,0 -2.10611,-0.535194 -0.9117,-0.543557 -1.36757,-1.513596 -0.44674,-0.9700375 -0.44674,-2.2912961 0,-1.363071 0.53792,-2.416733 0.53792,-1.0536624 1.51348,-1.6390303 0.97555,-0.5853679 2.18816,-0.5853679 0.57439,0 1.05762,0.1505231 0.49233,0.1505232 0.84791,0.4097575 0.3647,0.250872 0.46499,0.5017438 h 0.0365 v -4.96726478 h 3.88398 V 12.543948 Z m 0.0821,-4.5407827 q 0,-0.7693406 -0.37382,-1.1958229 -0.36467,-0.4264824 -0.99379,-0.4264824 -0.62908,0 -1.03025,0.5351935 -0.39204,0.5268312 -0.39204,1.4132455 0,1.814641 1.36759,1.814641 0.64733,0 1.03027,-0.4850194 0.39204,-0.4933812 0.39204,-1.4299704 z"
       style="font-weight:900;font-size:16.4131px;line-height:1.25;font-family:'Segoe UI';-inkscape-font-specification:'Segoe UI Heavy';fill:#92d119;fill-opacity:1;stroke-width:0.176768"
       id="path12191" /><text
       xml:space="preserve"
       style="font-style:normal;font-weight:normal;font-size:17.2352px;line-height:1.25;font-family:sans-serif;mix-blend-mode:normal;fill:#baff10;fill-opacity:0.988345;stroke:none;stroke-width:0.170368"
       x="34.240906"
       y="36.22757"
       id="text114090-2-8"
       transform="scale(1.0022289,0.99777607)"><tspan
         sodipodi:role="line"
         id="tspan114088-0-8"
         style="font-style:normal;font-variant:normal;font-weight:900;font-stretch:normal;font-family:'Segoe UI';-inkscape-font-specification:'Segoe UI Heavy';fill:#baff10;fill-opacity:0.988345;stroke-width:0.170368"
         x="34.240906"
         y="36.22757">...playGround</tspan></text><path
       d="m 63.482303,11.785803 q -0.705603,0.386258 -2.108083,0.696944 -1.40249,0.302289 -2.674309,0.302289 -3.284079,0 -5.069844,-1.57862 -1.785785,-1.5870151 -1.785785,-4.4419651 0,-1.914496 0.897241,-3.400748 0.905958,-1.486253 2.543649,-2.258769 1.637681,-0.77251598 3.859011,-0.77251598 1.628974,0 3.475716,0.445036 V 3.9430899 q -0.862384,-0.377861 -1.655104,-0.520609 -0.792711,-0.151144 -1.733505,-0.151144 -1.550574,0 -2.473945,0.898469 -0.914664,0.89847 -0.914664,2.468692 0,1.503047 0.76657,2.351134 0.775287,0.848088 2.160353,0.848088 0.644617,0 0.949512,-0.06718 v -1.721366 h -2.395555 v -2.74579 h 6.158742 z"
       style="font-weight:900;font-size:17.2352px;line-height:1.25;font-family:'Segoe UI';-inkscape-font-specification:'Segoe UI Heavy';fill:#92d119;fill-opacity:1;stroke-width:0.17314"
       id="path130635" /><g
       id="g121719"
       transform="translate(14.200724,56.72053)"><g
         id="g10970"
         transform="scale(1,1.0171975)"><path
           d="M -3.367e-7,19.675538 V 1.0642412 H 11.626343 V 5.4510039 H 5.6243901 V 8.1635297 H 11.261799 V 12.550292 H 5.6243901 v 2.738483 h 6.4315939 v 4.386763 z"
           style="font-weight:900;font-size:26.6398px;line-height:1.25;font-family:'Segoe UI';-inkscape-font-specification:'Segoe UI Heavy';fill:#baff10;fill-opacity:0.988345;stroke-width:0.263156"
           id="path7247" /><path
           d="m 22.849084,19.675538 v -7.255031 q 0,-1.232966 -0.377563,-1.765088 -0.364544,-0.545101 -1.197787,-0.545101 -0.716068,0 -1.11967,0.55808 -0.403602,0.558078 -0.403602,1.427644 v 7.579496 H 14.204188 V 6.3854629 h 5.546274 v 2.0765739 h 0.05208 q 0.66399,-1.1421159 1.78366,-1.7650879 1.119671,-0.6359509 2.434632,-0.6359509 4.374526,0 4.374526,5.502922 v 8.111618 z"
           style="font-weight:900;font-size:26.6398px;line-height:1.25;font-family:'Segoe UI';-inkscape-font-specification:'Segoe UI Heavy';fill:#baff10;fill-opacity:0.988345;stroke-width:0.263156"
           id="path7249" /><path
           d="m 39.800371,19.675655 v -1.544452 h -0.05208 c -0.44266,0.57971 -1.019854,1.038287 -1.731583,1.37573 -0.711728,0.328791 -1.414777,0.493187 -2.109147,0.493187 -1.137029,0 -2.139524,-0.276876 -3.007486,-0.830629 -0.867961,-0.562406 -1.518932,-1.345448 -1.952913,-2.349126 -0.425301,-1.003677 -0.637952,-2.189055 -0.637952,-3.556132 0,-1.410341 0.256049,-2.660612 0.768146,-3.7508136 0.512098,-1.0902015 1.232506,-1.938136 2.161224,-2.5438035 0.928719,-0.6056675 1.970272,-0.9085012 3.124661,-0.9085012 0.546816,0 1.050234,0.077872 1.510253,0.2336147 0.468699,0.1557432 0.872302,0.3677268 1.210807,0.6359509 0.347184,0.2595715 0.568514,0.5191434 0.66399,0.7787155 h 0.05208 V 1.0643583 h 5.546273 V 19.675655 Z m 0.117174,-7.047373 c 0,-0.796021 -0.177932,-1.414667 -0.533796,-1.855939 -0.347184,-0.441272 -0.820223,-0.661908 -1.419117,-0.661908 -0.598893,0 -1.089291,0.276877 -1.471194,0.83063 -0.373223,0.545101 -0.559835,1.276228 -0.559835,2.193381 0,1.877569 0.650971,2.816354 1.952913,2.816354 0.616253,0 1.106651,-0.250919 1.471195,-0.752758 0.373223,-0.510491 0.559834,-1.250271 0.559834,-2.219339 z"
           style="font-weight:900;font-size:26.6398px;line-height:1.25;font-family:'Segoe UI';-inkscape-font-specification:'Segoe UI Heavy';fill:#baff10;fill-opacity:0.988345;stroke-width:0.263156"
           id="path7251"
           sodipodi:nodetypes="ccccsccssssccccccccscscsscss" /><path
           d="M 48.015626,19.675538 V 1.0642416 h 5.546273 V 19.675538 Z"
           style="font-weight:900;font-size:26.6398px;line-height:1.25;font-family:'Segoe UI';-inkscape-font-specification:'Segoe UI Heavy';fill:#baff10;fill-opacity:0.988345;stroke-width:0.263156"
           id="path7253"
           sodipodi:nodetypes="ccccc" /><path
           d="m 61.009007,14.60091 q 0.143214,0.856586 0.989476,1.349773 0.846262,0.480208 2.239341,0.480208 1.939893,0 3.671476,-0.73978 v 3.504219 q -2.018009,0.804673 -4.895302,0.804673 -3.489205,0 -5.429099,-1.778067 -1.939894,-1.778066 -1.939894,-4.892928 0,-2.141467 0.846263,-3.7767697 0.859282,-1.6353022 2.525767,-2.5567823 1.679506,-0.934458 3.697516,-0.934458 2.070088,0 3.541283,0.8046722 1.471194,0.8046733 2.226321,2.2582753 0.768146,1.4536015 0.768146,3.4003905 v 2.076574 z m 3.332972,-2.894225 q 0,-2.2972113 -1.653466,-2.2972113 -0.69003,0 -1.158729,0.6359513 -0.468699,0.622973 -0.546816,1.66126 z"
           style="font-weight:900;font-size:26.6398px;line-height:1.25;font-family:'Segoe UI';-inkscape-font-specification:'Segoe UI Heavy';fill:#baff10;fill-opacity:0.988345;stroke-width:0.263156"
           id="path7255" /><path
           d="m 81.996313,15.262818 q 0,2.258274 -1.731577,3.504218 -1.718565,1.232967 -4.80417,1.232967 -0.898341,0 -2.226321,-0.181701 -1.314962,-0.1817 -2.148204,-0.441271 v -3.880599 q 2.46067,1.090201 4.114136,1.090201 1.627428,0 1.627428,-0.843607 0,-0.350422 -0.377559,-0.571058 -0.377568,-0.233615 -1.978957,-0.765737 -1.770641,-0.558079 -2.577845,-1.479559 -0.807203,-0.92148 -0.807203,-2.401039 0,-2.0635962 1.640447,-3.2576256 1.653465,-1.2070094 4.634917,-1.2070094 1.744599,0 3.697515,0.5061651 V 10.292018 Q 80.238693,9.9415966 79.262235,9.7079818 78.285777,9.4743671 77.621789,9.4743671 q -0.546811,0 -0.872304,0.1817002 -0.325483,0.1817003 -0.325483,0.5061647 0,0.37638 0.351527,0.609994 0.351526,0.233614 1.406094,0.558079 2.044048,0.597015 2.929374,1.531473 0.885316,0.934459 0.885316,2.40104 z"
           style="font-weight:900;font-size:26.6398px;line-height:1.25;font-family:'Segoe UI';-inkscape-font-specification:'Segoe UI Heavy';fill:#baff10;fill-opacity:0.988345;stroke-width:0.263156"
           id="path7257" /><path
           d="m 94.872521,15.262818 q 0,2.258274 -1.731577,3.504218 -1.718565,1.232967 -4.80417,1.232967 -0.898338,0 -2.226322,-0.181701 -1.314962,-0.1817 -2.148201,-0.441271 v -3.880599 q 2.460672,1.090201 4.114139,1.090201 1.627424,0 1.627424,-0.843607 0,-0.350422 -0.37756,-0.571058 -0.37757,-0.233615 -1.978949,-0.765737 -1.770643,-0.558079 -2.577848,-1.479559 -0.807206,-0.92148 -0.807206,-2.401039 0,-2.0635962 1.640445,-3.2576256 1.653467,-1.2070094 4.634917,-1.2070094 1.744599,0 3.697515,0.5061651 V 10.292018 Q 93.114901,9.9415966 92.138443,9.7079818 91.161995,9.4743671 90.497998,9.4743671 q -0.546812,0 -0.872295,0.1817002 -0.325492,0.1817003 -0.325492,0.5061647 0,0.37638 0.351526,0.609994 0.351526,0.233614 1.406094,0.558079 2.044048,0.597015 2.929374,1.531473 0.885316,0.934459 0.885316,2.40104 z"
           style="font-weight:900;font-size:26.6398px;line-height:1.25;font-family:'Segoe UI';-inkscape-font-specification:'Segoe UI Heavy';fill:#baff10;fill-opacity:0.988345;stroke-width:0.263156"
           id="path7259" /></g><g
         id="g7298"
         transform="matrix(0.87305541,0,0,1,11.790584,0.42428045)"><path
           d="m 102.94457,17.365349 q 0,1.181052 -0.83324,1.907853 -0.83325,0.726801 -2.304442,0.726801 -1.340996,0 -2.200278,-0.752758 -0.846271,-0.765737 -0.846271,-1.881896 0,-1.142116 0.833249,-1.842959 0.846261,-0.713822 2.265377,-0.713822 1.380065,0 2.226325,0.713822 0.85928,0.700843 0.85928,1.842959 z"
           style="font-weight:900;font-size:26.6398px;line-height:1.25;font-family:'Segoe UI';-inkscape-font-specification:'Segoe UI Heavy';fill:#baff10;fill-opacity:0.988345;stroke-width:0.263156"
           id="path7261" /><path
           d="m 111.47229,17.365349 q 0,1.181052 -0.83324,1.907853 -0.83325,0.726801 -2.30444,0.726801 -1.341,0 -2.20028,-0.752758 -0.84627,-0.765737 -0.84627,-1.881896 0,-1.142116 0.83325,-1.842959 0.84626,-0.713822 2.26537,-0.713822 1.38006,0 2.22632,0.713822 0.85929,0.700843 0.85929,1.842959 z"
           style="font-weight:900;font-size:26.6398px;line-height:1.25;font-family:'Segoe UI';-inkscape-font-specification:'Segoe UI Heavy';fill:#baff10;fill-opacity:0.988345;stroke-width:0.263156"
           id="path7263" /><path
           d="m 120.00001,17.365349 q 0,1.181052 -0.83324,1.907853 -0.83325,0.726801 -2.30445,0.726801 -1.34099,0 -2.20027,-0.752758 -0.84628,-0.765737 -0.84628,-1.881896 0,-1.142116 0.83325,-1.842959 0.84626,-0.713822 2.26538,-0.713822 1.38006,0 2.22632,0.713822 0.85929,0.700843 0.85929,1.842959 z"
           style="font-weight:900;font-size:26.6398px;line-height:1.25;font-family:'Segoe UI';-inkscape-font-specification:'Segoe UI Heavy';fill:#baff10;fill-opacity:0.988345;stroke-width:0.263156"
           id="path7265" /></g></g></g></svg>
