<?xml version="1.0" encoding="UTF-8" standalone="no"?>
<!-- Created with Inkscape (http://www.inkscape.org/) -->

<svg
   width="100"
   height="100"
   viewBox="0 0 26.458332 26.458332"
   version="1.1"
   id="svg2787"
   inkscape:version="1.2.2 (732a01da63, 2022-12-09)"
   sodipodi:docname="projecten.svg"
   xmlns:inkscape="http://www.inkscape.org/namespaces/inkscape"
   xmlns:sodipodi="http://sodipodi.sourceforge.net/DTD/sodipodi-0.dtd"
   xmlns:xlink="http://www.w3.org/1999/xlink"
   xmlns="http://www.w3.org/2000/svg"
   xmlns:svg="http://www.w3.org/2000/svg">
  <sodipodi:namedview
     id="namedview2789"
     pagecolor="#ffffff"
     bordercolor="#000000"
     borderopacity="0.25"
     inkscape:showpageshadow="2"
     inkscape:pageopacity="0.0"
     inkscape:pagecheckerboard="0"
     inkscape:deskcolor="#d1d1d1"
     inkscape:document-units="mm"
     showgrid="false"
     inkscape:zoom="3.7415824"
     inkscape:cx="29.132059"
     inkscape:cy="73.498314"
     inkscape:window-width="1366"
     inkscape:window-height="705"
     inkscape:window-x="-8"
     inkscape:window-y="-8"
     inkscape:window-maximized="1"
     inkscape:current-layer="layer1" />
  <defs
     id="defs2784">
    <radialGradient
       inkscape:collect="always"
       xlink:href="#linearGradient51705"
       id="radialGradient51707"
       cx="80.92717"
       cy="23.283854"
       fx="80.92717"
       fy="23.283854"
       r="2.3989551"
       gradientTransform="matrix(0.09121776,-0.88937556,1.0277965,0.10541474,-76.82448,100.62393)"
       gradientUnits="userSpaceOnUse" />
    <linearGradient
       inkscape:collect="always"
       id="linearGradient51705">
      <stop
         style="stop-color:#e4e2ed;stop-opacity:1;"
         offset="0"
         id="stop51701" />
      <stop
         style="stop-color:#242034;stop-opacity:1;"
         offset="1"
         id="stop51703" />
    </linearGradient>
    <radialGradient
       inkscape:collect="always"
       xlink:href="#linearGradient52127"
       id="radialGradient52129"
       cx="77.355919"
       cy="-0.54782826"
       fx="77.355919"
       fy="-0.54782826"
       r="8.0335798"
       gradientTransform="matrix(1.558933,0.99927008,-0.89801303,1.4009647,-78.089763,-66.44642)"
       gradientUnits="userSpaceOnUse" />
    <linearGradient
       inkscape:collect="always"
       id="linearGradient52127">
      <stop
         style="stop-color:#fffae2;stop-opacity:1;"
         offset="0"
         id="stop52123" />
      <stop
         style="stop-color:#fff7ce;stop-opacity:1;"
         offset="0.11485147"
         id="stop52131" />
      <stop
         style="stop-color:#ffde4f;stop-opacity:1;"
         offset="0.40792078"
         id="stop52133" />
      <stop
         style="stop-color:#ffc221;stop-opacity:1;"
         offset="0.760396"
         id="stop52135" />
      <stop
         style="stop-color:#ffa605;stop-opacity:1;"
         offset="1"
         id="stop52125" />
    </linearGradient>
    <radialGradient
       inkscape:collect="always"
       xlink:href="#linearGradient21516"
       id="radialGradient21518"
       cx="-12.18971"
       cy="20.60494"
       fx="-12.18971"
       fy="20.60494"
       r="6.3662009"
       gradientTransform="matrix(1.6174177,0.06955582,-0.03637288,0.35034412,28.367418,18.535768)"
       gradientUnits="userSpaceOnUse" />
    <linearGradient
       inkscape:collect="always"
       id="linearGradient21516">
      <stop
         style="stop-color:#605a62;stop-opacity:1;"
         offset="0.19197074"
         id="stop21512" />
      <stop
         style="stop-color:#989399;stop-opacity:0.31444758;"
         offset="1"
         id="stop21514" />
    </linearGradient>
    <linearGradient
       inkscape:collect="always"
       xlink:href="#linearGradient15170"
       id="linearGradient15172"
       x1="-15.648705"
       y1="17.281696"
       x2="2.0717561"
       y2="20.393126"
       gradientUnits="userSpaceOnUse" />
    <linearGradient
       inkscape:collect="always"
       id="linearGradient15170">
      <stop
         style="stop-color:#dccd9a;stop-opacity:1;"
         offset="0"
         id="stop15166" />
      <stop
         style="stop-color:#aa4400;stop-opacity:0.93767703;"
         offset="1"
         id="stop15168" />
    </linearGradient>
    <linearGradient
       inkscape:collect="always"
       xlink:href="#linearGradient17471"
       id="linearGradient17473"
       x1="-17.019377"
       y1="7.6721411"
       x2="3.4424262"
       y2="7.6721411"
       gradientUnits="userSpaceOnUse" />
    <linearGradient
       inkscape:collect="always"
       id="linearGradient17471">
      <stop
         style="stop-color:#fae8c9;stop-opacity:1;"
         offset="0"
         id="stop17467" />
      <stop
         style="stop-color:#dc8427;stop-opacity:1;"
         offset="1"
         id="stop17469" />
    </linearGradient>
    <linearGradient
       inkscape:collect="always"
       xlink:href="#linearGradient21349"
       id="linearGradient21351"
       x1="-15.673205"
       y1="6.8083696"
       x2="2.0962551"
       y2="6.8083696"
       gradientUnits="userSpaceOnUse" />
    <linearGradient
       inkscape:collect="always"
       id="linearGradient21349">
      <stop
         style="stop-color:#c38e66;stop-opacity:1;"
         offset="0"
         id="stop21345" />
      <stop
         style="stop-color:#8b5b37;stop-opacity:1;"
         offset="1"
         id="stop21347" />
    </linearGradient>
    <linearGradient
       inkscape:collect="always"
       xlink:href="#linearGradient16633"
       id="linearGradient16635"
       x1="-17.009029"
       y1="10.925782"
       x2="3.4320812"
       y2="10.925782"
       gradientUnits="userSpaceOnUse" />
    <linearGradient
       inkscape:collect="always"
       id="linearGradient16633">
      <stop
         style="stop-color:#d7b088;stop-opacity:1;"
         offset="0"
         id="stop16629" />
      <stop
         style="stop-color:#8c2d07;stop-opacity:1;"
         offset="1"
         id="stop16631" />
    </linearGradient>
    <radialGradient
       inkscape:collect="always"
       xlink:href="#linearGradient10799"
       id="radialGradient23030-7-7-2"
       cx="15.860661"
       cy="-2.6314101"
       fx="15.860661"
       fy="-2.6314101"
       r="1.8648378"
       gradientTransform="matrix(1.4097645,0.41133515,-1.0148915,1.3285268,-14.357295,7.9912225)"
       gradientUnits="userSpaceOnUse" />
    <linearGradient
       inkscape:collect="always"
       id="linearGradient10799">
      <stop
         style="stop-color:#ffe2e2;stop-opacity:1;"
         offset="0"
         id="stop10793" />
      <stop
         style="stop-color:#ffa174;stop-opacity:1;"
         offset="0.38810959"
         id="stop10795" />
      <stop
         style="stop-color:#ff2121;stop-opacity:1;"
         offset="0.79518074"
         id="stop10797" />
    </linearGradient>
    <radialGradient
       inkscape:collect="always"
       xlink:href="#linearGradient10799"
       id="radialGradient23030-7-7-2-0"
       cx="15.860661"
       cy="-2.6314101"
       fx="15.860661"
       fy="-2.6314101"
       r="1.8648378"
       gradientTransform="matrix(-1.4097645,0.41133515,1.0148915,1.3285268,39.894823,3.9279211)"
       gradientUnits="userSpaceOnUse" />
    <radialGradient
       inkscape:collect="always"
       xlink:href="#linearGradient10799"
       id="radialGradient23030-7-7-2-0-2"
       cx="15.860661"
       cy="-2.6314101"
       fx="15.860661"
       fy="-2.6314101"
       r="1.8648378"
       gradientTransform="matrix(1.2224993,0.36625614,-0.88007903,1.182931,-13.537772,3.53111)"
       gradientUnits="userSpaceOnUse" />
  </defs>
  <g
     inkscape:label="Layer 1"
     inkscape:groupmode="layer"
     id="layer1">
    <circle
       style="fill:#ade3f4;fill-opacity:1;fill-rule:evenodd;stroke-width:0.223867"
       id="path29876"
       cx="13.229167"
       cy="14.816666"
       r="11" />
    <g
       id="g62734"
       transform="matrix(1,0,0,1.0323477,-53.175834,-133.85311)"
       style="stroke-width:0.984208">
      <g
         id="g57676"
         transform="translate(-34.649999,-10.182857)"
         style="stroke-width:0.984208">
        <g
           id="g90331"
           style="stroke-width:0.984208">
          <path
             id="path4915"
             style="fill:#a6dcdc;fill-opacity:1;fill-rule:evenodd;stroke-width:0.278901"
             d="m 24.994174,11.315617 c 0,5.272737 -2.500406,8.237514 -12.412617,7.956881 C 2.6693456,18.991865 0.26248458,16.588354 0.26248458,11.315617 c 0,-5.2727385 2.16159332,-8.6116935 12.45938842,-8.6116935 10.297795,0 12.272301,3.338955 12.272301,8.6116935 z"
             sodipodi:nodetypes="szszs" />
          <path
             style="fill:#a6dcdc;fill-opacity:1;stroke:#000000;stroke-width:0;stroke-linecap:round;stroke-linejoin:miter;stroke-dasharray:none;stroke-opacity:1"
             d="M 3.7332865,14.868144 0.33947713,20.984424 6.8038726,18.545671 Z"
             id="path56756"
             sodipodi:nodetypes="cccc" />
        </g>
      </g>
      <g
         id="g56946"
         transform="translate(-34.616544,-10.182857)"
         style="mix-blend-mode:multiply;stroke-width:0.984208">
        <g
           id="g90327"
           style="stroke-width:0.984208">
          <path
             id="path4915-7"
             style="mix-blend-mode:multiply;fill:#a9eaad;fill-opacity:1;fill-rule:evenodd;stroke-width:0.2789"
             d="m 9.3086373,21.539929 c 0,5.101353 2.3447267,7.953082 11.2700997,8.112338 8.925373,0.159256 11.137808,-3.010985 11.137808,-8.112338 0,-5.101353 -2.631392,-7.831871 -11.468537,-7.649316 -8.837145,0.182555 -10.9393707,2.547963 -10.9393707,7.649316 z"
             sodipodi:nodetypes="szszs" />
          <path
             style="fill:#a9eaad;fill-opacity:1;stroke:#000000;stroke-width:0;stroke-linecap:round;stroke-linejoin:miter;stroke-dasharray:none;stroke-opacity:1"
             d="m 28.122772,26.078274 3.032305,5.544014 -6.333961,-2.335585 z"
             id="path56756-6"
             sodipodi:nodetypes="cccc" />
        </g>
      </g>
    </g>
    <g
       id="g29719"
       transform="translate(-176.31982,92.327472)">
      <rect
         style="fill:url(#radialGradient51707);fill-opacity:1;fill-rule:evenodd;stroke-width:0.320325"
         id="rect51147"
         width="4.2895293"
         height="3.7300673"
         x="-48.572899"
         y="28.2904"
         rx="2.0860713"
         ry="2.0860713"
         transform="scale(-1,1)" />
      <path
         id="path49262"
         style="fill:url(#radialGradient52129);fill-opacity:1;fill-rule:evenodd;stroke-width:0.304354"
         d="m 46.599355,4.74678 a 9.0000833,8.3238025 0 0 0 -9.000356,8.32419 9.0000833,8.3238025 0 0 0 2.576547,5.821994 h -0.0083 c 2.172061,2.070167 2.345698,3.643851 2.556113,4.452537 0.1739,0.668338 0.453343,1.278155 1.350533,1.251643 0.504485,-0.01491 1.588801,-0.0168 2.252804,-0.01645 v 0.0011 c 0,0 0.129971,-8.54e-4 0.279046,-0.0011 0.148567,2.43e-4 0.279046,0.0011 0.279046,0.0011 v -0.0011 c 0.664053,-3.66e-4 1.748426,0.0016 2.252803,0.01645 0.897191,0.02652 1.175994,-0.583305 1.349894,-1.251643 0.210417,-0.808686 0.384054,-2.38237 2.556114,-4.452537 h -0.02043 A 9.0000833,8.3238025 0 0 0 55.599086,13.07097 9.0000833,8.3238025 0 0 0 46.599368,4.74678 Z" />
      <g
         id="g51137"
         transform="matrix(0.89404114,0,0,0.89404114,-24.89019,10.42926)">
        <path
           style="fill:none;stroke:#afafaf;stroke-width:2.13693;stroke-linecap:round;stroke-linejoin:miter;stroke-dasharray:none;stroke-opacity:1"
           d="m 76.397089,16.800856 h 6.853988"
           id="path49649" />
        <path
           style="fill:none;stroke:#eeeeee;stroke-width:1;stroke-linecap:round;stroke-linejoin:miter;stroke-dasharray:none;stroke-opacity:1"
           d="m 76.322429,16.405462 h 7.003309"
           id="path49649-1" />
      </g>
      <g
         id="g51141"
         transform="matrix(0.89404114,0,0,0.89404114,-25.007374,10.40691)">
        <path
           style="fill:none;stroke:#afafaf;stroke-width:2.13693;stroke-linecap:round;stroke-linejoin:miter;stroke-dasharray:none;stroke-opacity:1"
           d="m 76.528161,18.950966 h 6.853988"
           id="path49649-2" />
        <path
           style="fill:none;stroke:#eeeeee;stroke-width:1;stroke-linecap:round;stroke-linejoin:miter;stroke-dasharray:none;stroke-opacity:1"
           d="M 76.453501,18.555572 H 83.45681"
           id="path49649-1-5" />
      </g>
      <g
         id="g51145"
         transform="matrix(-0.89404114,0,0,0.89404114,117.95902,10.42926)">
        <path
           style="fill:none;stroke:#afafaf;stroke-width:2.10321;stroke-linecap:round;stroke-linejoin:miter;stroke-dasharray:none;stroke-opacity:1"
           d="m 76.896033,21.051075 h 6.118245"
           id="path49649-2-4" />
        <path
           style="fill:none;stroke:#eeeeee;stroke-width:1;stroke-linecap:round;stroke-linejoin:miter;stroke-dasharray:none;stroke-opacity:1"
           d="m 76.829387,20.648323 h 6.251537"
           id="path49649-1-5-0" />
      </g>
      <ellipse
         style="fill:#ffffff;fill-rule:evenodd;stroke-width:0.268189"
         id="path90349"
         cx="43.844063"
         cy="0.3618229"
         rx="2.0838096"
         ry="2.6757441"
         transform="matrix(0.97709194,0.21281761,-0.43143572,0.90214368,0,0)" />
    </g>
    <ellipse
       style="fill:url(#radialGradient21518);fill-opacity:1;fill-rule:evenodd;stroke-width:0.221449"
       id="path21510"
       cx="15.894396"
       cy="25.423927"
       rx="6.6659393"
       ry="1.4309927"
       transform="matrix(0.99956046,-0.02964591,0.03448896,0.99940508,0,0)"
       inkscape:transform-center-x="-5.392272"
       inkscape:transform-center-y="-0.78749017" />
    <g
       id="g47287"
       transform="matrix(0.92306163,0,0,0.92306163,0.95306485,3.5140376)">
      <g
         id="g21506"
         transform="matrix(0.73787976,0,0,0.74607325,18.367633,6.8294993)"
         style="stroke-width:0.99575">
        <path
           id="path14647-2-1-5"
           style="fill:url(#linearGradient15172);fill-opacity:1;fill-rule:evenodd;stroke:#44b2c8;stroke-width:0;stroke-dasharray:none;stroke-opacity:1"
           d="m -15.51758,10.997886 3.276602,10.091771 a 5.2561326,2.4758983 0 0 0 5.2565196,2.475848 5.2561326,2.4758983 0 0 0 5.2560479,-2.475848 l 3.664192,-10.091771 z" />
        <path
           id="path14647-5"
           style="fill:url(#linearGradient17473);fill-opacity:1;fill-rule:evenodd;stroke:#44b2c8;stroke-width:0;stroke-dasharray:none;stroke-opacity:1"
           d="m -6.7884745,4.3005124 a 10.230728,3.3714428 0 0 0 -10.2309005,3.3713704 10.230728,3.3714428 0 0 0 10.2309005,3.3718872 10.230728,3.3714428 0 0 0 10.2309,-3.3718872 10.230728,3.3714428 0 0 0 -10.2309,-3.3713704 z m 0.035657,0.8159709 A 8.8845978,2.4142406 0 0 1 2.1313944,7.5308062 8.8845978,2.4142406 0 0 1 -6.7528178,9.9451291 8.8845978,2.4142406 0 0 1 -15.637547,7.5308062 8.8845978,2.4142406 0 0 1 -6.7528175,5.1164833 Z" />
        <path
           id="path14647-9-6"
           style="fill:url(#linearGradient21351);fill-opacity:1;fill-rule:evenodd;stroke:#44b2c8;stroke-width:0;stroke-dasharray:none;stroke-opacity:1"
           d="m -6.7884745,5.1164833 a 8.8845978,2.4142406 0 0 0 -8.8847295,2.414323 8.8845978,2.4142406 0 0 0 0.751892,0.96945 9.5639706,3.3764713 0 0 1 8.3447109,-1.72961 9.5639706,3.3764713 0 0 1 8.1214681,1.593701 8.8845978,2.4142406 0 0 0 0.5513875,-0.833541 8.8845978,2.4142406 0 0 0 -8.884729,-2.414323 z" />
        <path
           id="path14647-9-3"
           style="fill:#362c25;fill-opacity:1;fill-rule:evenodd;stroke:#44b2c8;stroke-width:0;stroke-dasharray:none;stroke-opacity:1"
           d="M -6.6244389,6.7711635 A 9.6203053,3.3764709 0 0 0 -15.018303,8.5002563 8.9369308,2.4142403 0 0 0 -6.8375609,9.9451291 8.9369308,2.4142403 0 0 0 1.544867,8.3643473 9.6203053,3.3764709 0 0 0 -6.6244389,6.7711635 Z" />
        <path
           id="path14647-2-2"
           style="fill:url(#linearGradient16635);fill-opacity:1;fill-rule:evenodd;stroke:#44b2c8;stroke-width:0;stroke-dasharray:none;stroke-opacity:1"
           d="m -16.864087,8.2475586 0.511597,1.9001424 a 9.5639706,3.3764713 0 0 0 9.5637571,3.376021 9.5639706,3.3764713 0 0 0 9.5642741,-3.376021 L 3.2871379,8.2475586 A 10.230728,3.3714428 0 0 1 -6.7887329,11.04377 10.230728,3.3714428 0 0 1 -16.864087,8.2475586 Z" />
      </g>
      <path
         style="fill:#c8df3f;fill-opacity:1;stroke:#000000;stroke-width:0;stroke-linecap:butt;stroke-linejoin:miter;stroke-dasharray:none;stroke-opacity:1"
         d="m 13.117129,12.660739 c 0,0 -1.509596,-3.3867444 -4.8052313,-4.7915041 C 5.0162641,6.4644747 1.7827429,7.1377906 1.7827429,7.1377906 c 0,0 4.1425336,5.0131354 11.3343861,5.5229484 z"
         id="path21674" />
      <path
         style="fill:#c8df3f;fill-opacity:1;stroke:#000000;stroke-width:0;stroke-linecap:butt;stroke-linejoin:miter;stroke-dasharray:none;stroke-opacity:1"
         d="m 13.181383,12.767872 c 1.503546,-1.606131 3.100377,-4.9803367 7.873369,-3.8068189 3.299523,0.8112418 4.149245,1.9921039 4.149245,1.9921039 0,0 -3.20764,-0.556132 -5.148361,0.342128 -1.940724,0.898263 -6.874253,1.472587 -6.874253,1.472587 z"
         id="path21676"
         inkscape:transform-center-x="-5.7029181"
         inkscape:transform-center-y="-1.7400739"
         sodipodi:nodetypes="cscsc" />
      <path
         style="fill:#c8df3f;fill-opacity:1;stroke:#000000;stroke-width:0;stroke-linecap:butt;stroke-linejoin:miter;stroke-dasharray:none;stroke-opacity:1"
         d="m 13.906242,12.990642 c -0.211401,-2.929436 -0.211401,-7.9604232 2.677745,-10.3167084 2.889149,-2.35628507 6.271564,-2.29260168 6.271564,-2.29260168 0,0 -7.469502,11.14459208 -8.949309,12.60931008 z"
         id="path21680" />
      <path
         style="fill:#c8df3f;fill-opacity:1;stroke:#000000;stroke-width:0;stroke-linecap:butt;stroke-linejoin:miter;stroke-dasharray:none;stroke-opacity:1"
         d="M 13.35924,12.856776 C 13.659639,9.226822 13.884936,5.8516034 10.205064,3.1769014 6.5251911,0.50219923 3.4461134,0.94798311 3.4461134,0.94798311 c 0,0 9.6878286,10.31670789 9.9131266,11.90879289 z"
         id="path21682" />
      <path
         style="fill:#c8df3f;fill-opacity:1;stroke:#000000;stroke-width:0;stroke-linecap:butt;stroke-linejoin:miter;stroke-dasharray:none;stroke-opacity:1"
         d="m 14.23863,12.601886 c 2.541955,-1.662926 6.130599,0.110862 7.177285,1.773789 1.046688,1.662925 1.570032,2.328095 1.570032,2.328095 0,0 -6.504415,-0.997755 -8.747317,-4.101884 z"
         id="path21684" />
      <path
         style="fill:#c8df3f;fill-opacity:1;stroke:#000000;stroke-width:0;stroke-linecap:butt;stroke-linejoin:miter;stroke-dasharray:none;stroke-opacity:1"
         d="m 13.171646,12.852128 c -2.361336,-1.0833 -6.9970969,-0.776693 -8.8550086,2.437423 -0.5984893,1.035365 -0.9184752,3.140815 -0.9184752,3.140815 0,0 3.7225615,-1.425591 5.1983963,-2.238066 1.4758345,-0.812474 4.5750875,-3.340172 4.5750875,-3.340172 z"
         id="path21686"
         sodipodi:nodetypes="cscsc" />
      <path
         style="fill:#c8df3f;fill-opacity:1;stroke:#000000;stroke-width:0;stroke-linecap:butt;stroke-linejoin:miter;stroke-dasharray:none;stroke-opacity:1"
         d="m 13.688189,12.152492 c 1.992376,0.496321 1.697209,4.549613 0.368957,6.121297 -1.32825,1.571684 -2.361335,1.488964 -2.361335,1.488964 0,0 -1.254458,-5.459536 1.992378,-7.610261 z"
         id="path21688" />
      <path
         style="fill:#96be19;fill-opacity:1;stroke:#000000;stroke-width:0;stroke-linecap:butt;stroke-linejoin:miter;stroke-dasharray:none;stroke-opacity:1"
         d="m 14.217872,9.8464346 c 0,0 0.885501,-2.6710997 1.650374,-4.4489677 1.079564,-2.5093477 5.216585,-4.3510094 6.49812,-4.73280533 -1.42498,1.84273463 -2.574416,3.08407413 -3.858402,4.79968143 -1.084,1.4483955 -4.290092,4.3820916 -4.290092,4.3820916 z"
         id="path24398-1"
         sodipodi:nodetypes="cscsc"
         inkscape:transform-center-x="-4.7823458"
         inkscape:transform-center-y="-5.1541704" />
      <path
         style="fill:#96be19;fill-opacity:1;stroke:#000000;stroke-width:0;stroke-linecap:butt;stroke-linejoin:miter;stroke-dasharray:none;stroke-opacity:1"
         d="m 12.768395,10.241036 c 0,0 0.376125,-1.5846032 -0.330056,-3.362471 C 11.441615,4.3692173 5.4052068,1.5554266 4.2220086,1.1736308 5.5376447,3.0163655 7.4073053,4.2919957 8.5927669,6.0076029 9.5935883,7.4559985 12.768395,10.241036 12.768395,10.241036 Z"
         id="path24398-1-6"
         sodipodi:nodetypes="cscsc"
         inkscape:transform-center-x="4.4153809"
         inkscape:transform-center-y="-5.1541704" />
      <path
         style="fill:#96be19;fill-opacity:1;stroke:#000000;stroke-width:0;stroke-linecap:butt;stroke-linejoin:miter;stroke-dasharray:none;stroke-opacity:1"
         d="m 13.757142,10.944282 c 0,0 2.511281,-0.88749 4.253178,-1.3865848 2.458578,-0.7044389 5.604841,0.5247178 6.427152,1.0008308 -2.48261,-0.097 -4.150254,0.07324 -5.686112,0.87703 -1.535858,0.803794 -4.994218,-0.491276 -4.994218,-0.491276 z"
         id="path24398"
         sodipodi:nodetypes="cscsc"
         inkscape:transform-center-x="-5.8170254"
         inkscape:transform-center-y="-0.35683274" />
      <path
         style="fill:#96be19;fill-opacity:1;stroke:#000000;stroke-width:0;stroke-linecap:butt;stroke-linejoin:miter;stroke-dasharray:none;stroke-opacity:1"
         d="m 13.906617,12.302568 c 0,0 1.656165,-0.264727 3.377167,0.179337 2.429085,0.626765 4.79684,3.208502 5.354266,3.942668 -1.962229,-0.500784 -2.852386,-0.97631 -4.596536,-1.686071 -2.469917,-1.005101 -4.134897,-2.435934 -4.134897,-2.435934 z"
         id="path24398-3"
         sodipodi:nodetypes="cscsc"
         inkscape:transform-center-x="-5.0331143"
         inkscape:transform-center-y="2.2992181" />
      <path
         style="fill:#96be19;fill-opacity:1;stroke:#000000;stroke-width:0;stroke-linecap:butt;stroke-linejoin:miter;stroke-dasharray:none;stroke-opacity:1"
         d="m 14.334686,12.485388 c 0,0 0.424202,1.839659 0.426389,3.173631 0.0031,1.882813 -2.130437,3.151608 -2.842589,3.735097 0.396555,-2.114696 0.419154,-2.922847 0.730572,-4.341379 0.441003,-2.008804 1.279312,-2.81099 1.279312,-2.81099 z"
         id="path24398-3-2"
         sodipodi:nodetypes="cscscc"
         inkscape:transform-center-x="1.1031318"
         inkscape:transform-center-y="4.1501331" />
      <path
         style="fill:#96be19;fill-opacity:1;stroke:#000000;stroke-width:0;stroke-linecap:butt;stroke-linejoin:miter;stroke-dasharray:none;stroke-opacity:1"
         d="m 10.989641,12.981018 c 0,0 -2.3249857,0.200281 -3.7385573,0.895143 -2.4052284,1.182325 -2.8253197,2.191419 -3.3662735,3.949392 1.7591262,-0.669741 2.8667214,-1.253619 3.6142978,-1.63321 2.1208418,-1.076885 3.65182,-2.749773 3.65182,-2.749773 z"
         id="path24398-3-2-7"
         sodipodi:nodetypes="cscscc"
         inkscape:transform-center-x="4.1754878"
         inkscape:transform-center-y="2.6818174" />
      <path
         style="fill:#96be19;fill-opacity:1;stroke:#000000;stroke-width:0;stroke-linecap:butt;stroke-linejoin:miter;stroke-dasharray:none;stroke-opacity:1"
         d="m 10.871453,11.368144 c 0,0 -0.170244,-1.12034 -2.3472375,-2.4182318 C 6.7906481,7.9163851 4.1049002,7.8709442 3.1339302,7.9136821 c 1.2569151,1.0376364 1.8764139,1.4000211 3.2681043,2.1714439 1.9707921,1.092423 4.3947095,1.698966 4.3947095,1.698966 z"
         id="path24398-3-2-7-6"
         sodipodi:nodetypes="cscscc"
         inkscape:transform-center-x="4.530155"
         inkscape:transform-center-y="-1.8484359" />
      <g
         id="g14196"
         transform="matrix(0.98950015,0,0,1.039303,1.5930652,0.13083003)">
        <g
           id="g14185">
          <path
             id="path23014-4-0-5"
             style="fill:url(#radialGradient23030-7-7-2);fill-opacity:1;stroke:#000000;stroke-width:0;stroke-linecap:butt;stroke-linejoin:miter;stroke-dasharray:none;stroke-opacity:1"
             inkscape:transform-center-x="1.9427805"
             inkscape:transform-center-y="-0.6999913"
             d="m 12.061677,8.2117402 c -0.04132,0.00102 -0.08547,0.00512 -0.132292,0.012402 C 11.231811,8.3325611 10.7012,8.7301984 10.548591,9.560495 10.34936,8.8638697 9.8400548,8.5690546 9.1895009,8.5414358 8.1892158,8.4989698 8.4866699,9.785983 8.9781443,10.372332 c 0.055151,0.0658 0.1183728,0.12534 0.1865519,0.179317 -1.0454224,-0.266726 -1.7159694,0.04539 -2.1052974,0.643888 -0.51439,0.79075 0.947241,1.021449 1.7807694,0.839742 0.059942,-0.01307 0.1186593,-0.02962 0.1762167,-0.04909 -0.4539928,0.51177 -0.465155,1.019975 -0.1994711,1.486731 0.4420143,0.776533 1.5312682,-0.193571 1.8557002,-0.903304 0.0048,-0.0106 0.0094,-0.02137 0.01395,-0.03204 0.289731,0.528637 0.783693,0.729629 1.370459,0.708484 0.848573,-0.03058 0.677151,-0.927499 0.272335,-1.532723 0.574825,0.11454 1.059172,-0.05952 1.452624,-0.410311 0.729126,-0.650066 -0.584371,-1.227126 -1.42937,-1.249536 -0.07071,-0.0019 -0.141637,0.0015 -0.211873,0.0088 0.0086,-0.01065 0.01711,-0.02166 0.02532,-0.03256 0.460441,-0.6112808 0.73573,-1.8386977 -0.104382,-1.8179898 z" />
          <ellipse
             style="fill:#fff800;fill-opacity:1;fill-rule:evenodd;stroke-width:0.331077"
             id="path13160"
             cx="7.3556542"
             cy="13.324549"
             rx="1.1240214"
             ry="0.83956856"
             transform="matrix(0.96810783,-0.25053388,0.26238896,0.96496219,0,0)" />
        </g>
        <g
           id="g14181">
          <path
             id="path23014-4-0-5-0"
             style="fill:url(#radialGradient23030-7-7-2-0);fill-opacity:1;stroke:#000000;stroke-width:0;stroke-linecap:butt;stroke-linejoin:miter;stroke-dasharray:none;stroke-opacity:1"
             inkscape:transform-center-x="-1.9427802"
             inkscape:transform-center-y="-0.6999913"
             d="m 13.475851,4.1484388 c 0.04132,0.00102 0.08547,0.00512 0.132292,0.012402 0.697574,0.1084189 1.228185,0.5060562 1.380794,1.3363528 0.199231,-0.6966253 0.708536,-0.9914404 1.35909,-1.0190592 1.000285,-0.042466 0.702831,1.2445472 0.211356,1.8308963 -0.05515,0.0658 -0.118373,0.12534 -0.186552,0.179317 1.045423,-0.266726 1.71597,0.04539 2.105298,0.643888 0.51439,0.79075 -0.947241,1.021449 -1.78077,0.839742 -0.05994,-0.01307 -0.118659,-0.02962 -0.176216,-0.04909 0.453992,0.51177 0.465155,1.019975 0.199471,1.486731 -0.442015,0.7765333 -1.531268,-0.193571 -1.8557,-0.903304 -0.0048,-0.0106 -0.0094,-0.02137 -0.01395,-0.03204 -0.289731,0.528637 -0.783693,0.729629 -1.370459,0.708484 -0.848573,-0.03058 -0.677151,-0.927499 -0.272335,-1.532723 -0.574825,0.11454 -1.059172,-0.05952 -1.452624,-0.410311 -0.729126,-0.650066 0.584371,-1.227126 1.42937,-1.249536 0.07071,-0.0019 0.141637,0.0015 0.211873,0.0088 -0.0086,-0.01065 -0.01711,-0.02166 -0.02532,-0.03256 -0.460441,-0.6112808 -0.73573,-1.8386977 0.104382,-1.8179899 z" />
          <ellipse
             style="fill:#fff800;fill-opacity:1;fill-rule:evenodd;stroke-width:0.301701"
             id="path13160-3"
             cx="-16.129496"
             cy="2.4687428"
             rx="0.96732205"
             ry="0.81013298"
             transform="matrix(-0.9590665,-0.28318094,-0.23182854,0.97275666,0,0)" />
        </g>
        <g
           id="g14177">
          <path
             id="path23014-4-0-5-0-9"
             style="fill:url(#radialGradient23030-7-7-2-0-2);fill-opacity:1;stroke:#000000;stroke-width:0;stroke-linecap:butt;stroke-linejoin:miter;stroke-dasharray:none;stroke-opacity:1"
             inkscape:transform-center-x="1.6847122"
             inkscape:transform-center-y="-0.62327793"
             d="M 9.3718518,3.7274607 C 9.3360205,3.728369 9.2977351,3.7320196 9.2571327,3.7385036 8.6522205,3.8350406 8.1920929,4.1891001 8.0597556,4.9284029 7.8869893,4.3081221 7.4453376,4.0456164 6.8811995,4.0210244 6.0137867,3.9832123 6.2717286,5.1291793 6.6979188,5.6512692 6.7457428,5.7098582 6.8005678,5.762873 6.8596903,5.8109345 5.9531354,5.5734396 5.3716601,5.8513505 5.0340482,6.3842576 4.5879869,7.0883478 5.8554631,7.2937641 6.5782708,7.1319707 6.6302488,7.1203327 6.6811678,7.1055967 6.7310792,7.0882607 6.337393,7.5439447 6.3277128,7.9964545 6.5581048,8.4120582 6.941405,9.1034895 7.8859678,8.239701 8.1673041,7.6077487 c 0.00416,-0.00944 0.00815,-0.019028 0.012097,-0.028529 C 8.4306458,8.0499224 8.8589927,8.2288876 9.367816,8.2100599 10.103669,8.1828309 9.9550181,7.384207 9.6039755,6.8453106 10.102444,6.947298 10.522453,6.7923136 10.863641,6.4799664 11.495914,5.9011424 10.356895,5.3873235 9.6241406,5.3673694 c -0.061317,-0.00169 -0.1228227,0.00134 -0.183729,0.00784 0.00746,-0.00948 0.014837,-0.019286 0.021957,-0.028992 C 9.8616469,4.801924 10.100368,3.709022 9.3718518,3.7274607 Z" />
          <ellipse
             style="fill:#fff800;fill-opacity:1;fill-rule:evenodd;stroke-width:0.259777"
             id="path13160-3-5"
             cx="-3.5474005"
             cy="9.2243948"
             rx="0.84592551"
             ry="0.68682021"
             transform="matrix(-0.88391482,0.46764794,0.538214,0.84280821,0,0)" />
        </g>
      </g>
    </g>
    <text
       xml:space="preserve"
       style="font-weight:bold;font-size:6.35px;line-height:1.3;font-family:Consolas;-inkscape-font-specification:'Consolas Bold';text-align:center;text-anchor:middle;fill:#fe005b;fill-opacity:0.593284;stroke:#7c7777;stroke-width:0;stroke-linejoin:round;stroke-miterlimit:8;paint-order:fill markers stroke;stop-color:#000000"
       x="13.109213"
       y="32.212509"
       id="text97103"><tspan
         sodipodi:role="line"
         id="tspan97101"
         style="stroke-width:0"
         x="13.109213"
         y="32.212509">Home</tspan></text>
  </g>
</svg>
