<?xml version="1.0" encoding="UTF-8" standalone="no"?>
<!-- Created with Inkscape (http://www.inkscape.org/) -->

<svg
   width="6mm"
   height="6mm"
   viewBox="0 0 5.99999 6.0000012"
   version="1.1"
   id="svg129077"
   inkscape:version="1.2.2 (732a01da63, 2022-12-09)"
   sodipodi:docname="qm.svg"
   xml:space="preserve"
   xmlns:inkscape="http://www.inkscape.org/namespaces/inkscape"
   xmlns:sodipodi="http://sodipodi.sourceforge.net/DTD/sodipodi-0.dtd"
   xmlns="http://www.w3.org/2000/svg"
   xmlns:svg="http://www.w3.org/2000/svg"><sodipodi:namedview
     id="namedview129079"
     pagecolor="#ffffff"
     bordercolor="#000000"
     borderopacity="0.25"
     inkscape:showpageshadow="2"
     inkscape:pageopacity="0.0"
     inkscape:pagecheckerboard="0"
     inkscape:deskcolor="#d1d1d1"
     inkscape:document-units="mm"
     showgrid="false"
     inkscape:zoom="10.582793"
     inkscape:cx="9.0713295"
     inkscape:cy="14.126706"
     inkscape:window-width="1230"
     inkscape:window-height="728"
     inkscape:window-x="0"
     inkscape:window-y="0"
     inkscape:window-maximized="0"
     inkscape:current-layer="layer1"
     inkscape:lockguides="true"
     showguides="true"><sodipodi:guide
       position="-13.196495,76.627539"
       orientation="0,-1"
       id="guide121341"
       inkscape:locked="true" /><sodipodi:guide
       position="9.3342715,19.917453"
       orientation="0,-1"
       id="guide121705"
       inkscape:locked="true" /></sodipodi:namedview><defs
     id="defs129074" /><g
     inkscape:label="Layer 1"
     inkscape:groupmode="layer"
     id="layer1"><text
       xml:space="preserve"
       style="font-style:normal;font-weight:normal;font-size:16.4131px;line-height:1.25;font-family:sans-serif;mix-blend-mode:normal;fill:#baff10;fill-opacity:0.988345;stroke:none;stroke-width:0.162242"
       x="-15.350165"
       y="4.1763515"
       id="text114090-2-8"
       transform="scale(1.0022441,0.99776093)"><tspan
         sodipodi:role="line"
         id="tspan114088-0-8"
         style="font-style:normal;font-variant:normal;font-weight:normal;font-stretch:normal;font-family:Caladea;-inkscape-font-specification:Caladea;fill:#baff10;fill-opacity:0.988345;stroke-width:0.162242"
         x="-15.350165"
         y="4.1763515">»</tspan></text><path
       style="font-size:16.4131px;line-height:1.25;font-family:Caladea;-inkscape-font-specification:Caladea;fill:#668497;fill-opacity:0.988345;stroke-width:0.184586"
       d="M 3.1250014,10.13602 0.12500068,6.9829185 0.50378867,6.5882746 3.1250014,8.7429279 5.7613656,6.5882746 6.125002,6.9829185 Z"
       id="path131578"
       sodipodi:nodetypes="ccccccc" /><g
       aria-label="»"
       transform="matrix(0,0.83319227,-0.99776093,0,-10.169115,15.734809)"
       id="text114090-2-8-9"
       style="font-size:16.4131px;line-height:1.25;fill:#baff10;fill-opacity:0.988345;stroke-width:0.162242"><path
         d="m -4.3416518,-1.3849325 1.5920706,-3.0364234 -1.5920706,-3.0528364 0.508806,-0.3939144 3.11848891,3.151315 v 0.5908716 l -3.11848891,3.13490199 z m -3.6929474,0 1.5920707,-3.0364234 -1.5920707,-3.0528364 0.5088061,-0.3939144 3.1184889,3.151315 v 0.5908716 l -3.1184889,3.13490199 z"
         style="font-weight:bold;font-family:Caladea;-inkscape-font-specification:'Caladea Bold'"
         id="path131548" /></g><g
       id="g142675"
       transform="translate(0.11235253)"><path
         style="color:#000000;font-size:8.44174px;font-family:Caladea;-inkscape-font-specification:'Sitka Text Bold';text-align:center;text-anchor:middle;fill:#36557a;fill-opacity:0.988345;stroke:none;stroke-width:0;stroke-linecap:butt;stroke-linejoin:miter;stroke-miterlimit:8;stroke-opacity:1;-inkscape-stroke:none;paint-order:stroke fill markers"
         d="m 2.8843384,3.6003362 q -0.1354613,0 -0.2544028,-0.0423 Q 2.514298,3.5157361 2.4250918,3.4408975 2.3391895,3.3628051 2.2896305,3.2586819 2.2400714,3.1545587 2.2400714,3.0309123 q 0,-0.1269002 0.049559,-0.240785 0.049559,-0.1138847 0.1354613,-0.1984848 0.089206,-0.087854 0.2048438,-0.1399157 0.1189416,-0.052062 0.2544029,-0.052062 0.1354613,0 0.2544028,0.052062 0.1189417,0.052061 0.2048439,0.1399157 0.089206,0.0846 0.1387652,0.1984848 0.052863,0.1138848 0.052863,0.240785 0,0.1236464 -0.052863,0.2310235 -0.049559,0.1041232 -0.1387649,0.1789617 -0.085902,0.074839 -0.2048439,0.1171386 -0.1189416,0.0423 -0.2544031,0.0423 z"
         id="path142631" /><path
         style="color:#000000;font-size:8.44174px;font-family:Caladea;-inkscape-font-specification:'Sitka Text Bold';text-align:center;text-anchor:middle;fill:#36557a;fill-opacity:0.988345;stroke:none;stroke-width:0;stroke-linecap:butt;stroke-linejoin:miter;stroke-miterlimit:8;stroke-opacity:1;-inkscape-stroke:none;paint-order:stroke fill markers"
         d="m 1.021743,3.6003362 q -0.13546132,0 -0.25440282,-0.0423 -0.1156376,-0.0423 -0.2048438,-0.1171387 -0.0859023,-0.078092 -0.1354613,-0.1822156 -0.0495591,-0.1041232 -0.0495591,-0.2277696 0,-0.1269002 0.049559,-0.240785 0.049559,-0.1138847 0.1354613,-0.1984848 0.089206,-0.087854 0.2048438,-0.1399157 0.1189416,-0.052062 0.25440292,-0.052062 0.1354613,0 0.2544028,0.052062 0.1189417,0.052061 0.2048439,0.1399157 0.089206,0.0846 0.1387652,0.1984848 0.052863,0.1138848 0.052863,0.240785 0,0.1236464 -0.052863,0.2310235 Q 1.5701959,3.366059 1.48099,3.4408975 1.395088,3.5157365 1.2761461,3.5580361 q -0.1189416,0.0423 -0.2544031,0.0423 z"
         id="path142631-3" /><path
         style="color:#000000;font-size:8.44174px;font-family:Caladea;-inkscape-font-specification:'Sitka Text Bold';text-align:center;text-anchor:middle;fill:#36557a;fill-opacity:0.988345;stroke:none;stroke-width:0;stroke-linecap:butt;stroke-linejoin:miter;stroke-miterlimit:8;stroke-opacity:1;-inkscape-stroke:none;paint-order:stroke fill markers"
         d="m 4.7469339,3.6003362 q -0.1354613,0 -0.2544028,-0.0423 Q 4.3768935,3.5157361 4.2876873,3.4408975 4.201785,3.3628051 4.152226,3.2586819 4.1026669,3.1545587 4.1026669,3.0309123 q 0,-0.1269002 0.049559,-0.240785 0.049559,-0.1138847 0.1354613,-0.1984848 0.089206,-0.087854 0.2048438,-0.1399157 0.1189416,-0.052062 0.2544029,-0.052062 0.1354613,0 0.2544028,0.052062 0.1189417,0.052061 0.2048439,0.1399157 0.089206,0.0846 0.1387652,0.1984848 0.052863,0.1138848 0.052863,0.240785 0,0.1236464 -0.052863,0.2310235 -0.049559,0.1041232 -0.1387649,0.1789617 -0.085902,0.074839 -0.2048439,0.1171386 -0.1189416,0.0423 -0.2544031,0.0423 z"
         id="path142631-5" /></g><g
       aria-label="?"
       id="text137230-0"
       style="font-size:8.44174px;font-family:Caladea;-inkscape-font-specification:Caladea;text-align:center;text-anchor:middle;fill:#36557a;fill-opacity:0.988345;stroke:#009800;stroke-width:0;stroke-linecap:round;stroke-linejoin:round;stroke-miterlimit:8;stroke-opacity:0;paint-order:stroke fill markers"
       transform="matrix(0.88060632,0,0,0.86725778,-5.2919559,3.2485257)"><g
         id="path137309-5"
         style="fill:#36557a;fill-opacity:0.988345"><path
           style="color:#000000;-inkscape-font-specification:'Sitka Text Bold';fill:#36557a;fill-opacity:0.988345;stroke:none;stroke-linecap:butt;stroke-linejoin:miter;stroke-opacity:1;-inkscape-stroke:none"
           d="m 2.1802082,2.7523766 c 0.092546,-0.010005 0.1900956,-0.023762 0.292647,-0.041271 0.1025514,-0.017509 0.2026018,-0.042521 0.3001507,-0.075038 0.1000502,-0.035017 0.1938475,-0.078789 0.2813914,-0.131316 0.090045,-0.052527 0.1675842,-0.1175594 0.2326168,-0.195098 0.067534,-0.08004 0.121311,-0.175088 0.161331,-0.2851432 0.04002,-0.1100552 0.06003,-0.2388701 0.06003,-0.3864441 0,-0.1075539 -0.0075,-0.2101056 -0.022511,-0.3076545 C 3.4708565,1.2328633 3.442092,1.14657 3.3995706,1.0715323 3.3595506,0.99649471 3.300771,0.93771508 3.2232321,0.89519376 c -0.077539,-0.0450226 -0.17884,-0.0675339 -0.3039027,-0.0675339 -0.1275639,0 -0.2576295,0.0250126 -0.390196,0.0750377 C 2.396567,0.95022136 2.2690027,1.0077504 2.1464412,1.0752842 2.0263811,1.1428181 1.9150749,1.2128534 1.8125235,1.2853897 1.7124733,1.3554248 1.6286811,1.4142045 1.5611473,1.4617283 H 1.3585455 L 1.3247785,0.53126097 c 0.06003,-0.0250125 0.1388197,-0.0575289 0.2363688,-0.097549 0.1000501,-0.0400201 0.2138575,-0.0787896 0.3414214,-0.11630842 0.1300652,-0.04002 0.2713865,-0.073787 0.423963,-0.10130088 0.1525764,-0.0275138 0.3126572,-0.0412707 0.4802412,-0.0412707 0.2451229,0 0.4802415,0.0312658 0.7053543,0.0937971 C 3.73724,0.33116041 3.9360903,0.42495771 4.1086768,0.5500204 4.2812633,0.67508309 4.4188327,0.83141194 4.5213841,1.019006 4.6239355,1.2066 4.6752114,1.4254604 4.6752114,1.6755857 c 0,0.2676342 -0.046273,0.5015021 -0.1388198,0.7016024 C 4.4438452,2.5772884 4.3187822,2.7486248 4.1612032,2.8911963 4.0061254,3.0337678 3.8235334,3.1500764 3.6134281,3.2401216 3.405824,3.3301667 3.1869636,3.3989514 2.9568483,3.4464752 L 2.8555474,4.0467767 H 2.1802082 Z m 0.356429,3.0727933 c -0.1025514,0 -0.19885,-0.016258 -0.2888951,-0.048774 C 2.1601983,5.7438793 2.0826592,5.6988564 2.0151253,5.6413276 1.9500927,5.5812975 1.8988168,5.5112622 1.861298,5.4312221 1.8237792,5.351182 1.8050197,5.2636378 1.8050197,5.1685902 c 0,-0.097549 0.018759,-0.1900956 0.056278,-0.2776395 0.037519,-0.087544 0.088795,-0.1638323 0.1538273,-0.2288649 0.067534,-0.067534 0.145073,-0.121311 0.2326168,-0.1613311 0.090045,-0.04002 0.1863437,-0.06003 0.2888951,-0.06003 0.1025514,0 0.19885,0.02001 0.2888951,0.06003 0.090045,0.04002 0.1675843,0.093797 0.2326169,0.1613311 0.067534,0.065033 0.1200603,0.1413211 0.1575791,0.2288649 0.04002,0.087544 0.06003,0.1800906 0.06003,0.2776395 0,0.095048 -0.02001,0.1838424 -0.06003,0.2663838 -0.037519,0.08004 -0.090045,0.1488248 -0.1575788,0.2063536 -0.065033,0.057529 -0.1425717,0.1025515 -0.2326169,0.1350678 -0.090045,0.032516 -0.1863437,0.048774 -0.2888951,0.048774 z"
           id="path137314-1" /><path
           style="color:#000000;-inkscape-font-specification:'Sitka Text Bold';fill:#36557a;fill-opacity:0.988345;stroke:none;stroke-linecap:butt;stroke-linejoin:miter;stroke-opacity:1;-inkscape-stroke:none"
           d="m 2.1802082,2.7523766 q 0.1388197,-0.015008 0.292647,-0.041271 0.1538272,-0.026263 0.3001507,-0.075038 0.1500754,-0.052526 0.2813914,-0.131316 0.1350678,-0.07879 0.2326168,-0.195098 0.1013009,-0.1200603 0.161331,-0.2851432 0.06003,-0.1650829 0.06003,-0.3864441 0,-0.161331 -0.022511,-0.3076545 Q 3.4633527,1.1840889 3.3995706,1.0715323 3.3395405,0.9589758 3.2232321,0.89519376 3.1069236,0.82765984 2.9193294,0.82765984 q -0.1913461,0 -0.390196,0.0750377 Q 2.3302836,0.97398334 2.1464412,1.0752842 1.9663508,1.1765851 1.8125235,1.2853897 1.6624481,1.3904425 1.5611473,1.4617283 H 1.3585455 L 1.3247785,0.53126097 q 0.090045,-0.0375188 0.2363688,-0.097549 0.1500753,-0.0600302 0.3414214,-0.11630842 0.195098,-0.0600301 0.423963,-0.10130088 0.2288649,-0.0412707 0.4802412,-0.0412707 0.3676847,0 0.7053543,0.0937971 0.3376696,0.0937971 0.5965496,0.28139133 0.25888,0.18759423 0.4127073,0.4689856 0.1538273,0.2813913 0.1538273,0.6565797 0,0.4014517 -0.1388198,0.7016024 Q 4.3975719,2.6773389 4.1612032,2.8911963 3.9285863,3.1050537 3.6134281,3.2401216 3.3020216,3.3751894 2.9568483,3.4464752 L 2.8555474,4.0467767 H 2.1802082 Z m 0.356429,3.0727933 q -0.1538273,0 -0.2888951,-0.048774 Q 2.1164262,5.7276209 2.0151253,5.6413276 1.9175763,5.5512824 1.861298,5.4312221 1.8050197,5.3111618 1.8050197,5.1685902 q 0,-0.1463235 0.056278,-0.2776395 0.056278,-0.1313159 0.1538273,-0.2288649 0.1013009,-0.1013009 0.2326168,-0.1613311 0.1350678,-0.06003 0.2888951,-0.06003 0.1538273,0 0.2888951,0.06003 0.1350679,0.06003 0.2326169,0.1613311 0.1013008,0.097549 0.1575791,0.2288649 0.06003,0.131316 0.06003,0.2776395 0,0.1425716 -0.06003,0.2663838 Q 3.15945,5.5550343 3.0581492,5.6413276 2.9606002,5.7276209 2.8255323,5.7763954 2.6904645,5.8251699 2.5366372,5.8251699 Z"
           id="path137316-7" /></g></g><text
       xml:space="preserve"
       style="font-style:normal;font-variant:normal;font-weight:normal;font-stretch:normal;font-size:8.44174px;line-height:1.3;font-family:Caladea;-inkscape-font-specification:Caladea;text-align:center;text-anchor:middle;fill:#668497;fill-opacity:0.988345;stroke:#009800;stroke-width:0;stroke-linecap:round;stroke-linejoin:round;stroke-miterlimit:8;stroke-opacity:0;paint-order:stroke fill markers;stop-color:#000000"
       x="-3.5064573"
       y="4.3064523"
       id="text137230-8"><tspan
         sodipodi:role="line"
         id="tspan137228-7"
         style="font-style:normal;font-variant:normal;font-weight:bold;font-stretch:normal;font-family:'Sitka Text';-inkscape-font-specification:'Sitka Text Bold';stroke-width:0"
         x="-3.5064573"
         y="4.3064523">?</tspan></text></g></svg>
