<?xml version="1.0" encoding="UTF-8" standalone="no"?>
<!-- Created with Inkscape (http://www.inkscape.org/) -->

<svg
   width="154.96063"
   height="37.795277"
   viewBox="0 0 40.999923 10.000002"
   version="1.1"
   id="svg129077"
   inkscape:version="1.2.2 (732a01da63, 2022-12-09)"
   sodipodi:docname="qm.svg"
   xml:space="preserve"
   xmlns:inkscape="http://www.inkscape.org/namespaces/inkscape"
   xmlns:sodipodi="http://sodipodi.sourceforge.net/DTD/sodipodi-0.dtd"
   xmlns:xlink="http://www.w3.org/1999/xlink"
   xmlns="http://www.w3.org/2000/svg"
   xmlns:svg="http://www.w3.org/2000/svg"><sodipodi:namedview
     id="namedview129079"
     pagecolor="#ffffff"
     bordercolor="#000000"
     borderopacity="0.25"
     inkscape:showpageshadow="2"
     inkscape:pageopacity="0.0"
     inkscape:pagecheckerboard="0"
     inkscape:deskcolor="#d1d1d1"
     inkscape:document-units="mm"
     showgrid="false"
     inkscape:zoom="10.582793"
     inkscape:cx="115.56495"
     inkscape:cy="24.804416"
     inkscape:window-width="1350"
     inkscape:window-height="728"
     inkscape:window-x="0"
     inkscape:window-y="0"
     inkscape:window-maximized="0"
     inkscape:current-layer="layer1"
     inkscape:lockguides="true"
     showguides="true"><sodipodi:guide
       position="-13.196495,76.627539"
       orientation="0,-1"
       id="guide121341"
       inkscape:locked="true" /><sodipodi:guide
       position="9.3342715,19.917453"
       orientation="0,-1"
       id="guide121705"
       inkscape:locked="true" /></sodipodi:namedview><defs
     id="defs129074"><linearGradient
       inkscape:collect="always"
       id="linearGradient45989"><stop
         style="stop-color:#626262;stop-opacity:1;"
         offset="0.38613865"
         id="stop45987" /><stop
         style="stop-color:#fcfcfc;stop-opacity:1;"
         offset="1"
         id="stop45985" /></linearGradient><linearGradient
       inkscape:collect="always"
       id="linearGradient45858"><stop
         style="stop-color:#fcfcfc;stop-opacity:0;"
         offset="0.26138613"
         id="stop45854" /><stop
         style="stop-color:#768190;stop-opacity:0.42492917;"
         offset="0.98613864"
         id="stop45856" /></linearGradient><linearGradient
       inkscape:collect="always"
       id="linearGradient45506"><stop
         style="stop-color:#fcfcfc;stop-opacity:0;"
         offset="0.1920792"
         id="stop45502" /><stop
         style="stop-color:#5c6a72;stop-opacity:0.46175635;"
         offset="0.98811883"
         id="stop45504" /></linearGradient><linearGradient
       inkscape:collect="always"
       id="linearGradient25411"><stop
         style="stop-color:#fcfcfc;stop-opacity:1;"
         offset="0"
         id="stop25407" /><stop
         style="stop-color:#fcfcfc;stop-opacity:0;"
         offset="0.77623761"
         id="stop25409" /></linearGradient><linearGradient
       inkscape:collect="always"
       id="linearGradient24746"><stop
         style="stop-color:#98a6b4;stop-opacity:1;"
         offset="0"
         id="stop24742" /><stop
         style="stop-color:#ffffff;stop-opacity:0.99150139;"
         offset="1"
         id="stop24744" /></linearGradient><linearGradient
       inkscape:collect="always"
       id="linearGradient22906"><stop
         style="stop-color:#98a6b4;stop-opacity:1;"
         offset="0"
         id="stop22902" /><stop
         style="stop-color:#ffffff;stop-opacity:1;"
         offset="1"
         id="stop22904" /></linearGradient><linearGradient
       inkscape:collect="always"
       xlink:href="#linearGradient24746"
       id="linearGradient23726"
       x1="-0.1214525"
       y1="0.45080408"
       x2="33.09697"
       y2="0.45080417"
       gradientUnits="userSpaceOnUse"
       gradientTransform="matrix(-0.70419565,0,0,0.70419565,27.59567,4.7519969)" /><linearGradient
       inkscape:collect="always"
       xlink:href="#linearGradient22906"
       id="linearGradient23761"
       gradientUnits="userSpaceOnUse"
       gradientTransform="matrix(0.29128844,0,0,0.29128844,31.017252,4.9381365)"
       x1="-0.44119564"
       y1="0.45080414"
       x2="34.458809"
       y2="0.45080414" /><linearGradient
       inkscape:collect="always"
       xlink:href="#linearGradient25411"
       id="linearGradient25413"
       x1="1.0042582"
       y1="5.0694504"
       x2="26.50684"
       y2="5.0694504"
       gradientUnits="userSpaceOnUse"
       gradientTransform="matrix(0.917251,0,0,0.917251,3.3677709,0.4194928)" /><linearGradient
       inkscape:collect="always"
       xlink:href="#linearGradient45506"
       id="linearGradient45516"
       x1="19.998686"
       y1="4.5747452"
       x2="19.998686"
       y2="3.9684639"
       gradientUnits="userSpaceOnUse"
       gradientTransform="matrix(0.86288528,0,0,1.4799471,4.2032939,-1.3976624)" /><linearGradient
       inkscape:collect="always"
       xlink:href="#linearGradient45858"
       id="linearGradient45710"
       gradientUnits="userSpaceOnUse"
       gradientTransform="matrix(-0.60318507,0.0416735,0.07873479,1.4778253,47.04782,-1.8843705)"
       x1="19.998686"
       y1="4.5747452"
       x2="19.998686"
       y2="3.9684639" /><radialGradient
       inkscape:collect="always"
       xlink:href="#linearGradient45989"
       id="radialGradient45991"
       cx="29.311037"
       cy="5.0207157"
       fx="29.311037"
       fy="5.0207157"
       r="2.4042864"
       gradientTransform="matrix(0.96620442,0,0,1.0329035,0.90932821,-0.12144697)"
       gradientUnits="userSpaceOnUse" /></defs><g
     inkscape:label="Layer 1"
     inkscape:groupmode="layer"
     id="layer1"><ellipse
       style="fill:url(#radialGradient45991);fill-opacity:1;fill-rule:evenodd;stroke-width:0.264583"
       id="path45906"
       cx="29.229782"
       cy="5.0644679"
       rx="2.3230319"
       ry="2.4833961" /><path
       id="rect45137-0"
       style="fill:url(#linearGradient45710);fill-opacity:1;fill-rule:evenodd;stroke-width:0.264583"
       d="m 31.062552,5.1621292 0.04954,0.9233891 6.983363,-0.4822724 -0.06909,-0.9225383 z" /><rect
       style="fill:url(#linearGradient45516);fill-opacity:1;fill-rule:evenodd;stroke-width:0.264585"
       id="rect45137"
       width="14.669802"
       height="0.9250142"
       x="12.852142"
       y="4.5309563"
       transform="matrix(0.99981185,0.01939729,-0.01444249,0.9998957,0,0)" /><g
       id="g142675"
       transform="translate(3.612532,26.601363)"><path
         style="color:#000000;font-size:8.44174px;font-family:Caladea;-inkscape-font-specification:'Sitka Text Bold';text-align:center;text-anchor:middle;fill:#36557a;fill-opacity:0.988345;stroke:none;stroke-width:0;stroke-linecap:butt;stroke-linejoin:miter;stroke-miterlimit:8;stroke-opacity:1;-inkscape-stroke:none;paint-order:stroke fill markers"
         d="m 2.8843384,3.6003362 q -0.1354613,0 -0.2544028,-0.0423 Q 2.514298,3.5157361 2.4250918,3.4408975 2.3391895,3.3628051 2.2896305,3.2586819 2.2400714,3.1545587 2.2400714,3.0309123 q 0,-0.1269002 0.049559,-0.240785 0.049559,-0.1138847 0.1354613,-0.1984848 0.089206,-0.087854 0.2048438,-0.1399157 0.1189416,-0.052062 0.2544029,-0.052062 0.1354613,0 0.2544028,0.052062 0.1189417,0.052061 0.2048439,0.1399157 0.089206,0.0846 0.1387652,0.1984848 0.052863,0.1138848 0.052863,0.240785 0,0.1236464 -0.052863,0.2310235 -0.049559,0.1041232 -0.1387649,0.1789617 -0.085902,0.074839 -0.2048439,0.1171386 -0.1189416,0.0423 -0.2544031,0.0423 z"
         id="path142631" /><path
         style="color:#000000;font-size:8.44174px;font-family:Caladea;-inkscape-font-specification:'Sitka Text Bold';text-align:center;text-anchor:middle;fill:#36557a;fill-opacity:0.988345;stroke:none;stroke-width:0;stroke-linecap:butt;stroke-linejoin:miter;stroke-miterlimit:8;stroke-opacity:1;-inkscape-stroke:none;paint-order:stroke fill markers"
         d="m 1.021743,3.6003362 q -0.13546132,0 -0.25440282,-0.0423 -0.1156376,-0.0423 -0.2048438,-0.1171387 -0.0859023,-0.078092 -0.1354613,-0.1822156 -0.0495591,-0.1041232 -0.0495591,-0.2277696 0,-0.1269002 0.049559,-0.240785 0.049559,-0.1138847 0.1354613,-0.1984848 0.089206,-0.087854 0.2048438,-0.1399157 0.1189416,-0.052062 0.25440292,-0.052062 0.1354613,0 0.2544028,0.052062 0.1189417,0.052061 0.2048439,0.1399157 0.089206,0.0846 0.1387652,0.1984848 0.052863,0.1138848 0.052863,0.240785 0,0.1236464 -0.052863,0.2310235 Q 1.5701959,3.366059 1.48099,3.4408975 1.395088,3.5157365 1.2761461,3.5580361 q -0.1189416,0.0423 -0.2544031,0.0423 z"
         id="path142631-3" /><path
         style="color:#000000;font-size:8.44174px;font-family:Caladea;-inkscape-font-specification:'Sitka Text Bold';text-align:center;text-anchor:middle;fill:#36557a;fill-opacity:0.988345;stroke:none;stroke-width:0;stroke-linecap:butt;stroke-linejoin:miter;stroke-miterlimit:8;stroke-opacity:1;-inkscape-stroke:none;paint-order:stroke fill markers"
         d="m 4.7469339,3.6003362 q -0.1354613,0 -0.2544028,-0.0423 Q 4.3768935,3.5157361 4.2876873,3.4408975 4.201785,3.3628051 4.152226,3.2586819 4.1026669,3.1545587 4.1026669,3.0309123 q 0,-0.1269002 0.049559,-0.240785 0.049559,-0.1138847 0.1354613,-0.1984848 0.089206,-0.087854 0.2048438,-0.1399157 0.1189416,-0.052062 0.2544029,-0.052062 0.1354613,0 0.2544028,0.052062 0.1189417,0.052061 0.2048439,0.1399157 0.089206,0.0846 0.1387652,0.1984848 0.052863,0.1138848 0.052863,0.240785 0,0.1236464 -0.052863,0.2310235 -0.049559,0.1041232 -0.1387649,0.1789617 -0.085902,0.074839 -0.2048439,0.1171386 -0.1189416,0.0423 -0.2544031,0.0423 z"
         id="path142631-5" /></g><path
       style="fill:url(#linearGradient25413);fill-opacity:1;stroke:url(#linearGradient23726);stroke-width:0.200001;stroke-linecap:square;stroke-linejoin:round;stroke-miterlimit:8;stroke-dasharray:none;stroke-opacity:1;paint-order:fill markers stroke;stop-color:#000000"
       d="M 27.589471,5.0694511 H 3.6468154"
       id="path22900" /><path
       style="fill:none;fill-opacity:1;stroke:url(#linearGradient23761);stroke-width:0.2;stroke-linecap:square;stroke-linejoin:round;stroke-miterlimit:8;stroke-dasharray:none;stroke-opacity:1;paint-order:fill markers stroke;stop-color:#000000"
       d="m 31.01982,5.0694506 h 9.903808"
       id="path22900-8" /><rect
       style="fill:#fcfcfc;fill-opacity:1;fill-rule:evenodd;stroke:#99a6b4;stroke-width:0;stroke-dasharray:none;stroke-opacity:1"
       id="rect25193"
       width="41.000008"
       height="4.9694505"
       x="0.10464587"
       y="0"
       rx="0"
       ry="0" /><circle
       style="fill:#fcfcfc;fill-opacity:1;fill-rule:evenodd;stroke:#99a6b4;stroke-width:0.2;stroke-dasharray:none;stroke-opacity:1"
       id="path41748"
       cx="29.231794"
       cy="5.0502586"
       r="1.9500999" /><rect
       style="fill:#fcfcfc;fill-opacity:1;fill-rule:evenodd;stroke-width:0.264583"
       id="rect44740"
       width="6.2228584"
       height="3.5607162"
       x="26.093534"
       y="1.414286" /><g
       id="g43870"
       transform="matrix(0,-1.1407406,1.1407406,0,25.587359,36.531651)"
       style="stroke-width:0.876624;fill:#495d6b;fill-opacity:1"><path
         id="path43017"
         style="fill:#495d6b;fill-opacity:1;stroke-width:0.876621"
         d="m 29.730631,4.507927 c 0.001,-0.084996 -0.02836,-0.1705179 -0.09157,-0.2332769 -0.03438,-0.034131 -0.08052,-0.064311 -0.124979,-0.081774 -0.06329,-0.024853 -0.08908,-0.027691 -0.252573,-0.027691 -0.163912,0 -0.189096,0.00275 -0.252252,0.027805 -0.09488,0.037606 -0.166414,0.1069962 -0.194661,0.1888337 -0.05697,0.1650454 0.0049,0.3412766 0.144848,0.4126797 0.145907,0.074436 0.458223,0.074436 0.604129,0 0.107046,-0.054611 0.16563,-0.1701 0.167059,-0.2865768 z m -0.132114,-0.00849 c 2.45e-4,0.043482 -0.01008,0.088392 -0.0304,0.1100189 -0.05293,0.056341 -0.118702,0.071724 -0.306608,0.071724 -0.187038,0 -0.253696,-0.015422 -0.305621,-0.070692 -0.02973,-0.031642 -0.04373,-0.1323401 -0.02448,-0.1760078 0.03626,-0.082245 0.150519,-0.1164594 0.364887,-0.1092844 0.158405,0.0053 0.228528,0.025451 0.276527,0.079457 0.01705,0.019179 0.02549,0.056422 0.0257,0.094784 z" /><path
         style="fill:#495d6b;fill-opacity:1;stroke-width:0.876621"
         d="m 29.261508,3.6486552 h 0.458156 v 0.070486 0.070485 l -0.03818,8.05e-4 c -0.021,4.508e-4 -0.04775,0.00463 -0.05945,0.00922 -0.01875,0.00739 -0.01635,0.012859 0.02027,0.046185 0.05459,0.049673 0.07789,0.096951 0.08586,0.1741765 l 0.0065,0.063291 h -0.078 -0.078 v -0.055026 c 0,-0.066404 -0.03543,-0.1446133 -0.08405,-0.1855226 l -0.03523,-0.029643 h -0.328031 -0.328031 v -0.082227 -0.082233 z"
         id="path43025" /><path
         style="fill:#495d6b;fill-opacity:1;stroke-width:0.876621"
         d="m 29.261508,2.0971273 h 0.458156 v 0.063244 c 0,0.067319 -0.01005,0.077149 -0.0793,0.077569 -0.01454,8.86e-5 -0.02643,0.00329 -0.02643,0.00716 0,0.00382 0.02086,0.03071 0.04636,0.059675 0.07807,0.088686 0.09234,0.2333199 0.03189,0.3230669 -0.03217,0.051246 -0.09013,0.097224 -0.146589,0.097777 l -0.36339,0.00356 -0.37886,0.00356 V 2.6557719 2.5788092 L 29.1176,2.5785228 c 0.328472,-2.871e-4 0.391107,-0.00675 0.42851,-0.044146 0.05379,-0.053786 0.03187,-0.1946208 -0.03965,-0.2548005 l -0.0353,-0.029704 H 29.137255 28.80335 v -0.07636 -0.076359 z"
         id="path43023"
         sodipodi:nodetypes="ccsssscscccccsscccccc" /><path
         style="fill:#495d6b;fill-opacity:1;stroke-width:0.876621"
         d="m 28.797378,3.2479235 c 0.0022,-0.00644 0.0072,-0.026417 0.01112,-0.044347 0.004,-0.017931 0.02615,-0.053584 0.04932,-0.079229 0.06663,-0.073748 0.111624,-0.082004 0.446936,-0.082004 h 0.285684 v -0.07636 -0.076359 h 0.06461 0.06461 v 0.074846 0.074846 l 0.0558,0.00684 c 0.03069,0.00376 0.1047,0.010411 0.164466,0.014778 l 0.108665,0.00794 v 0.06897 0.06897 h -0.164466 -0.164466 v 0.111602 0.1116026 h -0.06461 -0.06461 V 3.3184143 3.2068123 h -0.282525 c -0.311971,0 -0.33634,0.0047 -0.363387,0.069991 -0.0087,0.02099 -0.01263,0.062627 -0.0095,0.1004089 l 0.0054,0.064552 h -0.06698 -0.06698 l -0.0073,-0.044052 c -0.0076,-0.045823 -0.0086,-0.1294167 -0.0018,-0.1497819 z"
         id="path43015" /><g
         id="g43861"
         style="stroke-width:0.876624;fill:#495d6b;fill-opacity:1"><path
           style="fill:#495d6b;fill-opacity:1;stroke-width:0.876621"
           d="m 29.249007,1.6396166 h 0.458156 v 0.082233 0.082233 h -0.458156 -0.458156 v -0.082233 -0.082233 z"
           id="path43021" /><ellipse
           style="fill:#495d6b;fill-opacity:1;fill-rule:evenodd;stroke-width:0.23194"
           id="path43775"
           cx="29.980612"
           cy="1.7236612"
           rx="0.13258931"
           ry="0.13921878" /></g></g><path
       style="font-size:16.4131px;line-height:1.25;font-family:Caladea;-inkscape-font-specification:Caladea;fill:#495d6b;fill-opacity:1;stroke-width:0.0760592"
       d="m 29.230228,5.8546041 -0.893264,-1.030311 0.113182,-0.1283901 0.780776,0.704484 0.787435,-0.7005586 0.108268,0.1289453 z"
       id="path131578-4"
       sodipodi:nodetypes="ccccccc" /></g></svg>
