<?xml version="1.0" encoding="UTF-8" standalone="no"?>
<!-- Created with Inkscape (http://www.inkscape.org/) -->

<svg
   width="100"
   height="100"
   viewBox="0 0 26.458332 26.458332"
   version="1.1"
   id="svg2787"
   inkscape:version="1.2.2 (732a01da63, 2022-12-09)"
   sodipodi:docname="random.svg"
   xmlns:inkscape="http://www.inkscape.org/namespaces/inkscape"
   xmlns:sodipodi="http://sodipodi.sourceforge.net/DTD/sodipodi-0.dtd"
   xmlns:xlink="http://www.w3.org/1999/xlink"
   xmlns="http://www.w3.org/2000/svg"
   xmlns:svg="http://www.w3.org/2000/svg">
  <sodipodi:namedview
     id="namedview2789"
     pagecolor="#ffffff"
     bordercolor="#000000"
     borderopacity="0.25"
     inkscape:showpageshadow="2"
     inkscape:pageopacity="0.0"
     inkscape:pagecheckerboard="0"
     inkscape:deskcolor="#d1d1d1"
     inkscape:document-units="mm"
     showgrid="false"
     inkscape:zoom="2.6456984"
     inkscape:cx="25.891084"
     inkscape:cy="70.68077"
     inkscape:window-width="1366"
     inkscape:window-height="705"
     inkscape:window-x="-8"
     inkscape:window-y="-8"
     inkscape:window-maximized="1"
     inkscape:current-layer="layer1"
     inkscape:lockguides="true" />
  <defs
     id="defs2784">
    <radialGradient
       inkscape:collect="always"
       xlink:href="#linearGradient51705"
       id="radialGradient51707"
       cx="80.92717"
       cy="23.283854"
       fx="80.92717"
       fy="23.283854"
       r="2.3989551"
       gradientTransform="matrix(0.09121776,-0.88937556,1.0277965,0.10541474,-44.196089,95.192472)"
       gradientUnits="userSpaceOnUse" />
    <linearGradient
       inkscape:collect="always"
       id="linearGradient51705">
      <stop
         style="stop-color:#e4e2ed;stop-opacity:1;"
         offset="0"
         id="stop51701" />
      <stop
         style="stop-color:#484456;stop-opacity:1;"
         offset="0.81209153"
         id="stop6762" />
      <stop
         style="stop-color:#372e4d;stop-opacity:1;"
         offset="1"
         id="stop51703" />
    </linearGradient>
    <radialGradient
       inkscape:collect="always"
       xlink:href="#linearGradient52127"
       id="radialGradient52129"
       cx="77.355919"
       cy="-0.54782826"
       fx="77.355919"
       fy="-0.54782826"
       r="8.0335798"
       gradientTransform="matrix(1.558933,0.99927008,-0.89801303,1.4009647,-110.71815,-71.877878)"
       gradientUnits="userSpaceOnUse" />
    <linearGradient
       inkscape:collect="always"
       id="linearGradient52127">
      <stop
         style="stop-color:#fffae2;stop-opacity:1;"
         offset="0"
         id="stop52123" />
      <stop
         style="stop-color:#fff7ce;stop-opacity:1;"
         offset="0.11485147"
         id="stop52131" />
      <stop
         style="stop-color:#ffde4f;stop-opacity:1;"
         offset="0.40792078"
         id="stop52133" />
      <stop
         style="stop-color:#ffc221;stop-opacity:1;"
         offset="0.760396"
         id="stop52135" />
      <stop
         style="stop-color:#ffa605;stop-opacity:1;"
         offset="1"
         id="stop52125" />
    </linearGradient>
    <linearGradient
       inkscape:collect="always"
       id="linearGradient29618">
      <stop
         style="stop-color:#ffff97;stop-opacity:1;"
         offset="0"
         id="stop29614" />
      <stop
         style="stop-color:#ffc22f;stop-opacity:1;"
         offset="1"
         id="stop29616" />
    </linearGradient>
    <linearGradient
       inkscape:collect="always"
       xlink:href="#linearGradient28356"
       id="linearGradient28358"
       x1="18.775"
       y1="42.216431"
       x2="39.63242"
       y2="44.024754"
       gradientUnits="userSpaceOnUse"
       gradientTransform="matrix(0.46785807,-0.05435486,0.05435486,0.46785807,-1.3936661,-9.09545)" />
    <linearGradient
       inkscape:collect="always"
       id="linearGradient28356">
      <stop
         style="stop-color:#ffee2f;stop-opacity:1;"
         offset="0"
         id="stop28352" />
      <stop
         style="stop-color:#ffbc21;stop-opacity:1;"
         offset="1"
         id="stop28354" />
    </linearGradient>
    <linearGradient
       inkscape:collect="always"
       xlink:href="#linearGradient27581"
       id="linearGradient27583"
       x1="8.5070105"
       y1="57.978172"
       x2="26.81259"
       y2="67.312462"
       gradientUnits="userSpaceOnUse"
       gradientTransform="matrix(0.46785807,-0.05435486,0.05435486,0.46785807,-1.3936661,-9.09545)" />
    <linearGradient
       inkscape:collect="always"
       id="linearGradient27581">
      <stop
         style="stop-color:#fedb13;stop-opacity:1;"
         offset="0"
         id="stop27577" />
      <stop
         style="stop-color:#feac2c;stop-opacity:0.99000001;"
         offset="1"
         id="stop27579" />
    </linearGradient>
    <linearGradient
       inkscape:collect="always"
       xlink:href="#linearGradient28348"
       id="linearGradient28350"
       x1="37.162186"
       y1="71.327362"
       x2="38.701962"
       y2="50.77095"
       gradientUnits="userSpaceOnUse"
       gradientTransform="matrix(0.46785807,-0.05435486,0.05435486,0.46785807,-1.3936661,-9.09545)" />
    <linearGradient
       inkscape:collect="always"
       id="linearGradient28348">
      <stop
         style="stop-color:#ff9e0c;stop-opacity:1;"
         offset="0"
         id="stop28344" />
      <stop
         style="stop-color:#ffd60c;stop-opacity:1;"
         offset="1"
         id="stop28346" />
    </linearGradient>
    <linearGradient
       inkscape:collect="always"
       xlink:href="#linearGradient29618"
       id="linearGradient37955"
       x1="11.717678"
       y1="12.933457"
       x2="13.229167"
       y2="24.658241"
       gradientUnits="userSpaceOnUse"
       gradientTransform="rotate(-10.167614,13.384237,14.804821)" />
    <linearGradient
       inkscape:collect="always"
       xlink:href="#linearGradient40867"
       id="linearGradient40869"
       x1="-11.40301"
       y1="18.72047"
       x2="-7.0560732"
       y2="14.353082"
       gradientUnits="userSpaceOnUse"
       gradientTransform="matrix(0.96263685,-0.24609064,0.41852101,0.97065607,15.713288,0.90585555)" />
    <linearGradient
       inkscape:collect="always"
       id="linearGradient40867">
      <stop
         style="stop-color:#76c1d9;stop-opacity:0.29565218;"
         offset="0"
         id="stop40863" />
      <stop
         style="stop-color:#59b4d1;stop-opacity:1;"
         offset="1"
         id="stop40865" />
    </linearGradient>
  </defs>
  <g
     inkscape:label="Layer 1"
     inkscape:groupmode="layer"
     id="layer1">
    <circle
       style="fill:#9dd3e4;fill-opacity:1;fill-rule:evenodd;stroke-width:0.223867"
       id="path29876"
       cx="13.229167"
       cy="13.229167"
       r="11" />
    <g
       id="g6943"
       transform="matrix(0.65051087,0,0,0.65051087,40.120096,7.0011888)"
       style="stroke-width:1.53726">
      <rect
         style="fill:url(#radialGradient51707);fill-opacity:1;fill-rule:evenodd;stroke-width:0.492421"
         id="rect51147"
         width="4.2895293"
         height="3.7300673"
         x="-15.944508"
         y="22.858942"
         rx="3.20682"
         ry="3.20682"
         transform="scale(-1,1)" />
      <path
         id="path49262"
         style="fill:url(#radialGradient52129);fill-opacity:1;fill-rule:evenodd;stroke-width:0.467869"
         d="m 13.970964,-0.6846776 a 9.0000833,8.3238025 0 0 0 -9.000356,8.32419 9.0000833,8.3238025 0 0 0 2.576547,5.8219936 h -0.0083 c 2.172061,2.070167 2.345698,3.643851 2.556113,4.452537 0.1739,0.668338 0.453343,1.278155 1.350533,1.251643 0.504485,-0.01491 1.588801,-0.0168 2.252804,-0.01645 v 0.0011 c 0,0 0.129971,-8.54e-4 0.279046,-0.0011 0.148567,2.43e-4 0.279046,0.0011 0.279046,0.0011 v -0.0011 c 0.664053,-3.66e-4 1.748426,0.0016 2.252803,0.01645 0.897191,0.02652 1.175994,-0.583305 1.349894,-1.251643 0.210417,-0.808686 0.384054,-2.38237 2.556114,-4.452537 h -0.02043 a 9.0000833,8.3238025 0 0 0 2.575917,-5.8219936 9.0000833,8.3238025 0 0 0 -8.999718,-8.32419 z" />
      <g
         id="g51137"
         transform="matrix(0.89404114,0,0,0.89404114,-57.518581,4.9978024)"
         style="stroke-width:1.53726">
        <path
           style="fill:none;stroke:#afafaf;stroke-width:3.285;stroke-linecap:round;stroke-linejoin:miter;stroke-dasharray:none;stroke-opacity:1"
           d="m 76.397089,16.800856 h 6.853988"
           id="path49649" />
        <path
           style="fill:none;stroke:#eeeeee;stroke-width:1.53726;stroke-linecap:round;stroke-linejoin:miter;stroke-dasharray:none;stroke-opacity:1"
           d="m 76.322429,16.405462 h 7.003309"
           id="path49649-1" />
      </g>
      <g
         id="g51141"
         transform="matrix(0.89404114,0,0,0.89404114,-57.635765,4.9754524)"
         style="stroke-width:1.53726">
        <path
           style="fill:none;stroke:#afafaf;stroke-width:3.285;stroke-linecap:round;stroke-linejoin:miter;stroke-dasharray:none;stroke-opacity:1"
           d="m 76.528161,18.950966 h 6.853988"
           id="path49649-2" />
        <path
           style="fill:none;stroke:#eeeeee;stroke-width:1.53726;stroke-linecap:round;stroke-linejoin:miter;stroke-dasharray:none;stroke-opacity:1"
           d="M 76.453501,18.555572 H 83.45681"
           id="path49649-1-5" />
      </g>
      <g
         id="g51145"
         transform="matrix(-0.89404114,0,0,0.89404114,85.330629,4.9978024)"
         style="stroke-width:1.53726">
        <path
           style="fill:none;stroke:#afafaf;stroke-width:3.23316;stroke-linecap:round;stroke-linejoin:miter;stroke-dasharray:none;stroke-opacity:1"
           d="m 76.896033,21.051075 h 6.118245"
           id="path49649-2-4" />
        <path
           style="fill:none;stroke:#eeeeee;stroke-width:1.53726;stroke-linecap:round;stroke-linejoin:miter;stroke-dasharray:none;stroke-opacity:1"
           d="m 76.829387,20.648323 h 6.251537"
           id="path49649-1-5-0" />
      </g>
      <ellipse
         style="fill:#ffffff;fill-rule:evenodd;stroke-width:0.412274"
         id="path90349"
         cx="11.193284"
         cy="2.0435984"
         rx="2.0838096"
         ry="2.6757441"
         transform="matrix(0.97709194,0.21281761,-0.43143572,0.90214368,0,0)" />
    </g>
    <path
       style="fill:url(#linearGradient40869);fill-opacity:1;stroke:#5dafd4;stroke-width:0;stroke-linecap:round;stroke-linejoin:round;stroke-miterlimit:8;paint-order:fill markers stroke;stop-color:#000000"
       d="m 9.4394423,16.936774 c 1.3620327,-0.503842 3.0485237,-1.115424 3.3349567,-1.223429 0.286428,-0.10801 1.310839,-0.190965 1.971409,-0.02285 1.238847,0.315281 3.985515,1.019148 6.209221,1.902772 1.162825,0.462073 1.019592,1.071126 0.514374,1.470962 -0.505208,0.399846 -4.43323,2.838959 -5.048804,3.238698 -0.893876,0.580466 -2.180824,0.608117 -3.322558,0.123401 C 11.956304,21.941605 7.4714626,19.955032 7.0818367,19.658937 6.6922113,19.362843 5.7484631,18.714064 7.0107477,18.062844 8.2730329,17.411619 8.5539695,17.333945 9.4394436,16.936776 Z"
       id="path26366-3"
       sodipodi:nodetypes="sssssssssss" />
    <g
       id="g41120"
       transform="matrix(0.91446605,0.35698115,-0.35698115,0.91446605,10.338858,-8.7605191)">
      <path
         id="path26342-2"
         style="fill:url(#linearGradient37955);fill-opacity:1;stroke:#5dafd4;stroke-width:0;stroke-linecap:round;stroke-linejoin:round;stroke-miterlimit:8;paint-order:fill markers stroke;stop-color:#000000"
         d="M 12.185519,6.8783184 C 11.80987,6.9241892 11.514223,7.0524989 11.37183,7.1256241 11.118687,7.2556262 9.6291205,7.9988087 8.4257318,8.6080469 7.6409055,9.0680647 7.1052647,9.3649484 5.9834181,10.098836 c -0.9626356,0.639595 -0.9532949,1.43615 -0.8584496,2.192584 0.2808573,2.350578 1.2108241,5.150431 1.5084151,5.998183 0.3591112,1.023003 0.5852309,1.381058 1.7051787,2.028779 1.5426587,0.892199 4.1387617,1.999978 4.7448407,2.195358 0.944145,0.304362 1.864704,0.348864 2.574836,-0.195071 0.516408,-0.39555 2.966856,-2.508218 4.178856,-3.803691 0.879892,-0.940494 0.898188,-1.479434 0.878966,-2.248139 -0.02299,-0.919425 -0.08629,-3.41087 -0.286545,-5.784101 C 20.402528,10.162935 20.373377,9.8478965 20.307883,9.54123 20.090337,8.5225996 19.446601,8.3298954 18.82866,8.1034418 17.9894,7.7958828 14.778578,7.092739 13.088434,6.8926223 12.783085,6.856468 12.477693,6.8426557 12.185519,6.8783184 Z"
         sodipodi:nodetypes="sscccsssssssssss" />
      <path
         style="fill:url(#linearGradient28358);fill-opacity:1;stroke:#5dafd4;stroke-width:0;stroke-linecap:round;stroke-linejoin:round;stroke-miterlimit:8;paint-order:fill markers stroke;stop-color:#000000"
         d="m 8.425645,8.6080707 c 1.2033902,-0.6092388 2.693007,-1.3523242 2.946151,-1.4823265 0.253142,-0.1300025 1.147652,-0.316346 1.716536,-0.2329529 1.066901,0.1563978 3.432171,0.5076068 5.33588,1.080158 0.995493,0.2994 0.849064,0.8742398 0.39508,1.2958204 -0.453983,0.4215836 -3.959727,3.0843273 -4.509751,3.5176873 -0.798693,0.629284 -1.919713,0.793053 -2.896039,0.470584 C 10.437175,12.934565 6.6050192,11.592032 6.2765108,11.36195 5.9480036,11.13187 5.1498491,10.637416 6.2716956,9.903529 7.3935429,9.1696406 7.6408183,9.0680895 8.4256452,8.6080717 Z"
         id="path26366"
         sodipodi:nodetypes="sssssssssss" />
      <ellipse
         style="mix-blend-mode:multiply;fill:#4d4d4d;fill-opacity:0.848485;fill-rule:evenodd;stroke-width:0.111079"
         id="path26403"
         cx="11.143918"
         cy="9.5062342"
         rx="1.0390772"
         ry="0.47500664"
         transform="rotate(-6.6268069)" />
      <ellipse
         style="mix-blend-mode:multiply;fill:#4d4d4d;fill-opacity:0.848485;fill-rule:evenodd;stroke-width:0.131174"
         id="path26403-4"
         cx="14.821167"
         cy="10.95532"
         rx="1.2270486"
         ry="0.56093651"
         transform="rotate(-6.6268069)" />
      <ellipse
         style="mix-blend-mode:multiply;fill:#4d4d4d;fill-opacity:0.848485;fill-rule:evenodd;stroke-width:0.131174"
         id="path26403-9"
         cx="7.5913186"
         cy="11.220209"
         rx="1.2270486"
         ry="0.56093651"
         transform="rotate(-6.6268069)" />
      <ellipse
         style="mix-blend-mode:multiply;fill:#4d4d4d;fill-opacity:0.848485;fill-rule:evenodd;stroke-width:0.131174"
         id="path26403-7-8"
         cx="11.299733"
         cy="12.809529"
         rx="1.2270486"
         ry="0.56093651"
         transform="rotate(-6.6268069)" />
      <path
         style="fill:url(#linearGradient27583);fill-opacity:1;stroke:#5dafd4;stroke-width:0;stroke-linecap:round;stroke-linejoin:round;stroke-miterlimit:8;paint-order:fill markers stroke;stop-color:#000000"
         d="M 13.266847,16.864529 C 13.012154,15.318134 13.085602,14.55332 11.500422,13.890082 9.5963048,13.093405 7.2614247,12.345752 6.6334707,12.088127 5.7902698,11.742195 5.012114,11.466552 5.1587209,12.680637 c 0.283804,2.350228 1.1770191,4.761357 1.4746108,5.60911 0.3591113,1.023005 0.5852692,1.380956 1.7052181,2.028678 1.5426602,0.892199 3.8161082,1.871037 4.3244002,2.05528 0.508292,0.18424 1.337597,0.03601 1.255072,-0.770504 -0.178893,-1.748323 -0.34652,-2.888887 -0.651175,-4.738672 z"
         id="path26342-6"
         sodipodi:nodetypes="sssssssss" />
      <path
         style="mix-blend-mode:multiply;fill:#f9d54d;fill-opacity:0.470588;stroke:#5dafd4;stroke-width:0;stroke-linecap:round;stroke-linejoin:round;stroke-miterlimit:8;paint-order:fill markers stroke;stop-color:#000000"
         d="M 13.266847,16.864529 C 13.012154,15.318134 13.085602,14.55332 11.500422,13.890082 9.5963047,13.093405 7.2614247,12.345752 6.6334707,12.088127 5.7902698,11.742195 5.012114,11.466552 5.1587209,12.680637 c 0.283804,2.350228 1.1770191,4.761357 1.4746108,5.60911 0.3591113,1.023005 0.5852692,1.380956 1.7052181,2.028678 1.54266,0.892199 3.8161082,1.871037 4.3244002,2.05528 0.508292,0.18424 1.337597,0.03601 1.255072,-0.770504 -0.178893,-1.748323 -0.34652,-2.888887 -0.651175,-4.738672 z"
         id="path26342-6-7"
         sodipodi:nodetypes="sssssssss" />
      <ellipse
         style="mix-blend-mode:multiply;fill:#4d4d4d;fill-opacity:0.890443;fill-rule:evenodd;stroke-width:0.135516"
         id="path26403-7-8-4-7"
         cx="-15.087726"
         cy="-2.7714159"
         rx="1.0117238"
         ry="0.72609866"
         transform="matrix(-0.29795457,-0.95458005,-0.99712317,0.07579832,0,0)" />
      <ellipse
         style="mix-blend-mode:multiply;fill:#4d4d4d;fill-opacity:0.890443;fill-rule:evenodd;stroke-width:0.135516"
         id="path26403-7-8-4-7-6"
         cx="-18.343933"
         cy="-4.1849914"
         rx="1.0117238"
         ry="0.72609866"
         transform="matrix(-0.29795457,-0.95458005,-0.99712317,0.07579832,0,0)" />
      <ellipse
         style="mix-blend-mode:multiply;fill:#4d4d4d;fill-opacity:0.890443;fill-rule:evenodd;stroke-width:0.135516"
         id="path26403-7-8-4-7-1"
         cx="-21.600145"
         cy="-5.5985661"
         rx="1.0117238"
         ry="0.72609866"
         transform="matrix(-0.29795457,-0.95458005,-0.99712317,0.07579832,0,0)" />
      <path
         style="fill:url(#linearGradient28350);fill-opacity:1;stroke:#5dafd4;stroke-width:0;stroke-linecap:round;stroke-linejoin:round;stroke-miterlimit:8;paint-order:fill markers stroke;stop-color:#000000"
         d="m 13.875026,16.169234 c -0.164177,-1.076932 -0.350331,-1.980017 1.173171,-3.263629 1.568721,-1.321684 3.064295,-2.477512 3.572028,-2.9214019 1.004491,-0.8781825 1.739584,-0.7098254 1.809292,0.4985339 0.161091,2.792494 0.263415,4.864893 0.286406,5.784319 0.01922,0.768707 0.05881,1.279258 -0.821087,2.219752 -1.212001,1.295475 -3.913546,3.604915 -4.345977,3.9234 -0.43243,0.318485 -0.832287,-0.190236 -0.975788,-1.010447 -0.350812,-2.005361 -0.530755,-4.133172 -0.698045,-5.230527 z"
         id="path26342"
         sodipodi:nodetypes="sssssssss" />
      <path
         style="mix-blend-mode:multiply;fill:#e1a640;fill-opacity:0.564706;stroke:#5dafd4;stroke-width:0;stroke-linecap:round;stroke-linejoin:round;stroke-miterlimit:8;paint-order:fill markers stroke;stop-color:#000000"
         d="m 13.956165,16.621659 c -0.0904,-1.320327 -0.43147,-2.43244 1.092031,-3.716053 1.568721,-1.321683 3.064295,-2.477512 3.572029,-2.9214017 1.00449,-0.8781826 1.739583,-0.7098254 1.809291,0.4985337 0.161091,2.792495 0.263416,4.864893 0.286406,5.784319 0.01922,0.768707 0.05881,1.279258 -0.821087,2.219752 -1.212001,1.295475 -3.913546,3.604915 -4.345977,3.9234 -0.43243,0.318485 -0.711323,-0.212032 -0.871381,-1.029173 -0.511844,-2.613156 -0.649522,-3.710804 -0.721312,-4.759377 z"
         id="path26342-5"
         sodipodi:nodetypes="sssssssss" />
      <ellipse
         style="mix-blend-mode:multiply;fill:#4d4d4d;fill-opacity:0.895105;fill-rule:evenodd;stroke-width:0.160477"
         id="path26403-7-8-4"
         cx="-15.822767"
         cy="19.990677"
         rx="1.1980789"
         ry="0.85984278"
         transform="matrix(0.07116976,-0.99746422,0.98794225,-0.15482283,0,0)" />
      <ellipse
         style="mix-blend-mode:multiply;fill:#4d4d4d;fill-opacity:0.895105;fill-rule:evenodd;stroke-width:0.160477"
         id="path26403-7-8-4-3"
         cx="-21.787994"
         cy="18.299931"
         rx="1.1980789"
         ry="0.85984278"
         transform="matrix(0.07116976,-0.99746422,0.98794225,-0.15482283,0,0)" />
    </g>
  </g>
</svg>
