<?xml version="1.0" encoding="UTF-8" standalone="no"?>
<!-- Created with Inkscape (http://www.inkscape.org/) -->

<svg
   width="116.557mm"
   height="21mm"
   viewBox="0 0 116.55682 20.999997"
   version="1.1"
   id="svg129077"
   inkscape:version="1.2.2 (732a01da63, 2022-12-09)"
   sodipodi:docname="endless2.svg"
   xmlns:inkscape="http://www.inkscape.org/namespaces/inkscape"
   xmlns:sodipodi="http://sodipodi.sourceforge.net/DTD/sodipodi-0.dtd"
   xmlns="http://www.w3.org/2000/svg"
   xmlns:svg="http://www.w3.org/2000/svg">
  <sodipodi:namedview
     id="namedview129079"
     pagecolor="#ffffff"
     bordercolor="#000000"
     borderopacity="0.25"
     inkscape:showpageshadow="2"
     inkscape:pageopacity="0.0"
     inkscape:pagecheckerboard="0"
     inkscape:deskcolor="#d1d1d1"
     inkscape:document-units="mm"
     showgrid="false"
     inkscape:zoom="1.8707912"
     inkscape:cx="303.08032"
     inkscape:cy="88.197976"
     inkscape:window-width="1366"
     inkscape:window-height="705"
     inkscape:window-x="-8"
     inkscape:window-y="-8"
     inkscape:window-maximized="1"
     inkscape:current-layer="layer1"
     inkscape:lockguides="true" />
  <defs
     id="defs129074" />
  <g
     inkscape:label="Layer 1"
     inkscape:groupmode="layer"
     id="layer1">
    <text
       xml:space="preserve"
       style="font-style:normal;font-weight:normal;font-size:26.6398px;line-height:1.25;font-family:sans-serif;mix-blend-mode:normal;fill:#baff10;fill-opacity:0.988345;stroke:none;stroke-width:0.263333"
       x="26.972731"
       y="56.189922"
       id="text114090-2"
       transform="scale(1.0022441,0.99776093)"><tspan
         sodipodi:role="line"
         id="tspan114088-0"
         style="font-style:normal;font-variant:normal;font-weight:900;font-stretch:normal;font-family:'Segoe UI';-inkscape-font-specification:'Segoe UI Heavy';fill:#baff10;fill-opacity:0.988345;stroke-width:0.263333"
         x="26.972731"
         y="56.189922">Endless...</tspan></text>
    <g
       id="g10970"
       transform="scale(1,1.0171975)">
      <path
         d="M -3.367e-7,19.675538 V 1.0642412 H 11.626343 V 5.4510039 H 5.6243901 V 8.1635297 H 11.261799 V 12.550292 H 5.6243901 v 2.738483 h 6.4315939 v 4.386763 z"
         style="font-weight:900;font-size:26.6398px;line-height:1.25;font-family:'Segoe UI';-inkscape-font-specification:'Segoe UI Heavy';fill:#baff10;fill-opacity:0.988345;stroke-width:0.263156"
         id="path7247" />
      <path
         d="m 22.849084,19.675538 v -7.255031 q 0,-1.232966 -0.377563,-1.765088 -0.364544,-0.545101 -1.197787,-0.545101 -0.716068,0 -1.11967,0.55808 -0.403602,0.558078 -0.403602,1.427644 v 7.579496 H 14.204188 V 6.3854629 h 5.546274 v 2.0765739 h 0.05208 q 0.66399,-1.1421159 1.78366,-1.7650879 1.119671,-0.6359509 2.434632,-0.6359509 4.374526,0 4.374526,5.502922 v 8.111618 z"
         style="font-weight:900;font-size:26.6398px;line-height:1.25;font-family:'Segoe UI';-inkscape-font-specification:'Segoe UI Heavy';fill:#baff10;fill-opacity:0.988345;stroke-width:0.263156"
         id="path7249" />
      <path
         d="m 39.800371,19.675655 v -1.544452 h -0.05208 q -0.66399,0.869565 -1.731583,1.37573 -1.067592,0.493187 -2.109147,0.493187 -1.705543,0 -3.007486,-0.830629 -1.301942,-0.843609 -1.952913,-2.349126 -0.637952,-1.505516 -0.637952,-3.556132 0,-2.115511 0.768146,-3.7508136 0.768147,-1.6353022 2.161224,-2.5438035 1.393078,-0.9085012 3.124661,-0.9085012 0.820224,0 1.510253,0.2336147 0.703049,0.2336148 1.210807,0.6359509 0.520776,0.3893573 0.66399,0.7787155 h 0.05208 V 1.1311215e-4 h 5.546273 V 19.675655 Z m 0.117174,-7.047373 q 0,-1.194031 -0.533796,-1.855939 -0.520776,-0.661908 -1.419117,-0.661908 -0.89834,0 -1.471194,0.83063 -0.559835,0.817651 -0.559835,2.193381 0,2.816354 1.952913,2.816354 0.924379,0 1.471195,-0.752758 0.559834,-0.765737 0.559834,-2.219339 z"
         style="font-weight:900;font-size:26.6398px;line-height:1.25;font-family:'Segoe UI';-inkscape-font-specification:'Segoe UI Heavy';fill:#baff10;fill-opacity:0.988345;stroke-width:0.263156"
         id="path7251" />
      <path
         d="M 48.015626,19.675538 V -3.542185e-6 h 5.546273 V 19.675538 Z"
         style="font-weight:900;font-size:26.6398px;line-height:1.25;font-family:'Segoe UI';-inkscape-font-specification:'Segoe UI Heavy';fill:#baff10;fill-opacity:0.988345;stroke-width:0.263156"
         id="path7253" />
      <path
         d="m 61.009007,14.60091 q 0.143214,0.856586 0.989476,1.349773 0.846262,0.480208 2.239341,0.480208 1.939893,0 3.671476,-0.73978 v 3.504219 q -2.018009,0.804673 -4.895302,0.804673 -3.489205,0 -5.429099,-1.778067 -1.939894,-1.778066 -1.939894,-4.892928 0,-2.141467 0.846263,-3.7767697 0.859282,-1.6353022 2.525767,-2.5567823 1.679506,-0.934458 3.697516,-0.934458 2.070088,0 3.541283,0.8046722 1.471194,0.8046733 2.226321,2.2582753 0.768146,1.4536015 0.768146,3.4003905 v 2.076574 z m 3.332972,-2.894225 q 0,-2.2972113 -1.653466,-2.2972113 -0.69003,0 -1.158729,0.6359513 -0.468699,0.622973 -0.546816,1.66126 z"
         style="font-weight:900;font-size:26.6398px;line-height:1.25;font-family:'Segoe UI';-inkscape-font-specification:'Segoe UI Heavy';fill:#baff10;fill-opacity:0.988345;stroke-width:0.263156"
         id="path7255" />
      <path
         d="m 81.996313,15.262818 q 0,2.258274 -1.731577,3.504218 -1.718565,1.232967 -4.80417,1.232967 -0.898341,0 -2.226321,-0.181701 -1.314962,-0.1817 -2.148204,-0.441271 v -3.880599 q 2.46067,1.090201 4.114136,1.090201 1.627428,0 1.627428,-0.843607 0,-0.350422 -0.377559,-0.571058 -0.377568,-0.233615 -1.978957,-0.765737 -1.770641,-0.558079 -2.577845,-1.479559 -0.807203,-0.92148 -0.807203,-2.401039 0,-2.0635962 1.640447,-3.2576256 1.653465,-1.2070094 4.634917,-1.2070094 1.744599,0 3.697515,0.5061651 V 10.292018 Q 80.238693,9.9415966 79.262235,9.7079818 78.285777,9.4743671 77.621789,9.4743671 q -0.546811,0 -0.872304,0.1817002 -0.325483,0.1817003 -0.325483,0.5061647 0,0.37638 0.351527,0.609994 0.351526,0.233614 1.406094,0.558079 2.044048,0.597015 2.929374,1.531473 0.885316,0.934459 0.885316,2.40104 z"
         style="font-weight:900;font-size:26.6398px;line-height:1.25;font-family:'Segoe UI';-inkscape-font-specification:'Segoe UI Heavy';fill:#baff10;fill-opacity:0.988345;stroke-width:0.263156"
         id="path7257" />
      <path
         d="m 94.872521,15.262818 q 0,2.258274 -1.731577,3.504218 -1.718565,1.232967 -4.80417,1.232967 -0.898338,0 -2.226322,-0.181701 -1.314962,-0.1817 -2.148201,-0.441271 v -3.880599 q 2.460672,1.090201 4.114139,1.090201 1.627424,0 1.627424,-0.843607 0,-0.350422 -0.37756,-0.571058 -0.37757,-0.233615 -1.978949,-0.765737 -1.770643,-0.558079 -2.577848,-1.479559 -0.807206,-0.92148 -0.807206,-2.401039 0,-2.0635962 1.640445,-3.2576256 1.653467,-1.2070094 4.634917,-1.2070094 1.744599,0 3.697515,0.5061651 V 10.292018 Q 93.114901,9.9415966 92.138443,9.7079818 91.161995,9.4743671 90.497998,9.4743671 q -0.546812,0 -0.872295,0.1817002 -0.325492,0.1817003 -0.325492,0.5061647 0,0.37638 0.351526,0.609994 0.351526,0.233614 1.406094,0.558079 2.044048,0.597015 2.929374,1.531473 0.885316,0.934459 0.885316,2.40104 z"
         style="font-weight:900;font-size:26.6398px;line-height:1.25;font-family:'Segoe UI';-inkscape-font-specification:'Segoe UI Heavy';fill:#baff10;fill-opacity:0.988345;stroke-width:0.263156"
         id="path7259" />
    </g>
    <g
       id="g7298"
       transform="matrix(0.87305541,0,0,1,11.790584,0.42428045)">
      <path
         d="m 102.94457,17.365349 q 0,1.181052 -0.83324,1.907853 -0.83325,0.726801 -2.304442,0.726801 -1.340996,0 -2.200278,-0.752758 -0.846271,-0.765737 -0.846271,-1.881896 0,-1.142116 0.833249,-1.842959 0.846261,-0.713822 2.265377,-0.713822 1.380065,0 2.226325,0.713822 0.85928,0.700843 0.85928,1.842959 z"
         style="font-weight:900;font-size:26.6398px;line-height:1.25;font-family:'Segoe UI';-inkscape-font-specification:'Segoe UI Heavy';fill:#baff10;fill-opacity:0.988345;stroke-width:0.263156"
         id="path7261" />
      <path
         d="m 111.47229,17.365349 q 0,1.181052 -0.83324,1.907853 -0.83325,0.726801 -2.30444,0.726801 -1.341,0 -2.20028,-0.752758 -0.84627,-0.765737 -0.84627,-1.881896 0,-1.142116 0.83325,-1.842959 0.84626,-0.713822 2.26537,-0.713822 1.38006,0 2.22632,0.713822 0.85929,0.700843 0.85929,1.842959 z"
         style="font-weight:900;font-size:26.6398px;line-height:1.25;font-family:'Segoe UI';-inkscape-font-specification:'Segoe UI Heavy';fill:#baff10;fill-opacity:0.988345;stroke-width:0.263156"
         id="path7263" />
      <path
         d="m 120.00001,17.365349 q 0,1.181052 -0.83324,1.907853 -0.83325,0.726801 -2.30445,0.726801 -1.34099,0 -2.20027,-0.752758 -0.84628,-0.765737 -0.84628,-1.881896 0,-1.142116 0.83325,-1.842959 0.84626,-0.713822 2.26538,-0.713822 1.38006,0 2.22632,0.713822 0.85929,0.700843 0.85929,1.842959 z"
         style="font-weight:900;font-size:26.6398px;line-height:1.25;font-family:'Segoe UI';-inkscape-font-specification:'Segoe UI Heavy';fill:#baff10;fill-opacity:0.988345;stroke-width:0.263156"
         id="path7265" />
    </g>
  </g>
</svg>
