<?xml version="1.0" encoding="UTF-8" standalone="no"?>
<!-- Created with Inkscape (http://www.inkscape.org/) -->

<svg
   width="100"
   height="100"
   viewBox="0 0 26.458332 26.458332"
   version="1.1"
   id="svg2787"
   inkscape:version="1.2.2 (732a01da63, 2022-12-09)"
   sodipodi:docname="picto-placeholder.svg"
   xmlns:inkscape="http://www.inkscape.org/namespaces/inkscape"
   xmlns:sodipodi="http://sodipodi.sourceforge.net/DTD/sodipodi-0.dtd"
   xmlns="http://www.w3.org/2000/svg"
   xmlns:svg="http://www.w3.org/2000/svg">
  <sodipodi:namedview
     id="namedview2789"
     pagecolor="#ffffff"
     bordercolor="#000000"
     borderopacity="0.25"
     inkscape:showpageshadow="2"
     inkscape:pageopacity="0.0"
     inkscape:pagecheckerboard="0"
     inkscape:deskcolor="#d1d1d1"
     inkscape:document-units="mm"
     showgrid="false"
     inkscape:zoom="0.66142457"
     inkscape:cx="-8.315385"
     inkscape:cy="72.570633"
     inkscape:window-width="1366"
     inkscape:window-height="705"
     inkscape:window-x="-8"
     inkscape:window-y="-8"
     inkscape:window-maximized="1"
     inkscape:current-layer="layer1" />
  <defs
     id="defs2784" />
  <g
     inkscape:label="Layer 1"
     inkscape:groupmode="layer"
     id="layer1">
    <rect
       style="fill:#c3f2f2;fill-opacity:1;fill-rule:evenodd;stroke-width:0.264583"
       id="rect29723"
       width="22.601154"
       height="22.601154"
       x="1.9285895"
       y="1.9285895"
       rx="1.5000765"
       ry="1.5000765" />
    <g
       aria-label="?"
       transform="matrix(1.1729752,0.34742673,-0.23214772,0.78377248,0,0)"
       id="text30164"
       style="font-size:41.1316px;line-height:1.3;font-family:Bahnschrift;-inkscape-font-specification:Bahnschrift;text-align:center;text-anchor:middle;fill:#ffaaaa;stroke:#16e2ff;stroke-width:0;stroke-linecap:round;stroke-linejoin:round;stroke-miterlimit:8;paint-order:fill markers stroke;stop-color:#000000">
      <path
         d="m 11.883965,15.288679 q 0,-0.702933 0.281173,-1.305447 0.301256,-0.622597 0.7431,-1.205027 0.281173,-0.401676 0.923854,-1.205027 1.265279,-1.5866197 1.90796,-2.6912281 0.642681,-1.1246922 0.642681,-2.3297195 0,-1.5062841 -0.863603,-2.3096357 Q 14.675611,3.4392431 13.4505,3.1179025 12.245473,2.7764781 10.237094,2.5153889 9.8354182,2.4551375 9.8354182,2.1538807 q 0,-0.2410055 0.7832678,-1.144776 0.783268,-0.92385428 1.16486,-1.26527869 0.120502,-0.12050273 0.241005,-0.14058652 0.120503,-0.0401676 0.341425,-0.0401676 0.763184,0 2.128881,0.32134062 1.365698,0.32134063 2.369887,0.9037705 1.124692,0.64268127 1.827625,1.76737337 0.723016,1.1046084 0.723016,2.4100547 0,1.3054463 -0.542262,2.570725 -0.542262,1.2451949 -1.345614,2.3297195 -0.783267,1.0644404 -1.928043,2.3698874 -0.723017,0.803351 -0.723017,1.807541 0,0.381592 0.200838,0.883686 0.200838,0.502095 0.662765,1.00419 0.220922,0.200838 0.220922,0.441843 0,0.100419 -0.04017,0.220922 -0.04017,0.100419 -0.08033,0.200838 -0.100419,0.301257 -0.562346,0.943938 -0.441843,0.642681 -0.682849,0.863603 -0.180754,0.180754 -0.401676,0.180754 -0.16067,0 -0.32134,-0.100419 -0.783268,-0.602514 -1.385782,-1.506284 -0.602513,-0.923855 -0.602513,-1.887876 z m 0.140586,8.957369 q -0.180754,-0.261089 -0.180754,-0.421759 0,-0.180754 0.120503,-0.301257 1.184943,-1.184944 1.767373,-2.028463 0.120503,-0.200838 0.321341,-0.200838 0.100419,0 0.180754,0.08034 0.100419,0.06025 0.140586,0.08034 0.281173,0.200838 1.064441,0.943938 0.723017,0.723016 1.024273,0.923854 0.281174,0.200838 0.281174,0.441843 0,0.100419 -0.08034,0.220922 -0.06025,0.120503 -0.100419,0.200838 -0.180754,0.341424 -0.843519,1.104608 -0.662765,0.743101 -1.024273,0.984106 -0.08033,0.06025 -0.241005,0.06025 -0.160671,0 -0.26109,-0.06025 -0.381592,-0.241005 -1.084524,-0.883687 -0.682849,-0.662765 -1.084525,-1.144776 z"
         style="font-family:'David Libre';-inkscape-font-specification:'David Libre'"
         id="path31952" />
    </g>
    <rect
       style="fill:#c3f2f2;fill-opacity:1;fill-rule:evenodd;stroke-width:0.264583"
       id="rect29723-6-7"
       width="22.601154"
       height="22.601154"
       x="-50.102558"
       y="33.073692"
       rx="1.5000765"
       ry="1.5000765" />
    <text
       xml:space="preserve"
       style="font-size:41.1316px;line-height:1.3;font-family:Bahnschrift;-inkscape-font-specification:Bahnschrift;text-align:center;text-anchor:middle;fill:#ffaaaa;fill-opacity:1;stroke:#16e2ff;stroke-width:0;stroke-linecap:round;stroke-linejoin:round;stroke-miterlimit:8;stroke-dasharray:none;paint-order:fill markers stroke;stop-color:#000000"
       x="-18.914873"
       y="80.160934"
       id="text30164-1-6"
       transform="matrix(1.1729752,0.34742673,-0.23214772,0.78377248,0,0)"><tspan
         sodipodi:role="line"
         id="tspan30162-6-8"
         style="font-style:normal;font-variant:normal;font-weight:normal;font-stretch:normal;font-family:'David Libre';-inkscape-font-specification:'David Libre';fill:#ffaaaa;stroke-width:0;stroke-dasharray:none"
         x="-18.914873"
         y="80.160934">?</tspan></text>
  </g>
</svg>
