<?xml version="1.0" encoding="UTF-8" standalone="no"?>
<!-- Created with Inkscape (http://www.inkscape.org/) -->

<svg
   width="100"
   height="100"
   viewBox="0 0 26.458332 26.458332"
   version="1.1"
   id="svg2787"
   inkscape:version="1.2.2 (732a01da63, 2022-12-09)"
   sodipodi:docname="portrait.svg"
   xmlns:inkscape="http://www.inkscape.org/namespaces/inkscape"
   xmlns:sodipodi="http://sodipodi.sourceforge.net/DTD/sodipodi-0.dtd"
   xmlns:xlink="http://www.w3.org/1999/xlink"
   xmlns="http://www.w3.org/2000/svg"
   xmlns:svg="http://www.w3.org/2000/svg">
  <sodipodi:namedview
     id="namedview2789"
     pagecolor="#ffffff"
     bordercolor="#000000"
     borderopacity="0.25"
     inkscape:showpageshadow="2"
     inkscape:pageopacity="0.0"
     inkscape:pagecheckerboard="0"
     inkscape:deskcolor="#d1d1d1"
     inkscape:document-units="mm"
     showgrid="false"
     inkscape:zoom="2.6456984"
     inkscape:cx="-3.7797203"
     inkscape:cy="73.326574"
     inkscape:window-width="1366"
     inkscape:window-height="705"
     inkscape:window-x="-8"
     inkscape:window-y="-8"
     inkscape:window-maximized="1"
     inkscape:current-layer="layer1" />
  <defs
     id="defs2784">
    <radialGradient
       inkscape:collect="always"
       xlink:href="#linearGradient26559"
       id="radialGradient26561-8-4"
       cx="50.0355"
       cy="10.592171"
       fx="50.0355"
       fy="10.592171"
       r="5.7715068"
       gradientTransform="matrix(-0.96016524,1.7925166,1.00028,0.49973467,56.223612,-88.922079)"
       gradientUnits="userSpaceOnUse" />
    <linearGradient
       inkscape:collect="always"
       id="linearGradient26559">
      <stop
         style="stop-color:#ffe9d9;stop-opacity:1;"
         offset="0"
         id="stop26555" />
      <stop
         style="stop-color:#ffd0af;stop-opacity:1;"
         offset="0.60792077"
         id="stop26563" />
      <stop
         style="stop-color:#ffb380;stop-opacity:1;"
         offset="1"
         id="stop26557" />
    </linearGradient>
  </defs>
  <g
     inkscape:label="Layer 1"
     inkscape:groupmode="layer"
     id="layer1">
    <rect
       style="fill:#73bfd7;fill-opacity:1;fill-rule:evenodd;stroke-width:0.228581"
       id="rect26083"
       width="22.858149"
       height="22.858149"
       x="1.8000923"
       y="1.8000923"
       rx="0.86397392"
       ry="0.86397392" />
    <path
       id="path13238-1-2-5-8"
       style="fill:#ffba8a;fill-opacity:1;stroke:#000000;stroke-width:0;stroke-linecap:butt;stroke-linejoin:miter;stroke-dasharray:none;stroke-opacity:1"
       d="m 17.787178,14.72899 c 0.719857,0.663471 1.217663,0.373467 1.577164,1.303787 0.4934,1.276824 0.932186,0.760966 1.051673,1.348857 0.121791,0.599227 -0.373154,1.478766 -0.562104,2.106707 -0.374325,1.244002 -2.101976,3.096469 -2.562684,4.119321 -0.460707,1.022843 -1.370141,1.799617 -2.377936,2.297219 -1.007797,0.497603 -2.84388,-0.160619 -3.304583,-0.132973 -0.460711,0.02764 -1.141973,-3.270239 -1.401126,-4.210153 C 9.9484383,20.621842 8.3647453,19.903023 9.9196283,17.940258 11.474512,15.977501 10.741836,14.0812 10.713043,13.721819 c -0.02884,-0.359373 1.040104,0.258916 1.241654,0.480075 0.201567,0.22116 1.026387,1.073864 2.229173,1.576318 1.060916,0.443199 2.01098,0.330362 2.241335,-0.05667 0.230354,-0.387019 1.537427,-1.583605 1.537427,-1.583605 z"
       sodipodi:nodetypes="csssssssscssscc" />
    <path
       style="fill:url(#radialGradient26561-8-4);fill-opacity:1;stroke:#000000;stroke-width:0;stroke-linecap:butt;stroke-linejoin:miter;stroke-dasharray:none;stroke-opacity:1"
       d="m 18.214945,4.6114197 c 0.651539,0.938291 1.140677,3.7599358 1.262116,4.5945646 0.283997,1.9518487 -0.661587,4.9759347 -1.524196,5.6102757 -0.956947,0.703712 -1.637397,1.136636 -2.28894,1.214821 -0.977307,0.117286 -1.93425,-0.390948 -2.911555,-1.094669 -0.688346,-0.495646 -1.417146,-0.893891 -1.857693,-1.913758 -0.103293,-0.239136 -0.167047,-0.251706 -0.270335,-0.508762 -0.04218,-0.104999 -0.06979,-0.07782 -0.424928,-0.03431 -0.2196227,0.0269 -1.4150787,-1.461995 -1.4989487,-1.895542 -0.05719,-0.295598 1.8766347,-0.28463 1.9295767,-0.444383 0.57009,-1.720196 1.236483,-1.361147 1.399371,-2.2212451 0.162879,-0.8600899 1.162178,-3.4638477 2.436453,-4.4219173 1.591024,0.1477032 2.69033,0.1766455 3.749079,1.1149283 z"
       id="path12892-7-4-9-0"
       sodipodi:nodetypes="cssssssssssccc" />
    <path
       style="fill:#333333;fill-opacity:1;stroke:#000000;stroke-width:0;stroke-linecap:butt;stroke-linejoin:miter;stroke-dasharray:none;stroke-opacity:0"
       d="m 0.47400839,26.307741 c -0.714706,0.02747 -0.376717,-0.388177 -0.06525,-1.029121 0.418444,-0.861093 0.66648301,-2.166298 0.85544401,-2.718239 0.285098,-0.832745 1.018442,-3.606333 1.60368,-4.233124 1.069121,-1.145028 2.566528,-1.549624 4.8466779,-2.012464 2.030065,-0.41208 2.2690545,-0.867452 2.2690545,-0.867452 0,0 0.5752382,1.839203 0.7340162,2.762036 0.636763,1.697001 3.742122,6.330937 5.045033,6.693108 0.82428,0.195071 0.949573,-0.786675 1.674534,-2.076842 1.31396,-2.33837 1.02837,-2.534057 1.966417,-3.977915 0.498915,-0.832745 1.015109,-1.864886 1.015109,-1.864886 l 1.622048,0.650462 c 0,0 0.584197,0.06253 1.67495,0.693953 1.318582,0.76335 1.674959,1.769586 1.817507,3.851454 0.05659,0.827055 0.18638,1.643152 0.322212,2.326483 0.206082,1.036743 0.912168,1.834334 -0.197478,1.811221 -0.900165,-0.01875 -2.827992,-0.04101 -2.827992,-0.04101 l -19.8233456,0.02421 c -0.844434,0.0057 -1.68838,-0.0098 -2.53261201,0.0082 z"
       id="path3866-5-8-8"
       sodipodi:nodetypes="csssscccscccsssscccc" />
    <path
       style="fill:none;stroke:#848382;stroke-width:0.263335;stroke-linecap:round;stroke-linejoin:miter;stroke-dasharray:none;stroke-opacity:1"
       d="m 17.945848,17.69402 c 0,0 -0.326709,3.194611 -2.427613,4.478073 -0.629998,0.384867 -2.271184,-1.250631 -4.150686,-4.558761"
       id="path27717-0-1"
       sodipodi:nodetypes="csc" />
    <path
       style="fill:#916f6f;stroke:#000000;stroke-width:0;stroke-linecap:butt;stroke-linejoin:miter;stroke-dasharray:none;stroke-opacity:1"
       d="m 15.951111,1.2016898 c 2.339316,0.484118 4.177349,2.3398943 4.762176,3.6308649 0.58483,1.2909787 2.172223,5.1639066 1.336752,6.0514553 -0.835469,0.887548 -1.086111,1.533034 -1.086111,1.533034 0,0 0.668377,1.533033 0.417735,2.581949 -0.250642,1.048924 -0.919015,2.743324 -0.919015,2.743324 l -0.509827,-0.809129 c 0,0 0.0085,1.051184 -0.325643,1.373935 -0.334189,0.322743 -1.745221,2.013931 -1.745221,2.013931 0,0 0.373863,-1.381449 -0.438005,-2.653685 -0.627602,-0.983481 0.178099,-2.749064 0.178099,-2.749064 0,0 1.420299,-1.855776 1.587391,-3.308122 0.167096,-1.452346 -0.250641,-5.9707677 -1.670937,-7.2617382 -1.25275,-1.1386854 -3.258333,-0.9682361 -3.258333,-0.9682361 0,0 -0.399562,2.8906529 -1.503844,4.357046 -0.668373,0.8875402 -1.655367,1.5822844 -2.046897,2.7029773 -0.536489,0.190547 -0.8332207,0.20282 -1.1837657,0.299655 -0.308919,0.443908 0.0075,1.197735 0.330739,1.353798 0.5012827,0.242055 1.0117677,0.05698 1.0117677,0.05698 0,0 1.219783,4.219995 0.969142,5.188223 -0.250642,0.968236 -3.0076917,1.694409 -3.0076917,1.694409 l 0.668373,-1.210291 c 0,0 -0.668373,0.887549 -1.503842,0.887549 -0.835469,0 -1.002567,-0.484119 -1.002567,-0.484119 0,0 0.69218,0.646798 0.751925,-0.564805 0.125317,-2.54161 0.877242,-1.936464 1.127884,-2.98538 0.250641,-1.048915 -0.6266,0.564806 -1.211428,0.806861 -0.584836,0.242055 0.668372,-0.484118 0.584828,-1.452346 C 8.1812453,13.06253 6.5520843,10.762984 6.8862703,9.5526922 7.2204563,8.3424002 7.5187293,5.1548917 9.6074073,3.3798031 11.696076,1.6047064 13.834868,0.98700397 15.951111,1.2016898 Z"
       id="path26059-6-5"
       sodipodi:nodetypes="csscsccscscsscsccscsccscssssssc" />
    <path
       style="fill:none;fill-opacity:1;stroke:#685050;stroke-width:0.312;stroke-linecap:round;stroke-linejoin:round;stroke-miterlimit:8;stroke-dasharray:none;stroke-opacity:1;paint-order:fill markers stroke"
       d="m 14.083567,3.4270272 c 1.599056,0 3.015968,0.2380452 3.85979,1.4560289 0.80417,1.1607482 1.466379,3.7612519 1.323356,5.7162619 -0.139234,1.90324 -0.932406,3.161696 -1.582906,4.073405 -1.301928,1.824717 -2.698852,2.066875 -4.592757,0.780025 -0.827099,-0.593197 -1.564798,-1.183918 -2.213097,-3.150898"
       id="path28002"
       sodipodi:nodetypes="cssscc" />
    <g
       id="g27721-2-8"
       transform="matrix(-0.83542694,0,0,0.80681886,62.238101,-0.44784288)"
       style="stroke-width:1.21039">
      <ellipse
         style="fill:#aa0000;fill-opacity:1;fill-rule:evenodd;stroke-width:0.320244"
         id="path11936-3-7-4-3"
         cx="56.012829"
         cy="28.856459"
         rx="0.53422982"
         ry="0.59104741" />
      <ellipse
         style="fill:#ffffff;fill-rule:evenodd;stroke-width:0.320249"
         id="path12898-2-3-7-8"
         cx="61.47369"
         cy="-12.193314"
         rx="0.13521306"
         ry="0.17366834"
         transform="matrix(0.78456418,0.62004762,-0.62454848,0.78098604,0,0)" />
    </g>
  </g>
</svg>
