<?xml version="1.0" encoding="UTF-8" standalone="no"?>
<!-- Created with Inkscape (http://www.inkscape.org/) -->

<svg
   width="100"
   height="100"
   viewBox="0 0 26.458332 26.458332"
   version="1.1"
   id="svg2787"
   inkscape:version="1.2.2 (732a01da63, 2022-12-09)"
   sodipodi:docname="portrait.svg"
   xmlns:inkscape="http://www.inkscape.org/namespaces/inkscape"
   xmlns:sodipodi="http://sodipodi.sourceforge.net/DTD/sodipodi-0.dtd"
   xmlns:xlink="http://www.w3.org/1999/xlink"
   xmlns="http://www.w3.org/2000/svg"
   xmlns:svg="http://www.w3.org/2000/svg">
  <sodipodi:namedview
     id="namedview2789"
     pagecolor="#ffffff"
     bordercolor="#000000"
     borderopacity="0.25"
     inkscape:showpageshadow="2"
     inkscape:pageopacity="0.0"
     inkscape:pagecheckerboard="0"
     inkscape:deskcolor="#d1d1d1"
     inkscape:document-units="mm"
     showgrid="false"
     inkscape:zoom="3.7415825"
     inkscape:cx="57.595951"
     inkscape:cy="47.84072"
     inkscape:window-width="1366"
     inkscape:window-height="705"
     inkscape:window-x="-8"
     inkscape:window-y="-8"
     inkscape:window-maximized="1"
     inkscape:current-layer="layer1" />
  <defs
     id="defs2784">
    <radialGradient
       inkscape:collect="always"
       xlink:href="#linearGradient26559"
       id="radialGradient26561-8-4"
       cx="50.0355"
       cy="10.592171"
       fx="50.0355"
       fy="10.592171"
       r="5.7715068"
       gradientTransform="matrix(1.1518153,2.1986669,-1.199937,0.61296508,-31.220614,-110.41002)"
       gradientUnits="userSpaceOnUse" />
    <linearGradient
       inkscape:collect="always"
       id="linearGradient26559">
      <stop
         style="stop-color:#ffe9d9;stop-opacity:1;"
         offset="0"
         id="stop26555" />
      <stop
         style="stop-color:#ffd0af;stop-opacity:1;"
         offset="0.60792077"
         id="stop26563" />
      <stop
         style="stop-color:#ffb380;stop-opacity:1;"
         offset="1"
         id="stop26557" />
    </linearGradient>
  </defs>
  <g
     inkscape:label="Layer 1"
     inkscape:groupmode="layer"
     id="layer1">
    <g
       id="g29396"
       transform="matrix(0.83361042,0,0,0.81527429,0.00840667,0.66808574)"
       style="stroke-width:1.213">
      <path
         id="path13238-1-2-5-8"
         style="fill:#ffba8a;fill-opacity:1;stroke:#000000;stroke-width:0;stroke-linecap:butt;stroke-linejoin:miter;stroke-dasharray:none;stroke-opacity:1"
         d="m 14.887776,16.726418 c -0.863541,0.8138 -1.408387,0.48023 -1.891968,1.5992 -0.483582,1.11898 -1.036327,2.71266 -0.587287,4.23853 0.449038,1.52587 2.521533,3.79807 3.074198,5.05268 0.552665,1.2546 2.003522,2.88203 3.212474,3.49238 1.208954,0.61035 2.901665,-0.13568 3.454325,-0.10177 0.55267,0.0339 1.51987,-4.7472 1.83075,-5.90008 0.31087,-1.15288 2.21067,-2.03457 0.34543,-4.44206 -1.86524,-2.40748 -0.986322,-4.733447 -0.951782,-5.174257 0.0346,-0.4408 -1.247709,0.317581 -1.489489,0.588851 -0.2418,0.27127 -1.231255,1.317181 -2.674118,1.933481 -1.272677,0.54362 -2.412374,0.405216 -2.688708,-0.06951 -0.276333,-0.47471 -1.8443,-1.94242 -1.8443,-1.94242 z"
         sodipodi:nodetypes="cssssssscssscc" />
      <path
         style="fill:url(#radialGradient26561-8-4);fill-opacity:1;stroke:#000000;stroke-width:0;stroke-linecap:butt;stroke-linejoin:miter;stroke-dasharray:none;stroke-opacity:1"
         d="m 14.374626,4.3163979 c -0.781586,1.15089 -1.368357,4.6118661 -1.514036,5.6356059 -0.340682,2.3941002 0.793641,6.1033872 1.828428,6.8814572 1.147955,0.86316 1.964223,1.394177 2.745815,1.490077 1.172379,0.14386 2.320328,-0.47953 3.492705,-1.3427 0.82574,-0.60795 1.70001,-1.09643 2.22849,-2.34738 0.12391,-0.29332 0.20039,-0.308737 0.324294,-0.624037 0.0506,-0.12879 0.08372,-0.09545 0.509745,-0.04208 0.26346,0.033 1.69753,-1.793255 1.79814,-2.325035 0.0686,-0.36258 -2.251213,-0.349127 -2.314723,-0.545077 -0.68388,-2.1099598 -1.483286,-1.6695571 -1.678686,-2.7245371 -0.19539,-1.05497 -1.39415,-4.24869 -2.922772,-5.42384 -1.908594,0.18117 -3.227323,0.21667 -4.4974,1.36755 z"
         id="path12892-7-4-9-0"
         sodipodi:nodetypes="cssssssssssccc" />
      <g
         id="g27721-2-8"
         transform="matrix(1.0021791,0,0,0.98962873,-36.929887,-1.4988821)"
         style="stroke-width:1.21039">
        <ellipse
           style="fill:#aa0000;fill-opacity:1;fill-rule:evenodd;stroke-width:0.320244"
           id="path11936-3-7-4-3"
           cx="56.012829"
           cy="28.856459"
           rx="0.53422982"
           ry="0.59104741" />
        <ellipse
           style="fill:#ffffff;fill-rule:evenodd;stroke-width:0.320249"
           id="path12898-2-3-7-8"
           cx="61.47369"
           cy="-12.193314"
           rx="0.13521306"
           ry="0.17366834"
           transform="matrix(0.78456418,0.62004762,-0.62454848,0.78098604,0,0)" />
      </g>
      <path
         style="fill:#6e008a;fill-opacity:1;stroke:#000000;stroke-width:0;stroke-linecap:butt;stroke-linejoin:miter;stroke-dasharray:none;stroke-opacity:0"
         d="m 0.64336557,31.622588 c -0.85736248,0.0337 -0.45191041,-0.47613 -0.0782751,-1.2623 0.50196633,-1.0562 0.79951373,-2.65714 1.02619183,-3.33414 0.3420046,-1.02143 1.2217243,-4.42346 1.9237767,-5.19227 1.2825184,-1.40447 3.0788102,-1.90074 5.8140808,-2.46845 2.4352682,-0.50545 3.2917992,-1.064 3.2917992,-1.064 0,0 0.414392,2.21974 0.94051,3.23453 0.684011,1.31935 1.248938,1.70941 1.852532,2.69544 2.004727,3.27491 2.580863,5.42827 3.569673,5.66753 0.988808,0.23927 1.13911,-0.964921 2.008774,-2.547415 1.576227,-2.868201 1.233633,-3.108226 2.358916,-4.879235 0.598499,-1.02143 1.217726,-2.287434 1.217726,-2.287434 l 1.94581,0.797844 c 0,0 0.700804,0.0767 2.009272,0.85119 1.581773,0.93631 2.009283,2.17054 2.180283,4.72412 0.06789,1.01445 0.223582,2.01546 0.386526,2.85362 0.247216,1.27165 1.094238,2.24996 -0.236894,2.22161 -1.079839,-0.023 -3.392463,-0.0503 -3.392463,-0.0503 l -23.7801087,0.0297 c -1.0129844,0.007 -2.0253829,-0.012 -3.03812476,0.01 z"
         id="path3866-5-8-8"
         sodipodi:nodetypes="csssscsszscccsssscccc" />
      <path
         style="fill:none;stroke:#848382;stroke-width:0.31943;stroke-linecap:round;stroke-linejoin:miter;stroke-dasharray:none;stroke-opacity:1"
         d="m 14.760138,20.669928 c 0,0 1.335205,3.91845 4.234423,5.49272 0.869387,0.47207 2.355237,-1.534 3.633087,-5.59169"
         id="path27717-0-1"
         sodipodi:nodetypes="csc" />
      <path
         style="fill:#916f6f;stroke:#000000;stroke-width:0;stroke-linecap:butt;stroke-linejoin:miter;stroke-dasharray:none;stroke-opacity:1"
         d="m 17.090324,0.13408784 c -2.806246,0.59381 -5.011152,2.87007006 -5.712711,4.45355006 -0.701563,1.58349 -2.605801,6.3339501 -1.60357,7.4226001 1.00223,1.08865 1.3029,1.88039 1.3029,1.88039 0,0 -0.801785,1.88039 -0.501115,3.16697 0.30067,1.28659 1.102452,3.36491 1.102452,3.36491 l 0.701563,-1.68245 c 0,0 -0.100226,1.97935 0.300667,2.37523 0.400893,0.39587 2.093569,2.47025 2.093569,2.47025 0,0 -0.448486,-1.69446 0.525432,-3.25496 0.752871,-1.20632 -0.213648,-3.37195 -0.213648,-3.37195 0,0 -1.703792,-2.27626 -1.904236,-4.05768 -0.200449,-1.78142 0.300669,-7.3236301 2.004458,-8.9071101 1.5028,-1.39669 3.908699,-1.18762 3.908699,-1.18762 0,0 0.479316,3.54562 1.804014,5.34427 0.80178,1.08864 1.98578,1.9408001 2.45546,3.3154201 0.643572,0.233722 0.999532,0.248776 1.420046,0.367552 0.37058,0.544488 -0.009,1.469118 -0.396754,1.660542 -0.60134,0.2969 -1.213718,0.06989 -1.213718,0.06989 0,0 -1.463254,5.176166 -1.162584,6.363776 0.30067,1.18762 3.60803,2.07833 3.60803,2.07833 l -0.80178,-1.48452 c 0,0 0.80178,1.08865 1.80401,1.08865 1.00223,0 1.20268,-0.59381 1.20268,-0.59381 0,0 -0.83034,0.79335 -0.90201,-0.69278 -0.15033,-3.11749 -1.05234,-2.37523 -1.35301,-3.66181 -0.30067,-1.28658 0.75167,0.69278 1.45323,0.98968 0.70157,0.2969 -0.80178,-0.59381 -0.70156,-1.78142 0.10023,-1.18762 2.05457,-4.0082 1.65368,-5.49272 C 27.563628,8.8927479 27.205819,4.9830104 24.700239,2.8057204 22.194669,0.62842035 19.628972,-0.12924175 17.090324,0.13408784 Z"
         id="path26059-6-5"
         sodipodi:nodetypes="csscsccscscsscsccscsccscssssssc" />
      <path
         style="opacity:1;fill:none;fill-opacity:1;stroke:#685050;stroke-width:0.378461;stroke-linecap:round;stroke-linejoin:round;stroke-miterlimit:8;stroke-dasharray:none;stroke-opacity:1;paint-order:fill markers stroke"
         d="m 19.330632,2.8636445 c -1.918229,0 -3.617958,0.2919818 -4.630208,1.7859375 -0.964683,1.4237518 -1.75907,4.6134803 -1.5875,7.011458 0.167026,2.334478 1.118515,3.878076 1.898856,4.996361 1.561795,2.238164 3.237546,2.53519 5.509477,0.956764 0.992188,-0.727604 1.877133,-1.452171 2.654833,-3.864831"
         id="path28002"
         sodipodi:nodetypes="cssscc" />
    </g>
  </g>
</svg>
