<?xml version="1.0" encoding="UTF-8" standalone="no"?>
<!-- Created with Inkscape (http://www.inkscape.org/) -->

<svg
   width="26.458334mm"
   height="20mm"
   viewBox="0 0 26.458333 19.999999"
   version="1.1"
   id="svg2787"
   inkscape:version="1.2.2 (732a01da63, 2022-12-09)"
   sodipodi:docname="quote.svg"
   xmlns:inkscape="http://www.inkscape.org/namespaces/inkscape"
   xmlns:sodipodi="http://sodipodi.sourceforge.net/DTD/sodipodi-0.dtd"
   xmlns="http://www.w3.org/2000/svg"
   xmlns:svg="http://www.w3.org/2000/svg">
  <sodipodi:namedview
     id="namedview2789"
     pagecolor="#ffffff"
     bordercolor="#000000"
     borderopacity="0.25"
     inkscape:showpageshadow="2"
     inkscape:pageopacity="0.0"
     inkscape:pagecheckerboard="0"
     inkscape:deskcolor="#d1d1d1"
     inkscape:document-units="mm"
     showgrid="false"
     inkscape:zoom="1.8707912"
     inkscape:cx="-61.204051"
     inkscape:cy="78.57638"
     inkscape:window-width="1366"
     inkscape:window-height="705"
     inkscape:window-x="-8"
     inkscape:window-y="-8"
     inkscape:window-maximized="1"
     inkscape:current-layer="layer1" />
  <defs
     id="defs2784" />
  <g
     inkscape:label="Layer 1"
     inkscape:groupmode="layer"
     id="layer1">
    <text
       xml:space="preserve"
       style="font-style:italic;font-variant:normal;font-weight:bold;font-stretch:normal;font-size:22.5778px;line-height:1.3;font-family:Amiri;-inkscape-font-specification:'Amiri Bold Italic';text-align:center;text-anchor:middle;fill:#ff7f7f;fill-opacity:1;stroke:#16e2ff;stroke-width:0;stroke-linecap:round;stroke-linejoin:round;stroke-miterlimit:8;stroke-dasharray:none;paint-order:fill markers stroke;stop-color:#000000"
       x="-40.991116"
       y="11.478999"
       id="text34373-2"><tspan
         sodipodi:role="line"
         id="tspan34371-1"
         style="font-style:italic;font-variant:normal;font-weight:bold;font-stretch:normal;font-size:22.5778px;font-family:'Frank Ruhl Hofshi';-inkscape-font-specification:'Frank Ruhl Hofshi Bold Italic';stroke-width:0"
         x="-40.991116"
         y="11.478999">“”</tspan></text>
    <g
       aria-label="“"
       id="text34373-2-3"
       style="font-style:italic;font-weight:bold;font-size:22.5778px;line-height:1.3;font-family:Amiri;-inkscape-font-specification:'Amiri Bold Italic';text-align:center;text-anchor:middle;fill:#cccccc;stroke:#16e2ff;stroke-width:0;stroke-linecap:round;stroke-linejoin:round;stroke-miterlimit:8;paint-order:fill markers stroke;stop-color:#000000"
       transform="matrix(3.3674537,0,0,3.3674537,105.83887,-24.703075)">
      <path
         d="m -29.646295,13.274416 c 1.083735,0 1.715913,-0.812801 1.715913,-1.761069 0,-1.016001 -0.72249,-1.467557 -1.444979,-1.6707571 -0.293512,-0.090311 -0.51929,-0.1580447 -0.51929,-0.5192895 0,-0.7450674 1.016001,-1.1966234 1.603024,-1.2643568 l -0.09031,-0.7224896 c -1.941691,0.2709336 -3.048003,1.8965352 -3.048003,3.747915 0,1.648179 0.903112,2.190047 1.783646,2.190047 z m 4.357516,0 c 1.083734,0 1.715913,-0.812801 1.715913,-1.761069 0,-1.038579 -0.72249,-1.490135 -1.44498,-1.6933349 -0.293511,-0.090311 -0.519289,-0.1580447 -0.519289,-0.5192895 0,-0.7450674 1.016001,-1.1740456 1.603024,-1.2643568 l -0.09031,-0.6999118 c -1.94169,0.2709336 -3.048003,1.8965352 -3.048003,3.725337 0,1.670757 0.903112,2.212625 1.783647,2.212625 z"
         style="font-family:'Frank Ruhl Hofshi';-inkscape-font-specification:'Frank Ruhl Hofshi Bold Italic';fill:#cccccc"
         id="path598" />
    </g>
  </g>
</svg>
