<?xml version="1.0" encoding="UTF-8" standalone="no"?>
<!-- Created with Inkscape (http://www.inkscape.org/) -->

<svg
   width="100"
   height="100"
   viewBox="0 0 26.458332 26.458332"
   version="1.1"
   id="svg2787"
   inkscape:version="1.2.2 (732a01da63, 2022-12-09)"
   sodipodi:docname="think.svg"
   xmlns:inkscape="http://www.inkscape.org/namespaces/inkscape"
   xmlns:sodipodi="http://sodipodi.sourceforge.net/DTD/sodipodi-0.dtd"
   xmlns:xlink="http://www.w3.org/1999/xlink"
   xmlns="http://www.w3.org/2000/svg"
   xmlns:svg="http://www.w3.org/2000/svg">
  <sodipodi:namedview
     id="namedview2789"
     pagecolor="#ffffff"
     bordercolor="#000000"
     borderopacity="0.25"
     inkscape:showpageshadow="2"
     inkscape:pageopacity="0.0"
     inkscape:pagecheckerboard="0"
     inkscape:deskcolor="#d1d1d1"
     inkscape:document-units="mm"
     showgrid="false"
     inkscape:zoom="0.93539562"
     inkscape:cx="59.867717"
     inkscape:cy="67.351181"
     inkscape:window-width="1366"
     inkscape:window-height="705"
     inkscape:window-x="-8"
     inkscape:window-y="-8"
     inkscape:window-maximized="1"
     inkscape:current-layer="layer1"
     inkscape:lockguides="false" />
  <defs
     id="defs2784">
    <radialGradient
       inkscape:collect="always"
       xlink:href="#linearGradient51705"
       id="radialGradient51707"
       cx="80.92717"
       cy="23.283854"
       fx="80.92717"
       fy="23.283854"
       r="2.3989551"
       gradientTransform="matrix(0.09121776,-0.88937556,1.0277965,0.10541474,-76.82448,100.62393)"
       gradientUnits="userSpaceOnUse" />
    <linearGradient
       inkscape:collect="always"
       id="linearGradient51705">
      <stop
         style="stop-color:#e4e2ed;stop-opacity:1;"
         offset="0"
         id="stop51701" />
      <stop
         style="stop-color:#242034;stop-opacity:1;"
         offset="1"
         id="stop51703" />
    </linearGradient>
    <radialGradient
       inkscape:collect="always"
       xlink:href="#linearGradient52127"
       id="radialGradient52129"
       cx="77.355919"
       cy="-0.54782826"
       fx="77.355919"
       fy="-0.54782826"
       r="8.0335798"
       gradientTransform="matrix(1.558933,0.99927008,-0.89801303,1.4009647,-78.089763,-66.44642)"
       gradientUnits="userSpaceOnUse" />
    <linearGradient
       inkscape:collect="always"
       id="linearGradient52127">
      <stop
         style="stop-color:#fffae2;stop-opacity:1;"
         offset="0"
         id="stop52123" />
      <stop
         style="stop-color:#fff7ce;stop-opacity:1;"
         offset="0.11485147"
         id="stop52131" />
      <stop
         style="stop-color:#ffde4f;stop-opacity:1;"
         offset="0.40792078"
         id="stop52133" />
      <stop
         style="stop-color:#ffc221;stop-opacity:1;"
         offset="0.760396"
         id="stop52135" />
      <stop
         style="stop-color:#ffa605;stop-opacity:1;"
         offset="1"
         id="stop52125" />
    </linearGradient>
  </defs>
  <g
     inkscape:label="Layer 1"
     inkscape:groupmode="layer"
     id="layer1">
    <rect
       style="fill:#73bfd7;fill-opacity:1;fill-rule:evenodd;stroke-width:0.228581"
       id="rect26083"
       width="22.858149"
       height="22.858149"
       x="1.8000923"
       y="1.8000923"
       rx="0.86397392"
       ry="0.86397392" />
    <g
       id="g4859"
       transform="matrix(0.58441821,0,0,0.56130778,-10.555359,47.564581)"
       style="fill:#a6dcdc;fill-opacity:1;stroke-width:1.92493">
      <path
         style="fill:#a6dcdc;fill-opacity:1;stroke:#000000;stroke-width:0;stroke-linecap:butt;stroke-linejoin:miter;stroke-dasharray:none;stroke-opacity:1"
         d="m 40.302056,-49.402518 c 0,0 -3.200164,3.300169 -7.500383,2.600132 -4.300219,-0.700037 -5.400275,-4.700239 -5.400275,-4.700239 0,0 -6.767939,0.07576 -7.500383,-7.000357 -0.732444,-7.076119 6.200316,-9.300475 6.200316,-9.300475 0,0 -1.300064,-6.300323 4.100211,-8.700445 5.400275,-2.400122 9.300472,1.700088 9.300472,1.700088 0,0 3.70019,-3.500179 9.000461,-2.000102 5.300271,1.500076 6.400326,5.800297 6.400326,5.800297 0,0 8.000407,0.100003 8.400428,5.300268 0.400021,5.200265 -3.200164,7.500384 -3.200164,7.500384 0,0 2.600132,5.200263 -1.600082,8.400427 -4.200214,3.200163 -7.900403,0.100005 -7.900403,0.100005 0,0 -0.400019,4.400226 -5.300269,4.500231 -4.900251,0.100006 -5.000255,-4.200214 -5.000255,-4.200214 z"
         id="path4522"
         sodipodi:nodetypes="czczczczczczczc" />
      <circle
         style="fill:#a6dcdc;fill-opacity:1;fill-rule:evenodd;stroke-width:0.509304"
         id="path4576"
         cx="53.602737"
         cy="-43.602219"
         r="2.9001479" />
      <circle
         style="fill:#a6dcdc;fill-opacity:1;fill-rule:evenodd;stroke-width:0.509304"
         id="path4578"
         cx="59.003014"
         cy="-39.602016"
         r="2.000102" />
    </g>
    <g
       id="g62734"
       transform="matrix(1,0,0,1.0323477,-53.175834,-135.44062)"
       style="stroke-width:0.984208">
      <g
         id="g57676"
         transform="translate(-34.649999,-10.182857)"
         style="stroke-width:0.984208">
        <g
           id="g90331"
           style="stroke-width:0.984208">
          <path
             id="path4915"
             style="fill:#a6dcdc;fill-opacity:1;fill-rule:evenodd;stroke-width:0.278901"
             d="m 24.994174,11.315617 c 0,5.272737 -2.500406,8.237514 -12.412617,7.956881 C 2.6693456,18.991865 0.26248458,16.588354 0.26248458,11.315617 c 0,-5.2727385 2.16159332,-8.6116935 12.45938842,-8.6116935 10.297795,0 12.272301,3.338955 12.272301,8.6116935 z"
             sodipodi:nodetypes="szszs" />
          <path
             style="fill:#a6dcdc;fill-opacity:1;stroke:#000000;stroke-width:0;stroke-linecap:round;stroke-linejoin:miter;stroke-dasharray:none;stroke-opacity:1"
             d="M 3.7332865,14.868144 0.33947713,20.984424 6.8038726,18.545671 Z"
             id="path56756"
             sodipodi:nodetypes="cccc" />
        </g>
      </g>
      <g
         id="g56946"
         transform="translate(-34.616544,-10.182857)"
         style="mix-blend-mode:multiply;stroke-width:0.984208">
        <g
           id="g90327"
           style="stroke-width:0.984208">
          <path
             id="path4915-7"
             style="mix-blend-mode:multiply;fill:#a9eaad;fill-opacity:1;fill-rule:evenodd;stroke-width:0.2789"
             d="m 9.3086373,21.539929 c 0,5.101353 2.3447267,7.953082 11.2700997,8.112338 8.925373,0.159256 11.137808,-3.010985 11.137808,-8.112338 0,-5.101353 -2.631392,-7.831871 -11.468537,-7.649316 -8.837145,0.182555 -10.9393707,2.547963 -10.9393707,7.649316 z"
             sodipodi:nodetypes="szszs" />
          <path
             style="fill:#a9eaad;fill-opacity:1;stroke:#000000;stroke-width:0;stroke-linecap:round;stroke-linejoin:miter;stroke-dasharray:none;stroke-opacity:1"
             d="m 28.122772,26.078274 3.032305,5.544014 -6.333961,-2.335585 z"
             id="path56756-6"
             sodipodi:nodetypes="cccc" />
        </g>
      </g>
    </g>
    <g
       id="g29719"
       transform="translate(-176.31982,90.739971)">
      <rect
         style="fill:url(#radialGradient51707);fill-opacity:1;fill-rule:evenodd;stroke-width:0.320325"
         id="rect51147"
         width="4.2895293"
         height="3.7300673"
         x="-48.572899"
         y="28.2904"
         rx="2.0860713"
         ry="2.0860713"
         transform="scale(-1,1)" />
      <path
         id="path49262"
         style="fill:url(#radialGradient52129);fill-opacity:1;fill-rule:evenodd;stroke-width:0.304354"
         d="m 46.599355,4.74678 a 9.0000833,8.3238025 0 0 0 -9.000356,8.32419 9.0000833,8.3238025 0 0 0 2.576547,5.821994 h -0.0083 c 2.172061,2.070167 2.345698,3.643851 2.556113,4.452537 0.1739,0.668338 0.453343,1.278155 1.350533,1.251643 0.504485,-0.01491 1.588801,-0.0168 2.252804,-0.01645 v 0.0011 c 0,0 0.129971,-8.54e-4 0.279046,-0.0011 0.148567,2.43e-4 0.279046,0.0011 0.279046,0.0011 v -0.0011 c 0.664053,-3.66e-4 1.748426,0.0016 2.252803,0.01645 0.897191,0.02652 1.175994,-0.583305 1.349894,-1.251643 0.210417,-0.808686 0.384054,-2.38237 2.556114,-4.452537 h -0.02043 A 9.0000833,8.3238025 0 0 0 55.599086,13.07097 9.0000833,8.3238025 0 0 0 46.599368,4.74678 Z" />
      <g
         id="g51137"
         transform="matrix(0.89404114,0,0,0.89404114,-24.89019,10.42926)">
        <path
           style="fill:none;stroke:#afafaf;stroke-width:2.13693;stroke-linecap:round;stroke-linejoin:miter;stroke-dasharray:none;stroke-opacity:1"
           d="m 76.397089,16.800856 h 6.853988"
           id="path49649" />
        <path
           style="fill:none;stroke:#eeeeee;stroke-width:1;stroke-linecap:round;stroke-linejoin:miter;stroke-dasharray:none;stroke-opacity:1"
           d="m 76.322429,16.405462 h 7.003309"
           id="path49649-1" />
      </g>
      <g
         id="g51141"
         transform="matrix(0.89404114,0,0,0.89404114,-25.007374,10.40691)">
        <path
           style="fill:none;stroke:#afafaf;stroke-width:2.13693;stroke-linecap:round;stroke-linejoin:miter;stroke-dasharray:none;stroke-opacity:1"
           d="m 76.528161,18.950966 h 6.853988"
           id="path49649-2" />
        <path
           style="fill:none;stroke:#eeeeee;stroke-width:1;stroke-linecap:round;stroke-linejoin:miter;stroke-dasharray:none;stroke-opacity:1"
           d="M 76.453501,18.555572 H 83.45681"
           id="path49649-1-5" />
      </g>
      <g
         id="g51145"
         transform="matrix(-0.89404114,0,0,0.89404114,117.95902,10.42926)">
        <path
           style="fill:none;stroke:#afafaf;stroke-width:2.10321;stroke-linecap:round;stroke-linejoin:miter;stroke-dasharray:none;stroke-opacity:1"
           d="m 76.896033,21.051075 h 6.118245"
           id="path49649-2-4" />
        <path
           style="fill:none;stroke:#eeeeee;stroke-width:1;stroke-linecap:round;stroke-linejoin:miter;stroke-dasharray:none;stroke-opacity:1"
           d="m 76.829387,20.648323 h 6.251537"
           id="path49649-1-5-0" />
      </g>
      <ellipse
         style="fill:#ffffff;fill-rule:evenodd;stroke-width:0.268189"
         id="path90349"
         cx="43.844063"
         cy="0.3618229"
         rx="2.0838096"
         ry="2.6757441"
         transform="matrix(0.97709194,0.21281761,-0.43143572,0.90214368,0,0)" />
    </g>
  </g>
</svg>
