<?xml version="1.0" encoding="UTF-8" standalone="no"?>
<!-- Created with Inkscape (http://www.inkscape.org/) -->

<svg
   width="100"
   height="100"
   viewBox="0 0 26.458332 26.458332"
   version="1.1"
   id="svg2787"
   inkscape:version="1.3.2 (091e20e, 2023-11-25, custom)"
   sodipodi:docname="hoffman.svg"
   xml:space="preserve"
   xmlns:inkscape="http://www.inkscape.org/namespaces/inkscape"
   xmlns:sodipodi="http://sodipodi.sourceforge.net/DTD/sodipodi-0.dtd"
   xmlns:xlink="http://www.w3.org/1999/xlink"
   xmlns="http://www.w3.org/2000/svg"
   xmlns:svg="http://www.w3.org/2000/svg"><sodipodi:namedview
     id="namedview2789"
     pagecolor="#ffffff"
     bordercolor="#000000"
     borderopacity="0.25"
     inkscape:showpageshadow="2"
     inkscape:pageopacity="0.0"
     inkscape:pagecheckerboard="0"
     inkscape:deskcolor="#d1d1d1"
     inkscape:document-units="mm"
     showgrid="false"
     inkscape:zoom="0.66142455"
     inkscape:cx="-102.8084"
     inkscape:cy="34.017485"
     inkscape:window-width="1920"
     inkscape:window-height="991"
     inkscape:window-x="-9"
     inkscape:window-y="-9"
     inkscape:window-maximized="1"
     inkscape:current-layer="layer1" /><defs
     id="defs2784"><linearGradient
       id="linearGradient5"
       inkscape:collect="always"><stop
         style="stop-color:#4b6779;stop-opacity:0.41207814;"
         offset="0"
         id="stop6" /><stop
         style="stop-color:#4b4b79;stop-opacity:1;"
         offset="1"
         id="stop5" /></linearGradient><filter
       inkscape:label="Blur Double"
       inkscape:menu="Blurs"
       inkscape:menu-tooltip="Overlays two copies with different blur amounts and modifiable blend and composite"
       style="color-interpolation-filters:sRGB;"
       id="filter33"
       x="-0.33868694"
       y="-0.80693867"
       width="1.6773739"
       height="2.6138773"><feGaussianBlur
         stdDeviation="5"
         result="fbSourceGraphic"
         id="feGaussianBlur32" /><feGaussianBlur
         stdDeviation="0.01"
         in="SourceGraphic"
         result="result1"
         id="feGaussianBlur33" /><feComposite
         in2="result1"
         operator="arithmetic"
         in="fbSourceGraphic"
         k2="0.5"
         k3="0.5"
         result="result2"
         id="feComposite33" /><feBlend
         in2="fbSourceGraphic"
         mode="normal"
         result="result3"
         id="feBlend33" /></filter><radialGradient
       inkscape:collect="always"
       xlink:href="#linearGradient5"
       id="radialGradient6"
       cx="5.5881624"
       cy="21.85216"
       fx="5.5881624"
       fy="21.85216"
       r="13.579184"
       gradientTransform="matrix(1.9238853,-0.30094375,0.34931209,2.2330961,-13.446888,-23.883962)"
       gradientUnits="userSpaceOnUse" /></defs><g
     inkscape:label="Layer 1"
     inkscape:groupmode="layer"
     id="layer1"><rect
       style="fill:url(#radialGradient6);fill-opacity:1;stroke-width:0.272581"
       id="rect1-6"
       width="27.158367"
       height="27.358377"
       x="-0.14142951"
       y="-0.74742734" /><path
       style="fill:#0a0a0a;fill-opacity:0.623529;stroke:none;stroke-width:0;stroke-linecap:round;stroke-dasharray:none"
       d="m 5.2139354,35.025561 c -0.597793,-0.55794 -0.4782341,-0.797058 -0.3188211,-1.474557 0.1594105,-0.677499 0.6376447,-1.354997 0.7572036,-1.833233 0.119559,-0.478234 0.3586768,-1.51441 0.3586768,-1.51441 0,0 -0.1195589,-0.717353 0.1195574,-1.195587 0.2391179,-0.478234 0.079707,-1.394851 0.4782365,-1.95279 0.3985285,-0.557942 1.2354379,-4.064996 1.4347025,-4.503376 0.1992638,-0.438383 0.7640158,-3.04268 0.7406974,-3.807369 -0.06424,-2.106571 0.8722855,-4.256288 1.1557345,-4.822198 0.387134,-0.772916 3.70788,-2.060971 3.70788,-2.300089 0,-0.239117 -0.465464,-0.819914 -0.02491,-1.026211 0.14244,-0.0667 0.329231,-0.11784 0.38316,-0.196465 0.115936,-0.169026 0.112416,-0.4293751 0.05522,-0.5208879 C 13.961641,9.7189776 12.96532,9.5197129 12.845761,9.3403745 12.726202,9.1610361 12.785985,8.8422134 12.746127,8.7226544 12.706277,8.6030963 12.407378,7.8458906 12.347599,7.6266998 c -0.05978,-0.2191909 -0.03985,-0.8369102 -0.03985,-0.8369102 0,0 -0.358676,-0.099633 -0.298897,-0.3387498 0.05978,-0.2391171 0.297688,-0.5674028 0.297688,-0.5674028 0,0 -0.09963,-0.3164054 -0.11956,-0.5156701 -0.01993,-0.1992646 0.02235,-0.6787086 0.102047,-0.8580462 0.07971,-0.1793384 0.0785,-0.2308637 0.0785,-0.2308637 0,0 -0.389274,-0.5827019 -0.09038,-0.9613042 0.298898,-0.3786024 0.564599,-0.8008206 1.444962,-1.1120474 0.594475,-0.2101594 1.196001,-0.377601 1.853573,-0.1783366 0.657573,0.1992644 1.713674,0.2789702 2.371247,1.6538948 0.657573,1.3749246 0.409927,3.0052517 0,4.3041122 -0.224612,0.711688 -0.597793,0.6575729 -0.597793,0.6575729 l 0.259044,0.9365429 c 0,0 0.737278,-0.1394852 0.936543,-0.019925 0.199264,0.1195589 0.557941,1.1557334 0.557941,1.1557334 0,0 0.916617,0.458308 1.494482,0.478235 0.577868,0.01992 1.414779,0.298896 2.032498,1.036175 0.61772,0.737278 0.777132,2.391173 0.956469,4.104847 0.179338,1.713673 0.179338,5.53955 0.01992,7.611902 -0.159413,2.072349 -0.09963,2.490804 -0.358677,3.606685 -0.259044,1.115881 -0.577866,2.171983 -0.518086,2.74985 0.05978,0.577867 -0.179339,1.57419 -0.438382,1.833234 -0.259044,0.259043 -0.358678,-0.179339 -0.657574,0.976394 -0.298897,1.155734 -1.344155,1.805883 -1.344155,1.805883 l 0.02676,1.182083 -14.3647193,-0.118557 c 0,0 -0.378603,-0.797057 -0.7372798,-0.95647 z"
       id="path1"
       sodipodi:nodetypes="ssscsssssssssssscscsscsssssccscsssssssscccss" /></g></svg>
