<?xml version="1.0" encoding="UTF-8" standalone="no"?>
<!-- Created with Inkscape (http://www.inkscape.org/) -->

<svg
   width="100"
   height="100"
   viewBox="0 0 26.458332 26.458332"
   version="1.1"
   id="svg2787"
   inkscape:version="1.3.2 (091e20e, 2023-11-25, custom)"
   sodipodi:docname="mij.svg"
   xmlns:inkscape="http://www.inkscape.org/namespaces/inkscape"
   xmlns:sodipodi="http://sodipodi.sourceforge.net/DTD/sodipodi-0.dtd"
   xmlns:xlink="http://www.w3.org/1999/xlink"
   xmlns="http://www.w3.org/2000/svg"
   xmlns:svg="http://www.w3.org/2000/svg">
  <sodipodi:namedview
     id="namedview2789"
     pagecolor="#ffffff"
     bordercolor="#000000"
     borderopacity="0.25"
     inkscape:showpageshadow="2"
     inkscape:pageopacity="0.0"
     inkscape:pagecheckerboard="0"
     inkscape:deskcolor="#d1d1d1"
     inkscape:document-units="mm"
     showgrid="false"
     inkscape:zoom="2.6456983"
     inkscape:cx="69.546856"
     inkscape:cy="77.295283"
     inkscape:window-width="1920"
     inkscape:window-height="991"
     inkscape:window-x="-9"
     inkscape:window-y="-9"
     inkscape:window-maximized="1"
     inkscape:current-layer="layer1" />
  <defs
     id="defs2784">
    <linearGradient
       id="linearGradient1"
       inkscape:collect="always">
      <stop
         style="stop-color:#9abfcc;stop-opacity:1;"
         offset="0"
         id="stop1" />
      <stop
         style="stop-color:#79ceed;stop-opacity:0.99829352;"
         offset="1"
         id="stop2" />
    </linearGradient>
    <linearGradient
       inkscape:collect="always"
       id="linearGradient127555">
      <stop
         style="stop-color:#ff476b;stop-opacity:1;"
         offset="0"
         id="stop127551" />
      <stop
         style="stop-color:#d10029;stop-opacity:1;"
         offset="1"
         id="stop127553" />
    </linearGradient>
    <linearGradient
       inkscape:collect="always"
       xlink:href="#linearGradient29522"
       id="linearGradient31309"
       gradientUnits="userSpaceOnUse"
       gradientTransform="matrix(0.79324094,-0.60890789,0.79324094,0.60890789,4.892518,-8.867114)"
       x1="14.228266"
       y1="-29.189594"
       x2="3.6590269"
       y2="-18.620356" />
    <linearGradient
       inkscape:collect="always"
       id="linearGradient29522">
      <stop
         style="stop-color:#d4a125;stop-opacity:1;"
         offset="0"
         id="stop29518" />
      <stop
         style="stop-color:#edd495;stop-opacity:1;"
         offset="1"
         id="stop29520" />
    </linearGradient>
    <linearGradient
       inkscape:collect="always"
       xlink:href="#linearGradient29522"
       id="linearGradient31385"
       gradientUnits="userSpaceOnUse"
       gradientTransform="matrix(-0.79324094,-0.60890789,-0.79324094,0.60890789,5.1079993,-8.8671145)"
       x1="14.228266"
       y1="-29.189594"
       x2="3.6590269"
       y2="-18.620356" />
    <linearGradient
       inkscape:collect="always"
       xlink:href="#linearGradient29522"
       id="linearGradient29605"
       gradientUnits="userSpaceOnUse"
       gradientTransform="matrix(0.80013746,-0.61907549,0.80013746,0.61907549,17.509457,-0.36880917)"
       x1="14.228266"
       y1="-29.189594"
       x2="3.6590269"
       y2="-18.620356" />
    <radialGradient
       inkscape:collect="always"
       xlink:href="#linearGradient26559"
       id="radialGradient26561-8-4"
       cx="50.0355"
       cy="10.592171"
       fx="50.0355"
       fy="10.592171"
       r="5.7715068"
       gradientTransform="matrix(0.94966531,1.7729145,-0.98934138,0.4942698,-25.807897,-88.039473)"
       gradientUnits="userSpaceOnUse" />
    <linearGradient
       inkscape:collect="always"
       id="linearGradient26559">
      <stop
         style="stop-color:#ffe9d9;stop-opacity:1;"
         offset="0"
         id="stop26555" />
      <stop
         style="stop-color:#ffd0af;stop-opacity:1;"
         offset="0.60792077"
         id="stop26563" />
      <stop
         style="stop-color:#ffb380;stop-opacity:1;"
         offset="1"
         id="stop26557" />
    </linearGradient>
    <radialGradient
       inkscape:collect="always"
       xlink:href="#linearGradient127555"
       id="radialGradient127557"
       cx="10.793171"
       cy="27.690676"
       fx="10.793171"
       fy="27.690676"
       r="12.047679"
       gradientTransform="matrix(-0.27135395,0.75184774,-1.9400269,-0.70018702,65.853991,28.440177)"
       gradientUnits="userSpaceOnUse" />
    <linearGradient
       inkscape:collect="always"
       xlink:href="#linearGradient1"
       id="linearGradient2"
       x1="15.600796"
       y1="-0.25001192"
       x2="13.700699"
       y2="25.751314"
       gradientUnits="userSpaceOnUse" />
  </defs>
  <g
     inkscape:label="Layer 1"
     inkscape:groupmode="layer"
     id="layer1">
    <rect
       style="fill:url(#linearGradient2);stroke-width:0.220341"
       id="rect1"
       width="27.101383"
       height="27.101385"
       x="-0.40002051"
       y="-0.30001554" />
    <g
       id="g117847"
       transform="matrix(0.67134216,0,0,0.67134216,-82.51628,-11.043571)"
       style="stroke-width:1.48955">
      <path
         id="rect29651"
         style="fill:#b89644;fill-opacity:1;fill-rule:evenodd;stroke-width:0.377152"
         d="m -35.605293,27.319225 c -0.492538,-1e-6 -0.984675,0.144973 -1.362085,0.434689 l -11.14712,8.556916 h 0.0022 V 52.7082 h 25.014637 V 36.31083 h 0.0022 L -34.24267,27.753914 c -0.377408,-0.289716 -0.870084,-0.43469 -1.362623,-0.434689 z" />
      <rect
         style="mix-blend-mode:multiply;fill:#ddd3d3;fill-opacity:1;fill-rule:evenodd;stroke-width:0.385875"
         id="rect31549-1"
         width="22.808271"
         height="19.408148"
         x="-46.973419"
         y="31.062712" />
      <rect
         style="fill:#ffffff;fill-rule:evenodd;stroke-width:0.394111"
         id="rect31549"
         width="22.101128"
         height="20.893148"
         x="-46.655563"
         y="31.252985" />
      <text
         xml:space="preserve"
         style="font-style:normal;font-weight:normal;font-size:15.5252px;line-height:1.25;font-family:sans-serif;fill:#000000;fill-opacity:1;stroke:none;stroke-width:0.361336"
         x="-31.271276"
         y="52.282772"
         id="text33454"
         transform="matrix(0.99810239,0.29980889,-0.22385307,0.93466048,0,0)"><tspan
           sodipodi:role="line"
           id="tspan33452"
           style="font-style:normal;font-variant:normal;font-weight:bold;font-stretch:normal;font-size:15.5252px;font-family:Amiri;-inkscape-font-specification:'Amiri Bold';fill:#ff2e2e;fill-opacity:1;stroke-width:0.361336"
           x="-31.271276"
           y="52.282772">@</tspan></text>
      <path
         id="path31562"
         style="mix-blend-mode:normal;fill:#c5a761;fill-opacity:1;stroke:#000000;stroke-width:0;stroke-linecap:butt;stroke-linejoin:miter;stroke-dasharray:none;stroke-opacity:1"
         d="m -24.548379,36.496118 -11.088147,7.974712 -11.019009,-7.924561 v 2.948302 l 9.953777,8.797419 h 1.995262 l -0.0031,-0.05016 h 0.207925 l 9.953265,-8.797952 z" />
      <g
         id="g31560"
         transform="matrix(1,0,0,0.99165096,-40.605258,66.988617)"
         style="stroke-width:1.48955">
        <g
           id="g31553"
           style="stroke-width:1.48955">
          <path
             id="rect29033-76-4"
             style="fill:url(#linearGradient31309);fill-opacity:1;fill-rule:evenodd;stroke-width:0.439399"
             d="m -7.50924,-30.936074 v 16.535425 c 0.452893,10e-7 0.905606,-0.13307 1.252636,-0.399458 l 10.250021,-7.868254 -10.250021,-7.868254 c -0.34703,-0.266388 -0.799743,-0.399459 -1.252636,-0.399459 z" />
          <path
             id="rect29033-76-4-0"
             style="fill:url(#linearGradient31385);fill-opacity:1;fill-rule:evenodd;stroke-width:0.439399"
             d="m 17.509757,-30.936074 v 16.535425 c -0.452893,10e-7 -0.905606,-0.13307 -1.252636,-0.399458 L 6.0071003,-22.668361 16.257121,-30.536615 c 0.34703,-0.266388 0.799743,-0.399459 1.252636,-0.399459 z" />
        </g>
        <path
           id="rect29033-76-0"
           style="fill:#b89644;fill-opacity:1;fill-rule:evenodd;stroke-width:0.47522"
           d="m 5.0002539,-23.668412 c -0.4725829,-1e-6 -0.9449721,0.149165 -1.3070895,0.447776 l -10.6955936,8.819987 H 17.002935 L 6.3073434,-23.220636 C 5.945226,-23.519247 5.4728368,-23.668413 5.0002539,-23.668412 Z" />
        <path
           id="rect29033-76"
           style="fill:url(#linearGradient29605);fill-opacity:1;fill-rule:evenodd;stroke-width:0.444974"
           d="m 5.0002391,-22.806416 c -0.4568329,-1e-6 -0.9134785,0.135291 -1.2635274,0.406128 l -10.3391353,7.999639 H 16.6029 L 6.2637665,-22.400288 c -0.3500489,-0.270837 -0.8066946,-0.406129 -1.2635274,-0.406128 z" />
      </g>
    </g>
    <path
       id="path13238-1-2-5-8"
       style="fill:#ffba8a;fill-opacity:1;stroke:#000000;stroke-width:0;stroke-linecap:butt;stroke-linejoin:miter;stroke-dasharray:none;stroke-opacity:1"
       d="m 12.208215,14.478114 c -0.711985,0.656215 -1.161208,0.387238 -1.559918,1.28953 -0.39871,0.902298 -0.8544454,2.187377 -0.484214,3.417776 0.370229,1.230398 2.078989,3.062607 2.534659,4.074273 0.455668,1.011658 1.651893,2.32395 2.648666,2.816111 0.996776,0.492161 2.392408,-0.109407 2.848072,-0.08207 0.455674,0.02733 1.253124,-3.827947 1.509444,-4.757582 0.25631,-0.929634 1.822684,-1.640594 0.284805,-3.581894 -1.53788,-1.94129 -0.813217,-3.816854 -0.784739,-4.172305 0.02853,-0.355443 -1.02873,0.256085 -1.228076,0.474826 -0.199362,0.218741 -1.015163,1.06212 -2.204796,1.559079 -1.049314,0.438353 -1.988988,0.32675 -2.216824,-0.05605 -0.227835,-0.382787 -1.520615,-1.566288 -1.520615,-1.566288 z"
       sodipodi:nodetypes="cssssssscssscc" />
    <path
       style="fill:url(#radialGradient26561-8-4);fill-opacity:1;stroke:#000000;stroke-width:0;stroke-linecap:butt;stroke-linejoin:miter;stroke-dasharray:none;stroke-opacity:1"
       d="m 11.785125,4.4711855 c -0.644414,0.9280304 -1.128203,3.7188189 -1.248314,4.5443206 -0.280891,1.9305039 0.654352,4.9215199 1.507528,5.5489239 0.946483,0.696016 1.619491,1.124206 2.26391,1.201536 0.96662,0.116003 1.913097,-0.386673 2.879715,-1.082697 0.680819,-0.490226 1.40165,-0.884117 1.837379,-1.892831 0.102158,-0.236521 0.16522,-0.248952 0.267377,-0.503198 0.04172,-0.103848 0.06902,-0.07697 0.420282,-0.03393 0.217222,0.02661 1.399605,-1.446007 1.482557,-1.874813 0.05656,-0.29237 -1.856112,-0.281522 -1.908476,-0.4395276 C 18.723228,8.2375838 18.064122,8.5927064 17.903015,7.742014 17.741917,6.8913296 16.753546,4.3160454 15.493206,3.3684527 13.919582,3.5145408 12.832297,3.5431665 11.785125,4.4711887 Z"
       id="path12892-7-4-9-0"
       sodipodi:nodetypes="cssssssssssccc" />
    <g
       id="g27721-2-8"
       transform="matrix(0.82629109,0,0,0.79799584,-30.51516,-0.21801671)"
       style="stroke-width:1.21039">
      <ellipse
         style="fill:#aa0000;fill-opacity:1;fill-rule:evenodd;stroke-width:0.320244"
         id="path11936-3-7-4-3"
         cx="56.012829"
         cy="28.856459"
         rx="0.53422982"
         ry="0.59104741" />
      <ellipse
         style="fill:#ffffff;fill-rule:evenodd;stroke-width:0.320249"
         id="path12898-2-3-7-8"
         cx="61.47369"
         cy="-12.193314"
         rx="0.13521306"
         ry="0.17366834"
         transform="matrix(0.78456418,0.62004762,-0.62454848,0.78098604,0,0)" />
    </g>
    <path
       style="fill:url(#radialGradient127557);fill-opacity:1;stroke:#000000;stroke-width:0;stroke-linecap:butt;stroke-linejoin:miter;stroke-dasharray:none;stroke-opacity:0"
       d="M 0.46377735,26.489772 C -0.24311323,26.516945 0.09117974,26.105841 0.39923999,25.471905 0.81310843,24.620229 1.0584346,23.329298 1.2453294,22.783392 1.5273103,21.959753 2.2526343,19.216497 2.8314726,18.59656 3.8889019,17.464053 5.3699345,17.063881 7.6251499,16.606103 9.6330149,16.19853 10.33922,15.748137 10.33922,15.748137 c 0,0 0.341664,1.789908 0.775445,2.608193 0.563964,1.063869 1.029743,1.378397 1.527403,2.173492 1.652886,2.640752 2.127907,4.377133 2.943175,4.570062 0.815266,0.192938 0.93919,-0.778073 1.656223,-2.054131 1.29959,-2.312798 1.017124,-2.506345 1.944913,-3.934414 0.49346,-0.823639 1.004009,-1.844492 1.004009,-1.844492 l 1.604309,0.643348 c 0,0 0.577809,0.06185 1.656634,0.686365 1.304162,0.755002 1.656642,1.750234 1.797631,3.809336 0.05597,0.818011 0.184342,1.625184 0.318688,2.301042 0.203828,1.025405 0.902194,1.814274 -0.195318,1.791415 -0.89032,-0.01854 -2.797067,-0.04056 -2.797067,-0.04056 l -19.6065666,0.02394 c -0.8352,0.0056 -1.6699169,-0.0097 -2.50491693,0.0081 z"
       id="path3866-5-8-8"
       sodipodi:nodetypes="csssscsszscccsssscccc" />
    <path
       style="fill:none;stroke:#848382;stroke-width:0.260456;stroke-linecap:round;stroke-linejoin:miter;stroke-dasharray:none;stroke-opacity:1"
       d="m 12.102977,17.657998 c 0,0 1.100869,3.159677 3.491259,4.429104 0.716805,0.380657 1.941879,-1.236955 2.99546,-4.508908"
       id="path27717-0-1"
       sodipodi:nodetypes="csc" />
    <path
       style="fill:#916f6f;stroke:#000000;stroke-width:0;stroke-linecap:butt;stroke-linejoin:miter;stroke-dasharray:none;stroke-opacity:1"
       d="M 14.024203,1.0987429 C 11.710469,1.577567 9.8925361,3.4130492 9.3141046,4.6899024 8.7356699,5.9667634 7.1656362,9.7973388 7.9919701,10.675181 c 0.826333,0.877843 1.0742337,1.516269 1.0742337,1.516269 0,0 -0.6610671,1.51627 -0.4131665,2.553714 0.2479007,1.037454 0.9089655,2.713326 0.9089655,2.713326 l 0.5784352,-1.356659 c 0,0 -0.08264,1.596066 0.247898,1.915288 0.330534,0.319213 1.726136,1.991908 1.726136,1.991908 0,0 -0.369774,-1.366343 0.433216,-2.624666 0.620737,-0.972727 -0.176152,-2.719002 -0.176152,-2.719002 0,0 -1.404767,-1.835482 -1.570032,-3.271945 -0.165269,-1.4364646 0.2479,-5.9054745 1.652665,-7.1823276 1.23905,-1.1262332 3.2227,-0.9576478 3.2227,-0.9576478 0,0 0.395194,2.8590419 1.4874,4.3093992 0.661062,0.8778345 1.637265,1.5649813 2.024513,2.6734182 0.530621,0.188464 0.824108,0.200603 1.17082,0.296379 0.305541,0.439052 -0.0074,1.184636 -0.327121,1.338992 -0.495802,0.239408 -1.000704,0.05636 -1.000704,0.05636 0,0 -1.206446,4.173847 -0.958545,5.131486 0.247901,0.957649 2.974801,1.67588 2.974801,1.67588 L 20.38697,17.538295 c 0,0 0.661063,0.877843 1.487396,0.877843 0.826334,0 0.991604,-0.478823 0.991604,-0.478823 0,0 -0.684611,0.639724 -0.743703,-0.55863 -0.123947,-2.513815 -0.867649,-1.915288 -1.115549,-2.952732 -0.247901,-1.037446 0.619747,0.558629 1.19818,0.798036 0.578441,0.239408 -0.661064,-0.478824 -0.578433,-1.436463 0.08264,-0.957648 1.693982,-3.232048 1.363451,-4.4291034 C 22.659384,8.1613657 22.364372,5.0087144 20.298536,3.2530374 18.232707,1.4973523 16.117304,0.88640485 14.024203,1.0987429 Z"
       id="path26059-6-5"
       sodipodi:nodetypes="csscsccscscsscsccscsccscssssssc" />
    <path
       style="fill:none;fill-opacity:1;stroke:#685050;stroke-width:0.308588;stroke-linecap:round;stroke-linejoin:round;stroke-miterlimit:8;stroke-dasharray:none;stroke-opacity:1;paint-order:fill markers stroke"
       d="m 15.871325,3.2997451 c -1.58157,0 -2.982987,0.2354421 -3.817581,1.4401064 -0.795376,1.1480548 -1.450344,3.7201205 -1.308885,5.6537505 0.137712,1.882428 0.92221,3.127121 1.565596,4.02886 1.287691,1.804763 2.669339,2.044273 4.542533,0.771495 0.818053,-0.586709 1.547686,-1.170971 2.188895,-3.11644"
       id="path28002"
       sodipodi:nodetypes="cssscc" />
  </g>
</svg>
