<?xml version="1.0" encoding="UTF-8" standalone="no"?>
<!-- Created with Inkscape (http://www.inkscape.org/) -->

<svg
   width="100"
   height="100"
   viewBox="0 0 26.458332 26.458332"
   version="1.1"
   id="svg2787"
   inkscape:version="1.3.2 (091e20e, 2023-11-25, custom)"
   sodipodi:docname="sacks.svg"
   xml:space="preserve"
   xmlns:inkscape="http://www.inkscape.org/namespaces/inkscape"
   xmlns:sodipodi="http://sodipodi.sourceforge.net/DTD/sodipodi-0.dtd"
   xmlns:xlink="http://www.w3.org/1999/xlink"
   xmlns="http://www.w3.org/2000/svg"
   xmlns:svg="http://www.w3.org/2000/svg"><sodipodi:namedview
     id="namedview2789"
     pagecolor="#ffffff"
     bordercolor="#000000"
     borderopacity="0.25"
     inkscape:showpageshadow="2"
     inkscape:pageopacity="0.0"
     inkscape:pagecheckerboard="0"
     inkscape:deskcolor="#d1d1d1"
     inkscape:document-units="mm"
     showgrid="false"
     inkscape:zoom="3.7415823"
     inkscape:cx="100.49224"
     inkscape:cy="34.343759"
     inkscape:window-width="1920"
     inkscape:window-height="991"
     inkscape:window-x="-9"
     inkscape:window-y="-9"
     inkscape:window-maximized="1"
     inkscape:current-layer="layer1" /><defs
     id="defs2784"><linearGradient
       id="linearGradient5"
       inkscape:collect="always"><stop
         style="stop-color:#acdefd;stop-opacity:0.48218527;"
         offset="0"
         id="stop6" /><stop
         style="stop-color:#4b4b79;stop-opacity:1;"
         offset="1"
         id="stop5" /></linearGradient><filter
       inkscape:label="Blur Double"
       inkscape:menu="Blurs"
       inkscape:menu-tooltip="Overlays two copies with different blur amounts and modifiable blend and composite"
       style="color-interpolation-filters:sRGB;"
       id="filter33"
       x="-0.33868694"
       y="-0.80693867"
       width="1.6773739"
       height="2.6138773"><feGaussianBlur
         stdDeviation="5"
         result="fbSourceGraphic"
         id="feGaussianBlur32" /><feGaussianBlur
         stdDeviation="0.01"
         in="SourceGraphic"
         result="result1"
         id="feGaussianBlur33" /><feComposite
         in2="result1"
         operator="arithmetic"
         in="fbSourceGraphic"
         k2="0.5"
         k3="0.5"
         result="result2"
         id="feComposite33" /><feBlend
         in2="fbSourceGraphic"
         mode="normal"
         result="result3"
         id="feBlend33" /></filter><radialGradient
       inkscape:collect="always"
       xlink:href="#linearGradient5"
       id="radialGradient6"
       cx="6.6486993"
       cy="15.694547"
       fx="6.6486993"
       fy="15.694547"
       r="13.579184"
       gradientTransform="matrix(0.65943805,1.9582403,-3.4805003,1.1720595,52.207787,-24.729553)"
       gradientUnits="userSpaceOnUse" /></defs><g
     inkscape:label="Layer 1"
     inkscape:groupmode="layer"
     id="layer1"><rect
       style="fill:url(#radialGradient6);fill-opacity:1;stroke-width:0.272581"
       id="rect1-6"
       width="27.158367"
       height="27.358377"
       x="-0.14142951"
       y="-0.74742734" /><path
       style="fill:#28221c;fill-opacity:0.645875;stroke:none;stroke-width:0;stroke-linecap:round;stroke-dasharray:none"
       d="m 14.614986,47.257147 c 0,-1.090478 0.263219,-4.324319 0.376028,-4.925966 0.112806,-0.601647 -0.338424,-3.309048 -0.488837,-4.399529 -0.150411,-1.090482 -0.150411,-2.105757 -0.150411,-2.105757 0,0 -0.376028,-2.556992 -0.0752,-3.346651 0.30082,-0.789657 0.263218,-1.240894 0.263218,-1.240894 l -0.376029,-0.526438 c 0,0 -0.789663,-0.338425 -1.015277,-1.015275 -0.225613,-0.676853 -0.71445,-3.873094 -0.564039,-5.038778 0.150411,-1.165688 -0.526438,-0.902469 -0.526438,-0.902469 0,0 -0.902469,0.26322 -2.0681586,-0.188014 -1.1656848,-0.451234 -1.1312455,-0.01667 -1.8660599,-0.148523 -0.435481,0.353849 -1.0973243,0.972456 -1.3460865,1.193945 -0.1394577,0.124168 -0.295853,0.124316 -0.4862717,0.0077 l -7.9093102,-4.842197 5.80158,-5.487448 c 0.2887886,-0.273152 0.5430842,-0.211094 0.7697495,-0.06958 l 7.5156354,4.692372 c 0,0 0.178144,-0.252095 0.444034,0.06697 0.303065,0.363685 0.717911,0.744497 0.717911,0.744497 0,0 1.209807,-4.307451 2.459499,-5.264664 -0.13559,-0.510951 1.042754,-1.54104 1.462407,-1.728297 l -0.193909,-0.579844 c 0,0 -0.533052,0.07465 -0.958481,-0.138073 C 15.975116,11.80157 15.451812,11.337757 15.212509,10.578465 15.086141,10.177492 14.953537,9.4410771 14.920596,8.8235778 14.903482,8.502756 14.957043,7.5329874 15.114661,6.9123303 15.17171,6.6876871 15.435674,6.437398 15.330152,6.230342 15.093111,5.7652207 15.284157,5.3048259 15.080139,5.0745051 14.86493,4.8315504 14.761068,4.4363638 15.106719,3.8779905 15.452377,3.3196171 15.23966,2.6548875 15.798038,2.256049 c 0.558373,-0.3988373 2.267927,-0.3544107 3.855435,0.02659 0.664732,0.1595354 1.44904,0.1750851 2.014327,0.8031826 0.239302,0.2658924 0.299388,1.1352788 0.357625,1.5351688 0.0699,0.4800476 0.218218,0.7081648 0.180617,1.4373154 -0.07532,1.4604673 -0.265893,2.6589206 -0.265893,2.6589206 l 0.69132,1.2231026 c 0,0 -0.239303,-0.1595353 0,0.132942 0.239302,0.29248 1.701708,0.877441 2.685509,2.206901 0.9838,1.329462 1.380196,1.831432 1.629176,2.583716 0.243571,0.735942 0.232075,1.191951 0.418199,2.016216 0.186125,0.824267 0.744497,1.542174 0.345659,3.08435 -0.398838,1.542173 -1.063569,3.64272 -1.116746,4.36063 -0.05318,0.717908 -0.239304,2.366439 -0.505195,2.871634 -0.265893,0.505195 -0.771086,1.063567 -0.771086,1.063567 0,0 0.850853,1.595354 0.904031,3.031169 0.05318,1.435817 -0.584962,4.998772 -1.116746,6.275053 -0.531785,1.276282 -1.621941,5.025361 -1.621941,5.530556 0,0.505193 0.478605,1.223102 0.717908,2.073957 0.239303,0.850855 -0.0266,2.579153 -0.0266,2.579153 z"
       id="path2"
       sodipodi:nodetypes="csscsccsscscsscsscsccccssssssssssssccssssssscsssscc" /></g></svg>
