<?xml version="1.0" encoding="UTF-8" standalone="no"?>
<!-- Created with Inkscape (http://www.inkscape.org/) -->

<svg
   width="54"
   height="98"
   viewBox="0 0 14.287509 25.929163"
   version="1.1"
   id="svg2787"
   inkscape:version="1.2.2 (732a01da63, 2022-12-09)"
   sodipodi:docname="experimenten.svg"
   xmlns:inkscape="http://www.inkscape.org/namespaces/inkscape"
   xmlns:sodipodi="http://sodipodi.sourceforge.net/DTD/sodipodi-0.dtd"
   xmlns="http://www.w3.org/2000/svg"
   xmlns:svg="http://www.w3.org/2000/svg">
  <sodipodi:namedview
     id="namedview2789"
     pagecolor="#ffffff"
     bordercolor="#000000"
     borderopacity="0.25"
     inkscape:showpageshadow="2"
     inkscape:pageopacity="0.0"
     inkscape:pagecheckerboard="0"
     inkscape:deskcolor="#d1d1d1"
     inkscape:document-units="mm"
     showgrid="false"
     inkscape:zoom="4.0000002"
     inkscape:cx="11.499999"
     inkscape:cy="38.999998"
     inkscape:window-width="1366"
     inkscape:window-height="705"
     inkscape:window-x="-8"
     inkscape:window-y="-8"
     inkscape:window-maximized="1"
     inkscape:current-layer="layer1"
     inkscape:lockguides="false"
     showguides="true" />
  <defs
     id="defs2784" />
  <g
     inkscape:label="Layer 1"
     inkscape:groupmode="layer"
     id="layer1">
    <path
       id="rect32077-0-9"
       style="fill:#fff4b3;fill-opacity:1;fill-rule:evenodd;stroke-width:0.188698"
       d="m -7.4316149,10.710877 c 0.035475,0.707737 2.3410349,0.439797 3.1654564,0.445981 0.2981276,-0.0036 0.3484538,-0.31009 0.3460525,-0.510307 l -2.567e-4,-0.02126 c -0.0024,-0.200216 -0.2443432,-0.358521 -0.5424707,-0.354943 l -2.3026879,0.02764 c -0.2981278,0.0036 -0.6884305,-0.03274 -0.6660936,0.412892 z"
       sodipodi:nodetypes="scsssss" />
    <g
       id="g69282"
       transform="translate(-0.33593321,-0.72760413)">
      <rect
         style="fill:#a57e3b;fill-opacity:1;fill-rule:evenodd;stroke:#848382;stroke-width:0;stroke-dasharray:none;stroke-opacity:1"
         id="rect36182"
         width="0.87694013"
         height="2.9816287"
         x="7.0217299"
         y="19.394548"
         rx="0.56707847"
         ry="0.56707746"
         transform="matrix(0.99999955,-9.4788263e-4,9.3302365e-4,0.99999956,0,0)" />
      <rect
         style="fill:#dea43f;fill-opacity:1;fill-rule:evenodd;stroke-width:0.188699"
         id="rect32077"
         width="1.4468771"
         height="10.49292"
         x="6.736762"
         y="9.9878912"
         rx="0.56707847"
         ry="0.56707746"
         transform="matrix(0.99999955,-9.4788263e-4,9.3304355e-4,0.99999956,0,0)" />
      <path
         style="fill:#e5b869;fill-opacity:1;stroke:#fff4b3;stroke-width:0.762;stroke-linecap:round;stroke-linejoin:round;stroke-miterlimit:8;stroke-dasharray:none;stroke-opacity:1;paint-order:fill markers stroke"
         d="m 7.726223,11.582065 v 6.109386"
         id="path35166"
         sodipodi:nodetypes="cc" />
      <rect
         style="fill:#dea43f;fill-opacity:1;fill-rule:evenodd;stroke-width:0.188698"
         id="rect32077-0"
         width="1.4468927"
         height="4.4126892"
         x="9.6336327"
         y="4.9637084"
         rx="0.56707746"
         ry="0.56707847"
         transform="matrix(0.01199216,0.99992809,0.99992799,-0.01200047,0,0)" />
      <path
         id="rect32139"
         style="fill:#756653;fill-opacity:1;fill-rule:evenodd;stroke-width:0.188698"
         d="m 6.4776579,19.408003 c -0.1465499,0.04757 -0.076704,0.50755 -0.04501,0.658328 0.1101055,0.523729 0.4136148,0.717155 0.908211,0.716686 L 7.6012041,20.78277 C 8.0957999,20.782301 8.491217,20.591719 8.5519576,20.100863 8.5809616,19.86637 8.6021856,19.43978 8.4562986,19.390257 7.6977838,19.184825 7.1611117,19.186168 6.4776579,19.407997 Z"
         sodipodi:nodetypes="csssscc" />
      <g
         id="g67732"
         transform="translate(3.8782267,2.8147054)">
        <path
           style="fill:#a38787;fill-opacity:1;stroke:#99a6b4;stroke-width:0;stroke-linecap:square;stroke-linejoin:round;stroke-miterlimit:8;stroke-dasharray:none;paint-order:fill markers stroke;stop-color:#000000"
           d="M 3.6014565,18.895953 C 2.8637949,18.579381 1.304926,18.415781 0.37512403,18.708864 c 0,2.167479 -0.2902315,5.542502 3.22633247,6.758578"
           id="path65043"
           sodipodi:nodetypes="ccc" />
        <path
           style="fill:#c3b1b1;fill-opacity:1;stroke:#99a6b4;stroke-width:0;stroke-linecap:square;stroke-linejoin:round;stroke-miterlimit:8;stroke-dasharray:none;paint-order:fill markers stroke;stop-color:#000000"
           d="m 3.6014565,18.895953 c 0.7376616,-0.316572 2.2965305,-0.480172 3.2263325,-0.187089 0,2.167479 0.2902315,5.542502 -3.2263325,6.758578"
           id="path65043-4"
           sodipodi:nodetypes="ccc" />
      </g>
      <path
         style="fill:#e5b869;fill-opacity:1;stroke:#fff4b3;stroke-width:0.762;stroke-linecap:round;stroke-linejoin:round;stroke-miterlimit:8;stroke-dasharray:none;stroke-opacity:1;paint-order:fill markers stroke"
         d="m 8.9417925,9.9658874 -3.193139,0.029559"
         id="path35166-5"
         sodipodi:nodetypes="cc" />
    </g>
  </g>
</svg>
