<?xml version="1.0" encoding="UTF-8" standalone="no"?>
<!-- Created with Inkscape (http://www.inkscape.org/) -->

<svg
   width="100"
   height="100"
   viewBox="0 0 26.458332 26.458332"
   version="1.1"
   id="svg2787"
   inkscape:version="1.2.2 (732a01da63, 2022-12-09)"
   sodipodi:docname="picto-werk.svg"
   xmlns:inkscape="http://www.inkscape.org/namespaces/inkscape"
   xmlns:sodipodi="http://sodipodi.sourceforge.net/DTD/sodipodi-0.dtd"
   xmlns="http://www.w3.org/2000/svg"
   xmlns:svg="http://www.w3.org/2000/svg">
  <sodipodi:namedview
     id="namedview2789"
     pagecolor="#ffffff"
     bordercolor="#000000"
     borderopacity="0.25"
     inkscape:showpageshadow="2"
     inkscape:pageopacity="0.0"
     inkscape:pagecheckerboard="0"
     inkscape:deskcolor="#d1d1d1"
     inkscape:document-units="mm"
     showgrid="false"
     inkscape:zoom="1.8707912"
     inkscape:cx="38.219124"
     inkscape:cy="78.041847"
     inkscape:window-width="1366"
     inkscape:window-height="705"
     inkscape:window-x="-8"
     inkscape:window-y="-8"
     inkscape:window-maximized="1"
     inkscape:current-layer="layer1" />
  <defs
     id="defs2784" />
  <g
     inkscape:label="Layer 1"
     inkscape:groupmode="layer"
     id="layer1">
    <rect
       style="fill:#9be9e9;fill-opacity:1;fill-rule:evenodd;stroke-width:0.264583"
       id="rect29723"
       width="22.601154"
       height="22.601154"
       x="1.9285895"
       y="1.9285895"
       rx="1.5000765"
       ry="1.5000765" />
    <rect
       style="fill:#c3f2f2;fill-opacity:1;fill-rule:evenodd;stroke-width:0.264583"
       id="rect29723-6-7"
       width="22.601154"
       height="22.601154"
       x="-50.102558"
       y="33.073692"
       rx="1.5000765"
       ry="1.5000765" />
    <g
       aria-label="Werk"
       transform="rotate(-30,1.7827281,1.2462756)"
       id="text34373"
       style="font-style:italic;font-weight:bold;font-size:12.6778px;line-height:1.3;font-family:Amiri;-inkscape-font-specification:'Amiri Bold Italic';text-align:center;text-anchor:middle;fill:#ff4e4e;stroke:#16e2ff;stroke-width:0;stroke-linecap:round;stroke-linejoin:round;stroke-miterlimit:8;paint-order:fill markers stroke;stop-color:#000000;fill-opacity:1">
      <path
         d="m -5.0515045,13.517166 q 0.8356948,0 1.6342477,-0.08666 0.030952,0.05571 0,0.229043 -0.030952,0.167139 -0.086665,0.229042 -0.7428398,0.0619 -0.7428398,0.482846 0,0.241423 0.074284,0.779982 l 0.4704652,3.36754 q 1.9932869,-3.825625 2.4266102,-4.630368 0.099045,-0.18571 0.2290423,-0.321897 0.12999695,-0.136188 0.2166616,-0.136188 0.0619033,0 0.0990453,0.198091 l 0.92854982,5.348447 Q 1.8692865,15.572361 2.0673771,15.17618 q 0.037142,-0.08047 0.1176163,-0.247613 0.080474,-0.17333 0.129997,-0.278565 0.055713,-0.105236 0.1052357,-0.235233 0.049523,-0.136187 0.068094,-0.229042 0.037142,-0.222852 -0.8418852,-0.297136 -0.024761,-0.0619 0.012381,-0.229042 0.037142,-0.17333 0.086665,-0.229043 0.9347401,0.08666 1.3494924,0.08666 0.2909456,0 0.7242688,-0.03714 0.4333233,-0.04333 0.5880816,-0.04952 0.030952,0.05571 -0.00619,0.229043 -0.037142,0.167139 -0.092855,0.229042 -0.012381,0 -0.086665,0.0062 -0.068094,0.0062 -0.1176163,0.01238 -0.049523,0 -0.1361873,0.01238 -0.080474,0.01238 -0.148568,0.03095 -0.061903,0.01238 -0.1361873,0.03714 -0.068094,0.01857 -0.1238066,0.04952 -0.055713,0.03095 -0.092855,0.07428 -0.3961813,0.439513 -0.6809365,1.027595 -0.9656919,1.943764 -3.04564346,5.992242 -0.12380664,0.235232 -0.30332627,0.433323 -0.17951964,0.19809 -0.27856495,0.19809 -0.11142598,0 -0.18570992,-0.173329 l -0.9037885,-5.137976 q -1.4485377,2.853744 -2.3647069,4.630369 -0.1052356,0.19809 -0.2785649,0.439513 -0.167139,0.241423 -0.2538037,0.241423 -0.1114259,0 -0.1857099,-0.173329 l -0.8542658,-6.276997 q -0.018571,-0.1919 -0.1361874,-0.990453 -0.018571,-0.111426 -0.1176163,-0.19809 -0.099045,-0.09285 -0.2352326,-0.136188 -0.1361873,-0.04952 -0.2352326,-0.06809 -0.099045,-0.02476 -0.1795196,-0.03095 -0.037142,-0.0619 0,-0.229042 0.037142,-0.167139 0.086665,-0.229043 0.7614109,0.08666 1.6342477,0.08666 z"
         id="path34407"
         style="fill:#ff4e4e;fill-opacity:1" />
      <path
         d="m 5.9239542,16.067583 q 0.2538036,0 0.4828459,0.0619 0.2290423,0.05571 0.4333233,0.17952 0.2104713,0.123806 0.3342779,0.359039 0.1238067,0.229042 0.1238067,0.538559 0,0.445704 -0.3466586,0.860456 -0.3466586,0.408562 -0.8356949,0.668556 -0.4890362,0.259994 -0.9656918,0.414752 -0.4766556,0.148568 -0.7861722,0.148568 -0.024761,0.07428 -0.024761,0.309517 0,0.1919 0.030952,0.365229 0.037142,0.167139 0.1114259,0.334278 0.080474,0.167139 0.2352327,0.266185 0.1547583,0.09905 0.3776102,0.09905 0.086665,0 0.18571,-0.02476 0.099045,-0.02476 0.1919003,-0.06809 0.092855,-0.04952 0.1857099,-0.105236 0.092855,-0.05571 0.1733293,-0.123806 0.086665,-0.06809 0.1609487,-0.129997 0.074284,-0.0619 0.1361873,-0.123807 0.068094,-0.06809 0.1052356,-0.111426 0.037142,-0.04333 0.074284,-0.08047 l 0.037142,-0.03714 q 0.074284,0 0.129997,0.148568 0.055713,0.142377 0.055713,0.222852 -0.068094,0.111426 -0.3280876,0.346658 -0.2538036,0.235233 -0.5880816,0.489037 -0.3342779,0.247613 -0.7242688,0.439513 -0.389991,0.18571 -0.6623656,0.18571 -0.6623655,0 -1.0461661,-0.476656 -0.3776103,-0.476655 -0.3776103,-1.330921 0,-0.668556 0.2847553,-1.368063 0.2909456,-0.699508 0.7366495,-1.231876 0.4457039,-0.538559 1.0090242,-0.879028 0.5695105,-0.346658 1.0894984,-0.346658 z m -1.5228217,2.760888 q 0.1795197,0 0.4209426,-0.154758 0.2476133,-0.160949 0.4704652,-0.408562 0.222852,-0.247614 0.3776103,-0.588082 0.1547583,-0.340468 0.1547583,-0.668556 0,-0.482846 -0.3218973,-0.482846 -0.2104713,0 -0.4147522,0.266185 -0.1980906,0.266184 -0.3404683,0.649985 -0.1361873,0.3838 -0.2290423,0.75522 -0.092855,0.37142 -0.1176163,0.631414 z"
         id="path34409"
         style="fill:#ff4e4e;fill-opacity:1" />
      <path
         d="m 12.126667,16.067583 q 0.247614,0 0.37142,0.03714 0.129997,0.03095 0.309517,0.123806 0.198091,0.247614 0.198091,0.54475 0,0.414752 -0.222852,0.656175 -0.216662,0.235233 -0.495227,0.235233 -0.111426,0 -0.210471,-0.03095 -0.09286,-0.03714 -0.216662,-0.111426 -0.123806,-0.07428 -0.142377,-0.08047 -0.02476,-0.01238 -0.07428,-0.03714 -0.04952,-0.03095 -0.06809,-0.03714 -0.01857,-0.0062 -0.06809,-0.01238 -0.04952,-0.01238 -0.123806,-0.01238 -0.17952,0 -0.501417,0.451895 -0.321898,0.451894 -0.649985,1.207114 -0.3280878,0.755221 -0.4952268,1.498061 l -0.2476132,1.12664 q -0.2476133,0.07428 -0.6933172,0.07428 -0.4333233,0 -0.7304592,-0.07428 l 0.7304592,-3.825625 q 0.061903,-0.247613 0.061903,-0.408562 0,-0.09286 -0.049523,-0.173329 -0.049523,-0.08666 -0.1361873,-0.08666 -0.1733293,0 -0.5014169,0.321897 -0.3218973,0.321898 -0.3776102,0.433323 -0.055713,0 -0.1176164,-0.129996 -0.055713,-0.129997 -0.055713,-0.204281 0.2042809,-0.383801 0.8356948,-0.934741 0.6376042,-0.550939 1.0833081,-0.550939 0.3776103,0 0.6004621,0.229042 0.229042,0.229042 0.229042,0.649985 0,0.18571 -0.111426,0.74284 -0.01238,0.06809 -0.05571,0.266184 -0.04333,0.198091 -0.08047,0.36523 -0.03714,0.167139 -0.03714,0.160948 0.148568,-0.55713 0.507607,-1.12045 0.359039,-0.56951 0.779982,-0.92855 0.427133,-0.365229 0.75522,-0.365229 z"
         id="path34411"
         style="fill:#ff4e4e;fill-opacity:1" />
      <path
         d="m 17.487494,16.067583 q 1.015214,0 1.015214,0.891408 0,0.290945 -0.19809,0.581891 -0.198091,0.290945 -0.526178,0.526178 -0.321898,0.229042 -0.680937,0.408562 -0.352849,0.17952 -0.724269,0.303326 0.09286,0.266185 0.216662,0.54475 0.129997,0.278564 0.303326,0.588081 0.173329,0.309517 0.37761,0.507607 0.204281,0.191901 0.389991,0.191901 0.136188,0 0.328088,-0.154759 0.198091,-0.154758 0.315707,-0.290945 0.117616,-0.136188 0.19809,-0.247614 0.08047,0 0.123807,0.123807 0.04952,0.117616 0.04952,0.198091 -0.123807,0.328087 -0.74903,0.885217 -0.625224,0.55094 -1.120451,0.55094 -0.272374,0 -0.538558,-0.191901 -0.259994,-0.19809 -0.451895,-0.476655 -0.1919,-0.278565 -0.37761,-0.656175 -0.17952,-0.383801 -0.290946,-0.680937 -0.105235,-0.303326 -0.19809,-0.619033 l -0.507607,2.575178 q -0.247614,0.07428 -0.693318,0.07428 -0.433323,0 -0.730459,-0.07428 1.219496,-6.295568 1.324731,-6.933172 0.111426,-0.532368 0.111426,-0.656175 0,-0.235233 -0.75522,-0.235233 -0.02476,-0.03714 -0.0062,-0.179519 0.01857,-0.142378 0.05571,-0.17952 0.476656,-0.04333 1.238067,-0.198091 0.761411,-0.154758 0.990453,-0.235232 0.07428,0.04333 0.07428,0.235232 0,0.17952 -0.160949,0.92855 l -0.606652,3.231354 q 0.0619,-0.136188 0.266184,-0.346659 0.204281,-0.216662 0.495227,-0.439514 0.290945,-0.229042 0.680936,-0.389991 0.396181,-0.160948 0.761411,-0.160948 z m -0.92855,0.92855 q -0.253803,0 -0.544749,0.204281 -0.284755,0.19809 -0.489036,0.464275 -0.204281,0.266184 -0.340469,0.519987 -0.136187,0.253804 -0.136187,0.37142 0.396181,0 0.817124,-0.148568 0.427133,-0.148568 0.730459,-0.420942 0.309517,-0.278565 0.309517,-0.594272 0,-0.136187 -0.08047,-0.266184 -0.08047,-0.129997 -0.266184,-0.129997 z"
         id="path34413"
         style="fill:#ff4e4e;fill-opacity:1" />
    </g>
    <rect
       style="fill:#c3f2f2;fill-opacity:1;fill-rule:evenodd;stroke-width:0.264583"
       id="rect29723-6"
       width="22.601154"
       height="22.601154"
       x="-25.33427"
       y="18.682281"
       rx="1.5000765"
       ry="1.5000765" />
    <text
       xml:space="preserve"
       style="font-style:italic;font-variant:normal;font-weight:bold;font-stretch:normal;font-size:12.6778px;line-height:1.3;font-family:Amiri;-inkscape-font-specification:'Amiri Bold Italic';text-align:center;text-anchor:middle;fill:#ff7f7f;fill-opacity:1;stroke:#16e2ff;stroke-width:0;stroke-linecap:round;stroke-linejoin:round;stroke-miterlimit:8;stroke-dasharray:none;paint-order:fill markers stroke;stop-color:#000000"
       x="-26.217978"
       y="22.504192"
       id="text34373-2"
       transform="rotate(-30)"><tspan
         sodipodi:role="line"
         id="tspan34371-1"
         style="stroke-width:0"
         x="-26.217978"
         y="22.504192">Werk</tspan></text>
  </g>
</svg>
